<svg width="91" height="188" viewBox="0 0 91 188" fill="none" xmlns="http://www.w3.org/2000/svg">
<path d="M79.1291 79.3046C78.9128 78.1514 78.6966 76.9261 78.4804 75.7728C78.4804 75.6286 78.4804 75.4124 78.4804 75.1962C78.4804 74.9799 78.4083 74.7637 78.3362 74.5475C78.2641 74.1871 78.2641 73.8267 78.1921 73.3942C78.1921 73.2501 78.12 73.1059 78.0479 72.9617C77.7596 71.6643 77.3992 70.3669 76.9667 69.0695C76.8226 68.637 76.6784 68.2046 76.5343 67.8442V67.7721C76.4622 67.6279 76.3901 67.4838 76.3901 67.3396C76.0297 66.6188 75.381 66.4026 74.6602 66.4747C74.8044 66.0422 74.7323 65.6097 74.444 65.1773L72.2095 61.7896C72.2816 61.4292 72.2095 61.0688 72.0654 60.6363C71.4167 59.3389 70.6959 58.5461 69.3985 57.8253C69.1823 57.6811 68.8939 57.609 68.6777 57.609C68.7498 55.5908 67.2361 54.2213 65.9387 52.7077C64.0647 50.4012 62.1906 48.0947 60.2445 45.7882C56.2802 41.031 52.1717 36.418 47.9912 31.805C47.6308 31.4446 47.2704 31.3004 46.8379 31.3004C46.6217 30.7959 46.2613 30.3634 45.6126 30.0751C45.7568 29.5705 45.9009 28.9939 45.973 28.4173C46.3334 26.4711 43.7386 25.1737 42.6574 27.0478C41.9366 28.2731 41.36 29.4984 40.8554 30.7959C40.0626 30.6517 39.1976 31.0121 38.9814 32.0212C38.7651 32.8861 38.5489 33.7511 38.4768 34.6881C37.1794 36.2017 36.0262 37.8595 35.0171 39.5894C34.8008 39.9498 34.7288 40.3102 34.8008 40.5985C34.5846 40.6706 34.3684 40.8148 34.1521 41.1031C33.4313 41.8959 32.7106 42.7609 31.9898 43.6258C31.1969 44.5628 30.404 45.4278 29.6112 46.2927C29.5391 46.2927 29.467 46.3648 29.467 46.3648C28.1696 47.1577 27.0164 48.0947 26.0073 49.0317C25.791 49.1038 25.5748 49.1759 25.3586 49.3921C22.8358 51.4824 20.3131 53.5006 17.7903 55.5908C17.0695 56.2395 17.0695 57.0324 17.4299 57.609C17.4299 57.609 17.3579 57.609 17.3579 57.6811C13.6818 60.7084 11.5916 64.6727 10.7987 69.2137C8.42012 72.9617 8.20389 77.5027 9.93377 81.5391C9.86169 81.6832 9.78961 81.8995 9.71753 82.0436C9.06883 85.8638 9.57338 89.3236 11.3033 92.7833C11.4474 93.0716 11.6637 93.2879 11.8799 93.432C12.3844 94.4411 13.0331 95.3781 13.7539 96.3152C14.1143 96.8197 14.9072 96.9639 15.4838 96.7476C15.5559 96.7476 15.628 96.6756 15.7 96.6756C16.2046 98.1892 17.2858 99.4145 18.8715 100.352C19.5923 100.784 20.241 100.64 20.7455 100.279C21.8267 101.144 22.8358 101.865 23.6287 102.226C23.7008 102.226 23.7728 102.298 23.8449 102.298C23.9891 102.37 24.0611 102.514 24.2053 102.586C24.5657 102.946 24.9261 103.307 25.2865 103.667C27.0164 105.181 30.0437 107.487 32.5664 107.199C33.9359 108.496 35.8099 109.073 37.8281 108.785C38.1164 108.785 38.4048 108.857 38.6931 108.785C40.423 109.65 42.2249 109.073 43.8106 107.992C44.6756 107.992 45.6126 107.631 46.4055 107.127C47.6308 108.352 49.4328 108.208 51.1626 107.343C51.451 107.487 51.8834 107.487 52.2438 107.343C52.7484 107.127 53.2529 106.983 53.7575 106.767C54.0458 106.839 54.3341 106.839 54.6224 106.767C55.127 106.622 55.5594 106.478 55.9919 106.334C57.2172 106.118 58.3705 105.685 59.5958 105.109C60.1004 105.181 60.6049 105.037 61.0374 104.676C61.2536 104.532 61.3978 104.388 61.614 104.172C62.1906 104.316 62.8394 104.244 63.3439 103.811C64.9296 102.586 66.3712 101.216 67.7407 99.847C71.2725 97.8288 73.9394 94.8736 75.4531 91.1255C75.9576 90.2606 76.4622 89.3956 76.8226 88.5307C77.8317 86.6567 78.4804 84.5664 78.7687 82.2599C78.8408 81.8274 78.6966 81.3228 78.4804 80.9625C78.9849 80.6021 79.2732 80.0254 79.1291 79.3046ZM68.7498 78.0072C68.6777 78.0072 68.6056 78.0793 68.5336 78.1514C67.8848 76.9981 67.2361 75.8449 66.6595 74.6916C67.3082 75.8449 68.029 76.9261 68.7498 78.0072ZM57.5776 80.6021C57.4335 80.7462 57.3614 80.8904 57.2172 81.0345C57.2172 81.0345 57.1452 81.0345 57.1452 81.1066C57.001 80.1696 56.8568 79.2326 56.7127 78.2235C57.001 79.0163 57.2893 79.8092 57.5776 80.6021Z" fill="#FED530"/>
<path d="M30.2596 130.12C30.5479 128.895 29.683 127.525 28.0972 127.886C26.944 128.174 25.7907 128.606 24.7096 128.967C24.5654 128.967 24.4212 128.967 24.2771 129.039C22.9076 129.471 21.6102 129.976 20.3128 130.552C19.6641 130.697 19.0874 130.913 18.5829 131.129C18.5108 131.129 18.5108 131.129 18.4387 131.201C17.5017 131.489 16.7088 131.922 15.916 132.427C14.7627 131.994 13.3212 132.21 12.0958 133.364C12.0958 133.364 12.0958 133.364 12.0237 133.436C11.6634 133.508 11.303 133.652 11.0146 133.868C10.5101 134.156 10.0776 134.589 9.71723 135.165C9.42892 135.31 9.14061 135.526 8.92437 135.814C8.27566 135.886 7.55488 136.103 6.90617 136.463C5.825 136.823 5.03213 137.76 4.67174 138.914C4.38343 139.202 4.16719 139.634 3.95096 140.139C3.37433 141.725 4.09511 143.166 5.39253 143.743C5.75292 143.959 6.18539 144.031 6.61786 143.959C6.68994 143.959 6.76202 143.959 6.8341 143.959C7.41072 143.887 7.98735 143.743 8.56398 143.527C9.14061 143.455 9.64515 143.238 10.2218 142.95C10.2939 142.95 10.2939 143.022 10.3659 143.022C13.0328 144.608 15.6277 142.59 17.1413 140.139C17.2134 140.067 17.2134 139.995 17.2855 139.995C17.2855 139.995 17.3575 139.995 17.3575 139.923C17.79 139.995 18.2225 139.995 18.655 139.706C19.6641 139.058 20.6732 138.337 21.6102 137.688C24.7096 136.247 27.4485 134.445 29.8992 131.994C30.3317 131.273 30.4037 130.697 30.2596 130.12Z" fill="#FED530"/>
<path d="M61.5421 169.979C61.9025 169.547 62.1908 169.042 62.335 168.538C64.3532 164.357 65.146 159.744 64.6415 155.059C64.6415 154.915 64.5694 154.699 64.4973 154.555C64.7136 152.104 64.5694 149.581 64.1369 147.131C63.9207 145.833 62.6954 145.617 61.6863 146.049C60.3889 138.265 57.5057 130.913 53.181 124.282C52.6044 123.345 51.5953 123.273 50.8024 123.633C49.0725 121.11 47.1985 118.732 45.0362 116.425C43.4504 114.695 40.9277 117.29 42.5134 118.948C42.5134 118.948 42.5134 118.948 42.5134 119.02C42.3692 119.164 42.2251 119.308 42.0809 119.524C41.7926 119.885 41.5043 120.245 41.216 120.606C40.7835 120.606 40.4231 120.822 40.1348 121.182C39.342 120.606 37.9004 120.75 37.3958 121.687C34.4406 127.165 31.99 132.787 30.1159 138.625C26.8724 145.761 25.1425 153.618 25.2867 161.69C25.2867 163.132 26.5841 163.709 27.6652 163.348C27.8094 164.718 28.0256 166.159 28.314 167.529C28.0977 169.114 28.4581 171.277 28.8906 172.718C29.1068 175.313 29.9718 177.836 31.8458 179.566C32.2783 179.998 32.8549 180.215 33.4315 180.359C34.6569 181.512 36.0263 182.161 37.3958 181.44C37.4679 181.512 37.54 181.584 37.6121 181.584C38.0445 181.944 38.5491 182.089 38.9816 182.089C40.0627 183.314 41.5043 184.035 43.1621 184.035C44.1712 184.179 45.1803 184.035 46.2615 183.674C46.694 183.53 47.1985 183.17 47.4147 182.665C47.631 184.035 49.1446 184.828 50.442 183.746C51.9557 182.521 53.3972 181.152 54.7667 179.782C55.4154 180.215 56.2804 180.287 56.9291 179.494C58.8031 177.403 60.1005 175.169 61.1096 172.574C61.3259 171.925 61.2538 171.421 60.8934 171.061C61.1096 170.7 61.3259 170.34 61.5421 169.979Z" fill="#FED530"/>
<path d="M85.6886 138.049C85.3282 137.688 84.9678 137.328 84.6074 137.039C84.6074 136.607 84.4633 136.175 84.1029 135.742C83.1658 134.805 82.5171 133.94 81.9405 132.787C81.3639 131.706 79.9223 131.778 79.1295 132.426C78.9853 132.066 78.7691 131.778 78.4087 131.562C76.6067 130.48 74.7327 129.615 72.7145 128.967C72.2099 128.823 71.7054 128.895 71.345 129.183C70.8404 128.895 70.3359 128.678 69.8313 128.39C69.2547 128.102 68.6781 128.102 68.2456 128.318C67.2365 127.597 66.2274 126.804 65.2183 126.084C64.2813 125.363 63.128 126.011 62.6956 126.949C62.191 126.804 61.6865 126.66 61.1098 126.516C60.0287 126.3 58.8033 127.021 58.8033 128.246C58.5871 128.318 58.4429 128.39 58.2267 128.462C56.1364 129.399 57.9384 132.499 60.0287 131.562C60.1728 131.778 60.3891 131.994 60.6053 132.138C61.5423 132.643 62.4793 133.003 63.4163 133.219C63.4884 133.291 63.5605 133.363 63.6326 133.436C63.7047 133.796 63.8488 134.156 64.0651 134.445C68.0294 139.13 73.2911 142.013 79.2736 142.95C79.4898 143.022 79.7782 143.094 79.9944 143.166C80.2827 143.238 80.571 143.238 80.8593 143.166C81.0035 143.166 81.0756 143.166 81.2197 143.238C81.508 143.238 81.7243 143.238 81.9405 143.094C82.3009 143.166 82.7334 143.238 83.0938 143.238C83.3821 143.238 83.6704 143.166 83.8866 143.094C84.6795 143.094 85.184 142.59 85.4724 142.013C85.9769 141.58 86.1931 140.86 85.9769 140.139C86.4094 139.49 86.3373 138.697 85.6886 138.049Z" fill="#FED530"/>
<path d="M57.8662 7.65866C56.7851 4.34305 53.9019 0.522895 49.9376 0.883287C45.9012 1.24368 44.0272 5.49631 43.0901 8.88399C40.1349 19.2633 43.3785 28.7776 49.8655 36.9946C61.6864 52.059 84.319 64.7448 76.8229 87.3774C72.4982 100.424 60.6052 105.902 47.7032 107.199C36.2427 108.352 22.1874 104.965 14.9075 95.5223C7.26716 85.6475 7.55548 72.6013 14.1867 62.3662C19.2322 54.5096 26.7283 48.6713 33.0712 41.968C40.5674 34.0394 46.8382 24.4529 45.1804 13.0645C44.6038 9.10023 43.4505 3.04564 39.27 1.1716C34.729 -0.846596 30.8368 3.55019 29.5394 7.44242C28.8186 9.67686 32.2784 10.6139 32.9992 8.37944C33.4316 7.00995 34.2966 5.28007 35.8102 4.70344C37.6843 3.98266 39.0538 5.13592 39.8466 6.8658C41.072 9.46062 41.6486 12.56 41.8648 15.3711C42.2973 21.2094 40.1349 26.4711 37.0356 31.3004C32.2784 38.6524 25.4309 44.2745 19.3763 50.4733C13.6101 56.3837 8.34834 63.1591 6.33014 71.3039C3.95155 80.8904 6.61846 91.2697 12.8893 98.7658C19.7367 106.911 29.9719 109.722 40.207 110.659C49.9376 111.524 61.1818 109.722 69.2546 103.739C76.8949 98.1171 81.58 88.7469 81.7963 79.3046C82.0125 70.2948 77.904 62.222 72.2819 55.5187C66.1553 48.0226 58.2266 42.0401 52.2441 34.2556C48.8564 29.8588 45.9733 24.5971 45.5408 18.975C45.3246 15.5152 45.8291 11.9113 46.9103 8.66776C47.4869 7.08203 47.9915 5.64046 49.6493 4.99176C52.0279 4.05474 53.6857 6.57748 54.3344 8.59568C55.1273 10.8301 58.587 9.89309 57.8662 7.65866Z" fill="black"/>
<path d="M53.9735 185.044C66.1548 178.629 68.0288 161.69 66.371 149.509C64.4249 135.67 57.2891 122.768 46.4053 113.902C45.6124 113.254 44.6754 113.254 43.8825 113.902C30.2597 125.219 22.1149 143.094 23.4843 160.897C24.061 168.394 26.0071 176.827 31.6292 182.233C37.6117 187.927 46.6215 188.287 53.9735 185.044C56.0638 184.107 54.2618 181.007 52.1716 181.944C44.3871 185.404 35.5214 183.17 31.1967 175.746C27.6649 169.763 26.7279 162.195 26.9441 155.347C27.4487 140.283 34.8007 126.012 46.4053 116.425C45.5403 116.425 44.6754 116.425 43.8825 116.425C53.5411 124.282 60.1002 135.238 62.4788 147.491C64.6411 158.735 63.7762 175.89 52.2436 181.944C50.0813 183.026 51.8833 186.125 53.9735 185.044Z" fill="black"/>
<path d="M90.0131 139.851C88.1391 134.012 80.9313 130.408 75.5975 128.246C69.4708 125.723 62.8396 124.426 56.2804 125.363C55.0551 125.507 54.6947 127.093 55.1993 128.03C59.3077 135.382 66.5156 140.86 74.1559 144.175C78.841 146.193 91.0943 149.581 90.0131 140.283C89.7248 137.977 86.1209 137.977 86.4092 140.283C87.2021 147.13 72.2098 139.274 70.1195 137.977C65.4344 135.021 61.1097 131.129 58.3707 126.156C58.0103 127.021 57.6499 127.886 57.2895 128.823C62.4071 128.102 67.6688 129.111 72.426 130.841C76.9669 132.499 84.8956 135.742 86.5534 140.788C87.2742 143.022 90.7339 142.085 90.0131 139.851Z" fill="black"/>
<path d="M4.16772 140.788C5.82552 135.742 13.6821 132.499 18.2951 130.841C23.1243 129.111 28.314 128.102 33.4316 128.823C33.0712 127.958 32.7108 127.093 32.3504 126.156C29.6114 131.129 25.2867 135.021 20.4574 137.977C18.2951 139.274 3.37485 147.058 4.16772 140.283C4.45603 137.977 0.852107 137.977 0.563793 140.283C-0.517384 149.581 11.736 146.193 16.4211 144.175C24.0614 140.86 31.2692 135.382 35.3777 128.03C35.8822 127.093 35.5218 125.579 34.2965 125.363C27.7374 124.426 21.1061 125.723 14.9795 128.246C9.71776 130.408 2.50991 133.94 0.563793 139.851C-0.0128347 142.013 3.44693 143.022 4.16772 140.788Z" fill="black"/>
<path d="M25.2873 72.5293C23.6295 63.8799 37.8289 63.8078 36.6036 69.4299C36.099 71.6643 39.5588 72.6734 40.0633 70.3669C41.3608 64.3844 35.3782 60.9967 30.0444 61.7896C24.3502 62.6545 20.6742 67.7721 21.7554 73.3942C22.26 75.7728 25.7918 74.7637 25.2873 72.5293Z" fill="black"/>
<path d="M65.506 73.4663C66.5872 67.8441 62.9112 62.7266 57.217 61.8616C51.9553 61.0688 45.9728 64.4565 47.1981 70.439C47.7026 72.6734 51.1624 71.7364 50.6579 69.5019C49.4325 63.8798 63.632 63.9519 61.9742 72.6013C61.6138 74.7637 65.0736 75.7728 65.506 73.4663Z" fill="black"/>
<path d="M19.881 82.8365C26.0797 103.667 65.0742 104.028 67.3807 80.6741C67.5969 78.3676 63.993 78.3676 63.7767 80.6741C61.8306 99.919 28.3141 98.6216 23.3407 81.8274C22.7641 79.665 19.2323 80.6741 19.881 82.8365Z" fill="black"/>
</svg>
