<svg width="258" height="438" viewBox="0 0 258 438" fill="none" xmlns="http://www.w3.org/2000/svg">
<path d="M24.7615 139.296C24.7615 139.296 14.2772 185.936 71.6668 215.059C129.056 244.182 96.5071 274.162 96.5071 274.162C96.5071 274.162 77.6628 287.867 80.2325 329.838C82.8021 371.81 75.0931 412.925 62.2447 434.339C62.2447 434.339 84.5153 425.773 108.499 385.515C132.483 345.256 143.618 310.137 165.032 299.002C186.446 287.867 206.147 257.887 206.147 235.617C206.147 213.346 212.143 196.215 230.987 177.37C249.832 158.526 251.339 125.505 251.339 125.505" fill="#FFA602"/>
<path d="M24.7615 139.296C24.7615 139.296 14.2772 185.936 71.6668 215.059C129.056 244.182 96.5071 274.162 96.5071 274.162C96.5071 274.162 77.6628 287.867 80.2325 329.838C82.8021 371.81 75.0931 412.925 62.2447 434.339C62.2447 434.339 84.5153 425.773 108.499 385.515C132.483 345.256 143.618 310.137 165.032 299.002C186.446 287.867 206.147 257.887 206.147 235.617C206.147 213.346 212.143 196.215 230.987 177.37C249.832 158.526 251.339 125.505 251.339 125.505" stroke="black" stroke-width="3.42625" stroke-miterlimit="10"/>
<path d="M139.305 153.36C201.871 149.556 252.02 137.093 251.316 125.524C250.613 113.955 199.323 107.661 136.757 111.466C74.1917 115.271 24.0425 127.734 24.746 139.302C25.4495 150.871 76.7393 157.165 139.305 153.36Z" fill="#FED52F" stroke="black" stroke-width="3.42625" stroke-miterlimit="10"/>
<path d="M80.0269 324.947C80.0269 324.947 68.2406 308.424 117.065 270.736C165.889 233.047 129.485 193.028 124.56 186.484" stroke="black" stroke-width="3.42625" stroke-miterlimit="10"/>
<path d="M133.981 338.25C133.981 338.25 126.058 318.061 133.981 288.826" stroke="black" stroke-width="3.42625" stroke-miterlimit="10"/>
<path d="M158.873 303.062C158.873 303.062 146.187 275.018 164.175 233.047" stroke="black" stroke-width="3.42625" stroke-miterlimit="10"/>
<path d="M154.573 274.359C154.573 274.359 167.602 280.158 172.741 258.744C177.88 237.33 179.936 198.168 202.464 186.484" stroke="black" stroke-width="3.42625" stroke-miterlimit="10"/>
<path d="M231.844 197.5C231.844 203.41 227.056 208.207 221.137 208.207C220.306 208.207 219.492 208.112 218.713 207.924C217.813 204.438 214.824 201.799 211.166 201.405C210.944 200.832 210.772 200.241 210.644 199.624C210.498 198.939 210.43 198.219 210.43 197.491C210.43 196.763 210.498 196.052 210.644 195.358C211.629 190.467 215.955 186.784 221.137 186.784C227.056 186.784 231.844 191.581 231.844 197.491V197.5Z" fill="#71BE44" stroke="black" stroke-width="2.56968" stroke-miterlimit="10"/>
<path d="M233.128 218.914C233.128 224.824 228.34 229.621 222.421 229.621C216.503 229.621 211.714 224.824 211.714 218.914C211.714 218.871 211.714 218.819 211.714 218.785C215.843 218.074 218.987 214.468 218.987 210.134C218.987 209.688 218.952 209.234 218.884 208.806C219.989 208.421 221.171 208.207 222.413 208.207C228.332 208.207 233.12 213.003 233.12 218.914H233.128Z" fill="#71BE44" stroke="black" stroke-width="2.56968" stroke-miterlimit="10"/>
<path d="M218.996 210.134C218.996 214.468 215.852 218.066 211.723 218.785C211.441 218.836 211.149 218.871 210.858 218.888C210.653 218.905 210.438 218.914 210.216 218.914C205.368 218.914 201.436 214.982 201.436 210.134C201.436 209.509 201.505 208.892 201.624 208.309C201.642 208.241 201.659 208.164 201.676 208.095C202.584 204.249 206.019 201.388 210.139 201.363C210.164 201.363 210.19 201.363 210.216 201.363C210.541 201.363 210.85 201.38 211.167 201.423C214.824 201.808 217.813 204.455 218.713 207.941C218.79 208.224 218.85 208.523 218.893 208.815C218.961 209.252 218.996 209.697 218.996 210.142V210.134Z" fill="#3699A5" stroke="black" stroke-width="2.56968" stroke-miterlimit="10"/>
<path d="M210.858 218.888V218.914C210.858 224.824 206.07 229.621 200.151 229.621C194.232 229.621 189.444 224.824 189.444 218.914C189.444 213.003 194.232 208.207 200.151 208.207C200.648 208.207 201.144 208.241 201.624 208.309C201.496 208.892 201.436 209.509 201.436 210.134C201.436 214.982 205.367 218.914 210.215 218.914C210.438 218.914 210.652 218.905 210.858 218.888Z" fill="#71BE44" stroke="black" stroke-width="2.56968" stroke-miterlimit="10"/>
<path d="M210.858 197.5C210.858 198.228 210.79 198.939 210.644 199.633C210.524 200.232 210.361 200.806 210.139 201.363C206.027 201.388 202.584 204.258 201.676 208.095C201.17 208.164 200.665 208.207 200.143 208.207C194.224 208.207 189.436 203.41 189.436 197.5C189.436 191.589 194.224 186.793 200.143 186.793C205.325 186.793 209.65 190.476 210.635 195.367C210.781 196.061 210.85 196.772 210.85 197.5H210.858Z" fill="#71BE44" stroke="black" stroke-width="2.56968" stroke-miterlimit="10"/>
<path d="M127.343 228.336C127.343 234.246 122.555 239.043 116.636 239.043C115.805 239.043 114.992 238.949 114.212 238.76C113.313 235.274 110.323 232.636 106.666 232.242C106.443 231.668 106.272 231.077 106.143 230.46C105.998 229.775 105.929 229.055 105.929 228.327C105.929 227.599 105.998 226.888 106.143 226.194C107.128 221.303 111.454 217.62 116.636 217.62C122.555 217.62 127.343 222.417 127.343 228.327V228.336Z" fill="#71BE44" stroke="black" stroke-width="2.56968" stroke-miterlimit="10"/>
<path d="M128.628 249.75C128.628 255.66 123.84 260.457 117.921 260.457C112.002 260.457 107.214 255.66 107.214 249.75C107.214 249.707 107.214 249.656 107.214 249.621C111.342 248.91 114.486 245.304 114.486 240.97C114.486 240.525 114.452 240.071 114.383 239.642C115.488 239.257 116.67 239.043 117.912 239.043C123.831 239.043 128.619 243.84 128.619 249.75H128.628Z" fill="#71BE44" stroke="black" stroke-width="2.56968" stroke-miterlimit="10"/>
<path d="M114.495 240.97C114.495 245.304 111.351 248.902 107.222 249.621C106.94 249.673 106.648 249.707 106.357 249.724C106.152 249.741 105.938 249.75 105.715 249.75C100.867 249.75 96.9351 245.818 96.9351 240.97C96.9351 240.345 97.0036 239.728 97.1235 239.146C97.1406 239.077 97.1578 239 97.1749 238.931C98.0829 235.085 101.518 232.225 105.638 232.199C105.663 232.199 105.689 232.199 105.715 232.199C106.04 232.199 106.349 232.216 106.666 232.259C110.323 232.644 113.313 235.291 114.212 238.777C114.289 239.06 114.349 239.36 114.392 239.651C114.46 240.088 114.495 240.533 114.495 240.979V240.97Z" fill="#3699A5" stroke="black" stroke-width="2.56968" stroke-miterlimit="10"/>
<path d="M106.357 249.724V249.75C106.357 255.66 101.569 260.457 95.6504 260.457C89.7315 260.457 84.9434 255.66 84.9434 249.75C84.9434 243.84 89.7315 239.043 95.6504 239.043C96.1472 239.043 96.644 239.077 97.1237 239.146C96.9952 239.728 96.9352 240.345 96.9352 240.97C96.9352 245.818 100.867 249.75 105.715 249.75C105.938 249.75 106.152 249.741 106.357 249.724Z" fill="#71BE44" stroke="black" stroke-width="2.56968" stroke-miterlimit="10"/>
<path d="M106.358 228.336C106.358 229.064 106.289 229.775 106.144 230.469C106.024 231.068 105.861 231.642 105.638 232.199C101.527 232.225 98.0833 235.094 97.1753 238.932C96.67 239 96.1646 239.043 95.6421 239.043C89.7232 239.043 84.9351 234.246 84.9351 228.336C84.9351 222.426 89.7232 217.629 95.6421 217.629C100.824 217.629 105.15 221.312 106.135 226.203C106.281 226.897 106.349 227.608 106.349 228.336H106.358Z" fill="#71BE44" stroke="black" stroke-width="2.56968" stroke-miterlimit="10"/>
<path d="M44.2563 128.975C44.2563 134.885 39.4681 139.682 33.5493 139.682C32.7184 139.682 31.9047 139.587 31.1252 139.399C30.2258 135.913 27.2364 133.275 23.5789 132.881C23.3562 132.307 23.1849 131.716 23.0564 131.099C22.9108 130.414 22.8423 129.694 22.8423 128.966C22.8423 128.238 22.9108 127.527 23.0564 126.833C24.0415 121.942 28.3671 118.259 33.5493 118.259C39.4681 118.259 44.2563 123.056 44.2563 128.966V128.975Z" fill="#FF6462" stroke="black" stroke-width="2.56968" stroke-miterlimit="10"/>
<path d="M45.5415 150.389C45.5415 156.299 40.7533 161.096 34.8345 161.096C28.9156 161.096 24.1274 156.299 24.1274 150.389C24.1274 150.346 24.1274 150.294 24.1274 150.26C28.2561 149.549 31.3997 145.943 31.3997 141.609C31.3997 141.164 31.3654 140.71 31.2969 140.281C32.4018 139.896 33.5839 139.682 34.8259 139.682C40.7447 139.682 45.5329 144.478 45.5329 150.389H45.5415Z" fill="#FF6462" stroke="black" stroke-width="2.56968" stroke-miterlimit="10"/>
<path d="M31.4081 141.609C31.4081 145.943 28.2646 149.541 24.1359 150.26C23.8533 150.312 23.562 150.346 23.2708 150.363C23.0652 150.38 22.8511 150.389 22.6284 150.389C17.7803 150.389 13.8486 146.457 13.8486 141.609C13.8486 140.984 13.9172 140.367 14.0371 139.784C14.0542 139.716 14.0713 139.639 14.0885 139.57C14.9964 135.724 18.4312 132.863 22.5513 132.838C22.577 132.838 22.6027 132.838 22.6284 132.838C22.9539 132.838 23.2622 132.855 23.5792 132.898C27.2367 133.283 30.2261 135.93 31.1255 139.416C31.2026 139.699 31.2625 139.999 31.3054 140.29C31.3739 140.727 31.4081 141.172 31.4081 141.617V141.609Z" fill="#FFA602" stroke="black" stroke-width="2.56968" stroke-miterlimit="10"/>
<path d="M23.271 150.363V150.389C23.271 156.299 18.4828 161.096 12.564 161.096C6.64511 161.096 1.85693 156.299 1.85693 150.389C1.85693 144.478 6.64511 139.682 12.564 139.682C13.0608 139.682 13.5576 139.716 14.0372 139.784C13.9088 140.367 13.8488 140.984 13.8488 141.609C13.8488 146.457 17.7804 150.389 22.6286 150.389C22.8513 150.389 23.0654 150.38 23.271 150.363Z" fill="#FF6462" stroke="black" stroke-width="2.56968" stroke-miterlimit="10"/>
<path d="M23.2708 128.975C23.2708 129.703 23.2022 130.414 23.0566 131.108C22.9367 131.707 22.7739 132.281 22.5512 132.838C18.4397 132.864 14.9964 135.733 14.0884 139.57C13.583 139.639 13.0777 139.682 12.5552 139.682C6.63632 139.682 1.84814 134.885 1.84814 128.975C1.84814 123.064 6.63632 118.268 12.5552 118.268C17.7374 118.268 22.063 121.951 23.048 126.842C23.1937 127.536 23.2622 128.247 23.2622 128.975H23.2708Z" fill="#FF6462" stroke="black" stroke-width="2.56968" stroke-miterlimit="10"/>
<path d="M153.58 317.204C153.58 321.581 150.033 325.127 145.656 325.127C145.04 325.127 144.44 325.059 143.866 324.922C143.198 322.343 140.988 320.39 138.281 320.099C138.119 319.68 137.99 319.234 137.896 318.78C137.793 318.266 137.742 317.744 137.742 317.204C137.742 316.664 137.793 316.133 137.896 315.628C138.624 312.005 141.827 309.281 145.665 309.281C150.042 309.281 153.588 312.827 153.588 317.204H153.58Z" fill="#FF6462" stroke="black" stroke-width="2.56968" stroke-miterlimit="10"/>
<path d="M154.531 333.05C154.531 337.427 150.985 340.974 146.608 340.974C142.231 340.974 138.685 337.427 138.685 333.05C138.685 333.016 138.685 332.982 138.685 332.956C141.742 332.434 144.072 329.761 144.072 326.558C144.072 326.224 144.047 325.898 143.995 325.573C144.809 325.281 145.691 325.127 146.608 325.127C150.985 325.127 154.531 328.673 154.531 333.05Z" fill="#FF6462" stroke="black" stroke-width="2.56968" stroke-miterlimit="10"/>
<path d="M144.071 326.558C144.071 329.761 141.742 332.434 138.684 332.956C138.478 332.991 138.264 333.025 138.05 333.033C137.896 333.042 137.733 333.05 137.57 333.05C133.981 333.05 131.069 330.138 131.069 326.549C131.069 326.087 131.12 325.633 131.214 325.196C131.223 325.144 131.24 325.084 131.249 325.042C131.917 322.198 134.469 320.082 137.51 320.056C137.527 320.056 137.544 320.056 137.57 320.056C137.81 320.056 138.041 320.065 138.273 320.099C140.979 320.39 143.189 322.343 143.857 324.922C143.917 325.136 143.96 325.35 143.994 325.573C144.046 325.89 144.071 326.224 144.071 326.558Z" fill="#FFA602" stroke="black" stroke-width="2.56968" stroke-miterlimit="10"/>
<path d="M138.05 333.033V333.05C138.05 337.427 134.504 340.974 130.127 340.974C125.75 340.974 122.204 337.427 122.204 333.05C122.204 328.673 125.75 325.127 130.127 325.127C130.495 325.127 130.863 325.153 131.223 325.204C131.129 325.641 131.078 326.095 131.078 326.558C131.078 330.147 133.99 333.059 137.579 333.059C137.742 333.059 137.896 333.059 138.059 333.042L138.05 333.033Z" fill="#FF6462" stroke="black" stroke-width="2.56968" stroke-miterlimit="10"/>
<path d="M138.05 317.204C138.05 317.744 137.999 318.275 137.888 318.78C137.802 319.217 137.673 319.645 137.511 320.056C134.47 320.082 131.926 322.198 131.249 325.042C130.881 325.093 130.504 325.127 130.119 325.127C125.741 325.127 122.195 321.581 122.195 317.204C122.195 312.827 125.741 309.281 130.119 309.281C133.956 309.281 137.151 312.005 137.888 315.628C137.99 316.142 138.05 316.664 138.05 317.204Z" fill="#FF6462" stroke="black" stroke-width="2.56968" stroke-miterlimit="10"/>
<path d="M254.329 17.8357C254.329 26.7097 247.142 33.8962 238.268 33.8962C237.017 33.8962 235.801 33.7506 234.636 33.4765C233.283 28.2429 228.803 24.2856 223.312 23.7031C222.978 22.8466 222.713 21.9558 222.533 21.0392C222.319 20.0028 222.208 18.9321 222.208 17.8443C222.208 16.7564 222.319 15.6772 222.533 14.6407C224.015 7.30855 230.499 1.78372 238.277 1.78372C247.151 1.78372 254.337 8.97027 254.337 17.8443L254.329 17.8357Z" fill="#FF6462" stroke="black" stroke-width="2.56968" stroke-miterlimit="10"/>
<path d="M256.256 49.9568C256.256 58.8307 249.069 66.0173 240.195 66.0173C231.321 66.0173 224.135 58.8307 224.135 49.9568C224.135 49.8882 224.135 49.8197 224.135 49.7598C230.336 48.6891 235.047 43.2927 235.047 36.7914C235.047 36.1147 234.996 35.4466 234.893 34.7956C236.555 34.2132 238.328 33.8962 240.187 33.8962C249.061 33.8962 256.247 41.0828 256.247 49.9568H256.256Z" fill="#FF6462" stroke="black" stroke-width="2.56968" stroke-miterlimit="10"/>
<path d="M235.056 36.7914C235.056 43.2927 230.336 48.6976 224.143 49.7598C223.715 49.8369 223.286 49.8968 222.85 49.9225C222.533 49.9482 222.216 49.9568 221.89 49.9568C214.618 49.9568 208.716 44.0636 208.716 36.7829C208.716 35.8407 208.811 34.9241 209.008 34.0419C209.025 33.9305 209.05 33.8192 209.085 33.7164C210.447 27.9517 215.603 23.6518 221.77 23.6089C221.805 23.6089 221.847 23.6089 221.882 23.6089C222.361 23.6089 222.841 23.6346 223.304 23.6946C228.794 24.2771 233.274 28.243 234.627 33.468C234.739 33.8963 234.833 34.3331 234.893 34.7871C234.996 35.4381 235.047 36.1062 235.047 36.7829L235.056 36.7914Z" fill="#71BE44" stroke="black" stroke-width="2.56968" stroke-miterlimit="10"/>
<path d="M222.85 49.9225V49.9568C222.85 58.8307 215.663 66.0173 206.789 66.0173C197.915 66.0173 190.729 58.8307 190.729 49.9568C190.729 41.0828 197.915 33.8962 206.789 33.8962C207.543 33.8962 208.279 33.9476 209.008 34.0504C208.819 34.9327 208.716 35.8492 208.716 36.7914C208.716 44.0636 214.609 49.9653 221.89 49.9653C222.216 49.9653 222.541 49.9482 222.85 49.931V49.9225Z" fill="#FF6462" stroke="black" stroke-width="2.56968" stroke-miterlimit="10"/>
<path d="M222.85 17.8357C222.85 18.9321 222.738 20.0028 222.524 21.0307C222.344 21.9215 222.096 22.7867 221.77 23.6175C215.603 23.6604 210.447 27.9603 209.085 33.7249C208.331 33.8363 207.569 33.8963 206.789 33.8963C197.915 33.8963 190.729 26.7097 190.729 17.8357C190.729 8.96176 197.915 1.77521 206.789 1.77521C214.558 1.77521 221.051 7.30001 222.533 14.6322C222.747 15.6686 222.858 16.7393 222.858 17.8357H222.85Z" fill="#FF6462" stroke="black" stroke-width="2.56968" stroke-miterlimit="10"/>
<path d="M226.31 50.4707C221.788 65.452 220.134 81.3926 219.895 97.0249C219.792 102.301 220.023 107.569 220.28 112.837L217.719 113.034C217.291 107.706 216.888 102.378 216.828 97.0334C216.563 83.6539 217.496 70.1631 220.083 57.0149C220.623 54.351 221.188 51.7727 221.985 49.0488L226.319 50.4707H226.31Z" fill="black"/>
</svg>
