<svg width="30" height="41" viewBox="0 0 30 41" fill="none" xmlns="http://www.w3.org/2000/svg">
<path d="M25.7855 26.364C27.3102 27.7688 28.2609 29.7817 28.2609 32.0173C28.2609 36.2744 24.809 39.7264 20.5519 39.7264C17.9051 39.7264 15.5667 38.3901 14.1791 36.3515C12.8685 37.3965 11.2068 38.0132 9.41657 38.0132C5.15946 38.0132 1.70752 34.5613 1.70752 30.3042C1.70752 27.8801 2.82962 25.713 4.58557 24.3083C2.82962 22.9035 1.70752 20.7364 1.70752 18.3123C1.70752 14.0552 5.15946 10.6033 9.41657 10.6033C12.2689 10.6033 14.7615 12.1536 16.0892 14.4578C17.4683 13.1301 19.3527 12.3164 21.4084 12.3164C25.6656 12.3164 29.1175 15.7683 29.1175 20.0255C29.1175 22.6551 27.7984 24.9764 25.7855 26.364Z" fill="#FF6462" stroke="black" stroke-width="1.71312" stroke-miterlimit="10"/>
<path d="M13.3223 36.2745L15.378 16.8048C15.8063 12.4878 17.0826 -1.3286 24.0293 1.9092L23.9094 2.15761C23.1899 1.82355 22.3933 1.61798 21.6395 1.78072C17.0312 3.15979 16.6886 12.8047 16.3716 16.8819L15.0268 36.4201L13.3223 36.2745Z" fill="black"/>
<path d="M8.41455 1.52372C13.8366 -2.02245 16.0208 5.78083 16.4834 9.79811C16.7489 11.3485 16.8089 12.8903 16.9459 14.4492L15.2328 14.4664C15.2842 11.8367 15.267 9.16424 14.8388 6.56885C14.1278 2.9199 12.5517 -0.429243 8.41455 1.52372Z" fill="black"/>
</svg>
