<svg width="38" height="41" viewBox="0 0 38 41" fill="none" xmlns="http://www.w3.org/2000/svg">
<path d="M29.9109 18.4328C31.9753 18.5955 33.9711 19.5891 35.3501 21.3451C37.9798 24.6942 37.4059 29.5424 34.0567 32.172C31.9753 33.8081 29.3114 34.2021 26.9644 33.4569C26.5789 35.0843 25.6538 36.6004 24.2491 37.7054C20.8999 40.335 16.0518 39.7612 13.4221 36.412C11.9232 34.5104 11.4692 32.1121 11.9745 29.9193C9.72179 29.9021 7.50329 28.8914 6.00431 26.9812C3.37466 23.6321 3.94857 18.784 7.29772 16.1543C9.54192 14.3898 12.4542 14.0729 14.9297 15.0579C15.1952 13.1649 16.1717 11.3576 17.7906 10.0898C21.1398 7.4602 25.9879 8.03411 28.6176 11.3833C30.245 13.4476 30.639 16.0944 29.9195 18.4242L29.9109 18.4328Z" fill="#71BE44" stroke="black" stroke-width="1.71312" stroke-miterlimit="10"/>
<path d="M26.2445 33.928L15.8287 17.3535C13.4988 13.696 5.95252 2.04673 13.4217 0.299347L13.4817 0.57344C12.7108 0.753318 11.957 1.08738 11.4602 1.67841C8.70211 5.65286 14.3811 13.3705 16.6595 16.8053L27.6835 32.9943L26.253 33.9365L26.2445 33.928Z" fill="black"/>
<path d="M0.899414 9.64444C2.97229 3.51146 9.50786 8.29106 12.3602 11.1605C13.5251 12.2141 14.5273 13.3962 15.598 14.5268L14.2618 15.5975C12.6771 13.499 11.0068 11.4089 9.06245 9.63587C6.25292 7.20323 2.9466 5.55007 0.899414 9.63587V9.64444Z" fill="black"/>
</svg>
