<svg width="139" height="140" viewBox="0 0 139 140" fill="none" xmlns="http://www.w3.org/2000/svg">
<path d="M135.5 92.4261L104.45 95.0853L110.288 129.127L79.8437 113.126L66.4705 136.624L56.9503 114.079L28.3277 129.127L34.8321 91.1625L3.10854 84.627L21.2186 68.9358L3 51.1746L37.1967 46.2052L32.9715 8.30277L58.9582 23.9785L69.3079 3L81.6965 28.1106L114.8 13.1171L106.916 47.0037L135.616 51.1746L115.637 70.6491L135.5 92.4261Z" fill="#FFA602" stroke="black" stroke-width="2.32578" stroke-miterlimit="10"/>
<path d="M68.9359 99.5198C83.7075 99.5198 95.6823 87.545 95.6823 72.7733C95.6823 58.0017 83.7075 46.0269 68.9359 46.0269C54.1642 46.0269 42.1895 58.0017 42.1895 72.7733C42.1895 87.545 54.1642 99.5198 68.9359 99.5198Z" fill="#FED52F" stroke="black" stroke-width="2.32578" stroke-miterlimit="10"/>
</svg>
