<svg width="82" height="169" viewBox="0 0 82 169" fill="none" xmlns="http://www.w3.org/2000/svg">
<path d="M70.947 67.5491C71.1419 67.0943 71.2068 66.6395 70.947 66.0548C70.6871 65.2752 70.3622 64.4956 70.0374 63.716C70.0374 63.1313 69.9724 62.5466 69.9724 61.8969C69.9075 60.5976 69.1279 59.8829 68.2183 59.753C67.3088 57.9339 66.2043 56.1798 65.0999 54.4906C63.6056 52.0219 61.9815 49.683 60.1624 47.3442C59.5127 46.4996 58.3433 46.4996 57.4987 47.0194C55.0949 43.901 52.5612 40.9125 49.8975 37.9889C49.4428 37.4692 48.8581 37.3393 48.2734 37.3393C48.2734 37.3393 48.2734 37.3393 48.2084 37.2743C47.8836 36.8845 47.4938 36.6896 47.1689 36.5597C46.0645 34.2858 44.96 31.947 43.8556 29.6731C43.5307 29.0234 43.011 28.6986 42.4263 28.6336C42.5562 27.919 42.5562 27.1394 42.4263 26.2948C42.1015 23.4363 37.5538 23.3713 37.8786 26.2948C37.8786 26.5547 37.9436 26.8146 37.9436 27.0744C37.7487 27.2044 37.5538 27.2693 37.3589 27.4642C36.5792 27.5292 35.7996 28.0489 35.4098 29.0234C34.8251 30.5827 34.1105 31.947 33.2659 33.2463C31.7717 34.4157 30.6022 35.78 29.6277 37.4692C29.4978 37.6641 29.4328 37.924 29.3679 38.1189C29.173 38.3787 28.9781 38.5736 28.7832 38.8335C28.1335 39.3532 27.5488 39.873 27.029 40.4577C23.7157 42.6666 20.5323 45.0704 17.5438 47.799C17.219 48.0589 17.0241 48.3837 16.9591 48.7085C15.9846 49.683 15.14 50.8525 14.4254 51.827C14.4254 51.827 14.4254 51.8919 14.3604 51.8919C11.8267 54.4257 10.3324 57.4791 9.81271 60.9874C9.68277 61.3122 9.55284 61.5721 9.4229 61.8969C8.05859 63.3262 7.60382 65.5351 7.47388 67.744C7.27898 68.3936 7.14905 69.1083 6.95414 69.7579C6.75924 70.5376 7.01911 71.3172 7.47388 71.8369C7.40892 74.3706 7.60382 76.7744 7.79872 78.0088C8.18852 80.5425 8.90316 85.0253 11.3719 86.5195C11.5019 86.5845 11.6318 86.6494 11.7617 86.7144C11.8917 87.2341 12.2165 87.624 12.8662 87.9488C14.5553 88.7284 15.3349 90.5475 16.7642 91.7169C18.1285 92.7564 19.6877 93.2761 21.3119 93.6659C21.6368 93.7309 21.9616 93.7958 22.2864 93.8608C22.5463 94.0557 22.8062 94.2506 23.131 94.5105C23.7157 94.9003 24.3654 94.9653 24.8851 94.7704C27.094 96.4595 30.0175 96.8493 33.006 96.8493C37.2289 98.0837 41.7766 98.0837 46.0645 96.9792C47.2339 97.6289 48.5332 97.0442 49.053 96.0047C50.0924 95.6149 51.067 95.0952 52.0415 94.5755C55.4847 93.4061 58.7981 91.8468 60.6171 88.9883C61.3318 90.4175 63.6706 90.9373 64.6451 89.1832L69.1928 80.9973C69.5826 80.2826 69.5177 79.503 69.1928 78.8534C69.2578 78.3336 69.3877 77.8139 69.4527 77.2942C69.9075 76.1897 70.2973 75.0203 70.6221 73.8509C70.817 73.1362 70.6221 72.5515 70.2973 72.0318C70.3622 71.5121 70.4922 70.9923 70.5571 70.4726C70.6871 69.8229 70.5571 69.2382 70.2973 68.7834C70.6221 68.3936 70.882 68.0038 70.947 67.5491Z" fill="#FED530"/>
<path d="M74.5204 121.407C73.5459 120.952 72.5714 120.887 71.7268 121.212C69.8428 119.393 66.7893 118.029 65.0352 116.859C62.6964 115.3 59.3181 112.377 56.3296 114.066C55.8748 114.326 55.485 114.65 55.2251 115.04C54.1857 114.845 53.1462 115.04 52.2366 115.95C51.7819 116.405 51.457 116.859 51.3271 117.249C51.1322 116.664 51.0023 116.145 50.8074 115.56C50.3526 114.131 48.7284 113.676 47.624 114.131C46.9743 112.636 46.2596 111.207 45.61 109.713C45.3501 109.193 44.9603 108.868 44.5705 108.673C44.3756 108.284 44.2457 107.959 44.0508 107.569C43.6609 106.724 42.9463 106.4 42.1667 106.465C41.582 105.36 40.1527 104.71 38.9833 105.62C38.4636 105.62 37.9438 105.815 37.4891 106.205C37.1642 106.465 36.8394 106.789 36.5145 107.049C34.4356 107.569 33.526 109.128 33.2662 110.947C31.577 112.117 30.0828 113.546 28.8484 115.105C28.5236 113.871 27.2242 113.481 26.1198 113.611C22.6115 114.131 16.7645 115.625 13.4511 118.548C13.2562 118.678 13.0613 118.743 12.9314 118.873C11.5021 119.068 10.0728 119.653 9.09834 120.173C8.44866 120.497 7.47415 121.082 6.43468 121.797C3.90095 123.356 1.69206 125.63 2.4067 128.099C3.44618 131.477 7.34422 130.113 10.3977 128.618C12.1518 128.164 13.776 127.384 15.0753 126.215C16.2447 125.63 17.3492 124.98 18.3887 124.266C20.6625 123.486 22.9364 122.576 25.0803 121.537C24.6255 122.901 24.4306 124.201 24.7555 125.435C24.8854 126.02 25.1453 126.474 25.4051 126.864C25.1453 127.904 24.9504 128.943 24.8204 129.918C24.1058 134.465 23.9109 139.078 24.3657 143.626C24.3007 143.756 24.3007 143.886 24.2357 144.016C23.3911 147.849 23.586 151.747 25.0153 155.385C26.1847 158.308 28.5885 162.401 31.707 163.506C32.0968 163.636 32.4866 163.701 32.8764 163.766C33.526 164.22 34.3057 164.285 34.9553 163.961C35.2152 164.155 35.4751 164.285 35.7999 164.415C35.9948 164.675 36.2547 164.87 36.5145 165.065C36.9693 166.04 38.0738 166.494 39.1132 166.234C40.5425 166.559 42.1017 166.364 43.466 165.78C44.3756 166.949 46.3896 166.624 47.1692 165.39C47.6889 164.61 48.1437 163.831 48.5335 163.051C49.1182 162.921 49.6379 162.596 49.9628 162.077C50.8723 160.712 51.7169 159.283 52.3666 157.789C52.8213 157.139 53.2761 156.424 53.7309 155.71C54.8353 155.71 55.9398 154.865 56.0697 153.501C56.1996 152.072 56.3296 150.577 56.3945 149.148C56.9143 147.069 57.2391 144.925 57.3041 142.716C57.3041 142.132 57.1092 141.677 56.8493 141.352C56.7843 141.092 56.7194 140.767 56.7194 140.507C56.7194 139.988 56.7194 139.468 56.7194 138.948C57.1092 135.765 57.1092 132.581 56.8493 129.333C56.7194 128.034 55.7449 127.254 54.7704 127.189C54.8353 126.409 54.9003 125.565 54.9003 124.785C54.9653 123.551 54.2506 122.836 53.3411 122.641C53.2761 122.446 53.2761 122.252 53.2111 122.057C53.0812 121.407 52.7564 120.952 52.3666 120.692C52.3666 120.627 52.3016 120.562 52.3016 120.497C54.3156 122.576 58.4085 124.136 60.6174 124.85C63.0212 125.955 65.6199 126.604 68.3485 126.994C69.7128 127.644 71.0772 128.164 72.5714 128.553C73.9357 129.073 75.6249 129.073 77.0541 128.359C77.5739 128.164 77.8338 127.774 78.0287 127.319C79.9777 125.305 76.6643 122.446 74.5204 121.407ZM40.0228 143.366C40.0228 142.262 40.0228 141.222 40.0877 140.118C40.1527 140.702 40.2177 141.287 40.2826 141.872C40.1527 142.391 40.0877 142.911 40.0228 143.366Z" fill="#FED530"/>
<path d="M71.7267 74.9554C71.7916 73.851 71.6617 72.6166 71.4018 71.3173C71.5318 70.9924 71.5967 70.6026 71.5318 70.2128C71.077 68.1988 70.4923 66.3148 69.8426 64.3658C69.9725 63.976 69.9076 63.5861 69.7127 63.1314C69.5178 62.7416 69.2579 62.3518 69.063 61.962C69.1929 61.5722 69.1929 61.1174 68.8681 60.6626C68.6082 60.2728 68.2834 59.818 67.8936 59.4932C67.6337 58.9085 67.3739 58.3888 67.114 57.8041C66.9191 57.3493 66.5943 57.1544 66.2044 57.0245C66.0095 56.6346 65.7497 56.2448 65.5548 55.855C65.6197 55.4652 65.4898 55.0105 65.1 54.6207C64.3854 53.7761 63.6058 52.9965 62.8911 52.1519C61.4618 50.008 59.9026 47.994 58.1485 46.1099C57.7587 45.7201 57.3689 45.5902 56.9141 45.6552C56.7192 45.3953 56.5243 45.2004 56.2644 44.9405C56.3944 44.2909 56.1995 43.5762 55.6148 43.1864C52.9511 41.3673 50.2875 39.4833 48.1435 37.1445C47.4939 36.2999 46.7792 35.4553 46.1296 34.6107C45.9346 34.3509 45.7397 34.2209 45.4799 34.091C45.4149 33.9611 45.4149 33.7662 45.285 33.6362C44.5703 32.5318 43.9856 31.4273 43.336 30.2579C43.206 29.9981 43.1411 29.7382 43.0111 29.4783C43.5309 28.6337 42.9461 27.4643 42.1016 27.0745C41.7767 26.1 41.5169 25.1905 41.257 24.151C40.8022 22.3969 38.5933 22.7867 38.1386 24.151C37.4239 24.086 36.7093 24.4758 36.5794 25.3204C36.3845 26.2949 36.2545 27.2694 36.0596 28.179C35.9297 28.3089 35.8647 28.4388 35.7348 28.5688C34.8902 30.063 34.1756 31.6222 33.6558 33.2464C28.8482 35.9101 24.8203 39.6132 21.7018 44.2909C21.6369 44.4208 21.5719 44.5507 21.5069 44.6807C18.1286 46.8896 15.335 49.8131 13.2561 53.3213C12.8013 53.3863 12.4115 53.6461 12.1516 54.036C8.90328 59.3633 7.01923 65.2103 6.49949 71.5122C6.43452 72.0969 6.75936 72.6166 7.21413 72.8765C7.14916 74.3058 7.2791 75.6701 7.6689 77.0344C7.6689 77.0993 7.6689 77.1643 7.6689 77.2293C8.12367 80.9324 8.70838 84.6356 11.437 87.2992C11.5669 87.624 11.6969 88.0139 11.8268 88.3387C12.2816 89.5081 13.5809 89.9629 14.5554 89.0533C14.8803 88.7285 15.1401 88.4037 15.4 88.0788C15.6599 88.1438 15.9197 88.0788 16.1796 88.0139C16.2446 88.1438 16.3096 88.2088 16.3745 88.3387C16.3745 89.1183 16.6344 89.8979 17.0242 90.5476C17.8038 91.717 19.0382 92.1068 20.2726 92.3667C20.7923 92.8864 21.377 93.4061 21.9617 93.8609C21.9617 94.1208 22.0916 94.3807 22.1566 94.6405C23.1961 96.8494 27.4839 97.3042 29.4979 97.629C31.7068 97.9539 33.9157 98.0188 36.1246 97.8239C42.9462 98.0838 51.262 97.9539 57.0441 93.8609C57.109 93.7959 57.174 93.731 57.239 93.731C57.6937 93.4711 58.0835 93.1463 58.4733 92.8214C60.1625 92.1068 61.9166 91.1323 62.6962 89.703C62.7612 89.703 62.8911 89.638 62.9561 89.5731C67.8936 86.7145 70.3624 81.5821 71.7916 76.2548C72.0515 75.735 71.9865 75.2803 71.7267 74.9554ZM33.9807 78.4637C33.9157 80.0229 33.9157 81.6471 33.9157 83.2063C33.7208 83.1413 33.5909 83.0763 33.396 83.0114C33.396 83.0114 33.396 83.0114 33.396 82.9464C33.5909 81.4522 33.7858 79.9579 33.9807 78.4637ZM29.1081 81.0624C29.1081 80.8675 29.1731 80.6726 29.1731 80.4776C29.303 80.7375 29.4979 80.9324 29.6928 81.0624C29.7578 81.5171 29.8228 81.9069 29.9527 82.3617C29.4979 82.3617 28.9782 82.3617 28.5234 82.4267C28.6533 82.2318 28.7833 82.0369 28.8482 81.777C29.0431 81.5821 29.1081 81.3222 29.1081 81.0624Z" fill="#FF6462"/>
<path d="M55.9393 152.461C56.9787 148.758 57.4335 144.925 57.4985 141.027C57.4985 140.897 57.4985 140.767 57.4335 140.572C57.4985 140.377 57.4985 140.118 57.4985 139.858C57.1087 137.129 56.9138 134.335 56.7838 131.542C56.8488 131.412 56.9138 131.347 56.9138 131.217C57.3036 129.723 57.1737 128.683 56.459 127.319C56.2641 126.929 56.0042 126.734 55.6144 126.604C55.6144 126.344 55.5495 126.02 55.3546 125.76C54.7049 124.85 54.1202 123.941 53.5355 123.031C53.5355 122.771 53.4705 122.511 53.3406 122.252C52.496 120.562 51.5865 118.808 50.7419 117.119C50.417 116.404 50.0272 115.69 49.6374 114.975C49.5725 114.845 49.5075 114.78 49.5075 114.65C49.4425 114.52 49.3776 114.455 49.3126 114.326C48.2082 112.506 46.9088 110.947 45.2846 109.453C44.8948 109.063 44.4401 108.933 44.0503 108.998C43.6604 108.478 43.2057 107.959 42.6859 107.504C42.556 107.244 42.4261 106.984 42.2961 106.659C41.9063 105.88 41.1917 105.75 40.542 105.945C39.5025 105.75 38.528 106.594 38.658 107.829C38.528 108.024 38.3331 108.284 38.2032 108.478C37.9433 108.413 37.6185 108.349 37.3586 108.478C33.2007 109.908 31.7065 114.066 30.2772 117.834C29.8874 118.808 29.5625 119.783 29.2377 120.757C28.718 120.887 28.2632 121.212 28.0683 121.862C27.4836 121.862 26.8989 122.187 26.704 123.031C26.1842 124.85 25.7944 126.669 25.4696 128.488C24.8849 128.813 24.3652 129.463 23.9104 130.372C21.7015 134.66 21.6365 140.832 21.6365 145.575C21.6365 148.109 20.792 156.099 24.8849 156.099C25.0148 156.099 25.0798 156.099 25.2097 156.035C25.4046 156.879 25.5995 157.724 25.8594 158.568C26.1193 159.478 27.2237 159.998 28.0683 159.608C28.3282 160.582 28.653 161.622 28.9778 162.596C29.3027 163.636 30.5371 164.025 31.3816 163.571C31.5765 163.896 31.9663 164.155 32.3561 164.285C32.8759 165 33.3956 165.715 33.9803 166.429C34.565 167.144 35.6695 166.949 36.2542 166.429C36.3191 166.364 36.3841 166.364 36.3841 166.299L36.4491 166.364C37.4886 167.339 39.1127 166.624 39.2427 165.26C39.3076 165.26 39.4376 165.26 39.5025 165.26C40.0223 165.26 40.542 165.195 40.9318 165C41.3216 165.52 41.7764 165.975 42.2312 166.429C43.0108 167.144 44.1802 167.014 44.7649 166.104C45.0248 165.78 45.2197 165.39 45.3496 165C45.7394 164.87 46.0642 164.675 46.3891 164.415C46.7139 164.48 47.1687 164.415 47.6235 164.285C48.598 163.961 49.4425 163.051 50.2221 161.882C50.6769 162.012 51.1967 161.882 51.5865 161.362C51.6514 161.232 51.7814 161.167 51.8463 161.037C52.496 160.192 53.0807 159.283 53.5355 158.373C54.9648 157.009 55.4195 154.28 55.9393 152.461ZM37.9433 118.548C38.1382 117.379 38.3981 116.21 38.7879 115.04C38.593 116.275 38.3331 117.444 37.9433 118.548Z" fill="#FF6462"/>
<path d="M28.3937 114.715C26.7695 113.741 24.6906 114.456 22.8715 115.365C22.6766 115.235 22.4167 115.17 22.0919 115.235C20.5976 115.43 14.1009 117.379 10.5277 119.653C6.82457 120.692 1.23738 123.876 2.21189 127.514C2.27686 127.774 2.47176 128.034 2.66666 128.294C3.12143 129.853 4.94052 129.788 6.88954 129.138C7.66914 129.138 8.57869 128.943 9.48823 128.618C9.61816 128.618 9.68313 128.553 9.81306 128.553C11.5022 128.294 13.4512 127.449 15.0754 126.28C15.7251 126.28 16.3748 125.89 16.6346 125.305C19.5582 124.266 22.2218 122.901 24.7555 121.147C24.9504 121.017 25.0804 120.822 25.2103 120.692C26.7695 119.783 28.1988 118.678 29.5631 117.444C30.8625 116.275 29.6931 114.78 28.3937 114.715Z" fill="#FF6462"/>
<path d="M77.8338 124.071C77.2491 123.746 76.5994 123.616 75.9497 123.616C75.8848 123.161 75.6899 122.706 75.365 122.317C73.7408 120.238 65.6199 114.001 62.5665 116.275C61.462 115.95 60.2926 115.625 59.1882 115.365C58.9933 115.17 58.7984 115.04 58.5385 114.91C58.4735 114.91 58.3436 114.845 58.2786 114.845C57.9538 114.52 57.629 114.196 57.3041 113.871C56.4595 113.026 54.8354 113.416 54.5755 114.585C54.5755 114.65 54.5755 114.65 54.5755 114.715C54.1857 114.65 53.7959 114.65 53.4061 114.65C51.9768 114.65 51.2622 116.405 52.2367 117.444C53.2112 118.419 54.5105 119.068 55.8748 119.653C56.9793 120.952 58.5385 121.992 60.2926 122.836C60.6824 123.746 61.3971 124.59 62.0467 125.11C62.9563 125.89 63.9957 126.474 65.1652 126.929C68.4785 129.203 72.5714 130.957 76.2096 130.243C76.7293 130.113 77.2491 129.593 77.314 129.138C77.379 128.943 77.379 128.748 77.379 128.488C77.444 128.488 77.5739 128.488 77.6389 128.488C78.4835 128.424 79.0682 127.904 79.1981 127.124C79.393 126.864 79.5879 126.539 79.7178 126.15C80.1726 124.72 78.9382 123.876 77.8338 124.071Z" fill="#FF6462"/>
<path d="M52.042 6.60972C51.0675 3.62123 48.4688 0.177959 44.8956 0.502796C41.2575 0.827633 39.5683 4.6607 38.7237 7.71417C36.0601 17.0695 38.9836 25.6451 44.8307 33.0514C55.4853 46.6296 75.885 58.0638 69.1284 78.4636C65.2304 90.2227 54.5108 95.1602 42.8817 96.3296C32.5519 97.3691 19.8832 94.3156 13.3215 85.8049C6.435 76.9044 6.69487 65.1453 12.6719 55.9199C17.2196 48.8385 23.9762 43.5761 29.6933 37.5342C36.4499 30.3878 42.102 21.7471 40.6078 11.4823C40.0881 7.90907 39.0486 2.45182 35.2805 0.762665C31.1875 -1.05642 27.6793 2.90659 26.5099 6.41482C25.8602 8.42881 28.9787 9.27338 29.6283 7.2594C30.0181 6.02502 30.7977 4.4658 32.162 3.94606C33.8512 3.29639 35.0856 4.33587 35.8002 5.89508C36.9047 8.23391 37.4244 11.0275 37.6193 13.5612C38.0091 18.8236 36.0601 23.5662 33.2665 27.919C28.9786 34.5457 22.8068 39.6131 17.3495 45.2003C12.1521 50.5276 7.40951 56.6346 5.59042 63.9759C3.4465 72.6165 5.85029 81.9718 11.5024 88.7284C17.6743 96.0697 26.8997 98.6034 36.1251 99.448C44.8956 100.228 55.0305 98.6034 62.3069 93.2112C69.1934 88.1437 73.4163 79.6979 73.6112 71.1872C73.8061 63.0663 70.103 55.79 65.0355 49.748C59.5133 42.9914 52.3669 37.5991 46.9746 30.5827C43.9211 26.6197 41.3224 21.877 40.9326 16.8096C40.7377 13.6912 41.1925 10.4428 42.167 7.51927C42.6868 6.08998 43.1415 4.79064 44.6358 4.20593C46.7797 3.36136 48.2739 5.63521 48.8586 7.4543C49.5733 9.46828 52.6917 8.62371 52.042 6.60972Z" fill="black"/>
<path d="M48.5328 166.494C59.5123 160.712 61.2014 145.445 59.7072 134.465C57.9531 121.992 51.5213 110.363 41.7112 102.372C40.9966 101.787 40.152 101.787 39.4374 102.372C27.1586 112.572 19.8173 128.683 21.0516 144.73C21.5714 151.487 23.3255 159.088 28.3929 163.961C33.7852 169.093 41.9061 169.418 48.5328 166.494C50.4169 165.65 48.7927 162.856 46.9086 163.701C39.8922 166.819 31.9012 164.805 28.0031 158.114C24.8197 152.721 23.9752 145.9 24.1701 139.728C24.6248 126.15 31.2515 113.286 41.7112 104.645C40.9316 104.645 40.152 104.645 39.4374 104.645C48.143 111.727 54.055 121.602 56.199 132.646C58.148 142.781 57.3684 158.244 46.9736 163.701C45.0246 164.675 46.6488 167.469 48.5328 166.494Z" fill="black"/>
<path d="M81.0176 125.76C79.3285 120.498 72.8317 117.249 68.0242 115.3C62.5019 113.026 56.525 111.857 50.6129 112.701C49.5085 112.831 49.1836 114.261 49.6384 115.105C53.3416 121.732 59.8383 126.669 66.7248 129.658C70.9477 131.477 81.9921 134.53 81.0176 126.15C80.7578 124.071 77.5094 124.071 77.7693 126.15C78.4839 132.322 64.9707 125.24 63.0866 124.071C58.8638 121.407 54.9657 117.899 52.497 113.416C52.1721 114.196 51.8473 114.975 51.5225 115.82C56.1351 115.17 60.8778 116.08 65.1656 117.639C69.2585 119.133 76.4049 122.057 77.8992 126.604C78.5489 128.618 81.6673 127.774 81.0176 125.76Z" fill="black"/>
<path d="M3.64098 126.604C5.13522 122.057 12.2167 119.133 16.3746 117.639C20.7274 116.08 25.405 115.17 30.0177 115.82C29.6929 115.04 29.368 114.261 29.0432 113.416C26.5744 117.899 22.6764 121.407 18.3236 124.071C16.3746 125.24 2.92634 132.257 3.64098 126.15C3.90085 124.071 0.652481 124.071 0.392611 126.15C-0.581898 134.53 10.4625 131.477 14.6854 129.658C21.572 126.669 28.0687 121.732 31.7718 115.105C32.2266 114.261 31.9018 112.896 30.7973 112.701C24.8853 111.857 18.9083 113.026 13.3861 115.3C8.64346 117.249 2.14673 120.433 0.392611 125.76C-0.127127 127.709 2.9913 128.618 3.64098 126.604Z" fill="black"/>
<path d="M21.9627 54.4907C23.327 55.2053 24.6264 55.985 25.7958 56.8945C26.3805 57.3493 26.9652 57.804 27.5499 58.3238C27.8098 58.5837 28.0697 58.7786 28.3295 59.0384C28.9792 59.6231 28.7193 59.818 28.9142 58.8435C29.434 58.4537 29.9537 58.0639 30.4734 57.6741C30.4085 57.6741 30.4085 57.6741 30.3435 57.6741C28.2646 57.4142 28.2646 60.6626 30.3435 60.9225C30.4085 60.9225 30.4085 60.9225 30.4734 60.9225C31.1231 60.9874 31.9027 60.3378 32.0327 59.7531C32.4874 57.804 30.3435 56.4397 28.9792 55.3353C27.29 53.906 25.471 52.7366 23.5219 51.6321C21.7029 50.7226 20.0787 53.5162 21.9627 54.4907Z" fill="black"/>
<path d="M54.1199 51.6972C52.1708 52.7367 50.3518 53.9711 48.6626 55.4004C47.3633 56.5048 45.2193 57.8691 45.6091 59.8181C45.7391 60.4678 46.5187 61.1175 47.1684 60.9875C47.2333 60.9875 47.2333 60.9875 47.2983 60.9875C49.3773 60.7277 49.3773 57.4793 47.2983 57.7392C47.2333 57.7392 47.2333 57.7392 47.1684 57.7392C47.6881 58.129 48.2078 58.5188 48.7276 58.9086C48.8575 59.6232 48.4677 59.6882 49.1174 59.2984C49.3773 59.1035 49.6371 58.7787 49.897 58.5837C50.5467 57.999 51.1963 57.4793 51.846 56.9596C53.0804 56.05 54.3797 55.2704 55.6791 54.5558C57.6281 53.5163 56.0039 50.7227 54.1199 51.6972Z" fill="black"/>
<path d="M49.5734 69.8878C50.9377 68.1337 52.7568 65.7299 55.2255 67.0943C56.7198 67.9388 58.0841 69.563 59.3834 70.6675C60.9426 72.0318 63.2165 69.7579 61.6573 68.3936C59.5134 66.5096 57.1096 63.4561 53.9911 63.3911C50.7428 63.3261 48.5339 65.8599 46.7798 68.2637C45.4804 69.9528 48.274 71.577 49.5734 69.8878Z" fill="black"/>
<path d="M34.2406 69.1733C32.4215 66.7695 30.2776 64.2358 27.0292 64.3008C23.9108 64.3658 21.507 67.4192 19.3631 69.3033C17.8039 70.6676 20.0777 73.0064 21.6369 71.5771C22.9363 70.4077 24.3006 68.8485 25.7949 68.0039C28.2636 66.6396 30.1477 69.0434 31.447 70.7975C32.6814 72.4867 35.475 70.8625 34.2406 69.1733Z" fill="black"/>
<path d="M26.4449 84.8952C32.5518 81.5819 40.4128 82.0366 44.5708 88.1436C45.7402 89.8977 48.5338 88.2735 47.3643 86.5194C42.2319 78.8532 32.5518 77.8787 24.8207 82.1016C22.9366 83.0761 24.6258 85.8697 26.4449 84.8952Z" fill="black"/>
</svg>
