<svg width="251" height="514" viewBox="0 0 251 514" fill="none" xmlns="http://www.w3.org/2000/svg">
<path d="M75.2985 112.924L35.6001 179.277L65.4993 198.492L60.0915 254.585L91.5232 170.17L60.2719 170.871L75.2985 112.924Z" fill="#FFA602" stroke="black" stroke-width="3.19084" stroke-miterlimit="10"/>
<path d="M24.5306 161.82L15.0856 207.956L38.5339 215.388L41.2321 235.719L43.9069 199.811L29.2376 196.47L24.5306 161.82Z" fill="#FED52F" stroke="black" stroke-width="2.39313" stroke-miterlimit="10"/>
<path d="M6.00095 235.839C6.00095 235.839 -3.76302 279.274 49.6836 306.396C103.13 333.518 72.8172 361.438 72.8172 361.438C72.8172 361.438 55.2675 374.202 57.6607 413.289C60.0538 452.377 52.8744 490.667 40.9088 510.61C40.9088 510.61 61.6492 502.633 83.9851 465.141C106.321 427.648 116.691 394.942 136.634 384.572C156.577 374.202 174.924 346.282 174.924 325.541C174.924 304.801 180.508 288.847 198.058 271.297C215.607 253.747 217.011 222.996 217.011 222.996" fill="#E05151"/>
<path d="M6.00095 235.839C6.00095 235.839 -3.76302 279.274 49.6836 306.396C103.13 333.518 72.8172 361.438 72.8172 361.438C72.8172 361.438 55.2675 374.202 57.6607 413.289C60.0538 452.377 52.8744 490.667 40.9088 510.61C40.9088 510.61 61.6492 502.633 83.9851 465.141C106.321 427.648 116.691 394.942 136.634 384.572C156.577 374.202 174.924 346.282 174.924 325.541C174.924 304.801 180.508 288.847 198.058 271.297C215.607 253.747 217.011 222.996 217.011 222.996" stroke="black" stroke-width="3.19084" stroke-miterlimit="10"/>
<path d="M57.4616 408.735C57.4616 408.735 46.4851 393.347 91.9546 358.247C137.424 323.148 103.521 285.879 98.9345 279.785" stroke="#FFA602" stroke-width="3.19084" stroke-miterlimit="10"/>
<path d="M107.709 421.131C107.709 421.131 100.33 402.329 107.709 375.103" stroke="#FFA602" stroke-width="3.19084" stroke-miterlimit="10"/>
<path d="M130.89 388.353C130.89 388.353 119.076 362.236 135.828 323.148" stroke="#FFA602" stroke-width="3.19084" stroke-miterlimit="10"/>
<path d="M126.886 361.622C126.886 361.622 139.019 367.022 143.805 347.079C148.591 327.137 150.506 290.665 171.486 279.785" stroke="#FFA602" stroke-width="3.19084" stroke-miterlimit="10"/>
<path d="M110.267 244.143C168.534 240.6 215.238 228.993 214.583 218.219C213.928 207.446 166.162 201.584 107.895 205.127C49.6278 208.671 2.9242 220.277 3.57938 231.051C4.23457 241.825 52.0004 247.686 110.267 244.143Z" fill="#FF6462" stroke="black" stroke-width="3.19084" stroke-miterlimit="10"/>
<path d="M246.424 5.58982L204.9 42.1488L212.018 66.555L184.271 108.967L225.878 71.615L226.432 41.419L246.424 5.58982Z" fill="#FED52F" stroke="black" stroke-width="2.39313" stroke-miterlimit="10"/>
<path d="M73.9886 19.0294L64.5436 65.1662L87.992 72.5982L90.6901 92.9291L93.3649 57.0205L78.6956 53.6799L73.9886 19.0294Z" fill="#FED52F" stroke="black" stroke-width="2.39313" stroke-miterlimit="10"/>
</svg>
