<svg width="312" height="311" viewBox="0 0 312 311" fill="none" xmlns="http://www.w3.org/2000/svg">
<path d="M63.5582 32.7348C63.5582 32.7348 53.6353 76.1701 107.952 103.292C162.269 130.414 131.462 158.334 131.462 158.334C131.462 158.334 113.627 171.098 116.059 210.185C118.491 249.273 111.195 287.563 99.0343 307.506C99.0343 307.506 120.112 299.529 142.812 262.037C165.511 224.544 176.05 191.838 196.318 181.468C216.585 171.098 235.231 143.178 235.231 122.437C235.231 101.697 240.906 85.7426 258.741 68.193C276.577 50.6434 278.004 19.8917 278.004 19.8917" fill="#34708A"/>
<path d="M63.5582 32.7348C63.5582 32.7348 53.6353 76.1701 107.952 103.292C162.269 130.414 131.462 158.334 131.462 158.334C131.462 158.334 113.627 171.098 116.059 210.185C118.491 249.273 111.195 287.563 99.0343 307.506C99.0343 307.506 120.112 299.529 142.812 262.037C165.511 224.544 176.05 191.838 196.318 181.468C216.585 171.098 235.231 143.178 235.231 122.437C235.231 101.697 240.906 85.7426 258.741 68.193C276.577 50.6434 278.004 19.8917 278.004 19.8917" stroke="black" stroke-width="3.19084" stroke-miterlimit="10"/>
<path d="M171.961 45.8323C231.176 42.2889 278.64 30.6825 277.974 19.9086C277.308 9.13474 228.765 3.27322 169.549 6.81656C110.334 10.3599 62.8699 21.9663 63.5357 32.7402C64.2016 43.5141 112.745 49.3756 171.961 45.8323Z" fill="#34708A" stroke="black" stroke-width="3.19084" stroke-miterlimit="10"/>
<path d="M115.856 205.622C115.856 205.622 104.701 190.235 150.911 155.135C197.121 120.036 162.666 82.7671 158.005 76.6725" stroke="black" stroke-width="3.19084" stroke-miterlimit="10"/>
<path d="M166.957 218.019C166.957 218.019 159.458 199.217 166.957 171.991" stroke="black" stroke-width="3.19084" stroke-miterlimit="10"/>
<path d="M190.515 185.249C190.515 185.249 178.509 159.132 195.533 120.044" stroke="black" stroke-width="3.19084" stroke-miterlimit="10"/>
<path d="M186.445 158.518C186.445 158.518 198.776 163.918 203.64 143.975C208.504 124.033 210.45 87.5612 231.771 76.6805" stroke="black" stroke-width="3.19084" stroke-miterlimit="10"/>
<path d="M224.644 23.4174C225.138 31.4503 189.743 40.1134 145.593 42.7538C122.439 44.1419 101.467 43.5994 86.6877 41.6131C86.1608 41.7089 64.9205 45.6416 62.6343 74.0002C60.3239 102.622 69.9793 245.332 98.9373 284.987C95.1676 285.537 86.177 286.837 64.7341 289.94C27.815 295.285 25.4558 271.832 25.4558 271.832C-4.53993 280.607 3.38057 262.699 3.38057 262.699C20.2106 236.007 25.4558 186.477 36.911 96.3919C48.2202 7.46316 85.7068 21.1439 86.6796 21.5188H86.6958C101.061 17.9211 121.288 15.0095 143.801 13.6614C187.952 11.013 224.157 15.3844 224.652 23.4174H224.644Z" fill="#2D94C1" stroke="black" stroke-width="3.19084" stroke-miterlimit="10"/>
<path d="M162.098 103.364C162.098 103.364 164.701 108.469 164.701 111.357V114.245C164.701 114.245 151.989 109.434 150.035 104.624C148.081 99.814 151.016 95.4824 151.016 95.4824" fill="#0088C2"/>
<path d="M162.098 103.364C162.098 103.364 164.701 108.469 164.701 111.357V114.245C164.701 114.245 151.989 109.434 150.035 104.624C148.081 99.814 151.016 95.4824 151.016 95.4824" stroke="black" stroke-width="2.39313" stroke-miterlimit="10"/>
<path d="M164.701 92.7066C164.701 92.7066 167.944 99.0723 167.944 102.67V106.268C167.944 106.268 152.095 100.269 149.654 94.2701C147.214 88.2713 150.87 82.8708 150.87 82.8708" fill="#0088C2"/>
<path d="M164.701 92.7066C164.701 92.7066 167.944 99.0723 167.944 102.67V106.268C167.944 106.268 152.095 100.269 149.654 94.2701C147.214 88.2713 150.87 82.8708 150.87 82.8708" stroke="black" stroke-width="2.39313" stroke-miterlimit="10"/>
<path d="M156.472 110.934C156.472 110.934 158.215 114.356 158.215 116.295V118.233C158.215 118.233 149.686 115.003 148.373 111.78C147.06 108.557 149.03 105.645 149.03 105.645" fill="#0088C2"/>
<path d="M156.472 110.934C156.472 110.934 158.215 114.356 158.215 116.295V118.233C158.215 118.233 149.686 115.003 148.373 111.78C147.06 108.557 149.03 105.645 149.03 105.645" stroke="black" stroke-width="2.39313" stroke-miterlimit="10"/>
<path d="M166.322 74.3591C166.322 74.3591 175.24 87.9202 175.24 92.7065V97.4927C175.24 97.4927 154.162 89.5156 150.919 81.5385C147.676 73.5614 152.54 66.382 152.54 66.382" fill="#0088C2"/>
<path d="M166.322 74.3591C166.322 74.3591 175.24 87.9202 175.24 92.7065V97.4927C175.24 97.4927 154.162 89.5156 150.919 81.5385C147.676 73.5614 152.54 66.382 152.54 66.382" stroke="black" stroke-width="2.39313" stroke-miterlimit="10"/>
<path d="M154.161 62.3935C154.161 62.3935 184.643 35.2713 196.561 62.3935C208.478 89.5156 163.079 75.1568 157.404 69.5729C151.729 63.9889 154.161 62.3935 154.161 62.3935Z" fill="#0088C2" stroke="black" stroke-width="2.39313" stroke-miterlimit="10"/>
<path d="M161.928 56.7218C161.928 56.7218 113.627 28.8897 114.438 48.0347C115.249 67.1798 153.643 64.3639 153.643 64.3639" fill="#0088C2"/>
<path d="M161.928 56.7218C161.928 56.7218 113.627 28.8897 114.438 48.0347C115.249 67.1798 153.643 64.3639 153.643 64.3639" stroke="black" stroke-width="2.39313" stroke-miterlimit="10"/>
<path d="M152.54 66.3822C152.54 66.3822 133.894 63.1913 128.219 67.9776C122.545 72.7639 119.504 81.9375 119.504 81.9375C119.504 81.9375 149.614 83.9238 150.27 79.5444" fill="#0088C2"/>
<path d="M152.54 66.3822C152.54 66.3822 133.894 63.1913 128.219 67.9776C122.545 72.7639 119.504 81.9375 119.504 81.9375C119.504 81.9375 149.614 83.9238 150.27 79.5444" stroke="black" stroke-width="2.39313" stroke-miterlimit="10"/>
<path d="M150.878 82.8707C150.878 82.8707 136.861 80.4696 132.589 84.0673C128.317 87.665 126.039 94.5652 126.039 94.5652C126.039 94.5652 148.681 96.0569 149.168 92.7623" fill="#0088C2"/>
<path d="M150.878 82.8707C150.878 82.8707 136.861 80.4696 132.589 84.0673C128.317 87.665 126.039 94.5652 126.039 94.5652C126.039 94.5652 148.681 96.0569 149.168 92.7623" stroke="black" stroke-width="2.39313" stroke-miterlimit="10"/>
<path d="M149.363 113.112C147.279 113.343 145.244 114.069 143.89 115.712C142.334 117.603 142.042 120.228 142.318 122.653C142.593 125.078 143.339 127.415 143.615 129.84C146.225 128.34 147.936 125.987 149.338 123.41C149.338 123.41 151.057 115.984 149.371 113.12" fill="#0088C2"/>
<path d="M149.363 113.112C147.279 113.343 145.244 114.069 143.89 115.712C142.334 117.603 142.042 120.228 142.318 122.653C142.593 125.078 143.339 127.415 143.615 129.84C146.225 128.34 147.936 125.987 149.338 123.41C149.338 123.41 151.057 115.984 149.371 113.12" stroke="black" stroke-width="2.39313" stroke-miterlimit="10"/>
<path d="M151.008 95.4825C151.008 95.4825 139.764 93.5601 136.343 96.4478C132.922 99.3355 131.089 104.864 131.089 104.864C131.089 104.864 149.249 106.06 149.638 103.42" fill="#0088C2"/>
<path d="M151.008 95.4825C151.008 95.4825 139.764 93.5601 136.343 96.4478C132.922 99.3355 131.089 104.864 131.089 104.864C131.089 104.864 149.249 106.06 149.638 103.42" stroke="black" stroke-width="2.39313" stroke-miterlimit="10"/>
<path d="M149.03 105.645C149.03 105.645 141.49 104.353 139.188 106.292C136.885 108.23 135.661 111.939 135.661 111.939C135.661 111.939 147.846 112.745 148.105 110.966" fill="#0088C2"/>
<path d="M149.03 105.645C149.03 105.645 141.49 104.353 139.188 106.292C136.885 108.23 135.661 111.939 135.661 111.939C135.661 111.939 147.846 112.745 148.105 110.966" stroke="black" stroke-width="2.39313" stroke-miterlimit="10"/>
<path d="M157.3 236.885C157.3 236.885 155.281 240.841 155.281 243.083V245.324C155.281 245.324 165.147 241.591 166.663 237.858C168.179 234.125 165.901 230.766 165.901 230.766" fill="#0088C2"/>
<path d="M157.3 236.885C157.3 236.885 155.281 240.841 155.281 243.083V245.324C155.281 245.324 165.147 241.591 166.663 237.858C168.179 234.125 165.901 230.766 165.901 230.766" stroke="black" stroke-width="2.39313" stroke-miterlimit="10"/>
<path d="M155.281 228.612C155.281 228.612 152.768 233.55 152.768 236.342V239.134C152.768 239.134 165.066 234.484 166.955 229.825C168.844 225.166 166.007 220.978 166.007 220.978" fill="#0088C2"/>
<path d="M155.281 228.612C155.281 228.612 152.768 233.55 152.768 236.342V239.134C152.768 239.134 165.066 234.484 166.955 229.825C168.844 225.166 166.007 220.978 166.007 220.978" stroke="black" stroke-width="2.39313" stroke-miterlimit="10"/>
<path d="M161.669 242.764C161.669 242.764 160.315 245.42 160.315 246.92V248.42C160.315 248.42 166.931 245.915 167.952 243.41C168.974 240.905 167.441 238.656 167.441 238.656" fill="#0088C2"/>
<path d="M161.669 242.764C161.669 242.764 160.315 245.42 160.315 246.92V248.42C160.315 248.42 166.931 245.915 167.952 243.41C168.974 240.905 167.441 238.656 167.441 238.656" stroke="black" stroke-width="2.39313" stroke-miterlimit="10"/>
<path d="M154.024 214.381C154.024 214.381 147.101 224.903 147.101 228.621V232.338C147.101 232.338 163.453 226.148 165.974 219.957C168.495 213.767 164.718 208.199 164.718 208.199" fill="#0088C2"/>
<path d="M154.024 214.381C154.024 214.381 147.101 224.903 147.101 228.621V232.338C147.101 232.338 163.453 226.148 165.974 219.957C168.495 213.767 164.718 208.199 164.718 208.199" stroke="black" stroke-width="2.39313" stroke-miterlimit="10"/>
<path d="M163.461 205.096C163.461 205.096 139.813 184.052 130.563 205.096C121.313 226.14 156.546 215.004 160.948 210.664C165.35 206.324 163.461 205.096 163.461 205.096Z" fill="#0088C2" stroke="black" stroke-width="2.39313" stroke-miterlimit="10"/>
<path d="M157.438 200.693C157.438 200.693 194.916 179.099 194.284 193.952C193.652 208.805 163.859 206.62 163.859 206.62" fill="#0088C2"/>
<path d="M157.438 200.693C157.438 200.693 194.916 179.099 194.284 193.952C193.652 208.805 163.859 206.62 163.859 206.62" stroke="black" stroke-width="2.39313" stroke-miterlimit="10"/>
<path d="M164.718 208.191C164.718 208.191 179.189 205.718 183.591 209.427C187.993 213.145 190.352 220.26 190.352 220.26C190.352 220.26 166.988 221.8 166.477 218.402" fill="#0088C2"/>
<path d="M164.718 208.191C164.718 208.191 179.189 205.718 183.591 209.427C187.993 213.145 190.352 220.26 190.352 220.26C190.352 220.26 166.988 221.8 166.477 218.402" stroke="black" stroke-width="2.39313" stroke-miterlimit="10"/>
<path d="M166.007 220.986C166.007 220.986 176.886 219.128 180.194 221.92C183.502 224.712 185.277 230.064 185.277 230.064C185.277 230.064 167.709 231.221 167.328 228.668" fill="#0088C2"/>
<path d="M166.007 220.986C166.007 220.986 176.886 219.128 180.194 221.92C183.502 224.712 185.277 230.064 185.277 230.064C185.277 230.064 167.709 231.221 167.328 228.668" stroke="black" stroke-width="2.39313" stroke-miterlimit="10"/>
<path d="M167.182 244.455C168.795 244.631 170.376 245.197 171.43 246.473C172.638 247.941 172.865 249.975 172.654 251.858C172.443 253.74 171.86 255.559 171.649 257.434C169.622 256.269 168.293 254.442 167.206 252.44C167.206 252.44 165.869 246.681 167.182 244.455Z" fill="#0088C2" stroke="black" stroke-width="2.39313" stroke-miterlimit="10"/>
<path d="M165.901 230.766C165.901 230.766 174.624 229.275 177.284 231.516C179.943 233.758 181.361 238.049 181.361 238.049C181.361 238.049 167.271 238.983 166.963 236.925" fill="#0088C2"/>
<path d="M165.901 230.766C165.901 230.766 174.624 229.275 177.284 231.516C179.943 233.758 181.361 238.049 181.361 238.049C181.361 238.049 167.271 238.983 166.963 236.925" stroke="black" stroke-width="2.39313" stroke-miterlimit="10"/>
<path d="M167.441 238.656C167.441 238.656 173.295 237.651 175.078 239.158C176.862 240.666 177.81 243.538 177.81 243.538C177.81 243.538 168.357 244.16 168.155 242.788" fill="#0088C2"/>
<path d="M167.441 238.656C167.441 238.656 173.295 237.651 175.078 239.158C176.862 240.666 177.81 243.538 177.81 243.538C177.81 243.538 168.357 244.16 168.155 242.788" stroke="black" stroke-width="2.39313" stroke-miterlimit="10"/>
<path d="M262.999 71.4955C262.999 71.4955 260.397 76.6009 260.397 79.4886V82.3763C260.397 82.3763 273.109 77.5661 275.062 72.7559C277.016 67.9457 274.082 63.6141 274.082 63.6141" fill="#0088C2"/>
<path d="M262.999 71.4955C262.999 71.4955 260.397 76.6009 260.397 79.4886V82.3763C260.397 82.3763 273.109 77.5661 275.062 72.7559C277.016 67.9457 274.082 63.6141 274.082 63.6141" stroke="black" stroke-width="2.39313" stroke-miterlimit="10"/>
<path d="M260.397 60.8301C260.397 60.8301 257.154 67.1958 257.154 70.7935V74.3912C257.154 74.3912 273.003 68.3924 275.444 62.3936C277.884 56.3948 274.228 50.9943 274.228 50.9943" fill="#0088C2"/>
<path d="M260.397 60.8301C260.397 60.8301 257.154 67.1958 257.154 70.7935V74.3912C257.154 74.3912 273.003 68.3924 275.444 62.3936C277.884 56.3948 274.228 50.9943 274.228 50.9943" stroke="black" stroke-width="2.39313" stroke-miterlimit="10"/>
<path d="M268.626 79.0578C268.626 79.0578 266.883 82.48 266.883 84.4184V86.3568C266.883 86.3568 275.411 83.1261 276.725 79.9034C278.038 76.6806 276.068 73.769 276.068 73.769" fill="#0088C2"/>
<path d="M268.626 79.0578C268.626 79.0578 266.883 82.48 266.883 84.4184V86.3568C266.883 86.3568 275.411 83.1261 276.725 79.9034C278.038 76.6806 276.068 73.769 276.068 73.769" stroke="black" stroke-width="2.39313" stroke-miterlimit="10"/>
<path d="M258.776 42.4826C258.776 42.4826 249.858 56.0437 249.858 60.8299V65.6162C249.858 65.6162 270.936 57.6391 274.179 49.662C277.422 41.6849 272.557 34.5055 272.557 34.5055" fill="#0088C2"/>
<path d="M258.776 42.4826C258.776 42.4826 249.858 56.0437 249.858 60.8299V65.6162C249.858 65.6162 270.936 57.6391 274.179 49.662C277.422 41.6849 272.557 34.5055 272.557 34.5055" stroke="black" stroke-width="2.39313" stroke-miterlimit="10"/>
<path d="M270.937 30.5169C270.937 30.5169 240.454 3.39479 228.537 30.5169C216.62 57.6391 262.019 43.2803 267.694 37.6963C273.369 32.1124 270.937 30.5169 270.937 30.5169Z" fill="#0088C2" stroke="black" stroke-width="2.39313" stroke-miterlimit="10"/>
<path d="M263.17 24.8453C263.17 24.8453 311.472 -2.98679 310.661 16.1583C309.85 35.3033 271.456 32.4874 271.456 32.4874" fill="#0088C2"/>
<path d="M263.17 24.8453C263.17 24.8453 311.472 -2.98679 310.661 16.1583C309.85 35.3033 271.456 32.4874 271.456 32.4874" stroke="black" stroke-width="2.39313" stroke-miterlimit="10"/>
<path d="M272.558 34.5057C272.558 34.5057 291.204 31.3148 296.879 36.1011C302.553 40.8873 305.593 50.061 305.593 50.061C305.593 50.061 275.484 52.0473 274.828 47.6679" fill="#0088C2"/>
<path d="M272.558 34.5057C272.558 34.5057 291.204 31.3148 296.879 36.1011C302.553 40.8873 305.593 50.061 305.593 50.061C305.593 50.061 275.484 52.0473 274.828 47.6679" stroke="black" stroke-width="2.39313" stroke-miterlimit="10"/>
<path d="M274.22 51.0022C274.22 51.0022 288.237 48.6011 292.51 52.1988C296.782 55.7964 299.06 62.6966 299.06 62.6966C299.06 62.6966 276.417 64.1883 275.931 60.8938" fill="#0088C2"/>
<path d="M274.22 51.0022C274.22 51.0022 288.237 48.6011 292.51 52.1988C296.782 55.7964 299.06 62.6966 299.06 62.6966C299.06 62.6966 276.417 64.1883 275.931 60.8938" stroke="black" stroke-width="2.39313" stroke-miterlimit="10"/>
<path d="M275.736 81.2434C277.82 81.4747 279.854 82.2007 281.208 83.844C282.765 85.7345 283.057 88.359 282.781 90.784C282.513 93.2011 281.76 95.5464 281.484 97.9714C278.873 96.4717 277.163 94.1185 275.76 91.5419C275.76 91.5419 274.042 84.1152 275.728 81.2514" fill="#0088C2"/>
<path d="M275.736 81.2434C277.82 81.4747 279.854 82.2007 281.208 83.844C282.765 85.7345 283.057 88.359 282.781 90.784C282.513 93.2011 281.76 95.5464 281.484 97.9714C278.873 96.4717 277.163 94.1185 275.76 91.5419C275.76 91.5419 274.042 84.1152 275.728 81.2514" stroke="black" stroke-width="2.39313" stroke-miterlimit="10"/>
<path d="M274.09 63.6061C274.09 63.6061 285.335 61.6836 288.756 64.5713C292.177 67.459 294.009 72.9872 294.009 72.9872C294.009 72.9872 275.85 74.1837 275.46 71.5433" fill="#0088C2"/>
<path d="M274.09 63.6061C274.09 63.6061 285.335 61.6836 288.756 64.5713C292.177 67.459 294.009 72.9872 294.009 72.9872C294.009 72.9872 275.85 74.1837 275.46 71.5433" stroke="black" stroke-width="2.39313" stroke-miterlimit="10"/>
<path d="M276.068 73.7689C276.068 73.7689 283.607 72.4766 285.91 74.415C288.212 76.3535 289.436 80.0628 289.436 80.0628C289.436 80.0628 277.251 80.8685 276.992 79.0896" fill="#0088C2"/>
<path d="M276.068 73.7689C276.068 73.7689 283.607 72.4766 285.91 74.415C288.212 76.3535 289.436 80.0628 289.436 80.0628C289.436 80.0628 277.251 80.8685 276.992 79.0896" stroke="black" stroke-width="2.39313" stroke-miterlimit="10"/>
</svg>
