<svg width="298" height="261" viewBox="0 0 298 261" fill="none" xmlns="http://www.w3.org/2000/svg">
<path d="M129.831 76.9848C129.831 90.6416 119.17 102.24 104.342 106.428C100.516 107.505 96.4056 108.096 92.1332 108.096C79.381 108.096 68.1042 102.871 61.2781 94.8695C55.7492 101.363 45.6722 105.702 34.1684 105.702C16.706 105.702 2.55127 95.6991 2.55127 83.3665C2.55127 71.0339 16.706 61.0306 34.1684 61.0306C42.7699 61.0306 50.5607 63.4557 56.2599 67.3964C59.0325 60.3366 64.7722 54.3777 72.2792 50.5328C78.0433 47.5812 84.845 45.8741 92.1332 45.8741C112.952 45.8741 129.831 59.8022 129.831 76.9848Z" fill="#34708A" stroke="black" stroke-width="3.19084" stroke-miterlimit="10"/>
<path d="M296.058 83.7653C296.058 97.1987 282.082 108.095 264.846 108.095C256.018 108.095 248.049 105.24 242.374 100.645C232.832 111.877 216.683 119.263 198.369 119.263C188.049 119.263 178.41 116.918 170.262 112.858C162.569 114.94 154.292 116.073 145.674 116.073C130.392 116.073 116.181 112.515 104.377 106.428C119.205 102.24 129.865 90.6416 129.865 76.9848C129.865 59.8021 112.987 45.8741 92.1679 45.8741C84.8798 45.8741 78.078 47.5812 72.314 50.5327C77.6565 23.0675 108.471 2 145.674 2C176.245 2 202.496 16.2232 213.853 36.5329C230.043 40.4576 242.949 50.3732 248.511 63.0328C253.261 60.7514 258.855 59.4351 264.846 59.4351C282.082 59.4351 296.058 70.3319 296.058 83.7653Z" fill="#2D94C1" stroke="black" stroke-width="3.19084" stroke-miterlimit="10"/>
<path d="M150.943 57.8396C150.943 57.8396 172.338 35.5037 205.819 45.874" stroke="black" stroke-width="3.19084" stroke-miterlimit="10"/>
<path d="M44.9099 129.45L39.6729 143.849" stroke="#22365E" stroke-width="3.19084" stroke-miterlimit="10" stroke-linecap="round"/>
<path d="M152.405 213.393L147.167 227.792" stroke="#22365E" stroke-width="3.19084" stroke-miterlimit="10" stroke-linecap="round"/>
<path d="M184.833 171.912L179.596 186.311" stroke="#22365E" stroke-width="3.19084" stroke-miterlimit="10" stroke-linecap="round"/>
<path d="M192.129 244.504L186.892 258.903" stroke="#22365E" stroke-width="3.19084" stroke-miterlimit="10" stroke-linecap="round"/>
<path d="M147.767 131.569L140.083 156.416" stroke="#22365E" stroke-width="3.19084" stroke-miterlimit="10" stroke-linecap="round"/>
<path d="M43.7508 211.526L36.0671 236.372" stroke="#22365E" stroke-width="3.19084" stroke-miterlimit="10" stroke-linecap="round"/>
<path d="M231.867 133.35L224.183 158.197" stroke="#22365E" stroke-width="3.19084" stroke-miterlimit="10" stroke-linecap="round"/>
</svg>
