<svg width="84" height="170" viewBox="0 0 84 170" fill="none" xmlns="http://www.w3.org/2000/svg">
<path d="M72.5592 67.7237C72.7586 67.266 72.825 66.8083 72.5592 66.2199C72.2934 65.4353 71.9612 64.6507 71.629 63.8661C71.629 63.2776 71.5625 62.6892 71.5625 62.0354C71.4961 60.7277 70.6987 60.0085 69.7684 59.8777C68.8382 58.047 67.7086 56.2816 66.5789 54.5817C65.0507 52.0971 63.3895 49.7433 61.5289 47.3895C60.8645 46.5396 59.6684 46.5396 58.8046 47.0626C56.346 43.9242 53.7546 40.9166 51.0302 37.9744C50.5651 37.4513 49.9671 37.3205 49.3691 37.3205C49.3691 37.3205 49.3691 37.3205 49.3026 37.2552C48.9704 36.8629 48.5717 36.6667 48.2394 36.5359C47.1098 34.2475 45.9802 31.8938 44.8506 29.6053C44.5184 28.9515 43.9868 28.6246 43.3888 28.5592C43.5217 27.84 43.5217 27.0554 43.3888 26.2054C43.0565 23.3286 38.4052 23.2632 38.7375 26.2054C38.7375 26.467 38.8039 26.7285 38.8039 26.99C38.6046 27.1208 38.4052 27.1862 38.2059 27.3823C37.4085 27.4477 36.6111 27.9708 36.2125 28.9515C35.6144 30.5207 34.8835 31.8938 34.0197 33.2014C32.4914 34.3783 31.2953 35.7514 30.2986 37.4513C30.1657 37.6475 30.0993 37.909 30.0328 38.1051C29.8335 38.3667 29.6342 38.5628 29.4348 38.8244C28.7703 39.3474 28.1723 39.8705 27.6407 40.4589C24.2519 42.682 20.996 45.1011 17.9394 47.8472C17.6072 48.1088 17.4078 48.4357 17.3414 48.7626C16.3447 49.7433 15.4808 50.9202 14.7499 51.901C14.7499 51.901 14.7499 51.9664 14.6835 51.9664C12.092 54.5163 10.5637 57.5893 10.0322 61.12C9.89926 61.4469 9.76637 61.7084 9.63347 62.0354C8.23807 63.4738 7.77294 65.6968 7.64005 67.9198C7.44071 68.5737 7.30781 69.2929 7.10847 69.9467C6.90913 70.7313 7.17492 71.5159 7.64005 72.039C7.5736 74.5889 7.77294 77.0081 7.97228 78.2504C8.37097 80.8003 9.10189 85.3117 11.6269 86.8155C11.7598 86.8809 11.8927 86.9463 12.0256 87.0117C12.1585 87.5348 12.4907 87.9271 13.1552 88.254C14.8828 89.0386 15.6802 90.8693 17.142 92.0462C18.5374 93.0923 20.1322 93.6154 21.7934 94.0077C22.1256 94.0731 22.4578 94.1385 22.7901 94.2038C23.0559 94.4 23.3216 94.5961 23.6539 94.8577C24.2519 95.25 24.9164 95.3153 25.448 95.1192C27.7072 96.8192 30.6973 97.2115 33.7539 97.2115C38.073 98.4537 42.7243 98.4537 47.1098 97.3422C48.3059 97.996 49.6348 97.4076 50.1664 96.3615C51.2296 95.9692 52.2263 95.4461 53.223 94.923C56.7447 93.7462 60.1335 92.177 61.9941 89.3001C62.725 90.7385 65.1171 91.2616 66.1138 89.4963L70.7651 81.258C71.1638 80.5388 71.0974 79.7542 70.7651 79.1003C70.8316 78.5773 70.9645 78.0542 71.0309 77.5311C71.4961 76.4196 71.8947 75.2427 72.227 74.0658C72.4263 73.3466 72.227 72.7582 71.8947 72.2351C71.9612 71.7121 72.0941 71.189 72.1605 70.6659C72.2934 70.0121 72.1605 69.4236 71.8947 68.966C72.227 68.5737 72.4928 68.1814 72.5592 67.7237Z" fill="#FED530"/>
<path d="M76.2134 121.926C75.2167 121.469 74.2199 121.403 73.3561 121.73C71.4292 119.899 68.3061 118.526 66.512 117.35C64.1199 115.78 60.6647 112.838 57.6081 114.538C57.1429 114.8 56.7443 115.126 56.4785 115.519C55.4153 115.323 54.3522 115.519 53.4219 116.434C52.9568 116.892 52.6245 117.35 52.4916 117.742C52.2923 117.153 52.1594 116.63 51.96 116.042C51.4949 114.603 49.8337 114.146 48.7041 114.603C48.0396 113.1 47.3087 111.661 46.6442 110.157C46.3785 109.634 45.9798 109.307 45.5811 109.111C45.3817 108.719 45.2488 108.392 45.0495 108C44.6508 107.15 43.9199 106.823 43.1225 106.888C42.5245 105.777 41.0627 105.123 39.8666 106.038C39.335 106.038 38.8034 106.234 38.3383 106.627C38.0061 106.888 37.6738 107.215 37.3416 107.477C35.2153 108 34.285 109.569 34.0192 111.4C32.2916 112.577 30.7633 114.015 29.5008 115.584C29.1686 114.342 27.8396 113.95 26.71 114.08C23.1218 114.603 17.1416 116.107 13.7528 119.049C13.5534 119.18 13.3541 119.246 13.2212 119.376C11.7593 119.573 10.2975 120.161 9.30077 120.684C8.6363 121.011 7.63959 121.599 6.57643 122.319C3.98497 123.888 1.72576 126.176 2.45668 128.661C3.51984 132.061 7.50669 130.688 10.6297 129.184C12.4238 128.726 14.085 127.942 15.4139 126.765C16.61 126.176 17.7396 125.522 18.8028 124.803C21.1284 124.019 23.4541 123.103 25.6468 122.057C25.1817 123.43 24.9824 124.738 25.3146 125.98C25.4475 126.569 25.7133 127.026 25.9791 127.419C25.7133 128.465 25.514 129.511 25.3811 130.492C24.6501 135.068 24.4508 139.711 24.9159 144.287C24.8495 144.418 24.8495 144.549 24.783 144.68C23.9192 148.537 24.1186 152.46 25.5804 156.122C26.7765 159.064 29.235 163.183 32.4245 164.295C32.8232 164.425 33.2219 164.491 33.6205 164.556C34.285 165.014 35.0824 165.079 35.7469 164.752C36.0126 164.948 36.2784 165.079 36.6107 165.21C36.81 165.471 37.0758 165.668 37.3416 165.864C37.8067 166.845 38.9363 167.302 39.9995 167.041C41.4613 167.368 43.0561 167.171 44.4515 166.583C45.3817 167.76 47.4416 167.433 48.239 166.191C48.7706 165.406 49.2357 164.621 49.6344 163.837C50.2324 163.706 50.764 163.379 51.0962 162.856C52.0265 161.483 52.8903 160.045 53.5548 158.541C54.0199 157.887 54.485 157.168 54.9502 156.449C56.0798 156.449 57.2094 155.599 57.3423 154.226C57.4752 152.787 57.6081 151.283 57.6745 149.845C58.2061 147.753 58.5383 145.595 58.6048 143.372C58.6048 142.784 58.4054 142.326 58.1397 141.999C58.0732 141.737 58.0068 141.41 58.0068 141.149C58.0068 140.626 58.0068 140.103 58.0068 139.58C58.4054 136.376 58.4054 133.172 58.1397 129.903C58.0068 128.595 57.01 127.811 56.0133 127.745C56.0798 126.961 56.1462 126.111 56.1462 125.326C56.2127 124.084 55.4818 123.365 54.5515 123.169C54.485 122.972 54.4851 122.776 54.4186 122.58C54.2857 121.926 53.9535 121.469 53.5548 121.207C53.5548 121.142 53.4883 121.076 53.4883 121.011C55.5482 123.103 59.7344 124.672 61.9936 125.392C64.4522 126.503 67.1101 127.157 69.9009 127.549C71.2962 128.203 72.6917 128.726 74.2199 129.118C75.6153 129.642 77.343 129.642 78.8048 128.922C79.3364 128.726 79.6022 128.334 79.8015 127.876C81.795 125.849 78.4061 122.972 76.2134 121.926ZM40.9298 144.026C40.9298 142.914 40.9298 141.868 40.9962 140.757C41.0627 141.345 41.1291 141.934 41.1956 142.522C41.0627 143.045 40.9962 143.568 40.9298 144.026Z" fill="#FED530"/>
<path d="M72.1608 63.866C72.2273 63.539 72.1608 63.2121 71.9615 62.8852C71.895 62.7544 71.7621 62.5583 71.6957 62.4275C71.3634 61.5776 71.0312 60.7276 70.6325 59.8122C70.4996 59.5507 70.3667 59.4199 70.1674 59.2891C70.3003 58.8968 70.2338 58.5046 69.968 58.1123L66.4463 53.6008C66.4463 53.2085 66.3799 52.7508 65.9812 52.3585C63.7884 49.9394 61.6621 47.5202 59.4693 45.101C58.8713 44.4472 57.9411 44.5126 57.343 44.9703C56.8114 44.1203 56.3463 43.2703 55.8812 42.4203C55.4825 41.5703 54.6851 41.4396 54.0206 41.7011C53.9542 41.4396 53.8213 41.178 53.5555 40.9819C51.6285 39.0858 49.8345 37.1243 48.1733 35.0974C46.645 33.0705 45.316 30.9129 44.1864 28.5591C43.9206 28.1014 43.5884 27.8399 43.1897 27.7745C43.1897 27.7091 43.1233 27.7091 43.1233 27.6437C42.791 27.1207 42.3259 26.8591 41.8608 26.8591C41.9272 26.2053 41.9937 25.4861 41.9937 24.8323C42.0601 22.9362 39.2693 22.6746 38.7377 24.3746C38.6713 24.7015 38.5384 25.0284 38.4719 25.2899C38.0733 25.4861 37.741 25.813 37.5417 26.3361C37.4752 26.5976 37.4088 26.7938 37.3423 27.0553C37.3423 27.1207 37.2759 27.1861 37.2759 27.2514C37.0765 27.8399 36.9437 28.363 36.7443 28.9514C35.5483 30.1283 34.5515 31.5013 33.7542 32.9398C32.2923 34.4436 31.0963 36.1435 29.9667 37.9743C29.7009 38.2358 29.3686 38.4973 29.1029 38.8242C26.3121 40.7204 23.92 43.0088 21.9265 45.7549C21.8601 45.8202 21.8601 45.8202 21.7936 45.8856C19.0028 48.0433 16.5443 50.5932 14.3515 53.4047C14.2851 53.5354 14.1522 53.6008 14.0857 53.7316C13.7535 54.1893 13.687 54.7123 13.8864 55.1046C13.5541 55.2354 13.2884 55.4315 13.089 55.8238C12.7568 56.3469 12.491 56.87 12.2252 57.4584C11.8265 57.5238 11.4278 57.7853 11.162 58.243C10.2982 59.8776 9.5673 61.6429 9.03572 63.3429C8.90283 63.4737 8.83638 63.6698 8.76993 63.866C8.76993 63.9313 8.70348 64.0621 8.70348 64.1275C8.63704 64.2583 8.63704 64.4544 8.63704 64.5852C7.57388 68.8351 7.50743 73.3465 8.57059 77.7926C8.63704 78.1849 8.83638 78.4464 9.10217 78.6425C10.4311 85.3116 15.4147 92.373 22.4581 93.6806C24.518 95.5114 27.1094 96.6883 30.0331 96.9498C33.2226 98.1921 36.545 98.5844 40.0002 97.4729C40.7976 97.7998 41.7279 97.9959 42.7246 97.9305C43.5884 97.9305 44.4522 97.7998 45.316 97.669C45.3825 98.5844 46.5121 99.4343 47.3759 99.0421C52.0272 97.1459 56.745 95.2498 61.3963 93.2883C61.5292 93.223 61.6621 93.223 61.795 93.0922C61.9944 93.0268 62.2601 92.896 62.4595 92.8307C63.0575 92.5691 63.3233 92.0461 63.2568 91.4576C63.3233 91.3922 63.3897 91.3269 63.4562 91.1961C63.7884 91.1961 64.1871 91.0653 64.5194 90.7384C66.6457 88.9077 68.0411 86.6847 68.6391 84.0039C69.5029 82.5655 70.3667 81.1271 71.0977 79.6233C71.297 79.1656 71.3634 78.7079 71.1641 78.3156C71.4299 78.1195 71.6292 77.8579 71.6957 77.4656C72.0944 75.8964 72.2273 74.3273 72.2273 72.7581C72.9582 72.6927 73.6227 72.1042 73.5562 71.1889C73.3569 68.7043 72.8917 66.2851 72.1608 63.866Z" fill="#2D94C1"/>
<path d="M28.7706 115.453C27.9732 114.996 27.7074 114.93 26.8436 114.734C25.714 114.473 24.9166 115.323 24.7837 116.238C24.5844 116.172 24.3186 116.107 24.1192 116.107C23.4548 116.107 22.9232 116.238 22.3916 116.434C21.7271 115.649 20.3982 115.519 19.7337 116.63C19.6673 116.761 19.6008 116.826 19.5344 116.957C18.737 116.107 17.1423 116.499 16.81 117.546C16.3449 117.611 15.9462 117.872 15.6804 118.265C14.9495 117.872 13.8863 118.003 13.4877 118.722C13.3548 118.853 13.2219 118.984 13.089 119.115C13.089 119.115 13.089 119.18 13.0225 119.18C12.7567 119.18 12.4909 119.245 12.2251 119.376C11.8265 119.18 11.3613 119.18 10.9626 119.311C10.1653 118.984 9.03567 119.245 8.76988 120.095C8.50409 120.03 8.2383 120.03 7.97251 120.095C6.90935 120.226 6.31133 120.945 6.04554 121.926C5.97909 121.992 5.84619 122.122 5.77975 122.188C5.44751 122.711 5.18172 123.234 5.04882 123.822C4.18501 124.018 3.71987 124.607 3.45408 125.326C2.05869 127.549 2.72316 132.257 6.11198 130.099C6.11198 130.099 6.17843 130.099 6.17843 130.034C7.17514 130.164 7.97251 129.838 8.50409 129.249C8.63699 129.184 8.83633 129.118 8.96922 129.053C10.0324 129.314 10.8962 128.791 11.5607 128.007C11.8265 127.941 12.0258 127.811 12.2251 127.68C12.2916 127.615 12.358 127.549 12.4245 127.549C12.9561 128.465 14.0192 128.53 14.7502 128.007H14.8166C16.2784 127.811 17.0758 126.83 17.4745 125.588C17.7403 125.588 18.0061 125.522 18.2719 125.391C18.737 125.261 19.0692 124.999 19.4015 124.738C19.5344 124.672 19.7337 124.672 19.8666 124.607C20.7304 124.149 21.3949 123.561 21.86 122.907C22.9896 122.711 23.8535 121.795 24.5179 120.749C24.8502 120.815 25.1824 120.684 25.5146 120.488C26.5778 119.769 27.7074 119.049 28.7706 118.33C29.7673 117.611 29.9002 116.107 28.7706 115.453Z" fill="#2D94C1"/>
<path d="M59.2126 145.072C59.2126 144.745 59.2791 144.353 59.2791 144.026C59.3455 143.241 58.9468 142.783 58.4152 142.587C58.5481 142.391 58.6146 142.13 58.6146 141.868C58.6146 139.122 58.6146 136.441 58.5481 133.695C58.5481 132.191 58.8139 130.687 57.7508 129.445C57.5514 129.184 57.2192 129.053 56.887 128.988C56.6876 128.661 56.4218 128.399 56.0896 128.268C55.9567 127.157 55.8238 126.045 55.6245 124.999C55.6909 124.803 55.6245 124.541 55.558 124.28C55.4251 123.822 55.2922 123.299 55.1593 122.842C54.8271 121.403 54.4284 119.965 53.9633 118.526C53.5646 117.349 52.3685 117.153 51.5047 117.611C51.4383 117.48 51.3718 117.415 51.3054 117.284C51.9034 116.696 52.1027 115.78 51.3718 114.996C49.2455 112.838 47.1192 110.746 44.9929 108.588C44.5942 107.869 44.0626 107.15 43.5975 106.561C43.4646 106.103 43.0659 105.777 42.5343 105.58C41.8034 105.057 40.9396 104.796 40.0758 105.123C38.6804 105.646 38.0823 107.084 37.9494 108.588C37.6172 108.588 37.2185 108.784 36.9527 109.046C34.5606 111.726 32.5007 114.603 30.9725 117.742C29.3777 120.226 28.0488 122.842 27.3178 125.588C24.2613 130.753 23.5968 136.899 23.7961 142.849C23.9955 147.818 23.6632 154.683 27.783 158.279C28.5139 160.764 29.6435 163.052 31.1718 165.21C31.7698 165.994 33.0323 166.387 33.7632 165.537C33.8297 165.471 33.8297 165.471 33.8297 165.406C34.029 165.406 34.2284 165.341 34.4277 165.21C34.5606 165.275 34.6271 165.341 34.76 165.406C35.2915 166.779 36.4211 167.825 38.0823 168.021C39.3448 168.152 40.5409 167.564 41.3383 166.648C41.9363 166.648 42.5343 166.452 43.1323 166.191C45.2587 166.387 47.3185 165.275 49.1126 163.902C50.508 163.379 51.837 161.941 52.8337 160.633C53.8968 159.521 54.8271 158.279 55.0929 156.971C55.558 156.775 55.8902 156.448 56.0896 155.991C56.156 155.86 56.2225 155.664 56.2889 155.468C56.6212 155.141 56.8205 154.683 56.8205 154.291C56.8205 154.225 56.8205 154.225 56.8205 154.16C57.1527 153.964 57.4185 153.637 57.5514 153.31C58.2824 151.022 58.8139 148.668 59.0797 146.249C59.1462 145.922 59.2126 145.529 59.2126 145.072Z" fill="#2D94C1"/>
<path d="M82.6686 126.765C81.2732 125.719 79.8778 124.803 78.416 123.888C77.087 121.272 72.5686 118.723 70.7081 117.873C69.9107 117.48 69.0469 117.742 68.5818 118.33C67.2528 117.676 65.9239 116.957 64.5949 116.303C63.864 115.911 63.1995 116.107 62.7344 116.5C62.535 116.369 62.2692 116.303 61.937 116.303C60.8739 116.303 59.9436 116.173 58.9469 115.976C58.814 115.911 58.7475 115.846 58.6146 115.78C58.2824 115.584 57.9502 115.519 57.6179 115.584C57.2192 115.453 56.8206 115.584 56.4883 115.78C56.2225 115.65 55.9567 115.519 55.6909 115.388C53.764 114.407 52.2357 117.023 54.0298 118.199C55.3587 119.049 56.6877 119.965 57.9502 120.815C58.1495 120.946 58.3488 121.011 58.5482 121.076C59.2127 121.534 59.9436 121.992 60.5416 122.449C62.6015 123.953 64.5949 125.522 66.6548 126.961C69.9772 129.249 73.6318 130.949 77.7515 129.838C78.2166 129.707 78.4824 129.445 78.6818 129.184C79.5456 129.445 80.4759 129.707 81.3397 129.903C83.2666 130.23 84.064 127.811 82.6686 126.765Z" fill="#2D94C1"/>
<path d="M64.8597 72.8236C64.8597 72.7583 64.8597 72.6929 64.8597 72.6275C64.9261 71.7775 64.0623 70.9929 63.1985 70.9929C62.2682 70.9929 61.6038 71.7121 61.5373 72.6275C61.5373 72.889 61.4709 73.0852 61.4709 73.3467C61.2715 73.739 61.2051 74.1967 61.338 74.7198C61.1386 75.3082 61.1386 75.962 61.5373 76.5505C61.936 77.2043 62.6005 77.4658 63.1985 77.4658C63.9294 77.5966 64.7268 77.3351 64.9926 76.6812C65.059 76.5505 65.1255 76.4197 65.1255 76.2889C65.1919 76.1582 65.2584 76.0274 65.3248 75.8313C65.7235 74.8505 65.5242 73.6082 64.8597 72.8236Z" fill="#80C7E0"/>
<path d="M53.2235 6.39445C52.2268 3.38683 49.5689 -0.0784715 45.9143 0.248444C42.1932 0.575359 40.4656 4.43296 39.6018 7.50597C36.8774 16.9211 39.8676 25.5517 45.8478 33.0054C56.7452 46.6704 77.6097 58.1779 70.6992 78.7081C66.7123 90.5425 55.7485 95.5116 43.8544 96.6885C33.2893 97.7346 20.332 94.6616 13.6208 86.0964C6.57739 77.139 6.84318 65.3046 12.9563 56.0202C17.6077 48.8935 24.5182 43.5974 30.3656 37.5168C37.2761 30.3247 43.057 21.6287 41.5287 11.2982C40.9972 7.70212 39.934 2.20994 36.0801 0.509976C31.8939 -1.32075 28.3057 2.66762 27.1096 6.1983C26.4452 8.22518 29.6347 9.07516 30.2991 7.04828C30.6978 5.80601 31.4952 4.23681 32.8906 3.71375C34.6182 3.05992 35.8807 4.10605 36.6116 5.67524C37.7412 8.02903 38.2728 10.8405 38.4722 13.3904C38.8708 18.6865 36.8774 23.4594 34.0202 27.8401C29.6347 34.5092 23.3221 39.6091 17.7406 45.232C12.4248 50.5934 7.5741 56.7394 5.71357 64.1277C3.5208 72.8237 5.97936 82.2388 11.7603 89.0387C18.0728 96.427 27.5083 98.9769 36.9439 99.8269C45.9143 100.611 56.2801 98.9769 63.7222 93.5501C70.7656 88.4502 75.0847 79.9504 75.284 71.3852C75.4834 63.2123 71.6959 55.8894 66.513 49.8088C60.865 43.009 53.5557 37.5822 48.0406 30.5208C44.9176 26.5324 42.2597 21.7595 41.861 16.6596C41.6616 13.5212 42.1268 10.2521 43.1235 7.30982C43.6551 5.87139 44.1202 4.56373 45.6485 3.97528C47.8413 3.1253 49.3695 5.41371 49.9676 7.24443C50.6985 9.27131 53.888 8.42133 53.2235 6.39445Z" fill="black"/>
<path d="M49.6434 167.302C60.873 161.483 62.6007 146.118 61.0724 135.068C59.2783 122.515 52.7 110.811 42.6664 102.769C41.9355 102.181 41.0717 102.181 40.3408 102.769C27.7822 113.034 20.2736 129.249 21.5362 145.399C22.0677 152.199 23.8618 159.848 29.0447 164.752C34.5599 169.917 42.8658 170.244 49.6434 167.302C51.5704 166.452 49.9092 163.641 47.9822 164.491C40.8059 167.629 32.6329 165.602 28.646 158.868C25.3901 153.441 24.5263 146.576 24.7256 140.364C25.1908 126.699 31.9684 113.753 42.6664 105.057C41.8691 105.057 41.0717 105.057 40.3408 105.057C49.2447 112.184 55.2915 122.122 57.4842 133.237C59.4776 143.437 58.6803 158.998 48.0487 164.491C46.0553 165.471 47.7164 168.283 49.6434 167.302Z" fill="black"/>
<path d="M82.8684 126.307C81.1408 121.011 74.496 117.742 69.5789 115.78C63.9309 113.492 57.8177 112.315 51.771 113.165C50.6414 113.296 50.3092 114.734 50.7743 115.584C54.5618 122.253 61.2065 127.222 68.25 130.23C72.5691 132.061 83.8651 135.134 82.8684 126.699C82.6026 124.607 79.2803 124.607 79.546 126.699C80.277 132.911 66.4559 125.784 64.5289 124.607C60.2098 121.926 56.223 118.396 53.698 113.884C53.3657 114.669 53.0335 115.453 52.7013 116.303C57.419 115.649 62.2697 116.565 66.6552 118.134C70.8414 119.638 78.1507 122.58 79.6789 127.157C80.3434 129.184 83.5329 128.334 82.8684 126.307Z" fill="black"/>
<path d="M3.71978 127.157C5.24807 122.58 12.4908 119.638 16.7435 118.134C21.1955 116.565 25.9797 115.649 30.6974 116.303C30.3652 115.519 30.033 114.734 29.7007 113.884C27.1757 118.396 23.1889 121.926 18.7369 124.607C16.7435 125.784 2.98886 132.845 3.71978 126.699C3.98557 124.607 0.663199 124.607 0.397409 126.699C-0.599302 135.134 10.6968 132.061 15.0158 130.23C22.0593 127.222 28.704 122.253 32.4915 115.584C32.9567 114.734 32.6244 113.361 31.4948 113.165C25.4481 112.315 19.3349 113.492 13.6869 115.78C8.83624 117.742 2.19149 120.945 0.397409 126.307C-0.13417 128.268 3.05531 129.184 3.71978 127.157Z" fill="black"/>
<path d="M18.4134 56.6739C15.8884 62.2969 19.0114 68.7698 25.3239 69.7505C31.9022 70.7967 36.8858 65.7622 37.5503 59.6815C37.7496 57.5893 34.4272 57.5893 34.2279 59.6815C33.8292 63.4084 30.9055 66.7429 26.9187 66.6775C22.5996 66.6122 19.4766 62.3623 21.2707 58.3739C22.1345 56.4124 19.2772 54.7124 18.4134 56.6739Z" fill="black"/>
<path d="M58.4142 57.2625C60.2083 61.3163 57.1517 65.5008 52.7662 65.5662C48.7129 65.6315 45.8557 62.3624 45.457 58.5702C45.2576 56.4779 41.9353 56.4779 42.1346 58.5702C42.7991 64.6508 47.7826 69.7507 54.3609 68.6392C60.6734 67.593 63.7965 61.1855 61.2715 55.5626C60.4741 53.6664 57.6169 55.3664 58.4142 57.2625Z" fill="black"/>
<path d="M61.2066 68.7045C61.1402 71.3198 58.9474 73.8697 60.1434 76.5505C60.9408 78.3158 63.0671 79.2312 64.9277 78.4466C66.7217 77.662 67.5191 75.7005 66.9211 73.9351C66.1902 71.5813 63.7316 70.4698 62.7349 68.3122C62.3362 67.3314 60.8744 68.1814 61.273 69.1622C62.1369 71.1237 67.054 74.1967 64.8612 76.5505C63.4658 77.9889 61.6053 76.7466 61.4059 75.112C61.3395 74.3928 61.5388 73.6736 61.7382 73.0198C62.1369 71.5813 62.7349 70.3391 62.8013 68.8352C62.9342 67.6584 61.2731 67.6584 61.2066 68.7045Z" fill="black"/>
<path d="M31.5033 89.2346C36.5533 84.1348 44.2613 83.6117 49.8428 88.1885C51.504 89.5616 53.8297 87.2078 52.1685 85.9001C45.1915 80.1464 35.4902 80.4733 29.1112 86.9462C27.6494 88.45 29.975 90.7385 31.5033 89.2346Z" fill="black"/>
</svg>
