<svg width="220" height="592" viewBox="0 0 220 592" fill="none" xmlns="http://www.w3.org/2000/svg">
<path d="M3.20847 313.778C3.20847 313.778 -6.5555 357.213 46.8911 384.335C100.338 411.457 70.0247 439.377 70.0247 439.377C70.0247 439.377 52.4751 452.141 54.8682 491.228C57.2613 530.316 50.0819 568.606 38.1163 588.549C38.1163 588.549 58.8567 580.572 81.1926 543.08C103.529 505.587 113.899 472.881 133.842 462.511C153.784 452.141 172.132 424.221 172.132 403.48C172.132 382.74 177.716 366.786 195.265 349.236C212.815 331.686 214.219 300.935 214.219 300.935" fill="#3A1851"/>
<path d="M3.20847 313.778C3.20847 313.778 -6.5555 357.213 46.8911 384.335C100.338 411.457 70.0247 439.377 70.0247 439.377C70.0247 439.377 52.4751 452.141 54.8682 491.228C57.2613 530.316 50.0819 568.606 38.1163 588.549C38.1163 588.549 58.8567 580.572 81.1926 543.08C103.529 505.587 113.899 472.881 133.842 462.511C153.784 452.141 172.132 424.221 172.132 403.48C172.132 382.74 177.716 366.786 195.265 349.236C212.815 331.686 214.219 300.935 214.219 300.935" stroke="black" stroke-width="3.19084" stroke-miterlimit="10"/>
<path d="M54.6691 486.666C54.6691 486.666 43.6926 471.278 89.1621 436.179C134.632 401.079 100.729 363.81 96.142 357.716" stroke="black" stroke-width="3.19084" stroke-miterlimit="10"/>
<path d="M104.917 499.062C104.917 499.062 97.5379 480.26 104.917 453.034" stroke="black" stroke-width="3.19084" stroke-miterlimit="10"/>
<path d="M128.098 466.292C128.098 466.292 116.284 440.175 133.036 401.087" stroke="black" stroke-width="3.19084" stroke-miterlimit="10"/>
<path d="M124.094 439.561C124.094 439.561 136.227 444.961 141.014 425.018C145.8 405.076 147.714 368.604 168.694 357.724" stroke="black" stroke-width="3.19084" stroke-miterlimit="10"/>
<path d="M109.874 326.87C168.141 323.327 214.845 311.721 214.19 300.947C213.535 290.173 165.769 284.311 107.502 287.855C49.2347 291.398 2.53113 303.004 3.18632 313.778C3.8415 324.552 51.6074 330.414 109.874 326.87Z" fill="#65288F" stroke="black" stroke-width="3.19084" stroke-miterlimit="10"/>
<path d="M28.4727 306.558C28.4727 306.558 5.48269 255.074 32.7724 186.112C60.062 117.15 47.2987 94.0165 36.9284 78.0623C26.5582 62.1081 48.0884 22.2226 46.493 6.26837C44.8976 -9.68583 52.077 23.818 52.077 29.402C52.077 34.9859 40.909 42.1653 48.8861 62.1081C56.8632 82.0508 73.7667 99.6005 64.5212 134.7C55.2758 169.799 67.1936 196.746 67.2175 197.232C67.2414 197.719 114.29 251.485 112.304 282.037C110.318 312.589 28.4727 306.558 28.4727 306.558Z" fill="#193D3E" stroke="black" stroke-width="3.19084" stroke-miterlimit="10"/>
<path d="M60.7722 306.527C60.7722 306.527 28.3693 262.349 43.0152 215.276C57.6612 168.204 62.5033 89.7328 58.8817 82.705" fill="#193D3E"/>
<path d="M60.7722 306.527C60.7722 306.527 28.3693 262.349 43.0152 215.276C57.6612 168.204 62.5033 89.7328 58.8817 82.705" stroke="black" stroke-width="3.19084" stroke-miterlimit="10"/>
<path d="M34.7746 72.8772C34.5273 60.5127 52.0769 29.402 52.0769 29.402L34.7746 72.8772Z" fill="#193D3E"/>
<path d="M34.7746 72.8772C34.5273 60.5127 52.0769 29.402 52.0769 29.402" stroke="black" stroke-width="3.19084" stroke-miterlimit="10"/>
<path d="M72.2834 203.526C72.2834 203.526 52.883 216.066 68.8372 254.356C84.7914 292.646 92.6888 301.022 92.6888 301.022" fill="#193D3E"/>
<path d="M72.2834 203.526C72.2834 203.526 52.883 216.066 68.8372 254.356C84.7914 292.646 92.6888 301.022 92.6888 301.022" stroke="black" stroke-width="3.19084" stroke-miterlimit="10"/>
<path d="M77.6113 232.26C77.6113 232.26 79.1988 281.486 95.9507 279.891C112.703 278.296 97.3866 247.847 92.6801 245.518C87.9736 243.188 90.5981 263.945 90.5981 263.945" fill="#193D3E"/>
<path d="M77.6113 232.26C77.6113 232.26 79.1988 281.486 95.9507 279.891C112.703 278.296 97.3866 247.847 92.6801 245.518C87.9736 243.188 90.598 263.945 90.598 263.945" stroke="black" stroke-width="3.19084" stroke-miterlimit="10"/>
<path d="M211.323 306.686C211.323 306.686 228.283 268.707 208.156 217.837C188.03 166.967 197.443 149.904 205.093 138.138C212.743 126.372 196.853 96.9442 198.034 85.178C199.214 73.4117 193.917 98.1248 193.917 102.241C193.917 106.357 202.158 111.654 196.271 126.364C190.383 141.074 177.915 154.02 184.744 179.914C191.572 205.808 182.773 225.687 182.757 226.046C182.741 226.405 148.033 266.067 149.501 288.602C150.969 311.137 211.339 306.686 211.339 306.686H211.323Z" fill="#193D3E" stroke="black" stroke-width="3.19084" stroke-miterlimit="10"/>
<path d="M187.496 306.662C187.496 306.662 211.395 274.076 200.594 239.351C189.793 204.627 186.219 146.745 188.884 141.56" fill="#193D3E"/>
<path d="M187.496 306.662C187.496 306.662 211.395 274.076 200.594 239.351C189.793 204.627 186.219 146.745 188.884 141.56" stroke="black" stroke-width="3.19084" stroke-miterlimit="10"/>
<path d="M206.673 134.309C206.856 125.191 193.909 102.241 193.909 102.241L206.673 134.309Z" fill="#193D3E"/>
<path d="M206.673 134.309C206.856 125.191 193.909 102.241 193.909 102.241" stroke="black" stroke-width="3.19084" stroke-miterlimit="10"/>
<path d="M179.008 230.688C179.008 230.688 193.319 239.934 181.553 268.181C169.787 296.428 163.956 302.602 163.956 302.602" fill="#193D3E"/>
<path d="M179.008 230.688C179.008 230.688 193.319 239.934 181.553 268.181C169.787 296.428 163.956 302.602 163.956 302.602" stroke="black" stroke-width="3.19084" stroke-miterlimit="10"/>
<path d="M175.075 251.875C175.075 251.875 173.903 288.187 161.546 287.007C149.189 285.826 160.485 263.37 163.955 261.655C167.425 259.94 165.487 275.248 165.487 275.248" fill="#193D3E"/>
<path d="M175.075 251.875C175.075 251.875 173.903 288.187 161.546 287.007C149.189 285.826 160.485 263.37 163.955 261.655C167.425 259.94 165.487 275.248 165.487 275.248" stroke="black" stroke-width="3.19084" stroke-miterlimit="10"/>
<path d="M81.4717 301.31C81.4717 301.31 82.9474 262.788 110.189 232.244C137.431 201.7 105.299 178.175 101.024 154.842C96.7478 131.509 121.038 83.6464 121.038 83.6464C121.038 83.6464 110.652 133.902 114.465 138.29C114.465 138.29 151.79 186.551 150.992 202.505C150.194 218.459 146.23 231.51 151.008 243.731C155.778 255.952 179.359 284.43 174.349 298.908C169.339 313.387 81.4717 301.31 81.4717 301.31Z" fill="#245454" stroke="black" stroke-width="3.19084" stroke-miterlimit="10"/>
<path d="M124.683 152.186C124.683 152.186 121.485 182.562 131.855 197.719C142.225 212.875 148.838 225.727 148.838 225.727" fill="#245454"/>
<path d="M124.683 152.186C124.683 152.186 121.485 182.562 131.855 197.719C142.225 212.875 148.838 225.727 148.838 225.727" stroke="black" stroke-width="3.19084" stroke-miterlimit="10"/>
<path d="M127.675 188.96C127.675 188.96 131.017 237.78 141.403 248.062C151.79 258.345 160.955 302.961 160.955 302.961" fill="#245454"/>
<path d="M127.675 188.96C127.675 188.96 131.017 237.78 141.403 248.062C151.79 258.345 160.955 302.961 160.955 302.961" stroke="black" stroke-width="3.19084" stroke-miterlimit="10"/>
<path d="M113.986 126.723C113.986 126.723 102.085 154.794 108.187 172.671L113.986 126.723Z" fill="#245454"/>
<path d="M113.986 126.723C113.986 126.723 102.085 154.794 108.187 172.671" stroke="black" stroke-width="3.19084" stroke-miterlimit="10"/>
<path d="M120.551 212.612C120.551 212.612 131.592 250.479 120.551 272.759C109.511 295.039 120.551 305.21 120.551 305.21" fill="#245454"/>
<path d="M120.551 212.612C120.551 212.612 131.592 250.479 120.551 272.759C109.511 295.039 120.551 305.21 120.551 305.21" stroke="black" stroke-width="3.19084" stroke-miterlimit="10"/>
</svg>
