<svg width="83" height="172" viewBox="0 0 83 172" fill="none" xmlns="http://www.w3.org/2000/svg">
<path d="M72.5109 75.0745C72.5109 75.0083 72.5109 75.0083 72.5109 75.0745C72.6433 73.3532 72.6433 71.6982 72.5109 70.3742C72.5109 70.0432 72.3785 69.7784 72.1799 69.5136C72.3123 69.315 72.3785 69.1164 72.3785 68.9178C72.5771 68.4544 72.6433 67.991 72.3785 67.3952C72.1137 66.6007 71.7827 65.8063 71.4517 65.0119C71.4517 64.4161 71.3855 63.8203 71.3855 63.1583C71.3193 61.8343 70.5249 61.1061 69.5981 60.9737C68.6713 59.12 67.5459 57.3326 66.4204 55.6114C65.2288 53.6254 63.9048 51.7055 62.5146 49.8519C62.5146 49.5871 62.4484 49.2561 62.2498 48.9913C60.33 46.4095 57.7481 44.8206 55.2987 42.7684C53.7761 41.5768 52.3858 40.2528 50.9956 38.9288C50.9294 38.8626 50.9294 38.8626 50.8632 38.7964C50.797 38.7964 50.797 38.7302 50.7308 38.7302C49.6716 37.6709 48.6124 36.6117 47.6194 35.4863C47.4208 35.2877 47.156 35.0891 46.9574 35.0229C46.2292 33.5003 45.5009 31.9115 44.7065 30.3888C44.3755 29.7268 43.8459 29.3958 43.2501 29.3296C43.3825 28.6014 43.3825 27.807 43.2501 26.9464C43.1839 26.2182 42.8529 25.6886 42.3233 25.2914C42.3895 25.0928 42.3895 24.9604 42.3233 24.7617C42.3233 24.6955 42.3895 24.5631 42.3895 24.4969C43.0515 22.4447 40.0063 21.7165 39.2119 23.6363C38.947 24.2983 38.6822 24.8942 38.4174 25.5562C37.8878 26.483 37.4906 27.4098 37.0934 28.4028C37.0934 28.4028 37.0934 28.469 37.0272 28.469C36.63 28.7338 36.2328 29.131 36.0342 29.7268C35.7694 30.455 35.4384 31.1832 35.1074 31.9115C34.975 31.9777 34.8426 32.0439 34.7102 32.1101C33.7172 32.8383 32.8566 33.6989 32.0622 34.6257C30.4733 35.8173 29.2817 37.4061 28.4873 39.326C28.4211 39.4584 28.3549 39.5908 28.2887 39.7232C28.2887 39.7894 28.2887 39.8556 28.2225 39.8556C27.5605 40.5838 26.8985 41.312 26.2365 42.0402C26.1703 42.1064 26.1703 42.1726 26.1041 42.2388C23.1912 44.2248 20.4108 46.4095 17.7627 48.7927C17.4317 49.0575 17.2331 49.3885 17.1669 49.7195C16.1739 50.7125 15.3133 51.9041 14.5851 52.8972C14.5851 52.8972 14.5851 52.9634 14.5189 52.9634C11.9371 55.5452 10.4144 58.6566 9.88483 62.2315C9.75243 62.5625 9.62003 62.8273 9.48763 63.1583C8.09741 64.6147 7.634 66.8656 7.5016 69.1164C7.30299 69.7784 7.17059 70.5066 6.97199 71.1686C6.77339 71.963 7.03819 72.7574 7.5016 73.287C7.4354 75.8689 7.634 78.3183 7.8326 79.5761C8.22981 82.158 8.95802 86.7258 11.4737 88.2485C11.6061 88.3147 11.7385 88.3809 11.8709 88.4471C12.0033 88.9767 12.3343 89.3739 12.9963 89.7049C14.7175 90.4993 15.5119 92.3529 16.9683 93.5445C18.3586 94.6038 19.9474 95.1334 21.6024 95.5306C21.9334 95.5968 22.2644 95.663 22.5954 95.7292C22.8602 95.9278 23.125 96.1264 23.456 96.3912C24.0518 96.7884 24.7138 96.8546 25.2435 96.656C27.4943 98.3772 30.4733 98.7744 33.5186 98.7744C37.8216 100.032 42.4557 100.032 46.825 98.9068C48.0166 99.5688 49.3406 98.973 49.8702 97.9138C50.8632 97.5166 51.79 97.0532 52.7169 96.5898C53.1803 97.0532 53.9085 97.2518 54.6367 96.9208C54.9677 96.7222 55.2987 96.5898 55.6297 96.3912C56.0931 96.8546 56.8213 97.0532 57.5495 96.656C59.3369 95.7292 60.8596 94.6699 62.3822 93.3459C62.5808 93.1473 62.7132 92.9487 62.8456 92.6839C62.9118 92.6177 63.0442 92.5515 63.1104 92.4191C63.2428 92.2867 63.309 92.1543 63.3752 92.0219C64.2358 92.2205 65.2288 91.9557 65.8246 90.9627L70.4587 82.6214C70.6573 82.2242 70.7897 81.7608 70.7235 81.3636C71.4517 79.9733 71.9151 78.2521 72.1799 76.5309C72.5109 76.0675 72.5771 75.6703 72.5109 75.0745Z" fill="#6E3D90"/>
<path d="M76.0183 123.798C75.0253 123.335 74.0323 123.269 73.1717 123.6C71.2519 121.746 68.1404 120.356 66.353 119.164C63.9698 117.575 60.5273 114.596 57.4821 116.318C57.0187 116.582 56.6214 116.913 56.3566 117.311C55.2974 117.112 54.2382 117.311 53.3114 118.237C52.848 118.701 52.517 119.164 52.3846 119.561C52.186 118.966 52.0536 118.436 51.855 117.84C51.3916 116.384 49.7365 115.92 48.6111 116.384C47.9491 114.861 47.2209 113.405 46.5589 111.882C46.2941 111.352 45.8969 111.021 45.4997 110.823C45.3011 110.426 45.1687 110.095 44.9701 109.697C44.5729 108.837 43.8447 108.506 43.0503 108.572C42.4544 107.447 40.998 106.785 39.8064 107.711C39.2768 107.711 38.7472 107.91 38.2838 108.307C37.9528 108.572 37.6218 108.903 37.2908 109.168C35.1723 109.697 34.2455 111.286 33.9807 113.14C32.2595 114.331 30.7369 115.788 29.4791 117.377C29.1481 116.119 27.824 115.722 26.6986 115.854C23.1238 116.384 17.1657 117.906 13.7894 120.885C13.5908 121.018 13.3922 121.084 13.2598 121.216C11.8034 121.415 10.347 122.011 9.35397 122.54C8.69196 122.871 7.69894 123.467 6.63973 124.195C4.05789 125.784 1.80706 128.101 2.53527 130.617C3.59448 134.059 7.56654 132.669 10.678 131.147C12.4654 130.683 14.1204 129.889 15.4445 128.697C16.6361 128.101 17.7615 127.439 18.8207 126.711C21.1377 125.917 23.4548 124.99 25.6394 123.931C25.176 125.321 24.9774 126.645 25.3084 127.903C25.4408 128.498 25.7056 128.962 25.9704 129.359C25.7056 130.418 25.507 131.478 25.3746 132.471C24.6464 137.105 24.4478 141.805 24.9112 146.439C24.845 146.571 24.845 146.704 24.7788 146.836C23.9182 150.742 24.1168 154.714 25.5732 158.421C26.7648 161.4 29.2143 165.571 32.3919 166.696C32.7891 166.829 33.1863 166.895 33.5835 166.961C34.2455 167.425 35.0399 167.491 35.7019 167.16C35.9667 167.358 36.2316 167.491 36.5626 167.623C36.7612 167.888 37.026 168.087 37.2908 168.285C37.7542 169.278 38.8796 169.742 39.9388 169.477C41.3952 169.808 42.9841 169.609 44.3743 169.013C45.3011 170.205 47.3533 169.874 48.1477 168.616C48.6773 167.822 49.1407 167.027 49.5379 166.233C50.1338 166.101 50.6634 165.77 50.9944 165.24C51.9212 163.85 52.7818 162.393 53.4438 160.871C53.9072 160.209 54.3706 159.481 54.834 158.752C55.9594 158.752 57.0849 157.892 57.2173 156.501C57.3497 155.045 57.4821 153.522 57.5483 152.066C58.0779 149.948 58.4089 147.763 58.4751 145.512C58.4751 144.916 58.2765 144.453 58.0117 144.122C57.9455 143.857 57.8793 143.526 57.8793 143.261C57.8793 142.732 57.8793 142.202 57.8793 141.672C58.2765 138.429 58.2765 135.185 58.0117 131.875C57.8793 130.551 56.8862 129.756 55.8932 129.69C55.9594 128.896 56.0256 128.035 56.0256 127.241C56.0918 125.983 55.3636 125.255 54.4368 125.056C54.3706 124.857 54.3706 124.659 54.3044 124.46C54.172 123.798 53.841 123.335 53.4438 123.07C53.4438 123.004 53.3776 122.938 53.3776 122.871C55.4298 124.99 59.6005 126.579 61.8513 127.307C64.3008 128.432 66.9488 129.094 69.7292 129.491C71.1195 130.154 72.5097 130.683 74.0323 131.08C75.4225 131.61 77.1437 131.61 78.6002 130.882C79.1298 130.683 79.3946 130.286 79.5932 129.822C81.5792 127.77 78.203 124.857 76.0183 123.798ZM40.8656 146.174C40.8656 145.049 40.8656 143.989 40.9318 142.864C40.998 143.46 41.0642 144.056 41.1304 144.652C40.998 145.181 40.9318 145.711 40.8656 146.174Z" fill="#FED530"/>
<path d="M59.3363 141.011C59.6011 137.237 59.0053 133.53 57.615 129.955C57.284 129.161 56.4234 128.764 55.629 128.83C55.5628 128.3 55.4966 127.771 55.3642 127.241C55.3642 127.042 55.298 126.91 55.1656 126.711C56.3572 123.865 55.0332 121.349 53.4444 118.833C52.7824 117.84 52.1204 116.847 51.4584 115.921C51.4584 115.523 51.326 115.192 50.9949 114.861C50.5977 114.464 50.2005 114.001 49.8033 113.604C48.6117 111.948 47.3539 110.293 46.0961 108.705C46.0299 108.572 45.8975 108.506 45.8313 108.374C45.6327 108.109 45.3679 107.976 45.1031 107.91C44.3087 106.719 42.3226 107.381 42.124 108.572C41.462 107.844 40.138 107.712 39.4098 108.771C39.2112 109.036 39.0788 109.3 38.8802 109.565H38.814C35.9011 110.955 33.8489 113.339 32.9221 116.318C31.5981 117.708 30.4727 119.297 29.5458 121.15C29.3472 121.614 29.3472 122.077 29.4796 122.474C28.0232 124.791 26.964 127.307 26.1034 129.823C26.0372 129.889 25.971 130.021 25.9048 130.088C24.5808 132.537 23.9188 135.119 23.985 137.833C23.985 138.098 23.985 138.429 23.985 138.694C23.985 138.892 23.985 139.025 23.9188 139.223C23.4554 143.195 23.5878 147.101 24.316 151.007C24.7794 153.787 25.5076 156.568 26.5668 159.282C26.633 159.547 26.8316 159.746 27.0302 159.944C27.3612 161.732 27.957 163.651 29.4134 164.777C30.274 165.439 31.0023 165.704 31.5981 165.704C32.5249 166.564 33.5179 167.292 34.5771 167.822C34.9081 168.087 35.2391 168.352 35.5701 168.55C35.9011 168.815 36.2983 168.815 36.6955 168.749C37.0265 168.881 37.3576 169.014 37.7548 169.08C38.2182 169.212 38.6816 169.146 39.0126 168.881C39.0788 168.881 39.145 168.948 39.2112 168.948C40.0056 169.08 40.7338 169.146 41.5282 169.08C43.3818 169.477 45.0369 169.345 46.5595 168.683C46.7581 168.683 46.8905 168.683 47.0891 168.616C48.7441 168.153 50.0681 167.425 51.3922 166.299C52.1204 165.704 52.0542 164.909 51.5908 164.313C51.988 163.85 52.3852 163.387 52.7162 162.923C53.7092 162.063 54.636 161.136 55.4966 160.143C56.1586 159.348 56.0262 158.488 55.5628 157.958C55.8276 157.296 56.0924 156.568 56.291 155.84C56.3572 155.774 56.4234 155.641 56.4234 155.575C56.6882 155.178 56.7544 154.714 56.622 154.383C56.8206 153.589 56.953 152.794 57.0192 151.934C57.3502 151.735 57.6812 151.404 57.8798 150.941C59.4687 147.697 59.7997 144.321 59.3363 141.011Z" fill="#6E3D90"/>
<path d="M29.2817 118.9C29.2155 118.833 29.1493 118.701 29.0831 118.635C29.0831 118.436 29.0169 118.238 28.8845 118.039C27.5605 114.994 22.8602 116.781 20.6094 117.377C19.9474 117.576 19.3516 117.774 18.6896 117.973C16.3725 117.84 13.9231 119.231 11.9371 120.157C9.48763 121.283 4.85356 123.136 4.25775 126.182C4.19155 126.446 4.19155 126.711 4.19155 126.976C3.92675 127.373 3.72814 127.837 3.59574 128.3C2.93373 129.624 2.80133 131.081 4.32395 131.941C5.91278 132.802 7.7002 131.875 9.15662 130.683C10.0172 130.551 10.944 130.286 11.8709 129.889C13.8569 129.227 15.7767 128.3 17.2331 127.704C20.2122 126.513 25.9717 125.122 27.4281 121.746C27.8253 121.548 28.2887 121.283 28.6859 121.084C29.4803 120.753 29.6789 119.628 29.2817 118.9Z" fill="#6E3D90"/>
<path d="M80.2558 127.506C80.322 126.844 79.991 126.182 79.4614 125.851C77.2768 124.659 75.0259 123.534 72.7089 122.474C69.0016 120.224 64.831 118.767 60.8589 117.046C60.1969 116.781 59.4687 116.913 59.0053 117.245C58.3433 117.046 57.7475 117.377 57.4165 117.907C57.2179 117.774 57.0193 117.642 56.8207 117.509C55.298 116.384 53.3782 118.9 54.8346 120.091C54.967 120.224 55.0994 120.29 55.2318 120.422C55.0994 121.217 55.4305 122.011 56.3573 122.21C57.0193 122.342 57.6151 122.541 58.2771 122.673C58.9391 123.136 59.6673 123.6 60.3955 124.063C60.3955 124.46 60.5279 124.858 60.8589 125.122C62.7126 126.844 64.6986 127.969 67.0818 128.763C67.5452 128.896 67.9424 128.83 68.2734 128.631C68.3396 128.697 68.472 128.697 68.5382 128.763C71.1201 130.882 75.0921 133.53 78.0712 131.544C78.4684 131.279 78.7994 130.882 78.8656 130.418C79.0642 130.418 79.1966 130.418 79.3952 130.418C81.0502 130.551 81.5136 128.366 80.2558 127.506Z" fill="#6E3D90"/>
<path d="M53.1146 6.82123C52.1216 3.77599 49.4736 0.267336 45.8325 0.598341C42.1253 0.929346 40.404 4.8352 39.5434 7.94665C36.8292 17.4796 39.8082 26.2181 45.7663 33.765C56.6233 47.601 77.4104 59.2524 70.5255 80.0395C66.5534 92.0219 55.6303 97.0531 43.7803 98.2447C33.2543 99.304 20.3451 96.1925 13.6589 87.5202C6.64155 78.4507 6.90635 66.4683 12.9968 57.0677C17.6309 49.8518 24.5158 44.4896 30.3415 38.3329C37.2264 31.0508 42.9859 22.2461 41.4633 11.7863C40.9336 8.14525 39.8744 2.58437 36.0348 0.863145C31.8641 -0.990482 28.2893 3.04778 27.0976 6.62263C26.4356 8.67486 29.6133 9.53547 30.2753 7.48324C30.6725 6.22542 31.4669 4.6366 32.8571 4.10699C34.5784 3.44498 35.8362 4.5042 36.5644 6.09302C37.6898 8.47625 38.2194 11.3229 38.418 13.9047C38.8152 19.267 36.8292 24.0997 33.9825 28.5351C29.6133 35.2876 23.3242 40.4513 17.7633 46.1446C12.4672 51.5731 7.63456 57.796 5.78094 65.2767C3.59631 74.0814 6.04574 83.6143 11.8052 90.4992C18.0943 97.9799 27.4949 100.562 36.8954 101.422C45.8325 102.217 56.1599 100.562 63.5744 95.0671C70.5917 89.9034 74.8947 81.2973 75.0933 72.625C75.2919 64.3499 71.5185 56.9353 66.3548 50.7787C60.7277 43.8938 53.4456 38.3991 47.9509 31.2494C44.8395 27.2111 42.1915 22.3785 41.7943 17.2148C41.5957 14.0371 42.0591 10.7271 43.0521 7.74804C43.5817 6.29162 44.0451 4.9676 45.5677 4.37179C47.7523 3.51118 49.275 5.82822 49.8708 7.68184C50.599 9.73407 53.7766 8.87346 53.1146 6.82123Z" fill="black"/>
<path d="M49.5396 169.742C60.7276 163.85 62.4488 148.293 60.9262 137.105C59.1388 124.394 52.5849 112.544 42.5885 104.402C41.8603 103.806 40.9997 103.806 40.2715 104.402C27.7595 114.795 20.2788 131.213 21.5366 147.565C22.0662 154.45 23.8536 162.195 29.0173 167.16C34.512 172.39 42.7871 172.721 49.5396 169.742C51.4594 168.881 49.8044 166.035 47.8846 166.895C40.7349 170.073 32.5922 168.021 28.6201 161.202C25.3763 155.707 24.5157 148.756 24.7143 142.467C25.1777 128.631 31.9302 115.523 42.5885 106.719C41.7941 106.719 40.9997 106.719 40.2715 106.719C49.1424 113.935 55.1667 123.997 57.3513 135.251C59.3374 145.579 58.5429 161.335 47.9508 166.895C45.9648 167.888 47.6198 170.735 49.5396 169.742Z" fill="black"/>
<path d="M82.6397 128.234C80.9185 122.872 74.2984 119.562 69.3995 117.576C63.7724 115.259 57.682 114.067 51.6577 114.928C50.5323 115.06 50.2012 116.516 50.6647 117.377C54.4381 124.13 61.0582 129.161 68.0755 132.206C72.3786 134.06 83.6327 137.171 82.6397 128.631C82.3749 126.513 79.0649 126.513 79.3297 128.631C80.0579 134.92 66.2881 127.704 64.3682 126.513C60.0652 123.799 56.0931 120.224 53.5775 115.656C53.2465 116.45 52.9155 117.245 52.5845 118.105C57.2847 117.443 62.1174 118.37 66.4867 119.959C70.6573 121.481 77.9394 124.461 79.4621 129.095C80.1241 131.147 83.3017 130.286 82.6397 128.234Z" fill="black"/>
<path d="M3.79463 129.095C5.31725 124.461 12.5332 121.481 16.77 119.959C21.2055 118.37 25.9719 117.443 30.6722 118.105C30.3412 117.311 30.0102 116.516 29.6792 115.656C27.1636 120.224 23.1915 123.799 18.756 126.513C16.77 127.704 3.06642 134.854 3.79463 128.631C4.05943 126.513 0.749386 126.513 0.484582 128.631C-0.508432 137.171 10.7457 134.06 15.0488 132.206C22.0661 129.161 28.6862 124.13 32.4596 117.377C32.923 116.516 32.592 115.126 31.4666 114.928C25.4423 114.067 19.3519 115.259 13.7248 117.576C8.8921 119.562 2.27201 122.806 0.484582 128.234C-0.0450257 130.22 3.13262 131.147 3.79463 129.095Z" fill="black"/>
<path d="M25.7727 55.148C22.9923 54.2874 20.609 55.2804 19.8808 58.1932C19.6822 59.0538 19.8146 59.451 19.0864 60.1793C18.6892 60.6427 18.0272 60.8413 17.63 61.3047C16.7032 62.2977 16.306 63.6217 16.5708 64.9457C16.7694 65.9387 17.299 66.8655 18.1596 67.4614C19.285 68.2558 20.3442 67.7262 21.4696 68.0572C22.5951 68.3882 22.4627 69.977 23.5219 70.7714C24.3825 71.4334 25.6403 71.632 26.7657 71.5658C27.8911 71.4996 29.0828 71.1686 29.8772 70.3742C30.9364 69.315 30.4068 68.322 30.9364 67.1966C31.9294 65.0119 35.438 65.8063 35.7028 62.5625C35.9014 60.0468 34.2464 59.2524 32.3266 58.5242C30.0096 57.6636 28.3545 54.817 25.5079 55.0818C23.3895 55.2804 23.3895 58.5904 25.5079 58.3918C27.0967 58.2594 28.2883 60.0468 29.4138 60.8413C30.0758 61.3047 32.5914 61.7019 31.9294 62.6287C31.5322 63.2245 29.4138 63.3569 28.6855 64.0189C27.6925 65.0119 28.1559 66.2035 27.6263 67.1304C26.1037 69.8446 25.7065 66.8655 24.7797 65.6739C23.8529 64.5485 23.0585 65.0119 21.933 64.6147C19.6822 63.6879 21.6682 62.7611 22.5289 61.7681C23.3233 60.8413 23.3233 57.796 25.0445 58.3918C26.9643 58.9876 27.8249 55.81 25.7727 55.148Z" fill="black"/>
<path d="M52.9147 57.3987C54.7021 56.8029 54.636 59.7157 55.298 60.6426C55.5628 61.0398 56.1586 61.3046 56.4234 61.7018C57.1516 61.9004 57.2178 62.2976 56.7544 62.8934C56.8206 63.6216 56.5558 63.8864 56.0262 63.6878C55.0332 64.1512 54.1063 63.6878 53.1795 64.747C52.2527 65.8724 51.7893 69.0501 50.3329 66.2034C49.8033 65.1442 50.3329 64.085 49.2737 63.092C48.6117 62.43 46.427 62.2314 46.0298 61.7018C45.434 60.775 47.7511 60.444 48.4131 60.0467C49.6047 59.2523 50.7963 57.3325 52.4513 57.4649C54.5697 57.6635 54.5697 54.3535 52.4513 54.1549C49.6047 53.8901 48.2807 56.6705 45.9636 57.5311C43.9776 58.3255 42.0578 58.7889 42.2564 61.5694C42.5212 64.8132 46.096 63.9526 47.0228 66.2034C47.4862 67.2627 47.0228 68.3881 48.0821 69.3811C48.8765 70.1755 50.0681 70.5065 51.1935 70.5727C52.2527 70.6389 53.5105 70.4403 54.4373 69.7783C55.4304 68.9839 55.4304 67.3951 56.4896 67.064C57.6812 66.733 58.5418 67.3289 59.7996 66.4682C60.6602 65.8724 61.1898 64.9456 61.3884 63.9526C61.9843 60.8412 58.8066 59.8481 58.0784 57.3987C57.2178 54.4859 55.298 53.1618 52.1865 54.1549C50.0019 54.8169 50.8625 57.9945 52.9147 57.3987Z" fill="black"/>
<path d="M24.4487 86.9244C25.9713 82.0917 31.8632 87.3216 34.9746 86.9244C36.0338 86.792 36.8283 86.3286 37.7551 85.6666C40.2707 83.9453 41.7933 83.0847 44.7062 84.5411C46.8908 85.6666 48.7444 86.8582 51.2601 85.8652C52.8489 85.2694 54.5039 83.3495 56.2251 84.2763C57.2181 84.806 57.4829 85.7328 58.7408 86.1962C60.7268 86.9244 61.5874 83.7467 59.6014 83.0185C58.2112 82.4889 57.9464 80.8339 56.2251 80.5029C54.8349 80.2381 53.4447 80.7677 52.2531 81.4297C50.9291 82.2241 49.6712 83.0847 48.0162 82.6213C47.0232 82.3565 46.0964 81.4959 45.1696 81.0325C43.6469 80.3705 41.9919 80.1057 40.2707 80.4367C38.5495 80.8339 37.5565 81.8931 36.1662 82.7537C33.3196 84.4749 31.135 81.7607 28.2883 81.4959C25.0445 81.1649 22.3302 82.8861 21.3372 85.9976C20.609 88.116 23.7867 88.9766 24.4487 86.9244Z" fill="black"/>
</svg>
