<svg width="222" height="216" viewBox="0 0 222 216" fill="none" xmlns="http://www.w3.org/2000/svg">
<path d="M34.3439 107.82C29.6536 110.502 28.9508 120.772 32.9096 124.315C31.7621 126.158 34.387 128.403 34.7025 130.231C35.4986 134.793 33.9136 139.928 33.2682 144.396C32.5869 149.107 31.547 153.697 30.7581 158.38C29.503 165.803 27.3443 173.047 26.8136 180.613C26.4694 185.504 26.0893 190.782 27.8894 195.494C32.9741 208.812 65.0103 209.594 77.0158 210.376L79.1674 213.244C68.962 212.527 54.1164 211.451 44.3844 208.941C14.6145 201.268 25.4295 180.333 29.3237 150.85C29.5317 149.301 31.3533 142.072 28.9651 143.32C30.2919 140.516 31.0306 136.335 30.7581 133.279C29.8186 122.766 16.3572 127.284 18.3868 138.3C14.7149 136.098 9.95284 135.976 7.4499 139.734C2.85281 146.633 10.5553 149.531 16.056 150.492C0.242296 156.415 -2.4758 128.969 16.2353 135.072C18.3007 125.018 19.6419 123.691 30.0409 125.928C30.8226 124.645 24.49 116.748 30.3995 106.923L25.0207 97.0621C25.2 96.8397 26.7634 94.3583 26.8136 94.1934L34.3439 107.82Z" fill="#FAFAFA"/>
<path d="M199.294 125.749C199.043 126.301 200.965 127.506 201.087 127.542C200.42 129.019 199.502 130.518 198.577 131.845C198.369 132.146 197.444 133.989 197.322 133.997C195.694 131.486 191.635 127.707 192.481 124.494C192.574 124.15 193.858 123.318 193.915 123.239C195.228 125.426 196.985 125.591 199.294 125.749Z" fill="#E23738"/>
<path d="M29.3238 150.85L25.0208 148.699C25.6447 147.931 28.8218 143.621 28.9652 143.32C31.3534 142.072 29.5318 149.301 29.3238 150.85Z" fill="#DFDFDF"/>
<path d="M199.294 125.749C196.985 125.591 195.228 125.426 193.915 123.239C196.246 120.04 196.052 121.453 200.37 120.908C197.63 121.539 199.66 110.315 200.908 109.613C206.667 106.385 204.07 119.337 204.673 120.191C207.219 120.879 213.093 118.914 211.845 123.418C211.199 125.763 201.489 125.9 199.294 125.749Z" fill="#E23738"/>
<path d="M177.42 141.168C177.456 141.943 177.255 142.624 177.779 143.32C177.865 147.458 173.676 161.586 172.041 166.09C171.539 167.467 169.094 169.762 170.966 170.214C169.976 171.383 168.742 172.05 167.738 173.082C168.262 170.651 169.022 168.356 169.531 165.911C170.88 163.58 171.618 160.926 172.4 158.38C174.48 151.632 175.907 142.108 176.344 141.348C176.538 141.01 177.097 141.211 177.42 141.168Z" fill="#E23738"/>
<path d="M182.44 145.83C182.548 150.477 179.457 154.278 177.779 158.38C174.408 162.153 176.301 163.508 177.42 167.704L172.759 168.421L178.137 152.105C180.275 144.338 178.453 139.913 182.44 145.83Z" fill="#BE1D26"/>
<path d="M181.006 142.244C181.687 143.305 183.782 145.177 184.592 146.547L182.441 145.83C178.453 139.913 180.275 144.338 178.137 152.105L172.759 168.421C172.479 169.274 171.468 169.618 170.966 170.214C169.094 169.762 171.539 167.467 172.041 166.09C173.677 161.586 177.865 147.458 177.779 143.32C179.794 143.427 177.7 141.52 181.006 142.244Z" fill="#F9E7E7"/>
<path d="M184.592 146.547C183.781 145.177 181.687 143.305 181.006 142.244C180.554 141.541 179.443 140.315 179.572 139.555C179.607 139.339 182.404 136.507 182.62 136.507C183.043 136.507 188.12 141.383 189.253 141.706L184.592 146.547Z" fill="#E23738"/>
<path d="M192.84 93.8347C191.785 97.1552 192.524 97.5855 192.481 97.7792C190.623 105.855 188.974 114.016 187.461 122.163C186.952 122.558 183.05 126.904 183.158 125.211C187.454 118.226 187.497 109.634 189.612 101.903C190.358 99.1777 191.671 96.5672 192.481 93.8347H192.84Z" fill="#CDE2E4"/>
<path d="M206.466 59.4104C211.694 65.7215 209.528 63.9931 205.39 68.5544C204.938 69.0492 205.268 70.5194 204.494 70.8852C204.056 71.0932 201.453 70.7346 200.37 70.8852C200.836 69.6875 207.484 62.566 206.287 61.9205C193.966 78.3008 202.213 60.2925 206.466 59.4104Z" fill="#FAB03A"/>
<path d="M211.845 63.7134C203.024 74.1053 205.024 72.4773 213.996 65.865C210.991 69.415 206.516 76.1062 201.446 73.3953C201.302 73.3164 199.976 71.502 199.653 71.2438C199.968 71.2581 200.011 70.9354 200.37 70.8852C201.453 70.7346 204.056 71.0932 204.494 70.8852C205.268 70.5194 204.938 69.0492 205.39 68.5544C209.528 63.9931 211.694 65.7215 206.466 59.4104C208.252 59.4606 210.654 62.315 211.845 63.7134Z" fill="#EF7E0E"/>
<path d="M213.996 65.865C205.024 72.4774 203.023 74.1054 211.845 63.7135C212.268 64.2084 213.946 65.1981 213.996 65.865Z" fill="#F8AD62"/>
<path d="M177.42 141.168C177.097 141.211 176.538 141.01 176.344 141.348C175.907 142.108 174.48 151.632 172.4 158.38C169.983 158.144 173.397 153.231 174.193 149.954C174.537 148.541 174.724 144.03 175.269 141.885C175.391 141.419 176.258 139.476 176.703 139.017C176.753 139.411 177.406 140.881 177.42 141.168Z" fill="#EA978C"/>
<path d="M105.344 25.3446C107.381 32 109.841 22.899 111.44 26.2411C111.828 27.0443 111.706 34.5173 113.592 28.5719C114.338 29.7839 117.701 33.0184 118.971 34.4886C117.063 35.048 115.349 37.1923 113.95 38.2537C112.136 39.6307 109.683 40.7639 107.854 42.1982C107.532 41.5886 107.101 41.0722 106.779 40.4053C106.105 39.0283 101.794 29.0452 101.758 28.3926C101.637 26.3486 103.767 25.5741 105.344 25.3446Z" fill="#F6BB1C"/>
<path d="M155.546 214.32C148.389 216.393 127.548 215.238 118.971 215.037C106.018 214.729 92.0765 214.148 79.1674 213.244L77.0159 210.376C103.178 212.082 129.434 211.71 155.546 214.32Z" fill="#DFDFDF"/>
<path d="M167.021 180.971C166.763 181.94 166.369 183.231 166.663 184.199C167.537 187.125 172.88 184.694 174.551 183.482C174.63 184.335 173.863 184.844 173.834 184.916C162.682 191.636 165.881 182.578 165.049 182.047C164.267 183.783 159.233 187.067 159.132 187.605C158.924 188.76 163.191 195.157 158.774 191.37C158.272 190.94 157.805 190.101 157.339 189.578C157.268 189.491 157.59 188.609 156.801 188.143C154.592 189.226 149.823 189.527 147.478 189.219C137.882 187.95 150.361 187.964 151.781 187.785C163.242 186.307 167.043 176.525 170.428 175.951C175.763 175.048 168.133 176.79 167.021 180.971Z" fill="#FBE4D4"/>
<path d="M177.42 167.704C177.463 167.862 178.525 168.916 178.855 170.572C168.785 163.838 164.389 191.951 147.299 185.275C159.297 180.642 158.164 182.929 167.738 173.083C168.742 172.05 169.976 171.383 170.966 170.214C171.468 169.619 172.479 169.274 172.759 168.421L177.42 167.704Z" fill="#FBE4D4"/>
<path d="M113.95 38.2538C125.934 39.2005 137.703 41.144 149.45 43.6326C156.859 45.2032 170.887 48.4592 177.42 51.1629C179.392 51.9805 182.032 53.5009 183.875 54.5695L183.158 54.7488C173.877 49.6353 129.197 40.9288 116.281 40.4053L110.185 45.7841C109.403 45.7483 108.249 43.5967 107.854 42.9154C107.782 42.7935 107.926 42.3345 107.854 42.1982C109.683 40.7639 112.136 39.6308 113.95 38.2538Z" fill="#114D67"/>
<path d="M181.365 52.2387C184.821 53.8954 189.354 58.3275 190.329 62.0999C193.585 74.6935 181.816 119.653 180.289 135.252C179.55 136.822 178.984 136.435 178.855 136.507C179.794 122.558 183.846 106.292 182.082 92.4005C183.516 94.007 182.505 98.4534 182.799 101.544L183.875 100.648C183.839 101.336 182.634 112.747 183.875 109.075C184.621 106.88 187.898 83.5004 188.536 78.5949C188.565 78.3941 189.132 77.6124 189.612 77.5191C189.218 68.3106 193.047 60.1994 183.158 54.7488L183.875 54.5695C182.032 53.501 179.392 51.9805 177.42 51.163C178.424 51.1917 180.518 51.8299 181.365 52.2387Z" fill="#217F76"/>
<path d="M76.2986 37.5366C76.564 38.7917 82.3731 39.1718 84.3668 39.3295C87.4794 39.5734 102.476 39.3726 103.372 39.6881C104.441 40.0611 105.904 43.6182 107.854 42.9154C108.249 43.5967 109.403 45.7482 110.185 45.7841L116.281 40.4053C129.197 40.9288 173.877 49.6353 183.158 54.7488C193.047 60.1993 189.218 68.3106 189.612 77.5191C189.132 77.6123 188.565 78.394 188.536 78.5948C187.898 83.5003 184.621 106.88 183.875 109.075C182.634 112.747 183.839 101.336 183.875 100.648C184.778 84.3681 181.917 75.9269 166.483 68.7337C164.482 67.8014 154.922 63.9071 155.188 65.865C131.973 56.764 73.5017 43.5322 62.6723 38.6124C61.6826 38.1605 61.0443 38.2968 61.238 37.7159C66.2008 36.7692 71.2569 37.4649 76.2986 37.5366Z" fill="#40AC98"/>
<path d="M155.188 65.8649C161.442 68.3177 168.068 71.0429 173.117 75.5468C169.001 73.3235 165.035 70.627 160.746 68.7336C142.264 60.5722 99.0904 49.8863 77.5537 43.9911C73.4084 42.858 65.6701 39.6307 62.3137 38.9709L62.6723 38.6123C73.5016 43.5321 131.973 56.764 155.188 65.8649Z" fill="#DAEBB5"/>
<path d="M106.778 40.4053C107.101 41.0723 107.532 41.5887 107.854 42.1983C107.926 42.3345 107.783 42.7935 107.854 42.9154C105.904 43.6183 104.441 40.0611 103.372 39.6881C102.475 39.3726 87.4793 39.5734 84.3668 39.3296C82.3731 39.1718 76.5639 38.7917 76.2986 37.5366C80.2144 37.594 103.451 37.4434 104.806 37.8952C105.66 38.1821 105.853 40.0969 106.778 40.4053Z" fill="#217F76"/>
<path d="M183.875 100.648L182.799 101.544C182.505 98.4535 183.516 94.007 182.082 92.4005C181.307 86.2974 178.611 78.9965 173.117 75.5469C168.068 71.0431 161.442 68.3178 155.188 65.8651C154.922 63.9072 164.482 67.8014 166.483 68.7338C181.917 75.927 184.778 84.3682 183.875 100.648Z" fill="#114A57"/>
<path d="M26.8136 93.1175C26.7491 93.4474 26.8997 93.9208 26.8136 94.1933C26.7634 94.3582 25.2 96.8397 25.0207 97.062C23.3927 99.1059 18.9964 101.846 16.4146 102.082C13.6391 102.34 10.2325 100.648 3.50543 102.979C11.0429 99.1203 5.74302 99.6008 3.50543 92.5796C0.816029 84.1313 3.23291 73.0797 9.78071 76.6225C10.6413 77.0887 13.4024 80.6315 14.0838 80.9256C15.1667 81.3917 29.3309 80.8323 26.8136 93.1175Z" fill="#BE1D26"/>
<path d="M6.91201 77.3397C9.32889 76.7015 11.8318 81.2125 14.0838 82.36C32.6155 83.3138 26.8925 102.814 10.4979 100.289C5.07604 96.2875 2.20735 78.5876 6.91201 77.3397Z" fill="#E23738"/>
<path d="M136.9 4.90509C133.099 7.62318 134.562 1.67064 130.266 2.75357C125.318 4.00145 132.052 14.2284 136.721 13.5112C137.466 13.3964 141.977 9.78188 143.354 9.02885C143.713 8.03197 139.288 2.07225 138.872 2.03639C138.205 1.97185 138.37 2.5671 137.976 3.11216C137.065 2.76791 136.692 1.44114 137.258 0.781339C139.862 -2.25948 146.324 6.2749 145.865 8.31167C145.599 9.50935 137.696 15.2683 135.645 15.6627C121.029 7.75945 125.26 -8.00405 136.9 4.90509Z" fill="#FAFAFA"/>
<path d="M136.9 4.90514C138.055 4.08039 137.904 3.2126 137.976 3.1122C138.37 2.56715 138.205 1.97189 138.872 2.03644C139.288 2.0723 143.713 8.03202 143.354 9.02889C141.978 9.78192 137.466 13.3965 136.721 13.5112C132.052 14.2284 125.318 4.0015 130.266 2.75361C134.562 1.67068 133.099 7.62323 136.9 4.90514Z" fill="#2D7725"/>
<path d="M131.88 4.18793C128.531 3.105 134.067 9.72452 134.928 9.92532C138.277 10.7214 137.768 7.32915 138.334 5.26369C139.518 0.974987 139.64 5.47167 141.203 7.23592C133.787 21.0128 126.063 -1.34866 131.88 4.18793Z" fill="#71B212"/>
<path d="M131.88 4.18788C132.683 4.95526 134.332 10.4058 138.334 5.26364C137.768 7.32911 138.277 10.7213 134.928 9.92528C134.067 9.72447 128.53 3.10495 131.88 4.18788Z" fill="#95CA1B"/>
<path d="M192.481 97.7792C192.524 97.5856 191.785 97.1553 192.84 93.8348C194.855 86.6917 197.623 79.7638 201.446 73.3953C206.516 76.1062 210.991 69.415 213.996 65.865C213.946 65.198 212.268 64.2083 211.845 63.7134C210.654 62.3149 208.252 59.4606 206.466 59.4104C202.213 60.2925 193.966 78.3008 206.287 61.9205C207.484 62.566 200.836 69.6875 200.37 70.8852C200.011 70.9354 199.968 71.2581 199.653 71.2438C195.923 68.2316 199.775 72.3482 199.653 73.5746C195.751 79.8427 194.532 86.9427 192.481 93.8348C191.671 96.5672 190.358 99.1777 189.612 101.903C187.497 109.634 187.454 118.226 183.158 125.211C183.05 126.904 186.952 122.558 187.461 122.163C190.329 119.969 194.618 116.354 196.425 117.681C197.594 105.152 194.331 101.695 194.274 100.827C193.922 95.3982 205.785 90.7724 209.872 92.4004C213.53 93.8563 214.513 103.237 205.032 108.358C207.577 115.149 202.808 118.706 208.797 118.577C211.049 118.527 216.571 115.465 215.431 122.701C214.505 128.611 204.3 128.553 201.087 127.542C200.965 127.506 199.043 126.301 199.294 125.749C201.489 125.9 211.199 125.763 211.845 123.418C213.093 118.914 207.219 120.879 204.673 120.191C204.071 119.337 206.667 106.385 200.908 109.613C199.66 110.315 197.63 121.539 200.37 120.908C196.052 121.453 196.246 120.04 193.915 123.239C193.858 123.318 192.574 124.15 192.481 124.494C191.635 127.707 195.694 131.486 197.322 133.997C197.444 133.989 198.369 132.146 198.577 131.845C196.103 139.849 188.709 147.867 182.799 153.898C185.374 164.957 190.05 190.933 183.158 200.156C181.774 202.013 179.636 203.025 177.779 204.28C186.328 197.495 184.054 178.246 182.799 167.883C182.778 167.718 182.103 167.331 182.082 167.166C182.039 166.836 182.634 166.348 182.441 165.014C182.397 164.727 181.766 164.943 181.723 164.656C181.558 163.616 181.774 158.423 180.468 156.229C180.303 156.179 178.051 158.072 177.779 158.38C179.457 154.278 182.548 150.477 182.441 145.83L184.592 146.547L189.254 141.706C188.121 141.383 183.043 136.507 182.62 136.507C182.405 136.507 179.608 139.339 179.572 139.555C179.443 140.315 180.554 141.541 181.006 142.244C177.7 141.52 179.794 143.427 177.779 143.32C177.255 142.624 177.456 141.943 177.42 141.168C177.406 140.881 176.753 139.411 176.703 139.017C176.596 138.192 177.083 136.973 177.062 136.865C177.973 136.191 177.93 137.016 178.855 136.507C178.984 136.435 179.55 136.822 180.289 135.252C181.817 119.653 193.585 74.6934 190.329 62.0998C189.354 58.3275 184.822 53.8953 181.365 52.2386C173.39 45.3968 161.685 44.4573 153.933 37.178C147.65 38.6052 139.195 37.6298 138.334 29.8269C137.036 18.1298 147.356 20.475 148.913 19.6072C150.125 18.9331 153.295 12.7008 160.746 15.3042C168.714 18.094 161.685 33.3554 159.491 38.433C174.48 47.5196 193.37 48.4448 193.557 70.3473C193.557 70.5409 192.323 73.6606 193.736 73.7539C195.651 73.8758 201.568 56.0397 207.362 57.2589C207.993 57.3951 216.011 62.9461 215.431 66.7614C215.086 69.0277 206.552 75.7046 203.597 75.7261L192.481 97.7792Z" fill="#FAFAFA"/>
<path d="M189.074 126.466C190.616 126.143 192.56 132.806 195.708 135.969C194.059 141.455 188.981 138.328 183.516 136.686C183.222 136.033 188.508 126.581 189.074 126.466Z" fill="#E23738"/>
<path d="M199.653 71.2437C199.975 71.5019 201.302 73.3164 201.446 73.3952C197.623 79.7638 194.855 86.6917 192.84 93.8347H192.481C194.532 86.9427 195.751 79.8426 199.653 73.5745C199.775 72.3482 195.923 68.2316 199.653 71.2437Z" fill="#127A64"/>
<path d="M157.16 17.8142C166.139 16.6883 159.448 29.956 159.132 34.13C154.019 33.0685 150.584 34.6248 149.63 34.6678C138.743 35.1555 140.271 18.0581 151.781 24.986C151.545 22.2536 154.449 18.1585 157.16 17.8142Z" fill="#127A64"/>
<path d="M157.16 18.89C159.147 18.5816 160.28 19.7004 160.925 21.5794C158.279 22.8703 158.15 27.5965 156.443 30.3648C153.201 29.6834 145.556 33.9148 143.713 29.8269C141.626 25.2011 148.92 21.8519 149.988 27.1375C151.251 23.8026 151.559 27.4817 152.14 27.1375C152.577 26.8793 153.122 19.5211 157.16 18.89Z" fill="#51CCAB"/>
<path d="M210.41 98.4963C209.464 98.4748 208.997 96.8468 208.438 96.7034C205.598 95.9575 207.176 98.6684 207.183 98.8549C205.196 98.733 206.229 99.6796 205.749 101.006C203.174 99.6079 200.857 102.297 203.956 103.517C203.238 103.882 202.528 103.524 202.521 103.696C202.478 105.532 206.186 104.893 207.183 103.337C206.702 102.986 206.724 102.211 206.824 101.724C207.506 102.577 208.531 102.692 207.9 103.875C199.796 110.975 192.144 95.0826 203.776 97.062C205.942 94.4371 210.195 94.2363 210.41 98.4963Z" fill="#40AC98"/>
<path d="M210.41 98.4963C210.525 100.741 209.557 102.426 207.9 103.875C208.531 102.692 207.506 102.577 206.824 101.724C206.975 100.956 207.319 102.053 207.183 98.8549C207.176 98.6684 205.598 95.9575 208.438 96.7034C208.997 96.8468 209.464 98.4748 210.41 98.4963Z" fill="#51CCAB"/>
<path d="M207.183 98.8549C207.319 102.054 206.975 100.956 206.824 101.724C206.724 102.211 206.702 102.986 207.183 103.337C206.186 104.894 202.478 105.532 202.521 103.696C202.521 103.524 203.239 103.882 203.956 103.517C206.882 102.025 205.103 102.799 205.749 101.006C206.229 99.6797 205.196 98.733 207.183 98.8549Z" fill="#91DBC5"/>
<path d="M205.749 101.006C205.103 102.799 206.882 102.025 203.956 103.516C200.858 102.297 203.174 99.6079 205.749 101.006Z" fill="#E0E9D8"/>
<path d="M172.4 158.381C171.618 160.926 170.88 163.58 169.531 165.911C170.406 161.694 172.371 145.414 172.759 144.396C173.124 143.442 174.465 142.56 175.269 141.885C174.724 144.03 174.537 148.541 174.193 149.954C173.397 153.231 169.983 158.144 172.4 158.381Z" fill="#D67066"/>
<path d="M40.0813 53.673C40.0598 53.7232 39.5076 53.5367 39.3642 53.8523C37.9442 57.0867 33.9208 79.104 33.6268 83.2564C33.3758 86.7275 33.0961 93.5479 35.0611 95.9863C34.8029 99.7586 35.4484 103.481 34.7025 104.592C33.7487 100.404 32.594 96.1942 31.4752 92.0418C31.4537 87.0001 29.5891 77.5334 26.8136 73.9332C26.8638 65.4633 23.0126 62.3293 30.9374 55.8245C33.1965 53.9742 38.8263 51.6219 41.1571 49.7285C42.2544 51.1485 40.1817 53.465 40.0813 53.673Z" fill="#40AC98"/>
<path d="M41.157 49.7285C38.8262 51.6219 33.1964 53.9742 30.9373 55.8245C23.0125 62.3293 26.8638 65.4634 26.8135 73.9332C29.589 77.5334 31.4537 87.0001 31.4752 92.0418C24.7768 67.1631 17.1173 59.6758 42.5914 47.577C42.577 48.6384 41.8742 49.1476 41.157 49.7285Z" fill="#217F76"/>
<path d="M40.0812 53.673C39.8947 58.7219 38.6827 64.0935 37.9297 69.2715C37.8867 69.5584 37.2555 69.3432 37.2125 69.6301C37.1838 69.8166 37.8006 70.7345 37.5711 72.4988C36.5455 80.3519 35.5989 88.0615 35.061 95.9863C33.0959 93.5479 33.3756 86.7275 33.6266 83.2564C33.9207 79.104 37.944 57.0867 39.364 53.8523C39.5075 53.5367 40.0597 53.7232 40.0812 53.673Z" fill="#40AC98"/>
<path d="M149.45 43.6325C137.703 41.144 125.934 39.2004 113.95 38.2537C115.349 37.1923 117.063 35.048 118.97 34.4886C117.701 33.0184 114.338 29.7839 113.592 28.5719C112.143 26.2339 112.064 26.0689 111.619 22.8345L108.034 26.0618C107.166 26.155 107.79 24.986 105.344 25.3446C103.766 25.5741 101.636 26.3486 101.758 28.3926C101.794 29.0452 106.104 39.0283 106.779 40.4053C105.853 40.0969 105.66 38.182 104.806 37.8951C103.451 37.4433 80.2144 37.5939 76.2986 37.5366C71.2569 37.4648 66.2008 36.7692 61.238 37.7159C61.0443 38.2968 61.6826 38.1605 62.6723 38.6123L62.3137 38.9709C56.7771 37.8808 55.7516 37.7015 50.8389 40.4053C47.4395 42.2771 45.2952 44.8804 42.5914 47.577C17.1174 59.6757 24.7768 67.163 31.4752 92.0418C32.594 96.1943 33.7487 100.404 34.7025 104.592C32.845 105.998 29.252 92.7231 26.8136 93.1176C29.3309 80.8324 15.1667 81.3918 14.0837 80.9256C13.4024 80.6316 10.6413 77.0887 9.78068 76.6226C3.23288 73.0797 0.816003 84.1314 3.50541 92.5797C5.74299 99.6008 11.0429 99.1203 3.50541 102.979C10.2325 100.648 13.6391 102.34 16.4145 102.082C12.8574 103.208 3.89268 108.135 1.35388 105.13C-2.23199 100.892 3.44086 98.5825 3.50541 97.9585C3.54844 97.5712 1.24631 93.6555 0.63671 90.7868C-1.53633 80.4881 1.84873 67.6866 10.8564 74.471C13.1442 76.1923 11.1361 78.6235 24.1242 80.9256C16.1348 53.5511 26.8064 54.4834 42.0535 44.7083C50.8891 39.0426 47.4108 35.5428 74.1471 34.4886C75.0866 33.3339 56.2392 20.7475 62.3137 9.38746C65.6486 3.14805 76.0906 3.76482 81.4981 7.05665C94.7085 -2.06581 110.156 14.9456 95.1244 25.7032C90.1975 29.2317 87.0921 27.03 83.6497 36.8194L102.296 37.178C103.415 36.4249 98.5741 29.1456 98.1724 27.6754C101.866 23.6521 107.467 22.7986 111.978 19.9658C114.237 21.9093 113.405 24.4481 113.592 24.8067C116.754 28.2994 120.247 31.6557 122.018 36.1022C125.719 37.2927 149.228 39.6881 150.168 41.3017C150.368 41.646 149.823 43.2596 149.45 43.6325Z" fill="#FAFAFA"/>
<path d="M34.7024 104.592C34.8458 105.216 34.394 106.45 35.4196 107.102V107.461C35.1255 107.569 34.394 107.791 34.3438 107.82L26.8135 94.1933C26.8995 93.9207 26.7489 93.4474 26.8135 93.1175C29.2519 92.7231 32.8449 105.998 34.7024 104.592Z" fill="#A5D7CF"/>
<path d="M113.592 28.5719C111.706 34.5172 111.827 27.0443 111.44 26.2411C109.841 22.899 107.381 32 105.344 25.3446C107.79 24.986 107.166 26.155 108.034 26.0618L111.62 22.8345C112.064 26.0689 112.143 26.2339 113.592 28.5719Z" fill="#51482F"/>
<path d="M71.4576 7.7738C75.9327 7.14269 79.6692 9.26552 82.2152 12.794C90.7783 1.29771 104.189 12.9303 95.8415 22.1173C92.8437 25.4163 84.8042 27.4459 81.8566 31.4406C77.2237 25.7677 62.6363 23.2719 64.1065 14.0491C64.5727 11.1015 68.6247 8.17542 71.4576 7.7738Z" fill="#074634"/>
<path d="M89.387 9.20817C93.9769 8.54837 98.2943 12.8227 97.4552 17.2764C92.9801 15.34 84.3883 21.4934 81.1395 24.986C78.5505 21.6081 58.8856 16.0572 68.2304 10.6425C75.689 6.32513 81.3762 15.1249 82.2153 14.9456C83.8002 12.5574 86.3319 9.64565 89.387 9.20817Z" fill="#12937C"/>
<path d="M30.758 133.279C31.0305 136.334 30.2918 140.516 28.965 143.32C28.8216 143.621 25.6445 147.931 25.0206 148.699C24.5759 149.244 23.3424 151.481 23.0483 151.567C19.7278 150.011 17.5261 150.75 16.0559 150.492C10.5551 149.531 2.85269 146.633 7.44978 139.734C6.63937 147.164 20.4593 151.84 25.7377 142.423C25.6732 137.439 29.467 138.077 29.3236 132.741H30.0408C30.0695 135.087 29.926 136.127 30.758 133.279Z" fill="#074634"/>
<path d="M30.7579 133.279C29.926 136.127 30.0694 135.087 30.0407 132.741H29.3235C29.467 138.077 25.6731 137.439 25.7377 142.423C20.4592 151.84 6.6393 147.164 7.4497 139.734C9.95264 135.976 14.7147 136.098 18.3866 138.3C16.357 127.284 29.8184 122.766 30.7579 133.279Z" fill="#136954"/>
<path d="M23.7655 128.618C32.1421 126.746 26.3115 133.021 26.0963 133.459C25.1353 135.395 21.4419 144.654 19.8211 145.113C2.61606 143.32 8.1885 133.796 19.1039 139.375C19.9143 139.196 18.1787 135.345 20.0004 132.024C20.5239 131.063 22.7902 128.84 23.7655 128.618Z" fill="#12937C"/>
<path d="M48.3288 117.86L46.5359 118.936C52.2661 110.402 42.534 104.879 35.4197 107.461V107.102C35.7783 106.78 37.7864 105.69 37.9298 105.668C44.5063 104.549 51.0111 108.157 49.7632 115.529C49.6843 116.003 48.5727 117.351 48.3288 117.86Z" fill="#FAFAFA"/>
<path d="M46.5359 118.936C45.331 120.736 39.816 124.888 37.9298 125.39C35.5488 126.022 34.7312 125.943 32.9096 124.315C28.9508 120.772 29.6536 110.502 34.3439 107.82C34.3941 107.791 35.1257 107.569 35.4197 107.461C42.5341 104.879 52.2661 110.402 46.5359 118.936Z" fill="#BE1D26"/>
<path d="M46.536 111.764C45.869 119.954 38.102 121.03 34.344 112.84C33.0029 106.507 42.6632 106.6 46.536 111.764Z" fill="#EF5959"/>
<path d="M34.3439 112.84C38.1019 121.03 45.8689 119.954 46.5359 111.764C48.1208 113.873 46.8945 115.666 45.8187 117.86C43.0074 120.069 38.3242 125.347 34.7025 122.88C34.5232 122.758 32.5868 119.33 32.551 119.115C32.3286 117.91 32.6872 110.315 33.4474 110.688C33.5335 113.492 34.2865 112.718 34.3439 112.84Z" fill="#D5253D"/>
<path d="M34.7026 122.88C38.3243 125.347 43.0075 120.069 45.8188 117.86C45.8045 117.889 46.4427 117.925 46.1774 118.398C46.0411 118.642 43.574 121.095 43.1294 121.446C34.344 128.367 30.1772 122.091 34.7026 122.88Z" fill="#811A24"/>
<path d="M40.0812 125.39C39.4071 125.728 38.6684 125.971 37.9297 126.108V125.39C39.8159 124.888 45.3309 120.736 46.5358 118.936L48.3287 117.86C46.8729 120.922 43.1077 123.87 40.0812 125.39Z" fill="#FCEEA9"/>
<path d="M178.855 170.572C179.78 175.263 178.639 180.52 174.552 183.482C172.881 184.694 167.538 187.125 166.663 184.199C171.948 186.429 171.848 183.116 173.834 181.151C170.076 176.037 172.608 179.917 170.966 182.585C167.459 188.287 168.226 178.619 167.021 180.971C168.133 176.79 175.764 175.048 170.428 175.951C167.043 176.525 163.242 186.307 151.781 187.785C150.361 187.964 137.882 187.95 147.478 189.219C149.823 189.527 154.593 189.219 156.801 188.143C157.59 188.609 157.268 189.492 157.339 189.578C157.103 189.606 156.801 189.527 156.622 189.578C151.645 191.055 141.26 190.711 142.996 186.888C143.139 186.573 146.445 185.604 147.299 185.275C164.389 191.951 168.785 163.838 178.855 170.572Z" fill="#CD2F1E"/>
<path d="M166.663 184.199C166.369 183.231 166.763 181.94 167.021 180.971C168.226 178.619 167.459 188.287 170.966 182.585C172.608 179.917 170.076 176.037 173.834 181.151C171.848 183.116 171.948 186.429 166.663 184.199Z" fill="#AD120F"/>
<path d="M174.014 175.951C177.349 174.861 177.198 179.745 175.448 180.254C172.823 181.015 171.97 176.618 174.014 175.951Z" fill="#FAFAFA"/>
<path d="M205.569 134.355C211.673 133.631 213.444 140.58 214.175 140.81C228.483 139.153 218.765 156.659 214.534 157.305C212.361 157.635 204.666 152.593 202.521 149.237C197.752 141.785 200.915 134.907 205.569 134.355Z" fill="#FAFAFA"/>
<path d="M206.287 139.017C211.063 137.712 212.942 144.797 213.458 144.754C213.681 144.74 214.254 142.158 217.044 142.961C221.627 144.281 215.215 151.833 213.817 153.719C202.536 151.173 202.156 140.15 206.287 139.017Z" fill="#12937C"/>
<path d="M207.004 140.093C210.088 139.074 213.007 145.765 214.176 147.982C215.603 145.765 215.323 144.044 215.431 143.858C217.589 140.157 217.052 152.421 212.383 151.926C206.624 151.316 203.999 141.082 207.004 140.093Z" fill="#51CCAB"/>
<path d="M177.779 204.28C174.939 206.202 167.1 210.713 166.304 208.941C172.185 203.354 171.059 191.822 173.835 184.916C173.863 184.844 174.631 184.335 174.552 183.482C178.64 180.52 179.78 175.263 178.855 170.572C178.525 168.916 177.463 167.861 177.42 167.704C176.302 163.508 174.408 162.153 177.779 158.38C178.052 158.072 180.303 156.179 180.468 156.229C181.774 158.423 181.559 163.616 181.723 164.656C181.766 164.943 182.398 164.727 182.441 165.014C182.634 166.348 182.039 166.836 182.082 167.166C182.104 167.331 182.778 167.718 182.799 167.883C184.054 178.246 186.328 197.495 177.779 204.28Z" fill="#F6BB1C"/>
<path d="M62.3139 38.9709C65.6703 39.6307 73.4086 42.8579 77.5539 43.9911C99.0906 49.8863 142.265 60.5722 160.746 68.7336C165.035 70.6269 169.001 73.3235 173.117 75.5468C178.611 78.9964 181.307 86.2972 182.082 92.4004C183.846 106.292 179.794 122.558 178.855 136.507C177.93 137.016 177.973 136.191 177.062 136.865C176.703 134.957 176.854 134.721 175.627 132.921C175.527 132.777 175.326 132.275 175.269 132.204C176.352 126.265 177.413 120.27 178.138 114.274C179.034 106.83 180.956 92.5581 178.496 85.7665C172.336 68.7479 103.551 53.8881 85.8014 49.0113C81.1397 47.7347 58.269 40.1542 56.7558 40.0466C55.2641 39.939 52.8615 40.4196 51.5563 41.1224C52.1372 40.2546 51.8001 40.3837 50.8391 40.4052C55.7518 37.7015 56.7773 37.8808 62.3139 38.9709Z" fill="#F6BB1C"/>
<path d="M50.8391 40.4052C51.8001 40.3837 52.1371 40.2546 51.5562 41.1224C42.527 45.992 37.5857 94.6881 37.9299 105.668C37.7865 105.69 35.7784 106.78 35.4198 107.102C34.3943 106.45 34.8461 105.216 34.7026 104.592C35.4485 103.481 34.803 99.7586 35.0612 95.9862C35.5991 88.0614 36.5458 80.3518 37.5713 72.4988C37.8008 70.7345 37.1841 69.8165 37.2127 69.6301C37.2558 69.3432 37.8869 69.5583 37.9299 69.2715C38.683 64.0935 39.895 58.7218 40.0814 53.6729C40.1818 53.465 42.2545 51.1485 41.1572 49.7285C41.8744 49.1476 42.5772 48.6384 42.5916 47.5769C45.2953 44.8804 47.4397 42.277 50.8391 40.4052Z" fill="#EF7E0E"/>
<path d="M34.7026 151.209C33.1177 161.156 25.4439 189.377 33.2683 196.391C39.8663 203.462 55.0417 205.126 64.4654 206.072C60.1336 207.521 65.8782 209.049 57.4729 208.224C52.3595 207.722 38.3889 204.43 34.1648 201.769C25.9818 196.613 27.5094 188.946 26.8137 180.613C27.3444 173.047 29.5031 165.803 30.7582 158.38C34.2867 159.686 32.0706 152.162 34.7026 151.209Z" fill="#BE1D26"/>
<path d="M37.9298 125.39V126.108C37.6931 132.878 36.4524 139.512 35.4197 146.188C35.3982 146.303 35.4412 146.432 35.4197 146.547L33.2682 144.395C33.9136 139.927 35.4986 134.792 34.7025 130.231C34.387 128.402 31.7621 126.158 32.9096 124.315C34.7312 125.943 35.5488 126.021 37.9298 125.39Z" fill="#D26E0E"/>
<path d="M35.4197 146.547C35.1759 148.096 34.9535 149.66 34.7025 151.209C32.0705 152.163 34.2866 159.686 30.7581 158.38C31.5469 153.697 32.5869 149.107 33.2682 144.396L35.4197 146.547Z" fill="#D2521E"/>
<path d="M157.339 189.577C157.806 190.101 158.272 190.94 158.774 191.37C134.189 210.361 94.1708 209.063 64.4654 206.072C55.0417 205.126 39.8663 203.462 33.2683 196.391C41.9031 204.129 65.032 205.807 76.4781 206.431C95.6338 207.471 121.538 207.392 139.589 200.694C145.693 198.427 151.007 194.59 156.802 191.729C157.877 190.89 157.175 190.395 156.622 189.577C156.802 189.527 157.103 189.606 157.339 189.577Z" fill="#F8D367"/>
<path d="M64.4653 206.072C94.1707 209.063 134.189 210.361 158.774 191.37C163.192 195.157 158.924 188.76 159.132 187.605C159.233 187.067 164.267 183.783 165.049 182.047C165.881 182.578 162.682 191.636 173.834 184.916C171.059 191.822 172.185 203.354 166.304 208.941C164.855 210.318 163.005 210.921 161.284 211.81C160.036 212.455 157.081 213.531 155.546 214.32C129.434 211.709 103.178 212.082 77.0159 210.376C65.0104 209.594 32.9742 208.812 27.8894 195.494C26.0893 190.782 26.4694 185.504 26.8137 180.613C27.5093 188.946 25.9818 196.613 34.1647 201.769C38.3889 204.43 52.3594 207.722 57.4729 208.224C65.8782 209.049 60.1336 207.521 64.4653 206.072Z" fill="#BE1D26"/>
<path d="M171.504 187.426C173.024 187.505 169.144 203.204 168.097 205.176C165.544 209.967 162.023 210.426 157.519 212.527C153.402 211.76 149.085 212.298 144.968 212.168C144.696 212.161 144.882 211.458 144.61 211.451C124.098 210.892 102.16 211.25 80.9604 209.838C100.912 207.399 123.532 213.725 142.1 204.997C146.955 202.716 151.401 199.03 156.084 196.391C160.488 193.909 167 192.159 171.504 187.426Z" fill="#E23738"/>
<path d="M162.36 189.936C162.733 189.635 165.056 187.835 165.228 187.784C166.29 187.469 169.969 187.763 168.276 188.502C167.882 188.674 167.595 188.122 167.559 188.143C166.914 188.616 162.41 193.378 161.463 192.805C160.215 192.052 161.248 190.825 162.36 189.936Z" fill="#BE1D26"/>
<path d="M165.228 187.785C165.056 187.835 162.733 189.635 162.36 189.936C157.856 189.692 162.898 188.064 163.435 187.247C164.052 186.3 163.916 182.485 164.511 187.605C164.54 187.863 165.006 187.792 165.228 187.785Z" fill="#E23738"/>
<path d="M178.137 114.274C177.413 120.27 176.352 126.265 175.269 132.204C170.191 126.445 157.411 129.801 158.415 137.582C158.537 138.551 158.967 140.042 159.491 140.81C158.071 142.732 158.637 145.127 159.132 147.264C158.229 147.651 159.132 149.581 158.953 149.774C158.444 150.327 145.692 155.347 144.968 155.153C142.465 154.486 145.757 146.067 143.354 140.272C145.348 139.268 146.015 137.769 146.582 137.224C148.74 135.144 155.819 131.96 154.112 122.522C155.123 119.237 158.386 118.52 160.387 116.067C161.807 115.25 163.478 116.505 163.615 114.633C164.798 114.281 167.373 118.656 172.221 115.35C174.853 114.991 174.394 117.114 178.137 114.274Z" fill="#F8D367"/>
<path d="M177.062 136.865C177.083 136.973 176.595 138.192 176.703 139.017C176.258 139.476 175.391 141.419 175.269 141.885C174.465 142.559 173.124 143.442 172.759 144.395C172.099 143.901 171.324 144.56 170.248 144.754C166.584 145.421 161.664 143.979 159.491 140.81C158.967 140.042 158.537 138.55 158.415 137.582C160.61 137.288 161.477 140.408 164.69 141.527C166.777 142.258 170.342 142.337 172.221 141.168C176.222 138.68 174.501 134.714 175.627 132.921C176.854 134.721 176.703 134.957 177.062 136.865Z" fill="#EF7E0E"/>
<path d="M175.269 132.204C175.326 132.275 175.527 132.777 175.627 132.921C174.501 134.714 176.223 138.68 172.221 141.168C170.342 142.337 166.777 142.258 164.69 141.527C161.477 140.408 160.61 137.288 158.415 137.582C157.411 129.801 170.191 126.445 175.269 132.204Z" fill="#F79A12"/>
<path d="M172.759 144.396C172.371 145.414 170.406 161.694 169.531 165.911C169.022 168.356 168.262 170.651 167.738 173.083C158.164 182.929 159.297 180.642 147.299 185.274C146.446 185.604 143.139 186.573 142.996 186.888C141.26 190.711 151.645 191.055 156.622 189.578C157.174 190.395 157.877 190.89 156.802 191.729C151.007 194.591 145.693 198.427 139.589 200.694C121.538 207.392 95.6337 207.471 76.478 206.431C65.0319 205.807 41.903 204.129 33.2682 196.391C25.4439 189.377 33.1176 161.156 34.7026 151.209C34.9536 149.66 35.1759 148.096 35.4198 146.547C35.4413 146.432 35.3982 146.303 35.4198 146.188C37.9872 151.761 40.3037 157.24 44.0259 162.146C44.6498 162.97 44.7359 161.335 45.1016 161.787C45.2379 163.494 45.8762 165.072 46.536 166.628C49.6126 173.871 50.8318 177.551 55.8592 183.84C56.3182 184.414 56.1891 184.529 56.2178 184.557C60.7791 189.958 63.741 192.202 70.7406 194.598C80.9962 198.105 95.9851 199.059 106.061 194.598C116.776 192.009 131.349 184.5 140.307 178.103C151.509 170.099 154.571 165.272 162.718 155.512C162.919 155.275 164.267 155.87 167.021 151.747C169.144 148.577 169.037 146.626 169.173 146.368C169.323 146.081 171.317 146.339 170.249 144.754C171.324 144.56 172.099 143.901 172.759 144.396Z" fill="#F6BB1C"/>
<path d="M170.249 144.754C171.317 146.339 169.323 146.081 169.173 146.368C169.037 146.626 169.144 148.577 167.021 151.746C164.267 155.87 162.919 155.275 162.718 155.512C162.338 153.504 160.918 151.94 160.208 150.133C160 149.609 159.168 147.415 159.132 147.264C158.638 145.127 158.071 142.732 159.491 140.81C161.664 143.979 166.584 145.421 170.249 144.754Z" fill="#F6BB1C"/>
<path d="M48.3288 126.825C45.4529 133.573 50.9178 138.658 57.6521 137.941C58.8067 140.444 55.7803 139.655 55.5006 141.527C45.7183 146.296 43.7819 156.817 46.5359 166.628C45.8761 165.072 45.2378 163.494 45.1015 161.787C44.7358 161.335 44.6497 162.97 44.0258 162.146C40.3036 157.24 37.9872 151.761 35.4197 146.188C36.4524 139.512 37.6931 132.878 37.9298 126.108C38.6685 125.971 39.4072 125.727 40.0813 125.39C43.9684 125.907 42.7133 127.298 43.1293 127.542C47.4754 130.109 46.873 128.144 48.3288 126.825Z" fill="#F6BB1C"/>
<path d="M57.6521 137.941C50.9178 138.658 45.4529 133.573 48.3288 126.825C48.4005 126.76 48.9527 126.545 49.046 126.466L50.1217 127.183C48.5439 129.471 49.8994 132.648 52.094 133.996C58.4194 137.876 69.048 131.034 62.3137 126.107L63.0309 125.032C70.0448 129.901 64.2501 137.238 57.6521 137.941Z" fill="#EF7E0E"/>
<path d="M63.0308 125.032L62.3136 126.108C57.5301 122.615 50.9177 126.029 50.1217 127.183L49.0459 126.466C53.5856 122.73 57.5874 121.252 63.0308 125.032Z" fill="#EF7E0E"/>
<path d="M62.3138 126.108C69.0481 131.035 58.4195 137.876 52.0941 133.996C49.8995 132.648 48.5441 129.471 50.1218 127.183C50.9179 126.029 57.5303 122.615 62.3138 126.108Z" fill="#EF7E0E"/>
<path d="M160.208 150.133C160.918 151.94 162.338 153.504 162.718 155.512C154.571 165.273 151.509 170.099 140.306 178.103C131.349 184.5 116.776 192.009 106.061 194.598C113.979 191.091 123.611 181.703 123.632 172.545C122.901 171.569 121.631 171.72 121.481 171.648C114.223 168.048 96.9174 166.205 92.0765 174.338C88.7058 180.003 90.678 193.35 89.2078 176.131C88.5193 173.764 86.9558 172.624 86.6977 172.007C85.4856 169.124 84.7111 166.119 82.7532 163.58C76.9799 156.078 64.9816 153.367 57.1142 159.098C48.7448 165.194 51.384 176.131 56.2177 183.123C56.1389 183.474 55.8592 183.532 55.8592 183.84C50.8318 177.551 49.6126 173.871 46.5359 166.628C43.7819 156.817 45.7183 146.296 55.5006 141.527C56.1532 141.211 57.5445 140.028 58.19 140.093C82.6169 159.076 121.56 164.857 150.347 154.436C153.553 153.274 157.497 150.47 160.208 150.133Z" fill="#1D1916"/>
<path d="M86.6977 172.007C84.7398 171.003 83.1406 170.336 80.9603 169.855C70.2386 167.489 58.8212 171.584 56.2178 183.123C51.3841 176.131 48.7449 165.194 57.1143 159.098C64.9817 153.367 76.98 156.078 82.7533 163.58C84.7112 166.119 85.4857 169.124 86.6977 172.007Z" fill="#A6112F"/>
<path d="M106.061 194.598C95.9851 199.059 80.9962 198.105 70.7406 194.598C63.7409 192.202 60.779 189.958 56.2178 184.557C58.233 185.439 57.6808 183.912 58.3693 182.406C79.6048 191.672 107.51 193.615 121.481 171.648C121.631 171.72 122.901 171.569 123.632 172.545C123.611 181.703 113.979 191.091 106.061 194.598Z" fill="#D5253D"/>
<path d="M80.9602 169.855C70.4967 169.604 62.8157 172.645 58.3692 182.406C57.6808 183.912 58.233 185.439 56.2177 184.557C56.189 184.529 56.3181 184.414 55.8591 183.84C55.8591 183.532 56.1388 183.474 56.2177 183.123C58.8211 171.584 70.2385 167.489 80.9602 169.855Z" fill="#FBE4D4"/>
<path d="M121.48 171.648C107.51 193.615 79.6047 191.672 58.3691 182.406C62.8156 172.645 70.4966 169.604 80.9601 169.855C83.1403 170.336 84.7396 171.003 86.6975 172.007C86.9557 172.624 88.5192 173.764 89.2076 176.131C90.6778 193.35 88.7056 180.003 92.0763 174.338C96.9173 166.205 114.223 168.048 121.48 171.648Z" fill="#EF5959"/>
<path d="M101.579 169.855C102.095 169.819 111.125 170.773 109.647 172.545C107.79 172.451 98.5454 172.186 97.9931 172.007C96.2074 171.433 100.166 169.948 101.579 169.855Z" fill="#F9E7E7"/>
<path d="M154.112 122.522C155.819 131.96 148.741 135.144 146.582 137.224C133.938 141.928 118.784 130.669 125.784 116.964C133.228 102.383 152.169 111.778 154.112 122.522Z" fill="#1D1916"/>
<path d="M134.928 111.405C151.186 108.809 160.474 130.045 146.044 136.507C135.157 141.383 119.824 129.729 126.86 117.322C128.215 114.934 132.195 111.843 134.928 111.405Z" fill="#FAFAFA"/>
<path d="M137.438 117.86C150.089 116.497 153.546 137.848 138.155 136.148C126.487 134.857 128.531 118.821 137.438 117.86Z" fill="#1D1916"/>
<path d="M139.948 123.239C142.824 122.099 144.308 126.76 141.382 127.183C138.879 127.549 138.262 123.906 139.948 123.239Z" fill="#FAFAFA"/>
<path d="M178.138 114.274C174.394 117.114 174.853 114.991 172.221 115.35C167.373 118.656 164.798 114.281 163.615 114.633C163.479 116.505 161.807 115.249 160.387 116.067C158.387 118.52 155.123 119.237 154.112 122.522C152.169 111.778 133.228 102.383 125.784 116.964C118.784 130.669 133.938 141.928 146.582 137.224C146.015 137.769 145.348 139.268 143.355 140.272C145.757 146.066 142.465 154.486 144.968 155.153C145.693 155.347 158.444 150.326 158.953 149.774C159.132 149.581 158.229 147.651 159.132 147.264C159.168 147.415 160 149.609 160.208 150.133C157.497 150.47 153.553 153.274 150.347 154.436C121.56 164.856 82.6171 159.076 58.1901 140.092C57.5447 140.028 56.1533 141.211 55.5007 141.527C55.7804 139.655 58.8069 140.444 57.6522 137.941C64.2502 137.238 70.045 129.901 63.031 125.032C57.5877 121.252 53.5859 122.73 49.0461 126.466C48.9529 126.545 48.4007 126.76 48.329 126.825C46.8731 128.144 47.4755 130.109 43.1295 127.542C42.7135 127.298 43.9686 125.907 40.0815 125.39C43.1079 123.87 46.8731 120.922 48.329 117.86C48.5728 117.351 49.6844 116.002 49.7633 115.529C51.0112 108.157 44.5064 104.549 37.9299 105.668C37.5857 94.6881 42.527 45.9919 51.5563 41.1223C52.8615 40.4195 55.264 39.939 56.7558 40.0465C58.269 40.1541 81.1397 47.7347 85.8013 49.0112C103.551 53.888 172.336 68.7479 178.496 85.7664C180.956 92.5581 179.034 106.83 178.138 114.274Z" fill="#F8D367"/>
<path d="M134.211 91.3244C139.245 90.055 149.695 94.0282 153.933 97.0618C159.871 101.307 166.268 112.689 161.105 113.915C157.734 114.719 157.067 109.971 154.829 107.282C147.098 97.9941 135.05 98.2738 133.135 96.7032C131.292 95.19 131.844 91.9197 134.211 91.3244Z" fill="#1D1916"/>
<path d="M59.4451 95.9861C59.4881 100.985 61.9552 96.7893 65.7204 93.476C67.1045 92.264 72.677 89.8543 68.7684 89.1729C78.7945 84.5902 94.6655 84.4396 93.1523 90.428C92.0694 94.7095 83.3772 88.965 67.5133 97.0619C66.5308 97.5639 63.4756 100.239 63.2103 100.289C61.5321 100.583 57.7741 98.9265 59.4451 95.9861Z" fill="#2C2B2D"/>
<path d="M104.448 124.673C105.983 124.752 104.857 132.397 109.468 131.128C110.673 130.798 112.136 122.479 113.95 127.004C114.868 129.292 111.835 133.595 109.468 133.996C102.225 135.223 101.335 124.508 104.448 124.673Z" fill="#282C24"/>
<path d="M59.4451 95.9861C60.6643 93.8418 66.4088 90.2487 68.7683 89.173C72.6769 89.8543 67.1045 92.264 65.7203 93.476C61.9552 96.7894 59.4881 100.985 59.4451 95.9861Z" fill="#2C2B2D"/>
<path d="M80.4226 102.799C98.9544 101.523 98.854 128.159 81.857 130.411C59.1441 133.423 62.4216 104.04 80.4226 102.799Z" fill="#2C2721"/>
<path d="M79.7055 104.592C93.7262 103.122 98.6963 118.799 87.953 126.825C76.1268 135.653 61.5466 124.2 68.41 111.943C70.3105 108.551 75.8973 104.994 79.7055 104.592Z" fill="#FAFAFA"/>
<path d="M78.6296 111.405C91.5244 109.196 93.7333 128.151 80.064 128.976C67.0544 129.758 70.045 112.876 78.6296 111.405Z" fill="#1D1916"/>
<path d="M78.2711 113.198C82.1223 112.639 87.4366 115.027 85.2636 115.529C86.1027 115.242 87.7235 118.398 87.7737 118.756C88.3403 122.966 85.5648 124.322 83.6499 126.466C72.505 125.233 71.6946 114.145 78.2711 113.198Z" fill="#2C2721"/>
<path d="M82.5742 117.143C84.8261 116.985 85.8875 120.965 83.2914 121.446C80.437 121.969 80.229 117.308 82.5742 117.143Z" fill="#EDF0FC"/>
</svg>
