<svg width="343" height="217" viewBox="0 0 343 217" fill="none" xmlns="http://www.w3.org/2000/svg">
<path d="M140.198 31.175C140.198 31.175 140.632 31.2417 141.499 31.3751C142.366 31.4418 143.333 31.742 144.4 32.2755C145.534 32.7424 146.501 33.6094 147.301 34.8766C148.102 36.0772 148.435 37.8446 148.302 40.1789C148.235 41.7129 148.135 43.7805 148.002 46.3816C147.935 48.916 147.902 51.7172 147.902 54.7852C147.902 57.7865 147.968 60.7878 148.102 63.7891C148.302 66.7904 148.602 69.5582 149.002 72.0927C149.469 74.6271 150.069 76.6613 150.803 78.1953C151.603 79.6626 152.57 80.3629 153.704 80.2962C154.905 80.2295 155.805 79.4292 156.405 77.8952C157.005 76.2945 157.406 74.2936 157.606 71.8926C157.806 69.4248 157.873 66.8237 157.806 64.0892C157.739 61.3547 157.606 58.7536 157.406 56.2859C157.206 53.7514 157.005 51.6839 156.805 50.0832C156.672 48.4158 156.572 47.4821 156.505 47.282C156.439 47.0152 156.339 46.4483 156.205 45.5812C156.072 44.7142 156.138 43.7805 156.405 42.78C156.672 41.7796 157.339 40.8792 158.406 40.0789C159.54 39.2785 161.307 38.7783 163.708 38.5782C166.109 38.3781 167.977 38.6783 169.311 39.4786C170.645 40.279 171.578 41.246 172.112 42.3799C172.712 43.5137 173.046 44.5141 173.112 45.3812C173.246 46.2482 173.313 46.6817 173.313 46.6817C173.313 46.6817 173.413 47.4487 173.613 48.9827C173.879 50.5167 174.08 52.5509 174.213 55.0853C174.413 57.5531 174.413 60.2876 174.213 63.2889C174.08 66.2902 173.646 69.3248 172.912 72.3928C172.245 75.3941 171.145 78.1619 169.611 80.6964C168.077 83.1641 166.009 85.165 163.408 86.6989C160.807 88.2329 157.539 88.9999 153.604 88.9999C149.669 88.9999 146.334 88.1996 143.6 86.5989C140.932 84.9315 138.731 82.7639 136.997 80.0961C135.33 77.3616 134.029 74.327 133.095 70.9922C132.228 67.6574 131.628 64.256 131.294 60.7878C131.028 57.2529 130.894 53.9182 130.894 50.7835C130.961 47.6488 131.061 44.9143 131.194 42.58C131.394 40.2456 131.528 38.5782 131.595 37.5778C131.728 35.8437 132.228 34.5432 133.095 33.6761C133.962 32.7424 134.929 32.1088 135.996 31.7753C137.13 31.4418 138.097 31.2751 138.898 31.2751C139.765 31.2084 140.198 31.175 140.198 31.175ZM188.296 88.9999C185.829 88.9999 183.961 88.6665 182.694 87.9995C181.493 87.3326 180.693 86.5656 180.293 85.6985C179.893 84.8315 179.693 84.0645 179.693 83.3975C179.693 82.7306 179.693 82.3971 179.693 82.3971L178.492 38.9784C178.492 38.9784 178.459 38.6449 178.392 37.978C178.325 37.311 178.459 36.544 178.792 35.677C179.126 34.7432 179.826 33.9429 180.893 33.2759C181.96 32.5423 183.628 32.1755 185.895 32.1755C188.897 32.1088 191.164 32.5423 192.698 33.476C194.232 34.3431 195.233 35.2435 195.699 36.1772C196.233 37.0442 196.5 37.4778 196.5 37.4778L208.005 58.3868C208.005 58.3868 208.272 57.7865 208.805 56.586C209.405 55.3188 210.106 53.7514 210.906 51.884C211.773 50.0165 212.64 48.1157 213.507 46.1815C214.374 44.2473 215.141 42.58 215.808 41.1794C216.475 39.7121 216.909 38.7783 217.109 38.3781C217.442 37.7112 218.042 36.8108 218.909 35.677C219.777 34.4765 221.01 33.376 222.611 32.3756C224.278 31.3751 226.446 30.8416 229.114 30.7749C231.115 30.7082 232.649 30.9416 233.716 31.4752C234.783 31.942 235.517 32.509 235.917 33.1759C236.384 33.8429 236.65 34.4431 236.717 34.9767C236.784 35.5102 236.817 35.777 236.817 35.777C236.817 35.777 236.817 36.6441 236.817 38.3781C236.817 40.0455 236.817 42.2798 236.817 45.081C236.884 47.8822 236.917 50.9502 236.917 54.285C236.917 57.6198 236.917 60.9879 236.917 64.3893C236.917 67.7241 236.917 70.7921 236.917 73.5933C236.984 76.3945 237.017 78.6622 237.017 80.3962C237.017 82.1303 237.017 83.0307 237.017 83.0974C237.017 83.1641 236.984 83.4976 236.917 84.0978C236.917 84.6981 236.684 85.3984 236.217 86.1987C235.75 86.9324 234.916 87.5993 233.716 88.1996C232.582 88.7332 230.881 88.9999 228.614 88.9999C226.346 88.9999 224.612 88.7665 223.411 88.2996C222.278 87.7661 221.477 87.1992 221.01 86.5989C220.544 85.932 220.277 85.365 220.21 84.8982C220.143 84.4313 220.11 84.1979 220.11 84.1979C220.11 84.1979 220.11 83.631 220.11 82.4971C220.11 81.2966 220.11 79.8293 220.11 78.0952C220.177 76.2945 220.21 74.527 220.21 72.793C220.277 70.9922 220.31 69.4915 220.31 68.291C220.31 67.0905 220.31 66.4902 220.31 66.4902L221.11 52.1841L215.908 63.2889C215.908 63.2889 215.708 63.6557 215.308 64.3893C214.974 65.123 214.308 65.8566 213.307 66.5903C212.307 67.3239 210.806 67.7241 208.805 67.7908C206.871 67.8575 205.337 67.5907 204.203 66.9905C203.136 66.3235 202.369 65.6899 201.902 65.0896C201.502 64.4227 201.302 64.0892 201.302 64.0892L194.799 52.1841C194.799 52.1841 194.832 52.9844 194.899 54.5851C195.033 56.1191 195.166 58.1533 195.299 60.6877C195.433 63.1555 195.566 65.7899 195.699 68.5912C195.833 71.3257 195.933 73.9268 196 76.3945C196.133 78.7955 196.233 80.7297 196.3 82.197C196.366 83.9978 196 85.3984 195.199 86.3988C194.399 87.3326 193.465 87.9995 192.398 88.3997C191.331 88.7332 190.364 88.9332 189.497 88.9999C188.696 88.9999 188.296 88.9999 188.296 88.9999Z" fill="#FF6462"/>
<path d="M171.028 96.09C171.028 96.09 171.606 96.1789 172.762 96.3568C173.918 96.4457 175.207 96.8459 176.63 97.5573C178.142 98.1798 179.431 99.3359 180.499 101.025C181.566 102.626 182.01 104.983 181.832 108.095C181.744 110.141 181.61 112.897 181.432 116.365C181.343 119.745 181.299 123.48 181.299 127.57C181.299 131.572 181.388 135.574 181.566 139.575C181.832 143.577 182.233 147.268 182.766 150.647C183.389 154.026 184.189 156.738 185.167 158.784C186.234 160.74 187.524 161.674 189.036 161.585C190.636 161.496 191.837 160.429 192.637 158.384C193.437 156.249 193.971 153.581 194.238 150.38C194.505 147.09 194.594 143.622 194.505 139.976C194.416 136.33 194.238 132.861 193.971 129.571C193.704 126.192 193.437 123.435 193.171 121.301C192.993 119.078 192.859 117.833 192.771 117.566C192.682 117.21 192.548 116.454 192.37 115.298C192.193 114.142 192.281 112.897 192.637 111.563C192.993 110.229 193.882 109.029 195.305 107.962C196.817 106.895 199.173 106.228 202.375 105.961C205.576 105.694 208.066 106.094 209.845 107.161C211.623 108.229 212.868 109.518 213.579 111.03C214.38 112.542 214.824 113.875 214.913 115.032C215.091 116.188 215.18 116.766 215.18 116.766C215.18 116.766 215.314 117.788 215.58 119.834C215.936 121.879 216.203 124.591 216.381 127.97C216.647 131.261 216.647 134.907 216.381 138.908C216.203 142.91 215.625 146.956 214.647 151.047C213.757 155.049 212.29 158.739 210.245 162.118C208.199 165.409 205.443 168.077 201.974 170.122C198.506 172.167 194.149 173.19 188.902 173.19C183.655 173.19 179.209 172.123 175.563 169.989C172.006 167.765 169.071 164.875 166.759 161.318C164.536 157.672 162.802 153.626 161.557 149.18C160.401 144.733 159.601 140.198 159.156 135.574C158.8 130.861 158.622 126.414 158.622 122.235C158.711 118.055 158.845 114.409 159.023 111.297C159.289 108.184 159.467 105.961 159.556 104.627C159.734 102.315 160.401 100.581 161.557 99.4248C162.713 98.1798 164.003 97.335 165.425 96.8904C166.937 96.4457 168.227 96.2234 169.294 96.2234C170.45 96.1345 171.028 96.09 171.028 96.09ZM235.159 173.19C231.868 173.19 229.378 172.745 227.689 171.856C226.088 170.967 225.021 169.944 224.487 168.788C223.954 167.632 223.687 166.609 223.687 165.72C223.687 164.831 223.687 164.386 223.687 164.386L222.086 106.494C222.086 106.494 222.042 106.05 221.953 105.161C221.864 104.271 222.042 103.249 222.486 102.093C222.931 100.848 223.865 99.7805 225.288 98.8912C226.71 97.913 228.934 97.4239 231.957 97.4239C235.959 97.335 238.982 97.913 241.028 99.158C243.073 100.314 244.407 101.515 245.029 102.76C245.741 103.916 246.097 104.494 246.097 104.494L261.437 132.372C261.437 132.372 261.792 131.572 262.504 129.971C263.304 128.282 264.238 126.192 265.305 123.702C266.461 121.212 267.617 118.678 268.773 116.099C269.929 113.52 270.952 111.297 271.841 109.429C272.73 107.473 273.308 106.228 273.575 105.694C274.02 104.805 274.82 103.604 275.976 102.093C277.132 100.492 278.777 99.0246 280.912 97.6907C283.135 96.3568 286.025 95.6454 289.582 95.5565C292.25 95.4675 294.295 95.7788 295.718 96.4902C297.141 97.1127 298.119 97.8686 298.653 98.7578C299.275 99.6471 299.631 100.447 299.72 101.159C299.809 101.87 299.853 102.226 299.853 102.226C299.853 102.226 299.853 103.382 299.853 105.694C299.853 107.917 299.853 110.896 299.853 114.631C299.942 118.366 299.986 122.457 299.986 126.903C299.986 131.35 299.986 135.84 299.986 140.376C299.986 144.822 299.986 148.913 299.986 152.648C300.075 156.383 300.12 159.406 300.12 161.718C300.12 164.03 300.12 165.231 300.12 165.32C300.12 165.409 300.075 165.853 299.986 166.654C299.986 167.454 299.675 168.388 299.053 169.455C298.43 170.433 297.319 171.322 295.718 172.123C294.206 172.834 291.939 173.19 288.915 173.19C285.892 173.19 283.579 172.879 281.979 172.256C280.467 171.545 279.4 170.789 278.777 169.989C278.155 169.099 277.799 168.343 277.71 167.721C277.621 167.098 277.577 166.787 277.577 166.787C277.577 166.787 277.577 166.031 277.577 164.519C277.577 162.919 277.577 160.962 277.577 158.65C277.666 156.249 277.71 153.893 277.71 151.581C277.799 149.18 277.844 147.179 277.844 145.578C277.844 143.977 277.844 143.177 277.844 143.177L278.911 124.102L271.974 138.908C271.974 138.908 271.708 139.398 271.174 140.376C270.729 141.354 269.84 142.332 268.506 143.31C267.172 144.289 265.171 144.822 262.504 144.911C259.925 145 257.879 144.644 256.368 143.844C254.945 142.955 253.922 142.11 253.3 141.309C252.766 140.42 252.499 139.976 252.499 139.976L243.829 124.102C243.829 124.102 243.873 125.169 243.962 127.303C244.14 129.349 244.318 132.061 244.496 135.44C244.674 138.731 244.852 142.243 245.029 145.978C245.207 149.624 245.341 153.092 245.43 156.383C245.608 159.584 245.741 162.163 245.83 164.119C245.919 166.52 245.43 168.388 244.363 169.722C243.295 170.967 242.05 171.856 240.628 172.39C239.205 172.834 237.915 173.101 236.759 173.19C235.692 173.19 235.159 173.19 235.159 173.19Z" fill="#3699A5"/>
<path fill-rule="evenodd" clip-rule="evenodd" d="M75.5016 6.64854C85.4121 8.46882 95.6623 13.2643 106.262 21.3196C113.307 26.7078 116.908 31.8248 118.085 36.5317L118.111 36.6339L118.141 36.7348C119.644 41.8084 119.631 46.6769 118.163 51.465C116.552 56.4912 114.249 61.0969 111.252 65.3015C108.06 69.5539 105.173 72.831 102.593 75.2121L102.522 75.278L102.453 75.3474L99.4672 78.3328L98.7206 79.079L98.5339 79.2656L98.4875 79.3125L98.4758 79.3238L98.4729 79.3267L98.4724 79.3277L93.0121 84.7875L100.284 87.3845L100.285 87.3849L100.288 87.3859L100.302 87.3908L100.356 87.4103L100.574 87.488L101.445 87.7988L104.927 89.0428C107.685 90.0279 111.193 91.6642 115.495 94.0306L115.538 94.0546L115.582 94.0775C119.798 96.2856 124.108 99.3472 128.504 103.324L128.552 103.368L128.602 103.411C132.725 106.944 136.218 111.407 139.054 116.877L139.087 116.94L139.121 117.001C141.998 122.181 143.613 128.355 143.815 135.662L143.816 135.674V135.687C144.218 147.946 140.449 157.629 132.683 165.2L132.661 165.222L132.639 165.244C124.764 173.119 113.534 179.301 98.6165 183.566C83.8769 187.622 66.7548 189.687 47.1928 189.687C35.8509 189.687 27.5385 188.805 21.9974 187.221C16.0452 185.521 12.5002 183.676 10.6879 182.015C8.16871 179.706 7.55716 178.428 7.48235 178.129L6.98479 176.139L6.9221 175.888L6.91091 175.732L6.78656 173.99L6.29511 167.11C6.07079 160.869 5.62703 152.898 4.96695 143.211C4.52389 133.471 3.97063 123.072 3.3073 112.017C2.64455 100.75 1.98172 90.0332 1.31878 79.8661C0.878098 69.5075 0.547931 60.92 0.327914 54.0994C0.119873 47.4422 0.0129575 43.4226 0 41.9241C0.412128 38.4128 0.728401 35.569 0.94714 33.4024C1.07367 32.7974 1.23734 32.4801 1.33422 32.3348C1.41927 32.2073 1.4922 32.1463 1.61004 32.0874C2.77305 31.5059 4.45529 30.3746 5.2439 28.2717C5.9908 26.28 5.56961 24.449 4.92381 23.1275C4.88936 22.9654 4.84534 22.636 4.87212 22.0817C4.95616 21.9943 5.07606 21.8792 5.24317 21.7371C5.93573 21.1485 7.10362 20.3841 8.90793 19.482C11.8779 17.997 16.6408 15.8294 23.2613 12.9605L23.2956 12.9457L23.3296 12.9303C29.7435 10.0337 37.532 7.69983 46.7596 5.98306C55.568 4.34431 65.0999 4.52673 75.4072 6.63025L75.4542 6.63986L75.5016 6.64854ZM43.9375 29.3561L41.3115 30.7262V33.6881V33.6886V33.6894V33.6901V33.691V33.692V33.6926V33.6932V33.6939V33.6946V33.6954V33.6962V33.697V33.6979V33.6988V33.6997V33.7007V33.7017V33.7028V33.7039V33.7051V33.7063V33.7075V33.7088V33.7101V33.7115V33.7129V33.7143V33.7158V33.7173V33.7188V33.7204V33.7221V33.7238V33.7255V33.7272V33.729V33.7309V33.7328V33.7347V33.7367V33.7387V33.7407V33.7428V33.7449V33.7471V33.7493V33.7516V33.7538V33.7562V33.7586V33.761V33.7634V33.7659V33.7684V33.771V33.7736V33.7762V33.7789V33.7817V33.7845V33.7873V33.7901V33.793V33.7959V33.7989V33.8019V33.805V33.8081V33.8112V33.8144V33.8176V33.8209V33.8242V33.8276V33.8309V33.8343V33.8378V33.8413V33.8448V33.8484V33.8521V33.8557V33.8594V33.8632V33.867V33.8708V33.8747V33.8786V33.8825V33.8865V33.8905V33.8946V33.8987V33.9028V33.907V33.9113V33.9156V33.9199V33.9242V33.9286V33.933V33.9375V33.942V33.9466V33.9512V33.9558V33.9605V33.9652V33.97V33.9748V33.9796V33.9845V33.9894V33.9944V33.9994V34.0044V34.0095V34.0146V34.0198V34.025V34.0302V34.0355V34.0408V34.0462V34.0516V34.0571V34.0625V34.0681V34.0736V34.0792V34.0849V34.0906V34.0963V34.1021V34.1079V34.1137V34.1196V34.1256V34.1316V34.1376V34.1436V34.1497V34.1559V34.162V34.1682V34.1745V34.1808V34.1871V34.1935V34.1999V34.2064V34.2129V34.2194V34.226V34.2326V34.2393V34.246V34.2527V34.2595V34.2663V34.2732V34.2801V34.287V34.294V34.3011V34.3081V34.3152V34.3224V34.3296V34.3368V34.3441V34.3513V34.3587V34.3661V34.3735V34.381V34.3885V34.3961V34.4037V34.4113V34.419V34.4267V34.4344V34.4422V34.45V34.458V34.4659V34.4738V34.4818V34.4899V34.4979V34.506V34.5142V34.5224V34.5307V34.5389V34.5472V34.5556V34.564V34.5724V34.5809V34.5895V34.5981V34.6067V34.6153V34.6239V34.6327V34.6414V34.6503V34.6591V34.668V34.6769V34.6859V34.6949V34.704V34.7131V34.7222V34.7313V34.7406V34.7498V34.7591V34.7684V34.7778V34.7872V34.7967V34.8062V34.8157V34.8253V34.8349V34.8446V34.8543V34.864V34.8738V34.8836V34.8935V34.9034V34.9133V34.9233V34.9333V34.9434V34.9535V34.9636V34.9738V34.984V34.9943V35.0046V35.0149V35.0253V35.0358V35.0462V35.0568V35.0673V35.0779V35.0885V35.0992V35.1099V35.1206V35.1314V35.1423V35.1531V35.1641V35.175V35.186V35.197V35.2081V35.2192V35.2304V35.2416V35.2528V35.2641V35.2754V35.2868V35.2981V35.3096V35.3211V35.3326V35.3442V35.3557V35.3674V35.3791V35.3908V35.4026V35.4144V35.4262V35.4381V35.4501V35.462V35.474V35.4861V35.4981V35.5102V35.5224V35.5346V35.5469V35.5592V35.5715V35.5839V35.5963V35.6088V35.6212V35.6338V35.6463V35.659V35.6716V35.6843V35.697V35.7098V35.7226V35.7355V35.7484V35.7613V35.7743V35.7873V35.8004V35.8135V35.8266V35.8398V35.853V35.8663V35.8796V35.8929V35.9063V35.9198V35.9332V35.9467V35.9603V35.9738V35.9875V36.0011V36.0148V36.0286V36.0424V36.0562V36.0701V36.084V36.0979V36.1119V36.126V36.14V36.1541V36.1683V36.1825V36.1967V36.211V36.2253V36.2397V36.2541V36.2685V36.2829V36.2975V36.312V36.3266V36.3413V36.3559V36.3707V36.3854V36.4002V36.4151V36.43V36.4449V36.4598V36.4748V36.4899V36.505V36.5201V36.5353V36.5505V36.5657V36.581V36.5963V36.6117V36.6271V36.6426V36.6581V36.6735V36.6891V36.7047V36.7204V36.7361V36.7518V36.7676V36.7834V36.7993V36.8151V36.8311V36.8471V36.8631V36.8791V36.8952V36.9114V36.9275V36.9437V36.96V36.9763V36.9927V37.009V37.0254V37.0419V37.0584V37.0749V37.0916V37.1082V37.1248V37.1415V37.1583V37.1751V37.1919V37.2087V37.2256V37.2426V37.2596V37.2766V37.2937V37.3108V37.3279V37.3451V37.3623V37.3796V37.3969V37.4143V37.4317V37.4491V37.4666V37.4841V37.5017V37.5192V37.5369V37.5546V37.5723V37.59V37.6078V37.6257V37.6435V37.6615V37.6794V37.6974V37.7155V37.7335V37.7517V37.7698V37.788V37.8063V37.8245V37.8429V37.8612V37.8796V37.8981V37.9166V37.9351V37.9537V37.9723V37.9909V38.0096V38.0283V38.0471V38.0659V38.0848V38.1036V38.1226V38.1415V38.1606V38.1796V38.1987V38.2178V38.237V38.2562V38.2755V38.2948V38.3141V38.3335V38.3529V38.3724V38.3919V38.4114V38.431V38.4506V38.4702V38.49V38.5097V38.5295V38.5493V38.5692V38.5891V38.609V38.629V38.649V38.6691V38.6892V38.7093V38.7295V38.7497V38.77V38.7903V38.8107V38.831V38.8515V38.8719V38.8924V38.913V38.9336V38.9542V38.9749V38.9956V39.1583L41.3223 39.3206C41.534 42.4968 41.6432 46.363 41.6432 50.9376V51.0539L41.6488 51.17C41.8704 55.8248 42.0922 60.1505 42.3142 64.1459L42.3225 64.2959L42.3401 64.4459C42.5678 66.3808 42.8047 68.0289 43.0564 69.3501C43.2775 70.5111 43.5946 71.9163 44.1494 73.026C45.822 76.3715 49.2634 76.3813 50.7033 76.1756C52.2747 75.9508 53.8945 75.2751 55.3491 74.5475C58.5207 72.962 61.6591 70.6694 64.7711 67.7968L64.7764 67.7919L64.7818 67.787C68.2632 64.5539 71.0537 60.899 73.1 56.822C75.4898 52.2857 76.447 47.5352 75.5475 42.7393L75.5338 42.6672L75.5182 42.5956C73.7748 34.6256 69.7154 28.3076 62.2078 26.6014C56.0449 25.2007 49.8883 26.2512 43.9375 29.3561ZM52.3104 105.907L48.4459 106.873L48.6137 110.853L50.9359 165.919L51.1333 170.6H55.8177H55.8186H55.8196H55.8201H55.8211H55.8221H55.8235H55.8245H55.8255H55.8269H55.8279H55.8289H55.8304H55.8313H55.8323H55.8333H55.8348H55.8357H55.8367H55.8382H55.8392H55.8406H55.8421H55.8431H55.8445H55.846H55.8475H55.8489H55.8504H55.8519H55.8533H55.8553H55.8567H55.8582H55.8602H55.8621H55.8636H55.8655H55.8675H55.8695H55.8714H55.8734H55.8753H55.8773H55.8792H55.8812H55.8836H55.8856H55.888H55.89H55.8924H55.8949H55.8973H55.8997H55.9017H55.9046H55.9071H55.9095H55.912H55.9144H55.9173H55.9198H55.9227H55.9252H55.9281H55.931H55.9339H55.9369H55.9398H55.9427H55.9457H55.9486H55.9515H55.955H55.9579H55.9613H55.9642H55.9677H55.9706H55.974H55.9774H55.9809H55.9843H55.9877H55.9911H55.9945H55.9984H56.0019H56.0058H56.0092H56.0131H56.0165H56.0204H56.0243H56.0282H56.0322H56.0361H56.04H56.0439H56.0478H56.0517H56.0561H56.06H56.0644H56.0683H56.0727H56.0771H56.0815H56.0854H56.0898H56.0942H56.0986H56.1035H56.1079H56.1123H56.1172H56.1216H56.1265H56.1309H56.1357H56.1406H56.145H56.1499H56.1548H56.1597H56.1651H56.1699H56.1748H56.1797H56.1851H56.19H56.1954H56.2002H56.2056H56.211H56.2164H56.2217H56.2271H56.2325H56.2379H56.2432H56.2486H56.2545H56.2599H56.2652H56.2711H56.277H56.2823H56.2882H56.2941H56.2999H56.3058H56.3116H56.3175H56.3234H56.3297H56.3356H56.3419H56.3478H56.3542H56.36H56.3664H56.3727H56.3791H56.3854H56.3918H56.3981H56.4045H56.4108H56.4172H56.424H56.4304H56.4372H56.4436H56.4504H56.4573H56.4641H56.4704H56.4773H56.4841H56.4915H56.4983H56.5051H56.512H56.5193H56.5262H56.5335H56.5403H56.5476H56.555H56.5623H56.5691H56.5765H56.5838H56.5916H56.599H56.6063H56.6136H56.6214H56.6288H56.6366H56.6439H56.6517H56.6595H56.6674H56.6752H56.683H56.6908H56.6986H56.7064H56.7143H56.7226H56.7304H56.7387H56.7465H56.7548H56.7631H56.7709H56.7793H56.7876H56.7959H56.8042H56.8125H56.8213H56.8296H56.8379H56.8467H56.855H56.8638H56.8721H56.8809H56.8897H56.8985H56.9073H56.9161H56.9249H56.9337H56.9425H56.9517H56.9605H56.9693H56.9786H56.9879H56.9967H57.006H57.0153H57.0245H57.0338H57.0431H57.0524H57.0617H57.071H57.0807H57.09H57.0993H57.1091H57.1188H57.1281H57.1379H57.1477H57.1574H57.1672H57.177H57.1868H57.1965H57.2063H57.2166H57.2263H57.2366H57.2464H57.2566H57.2669H57.2767H57.2869H57.2972H57.3074H57.3177H57.328H57.3387H57.349H57.3592H57.37H57.3802H57.391H57.4013H57.412H57.4228H57.4335H57.4443H57.455H57.4658H57.4765H57.4873H57.498H57.5092H57.52H57.5312H57.542H57.5532H57.5645H57.5752H57.5864H57.5977H57.6089H57.6202H57.6319H57.6431H57.6544H57.6661H57.6773H57.6891H57.7003H57.712H57.7237H57.735H57.7467H57.7584H57.7702H57.7819H57.7941H57.8058H57.8176H57.8298H57.8415H57.8537H57.8654H57.8777H57.8899H57.9016H57.9138H57.926H57.9383H57.951H57.9632H57.9754H57.9876H58.0003H58.0125H58.0252H58.0374H58.0501H58.0628H58.0756H58.0883H58.101H58.1137H58.1264H58.1391H58.1518H58.165H58.1777H58.1909H58.2036H58.2168H58.23H58.2427H58.2558H58.269H58.2822H58.2954H58.3091H58.3223H58.3355H58.3487H58.3624H58.3756H58.3892H58.4029H58.4161H58.4298H58.4435H58.4572H58.4708H58.4845H58.4982H58.5124H58.5261H58.5397H58.5539H58.5676H58.5818H58.5959H58.6096H58.6238H58.6379H58.6521H58.6663H58.6805H58.6946H58.7093H58.7235H58.7376H58.7523H58.7665H58.7811H58.7958H58.8099H58.8246H58.8393H58.8539H58.8686H58.8832H58.8984H58.913H58.9277H58.9428H58.9575H58.9726H58.9873H59.0025H59.0176H59.0327H59.0479H59.063H59.0782H59.0933H59.1085H59.1236H59.1393H59.1544H59.17H59.1852H59.2008H59.2165H59.2316H59.2473H59.2629H59.2785H59.2942H59.3098H59.3259H59.3416H59.3572H59.3733H59.3889H59.4051H59.4212H59.4368H59.453H59.4691H59.4852H59.5013H59.5175H59.5336H59.5502H59.5663H59.5824H59.5991H59.6152H59.6318H59.6484H59.6645H59.6811H59.6978H59.7144H59.731H59.7476H59.7642H59.7813H59.7979H59.8145H59.8316H59.8482H59.8654H59.8825H59.8996H59.9162H59.9333H59.9504H59.9675H59.9846H60.0022H60.0193H60.0364H60.054H60.0711H60.0887H60.1057H60.1233H60.1409H60.1585H60.1761H60.1937H60.2113H60.2289H60.2465H60.2641H60.2821H60.2997H60.3178H60.3354H60.3535H60.3716H60.3896H60.4072H60.4253H60.4434H60.4615C63.8808 170.6 67.8977 170.235 72.4653 169.55C77.4467 168.803 82.2659 167.191 86.9088 164.753C92.1365 162.129 96.2599 158.28 99.1711 153.266C102.571 147.577 103.42 140.395 102.467 132.302C101.533 124.357 99.2478 117.68 94.9861 113.063C91.2961 108.627 86.6957 105.624 81.2477 104.256C76.5403 103.021 71.7944 102.636 67.0382 103.122C62.9221 103.357 59.2473 103.937 56.1182 104.956L53.3057 105.659L52.5591 105.845L52.3724 105.892L52.326 105.903L52.3143 105.906L52.3114 105.907L52.3104 105.907Z" fill="#FFA602"/>
<path fill-rule="evenodd" clip-rule="evenodd" d="M340.754 26.3381C338.555 18.5211 334.347 11.4496 327.763 6.81401C322.308 2.983 315.244 1.706 308.718 2.84276C307.552 3.04206 306.401 3.32994 305.286 3.68425C300.805 5.11626 296.79 7.7367 293.955 11.6784C293.166 12.7709 292.486 13.8707 291.903 14.978C290.552 17.4213 289.541 19.9162 288.589 22.5293C286.035 19.835 283.326 17.2367 280.181 15.2659C273.523 11.0879 265.123 11.3684 258.819 16.1C252.132 21.1194 249.194 30.2503 248.766 38.3479C248.352 46.128 250.065 54.602 254.021 61.3413C258.155 68.3833 264.245 74.0302 271.028 78.4886C277.856 82.9766 285.762 87.4719 293.852 89.0073C299.189 90.0185 304.54 88.8153 309.279 86.2982C314.365 83.5966 319.399 80.7621 324.013 77.3075C331.668 71.5869 337.994 64.006 340.666 54.6979C343.138 46.0763 343.375 35.6684 340.747 26.3308L340.754 26.3381ZM290.825 52.5191C290.413 60.7001 284.643 67.0586 277.938 66.7212C271.232 66.3838 266.13 59.4782 266.541 51.2972C266.953 43.1162 272.723 36.7577 279.428 37.0951C286.134 37.4326 291.236 44.3381 290.825 52.5191ZM313.955 66.7212C307.249 67.0586 301.479 60.7001 301.067 52.5191C300.656 44.3381 305.758 37.4326 312.464 37.0951C319.17 36.7577 324.939 43.1162 325.351 51.2972C325.763 59.4782 320.66 66.3838 313.955 66.7212Z" fill="#71BE44"/>
<ellipse cx="5.50493" cy="8.37939" rx="5.50493" ry="8.37939" transform="matrix(-0.998737 0.0502535 0.0502535 0.998737 282.141 48.0962)" fill="#71BE44"/>
<ellipse cx="5.50493" cy="8.37939" rx="5.50493" ry="8.37939" transform="matrix(-0.998737 0.0502535 0.0502535 0.998737 316.667 48.0962)" fill="#71BE44"/>
</svg>
