<svg width="220" height="592" viewBox="0 0 220 592" fill="none" xmlns="http://www.w3.org/2000/svg">
<path d="M3.20847 313.778C3.20847 313.778 -6.5555 357.213 46.8911 384.335C100.338 411.457 70.0247 439.377 70.0247 439.377C70.0247 439.377 52.4751 452.141 54.8682 491.228C57.2613 530.316 50.0819 568.606 38.1163 588.549C38.1163 588.549 58.8567 580.572 81.1926 543.08C103.529 505.587 113.899 472.881 133.842 462.511C153.784 452.141 172.132 424.221 172.132 403.48C172.132 382.74 177.716 366.786 195.265 349.236C212.815 331.686 214.219 300.935 214.219 300.935" fill="#3A1851"/>
<path d="M3.20847 313.778C3.20847 313.778 -6.5555 357.213 46.8911 384.335C100.338 411.457 70.0247 439.377 70.0247 439.377C70.0247 439.377 52.4751 452.141 54.8682 491.228C57.2613 530.316 50.0819 568.606 38.1163 588.549C38.1163 588.549 58.8567 580.572 81.1926 543.08C103.529 505.587 113.899 472.881 133.842 462.511C153.784 452.141 172.132 424.221 172.132 403.48C172.132 382.74 177.716 366.786 195.265 349.236C212.815 331.686 214.219 300.935 214.219 300.935" stroke="black" stroke-width="3.19084" stroke-miterlimit="10"/>
<path d="M54.6691 486.666C54.6691 486.666 43.6926 471.278 89.1621 436.179C134.632 401.079 100.729 363.81 96.142 357.716" stroke="black" stroke-width="3.19084" stroke-miterlimit="10"/>
<path d="M104.917 499.062C104.917 499.062 97.5379 480.26 104.917 453.034" stroke="black" stroke-width="3.19084" stroke-miterlimit="10"/>
<path d="M128.098 466.292C128.098 466.292 116.284 440.175 133.036 401.087" stroke="black" stroke-width="3.19084" stroke-miterlimit="10"/>
<path d="M124.094 439.561C124.094 439.561 136.227 444.961 141.014 425.018C145.8 405.076 147.714 368.604 168.694 357.724" stroke="black" stroke-width="3.19084" stroke-miterlimit="10"/>
<path d="M109.874 326.87C168.141 323.327 214.845 311.721 214.19 300.947C213.535 290.173 165.769 284.311 107.502 287.855C49.2347 291.398 2.53113 303.004 3.18632 313.778C3.8415 324.552 51.6074 330.414 109.874 326.87Z" fill="#65288F" stroke="black" stroke-width="3.19084" stroke-miterlimit="10"/>
<path d="M28.4727 306.558C28.4727 306.558 5.48269 255.074 32.7724 186.112C60.062 117.15 47.2987 94.0165 36.9284 78.0623C26.5582 62.1081 48.0884 22.2226 46.493 6.26837C44.8976 -9.68583 52.0769 23.818 52.0769 29.402C52.0769 34.9859 40.909 42.1653 48.8861 62.1081C56.8632 82.0508 73.7667 99.6005 64.5212 134.7C55.2758 169.799 67.1936 196.746 67.2175 197.232C67.2414 197.719 114.29 251.485 112.304 282.037C110.318 312.589 28.4727 306.558 28.4727 306.558Z" fill="#193D3E" stroke="black" stroke-width="3.19084" stroke-miterlimit="10"/>
<path d="M60.7722 306.527C60.7722 306.527 28.3693 262.349 43.0152 215.276C57.6612 168.204 62.5033 89.7328 58.8817 82.705" fill="#193D3E"/>
<path d="M60.7722 306.527C60.7722 306.527 28.3693 262.349 43.0152 215.276C57.6612 168.204 62.5033 89.7328 58.8817 82.705" stroke="black" stroke-width="3.19084" stroke-miterlimit="10"/>
<path d="M34.7746 72.8772C34.5273 60.5127 52.0769 29.402 52.0769 29.402Z" fill="#193D3E"/>
<path d="M34.7746 72.8772C34.5273 60.5127 52.0769 29.402 52.0769 29.402" stroke="black" stroke-width="3.19084" stroke-miterlimit="10"/>
<path d="M72.2834 203.526C72.2834 203.526 52.883 216.066 68.8372 254.356C84.7914 292.646 92.6888 301.022 92.6888 301.022" fill="#193D3E"/>
<path d="M72.2834 203.526C72.2834 203.526 52.883 216.066 68.8372 254.356C84.7914 292.646 92.6888 301.022 92.6888 301.022" stroke="black" stroke-width="3.19084" stroke-miterlimit="10"/>
<path d="M77.6113 232.26C77.6113 232.26 79.1988 281.486 95.9507 279.891C112.703 278.296 97.3866 247.847 92.6801 245.518C87.9736 243.188 90.598 263.945 90.598 263.945" fill="#193D3E"/>
<path d="M77.6113 232.26C77.6113 232.26 79.1988 281.486 95.9507 279.891C112.703 278.296 97.3866 247.847 92.6801 245.518C87.9736 243.188 90.598 263.945 90.598 263.945" stroke="black" stroke-width="3.19084" stroke-miterlimit="10"/>
<path d="M211.323 306.686C211.323 306.686 228.283 268.707 208.156 217.837C188.03 166.967 197.443 149.904 205.093 138.138C212.743 126.372 196.853 96.9442 198.034 85.178C199.214 73.4117 193.917 98.1248 193.917 102.241C193.917 106.357 202.158 111.654 196.271 126.364C190.383 141.074 177.915 154.02 184.744 179.914C191.572 205.808 182.773 225.687 182.757 226.046C182.741 226.405 148.033 266.067 149.501 288.602C150.969 311.137 211.339 306.686 211.339 306.686H211.323Z" fill="#193D3E" stroke="black" stroke-width="3.19084" stroke-miterlimit="10"/>
<path d="M187.496 306.662C187.496 306.662 211.395 274.076 200.594 239.351C189.793 204.627 186.219 146.745 188.884 141.56" fill="#193D3E"/>
<path d="M187.496 306.662C187.496 306.662 211.395 274.076 200.594 239.351C189.793 204.627 186.219 146.745 188.884 141.56" stroke="black" stroke-width="3.19084" stroke-miterlimit="10"/>
<path d="M206.673 134.309C206.856 125.191 193.909 102.241 193.909 102.241Z" fill="#193D3E"/>
<path d="M206.673 134.309C206.856 125.191 193.909 102.241 193.909 102.241" stroke="black" stroke-width="3.19084" stroke-miterlimit="10"/>
<path d="M179.008 230.688C179.008 230.688 193.319 239.934 181.553 268.181C169.787 296.428 163.956 302.602 163.956 302.602" fill="#193D3E"/>
<path d="M179.008 230.688C179.008 230.688 193.319 239.934 181.553 268.181C169.787 296.428 163.956 302.602 163.956 302.602" stroke="black" stroke-width="3.19084" stroke-miterlimit="10"/>
<path d="M175.075 251.875C175.075 251.875 173.903 288.187 161.546 287.007C149.189 285.826 160.485 263.37 163.955 261.655C167.425 259.94 165.487 275.248 165.487 275.248" fill="#193D3E"/>
<path d="M175.075 251.875C175.075 251.875 173.903 288.187 161.546 287.007C149.189 285.826 160.485 263.37 163.955 261.655C167.425 259.94 165.487 275.248 165.487 275.248" stroke="black" stroke-width="3.19084" stroke-miterlimit="10"/>
<path d="M81.4717 301.31C81.4717 301.31 82.9474 262.788 110.189 232.244C137.431 201.699 105.299 178.175 101.024 154.842C96.7478 131.509 121.038 83.6464 121.038 83.6464C121.038 83.6464 110.652 133.902 114.465 138.29C114.465 138.29 151.79 186.551 150.992 202.505C150.194 218.459 146.23 231.51 151.008 243.731C155.778 255.952 179.359 284.43 174.349 298.908C169.339 313.387 81.4717 301.31 81.4717 301.31Z" fill="#245454" stroke="black" stroke-width="3.19084" stroke-miterlimit="10"/>
<path d="M124.683 152.186C124.683 152.186 121.485 182.562 131.855 197.719C142.225 212.875 148.838 225.727 148.838 225.727" fill="#245454"/>
<path d="M124.683 152.186C124.683 152.186 121.485 182.562 131.855 197.719C142.225 212.875 148.838 225.727 148.838 225.727" stroke="black" stroke-width="3.19084" stroke-miterlimit="10"/>
<path d="M127.675 188.96C127.675 188.96 131.017 237.78 141.403 248.062C151.79 258.345 160.955 302.961 160.955 302.961" fill="#245454"/>
<path d="M127.675 188.96C127.675 188.96 131.017 237.78 141.403 248.062C151.79 258.345 160.955 302.961 160.955 302.961" stroke="black" stroke-width="3.19084" stroke-miterlimit="10"/>
<path d="M113.986 126.723C113.986 126.723 102.085 154.794 108.187 172.671Z" fill="#245454"/>
<path d="M113.986 126.723C113.986 126.723 102.085 154.794 108.187 172.671" stroke="black" stroke-width="3.19084" stroke-miterlimit="10"/>
<path d="M120.551 212.612C120.551 212.612 131.592 250.479 120.551 272.759C109.511 295.039 120.551 305.21 120.551 305.21" fill="#245454"/>
<path d="M120.551 212.612C120.551 212.612 131.592 250.479 120.551 272.759C109.511 295.039 120.551 305.21 120.551 305.21" stroke="black" stroke-width="3.19084" stroke-miterlimit="10"/>
<path d="M135.511 217.074C135.511 217.008 135.511 217.008 135.511 217.074C135.643 215.353 135.643 213.698 135.511 212.374C135.511 212.043 135.379 211.778 135.18 211.514C135.312 211.315 135.379 211.116 135.379 210.918C135.577 210.454 135.643 209.991 135.379 209.395C135.114 208.601 134.783 207.806 134.452 207.012C134.452 206.416 134.386 205.82 134.386 205.158C134.319 203.834 133.525 203.106 132.598 202.974C131.671 201.12 130.546 199.333 129.42 197.611C128.229 195.625 126.905 193.706 125.515 191.852C125.515 191.587 125.448 191.256 125.25 190.991C123.33 188.409 120.748 186.821 118.299 184.768C116.776 183.577 115.386 182.253 113.996 180.929C113.929 180.863 113.929 180.863 113.863 180.796C113.797 180.796 113.797 180.73 113.731 180.73C112.672 179.671 111.612 178.612 110.619 177.486C110.421 177.288 110.156 177.089 109.957 177.023C109.229 175.5 108.501 173.911 107.707 172.389C107.376 171.727 106.846 171.396 106.25 171.33C106.383 170.601 106.383 169.807 106.25 168.946C106.184 168.218 105.853 167.689 105.323 167.291C105.389 167.093 105.389 166.96 105.323 166.762C105.323 166.696 105.389 166.563 105.389 166.497C106.052 164.445 103.006 163.717 102.212 165.636C101.947 166.298 101.682 166.894 101.417 167.556C100.888 168.483 100.491 169.41 100.093 170.403C100.093 170.403 100.093 170.469 100.027 170.469C99.63 170.734 99.2328 171.131 99.0342 171.727C98.7694 172.455 98.4384 173.183 98.1074 173.911C97.975 173.978 97.8426 174.044 97.7102 174.11C96.7172 174.838 95.8566 175.699 95.0622 176.626C93.4733 177.817 92.2817 179.406 91.4873 181.326C91.4211 181.458 91.3549 181.591 91.2887 181.723C91.2887 181.789 91.2887 181.856 91.2225 181.856C90.5605 182.584 89.8985 183.312 89.2365 184.04C89.1703 184.106 89.1703 184.173 89.1041 184.239C86.1912 186.225 83.4108 188.409 80.7627 190.793C80.4317 191.057 80.2331 191.389 80.1669 191.72C79.1739 192.713 78.3133 193.904 77.5851 194.897C77.5851 194.897 77.5851 194.963 77.5189 194.963C74.9371 197.545 73.4144 200.657 72.8848 204.231C72.7524 204.562 72.62 204.827 72.4876 205.158C71.0974 206.615 70.634 208.866 70.5016 211.116C70.303 211.778 70.1706 212.507 69.972 213.169C69.7734 213.963 70.0382 214.757 70.5016 215.287C70.4354 217.869 70.634 220.318 70.8326 221.576C71.2298 224.158 71.958 228.726 74.4737 230.248C74.6061 230.315 74.7385 230.381 74.8709 230.447C75.0033 230.977 75.3343 231.374 75.9963 231.705C77.7175 232.499 78.5119 234.353 79.9683 235.545C81.3586 236.604 82.9474 237.133 84.6024 237.531C84.9334 237.597 85.2644 237.663 85.5954 237.729C85.8602 237.928 86.125 238.126 86.456 238.391C87.0518 238.788 87.7138 238.855 88.2435 238.656C90.4943 240.377 93.4733 240.774 96.5186 240.774C100.822 242.032 105.456 242.032 109.825 240.907C111.017 241.569 112.341 240.973 112.87 239.914C113.863 239.517 114.79 239.053 115.717 238.59C116.18 239.053 116.908 239.252 117.637 238.921C117.968 238.722 118.299 238.59 118.63 238.391C119.093 238.855 119.821 239.053 120.55 238.656C122.337 237.729 123.86 236.67 125.382 235.346C125.581 235.147 125.713 234.949 125.846 234.684C125.912 234.618 126.044 234.552 126.11 234.419C126.243 234.287 126.309 234.154 126.375 234.022C127.236 234.221 128.229 233.956 128.825 232.963L133.459 224.621C133.657 224.224 133.79 223.761 133.724 223.364C134.452 221.973 134.915 220.252 135.18 218.531C135.511 218.067 135.577 217.67 135.511 217.074Z" fill="#6E3D90"/>
<path d="M139.018 265.798C138.025 265.335 137.032 265.269 136.172 265.6C134.252 263.746 131.14 262.356 129.353 261.164C126.97 259.575 123.527 256.596 120.482 258.318C120.019 258.582 119.621 258.913 119.357 259.311C118.297 259.112 117.238 259.311 116.311 260.237C115.848 260.701 115.517 261.164 115.385 261.561C115.186 260.966 115.054 260.436 114.855 259.84C114.392 258.384 112.737 257.92 111.611 258.384C110.949 256.861 110.221 255.405 109.559 253.882C109.294 253.352 108.897 253.021 108.5 252.823C108.301 252.426 108.169 252.095 107.97 251.697C107.573 250.837 106.845 250.506 106.05 250.572C105.454 249.447 103.998 248.785 102.806 249.711C102.277 249.711 101.747 249.91 101.284 250.307C100.953 250.572 100.622 250.903 100.291 251.168C98.1723 251.697 97.2455 253.286 96.9807 255.14C95.2595 256.331 93.7369 257.788 92.4791 259.377C92.148 258.119 90.824 257.722 89.6986 257.854C86.1238 258.384 80.1657 259.906 76.7894 262.885C76.5908 263.018 76.3922 263.084 76.2598 263.216C74.8034 263.415 73.347 264.011 72.354 264.54C71.692 264.871 70.6989 265.467 69.6397 266.195C67.0579 267.784 64.8071 270.101 65.5353 272.617C66.5945 276.059 70.5665 274.669 73.678 273.147C75.4654 272.683 77.1204 271.889 78.4445 270.697C79.6361 270.101 80.7615 269.439 81.8207 268.711C84.1377 267.917 86.4548 266.99 88.6394 265.931C88.176 267.321 87.9774 268.645 88.3084 269.903C88.4408 270.498 88.7056 270.962 88.9704 271.359C88.7056 272.418 88.507 273.478 88.3746 274.471C87.6464 279.105 87.4478 283.805 87.9112 288.439C87.845 288.571 87.845 288.704 87.7788 288.836C86.9182 292.742 87.1168 296.714 88.5732 300.421C89.7648 303.4 92.2143 307.571 95.3919 308.696C95.7891 308.829 96.1863 308.895 96.5835 308.961C97.2455 309.425 98.0399 309.491 98.7019 309.16C98.9667 309.358 99.2316 309.491 99.5626 309.623C99.7612 309.888 100.026 310.087 100.291 310.285C100.754 311.278 101.88 311.742 102.939 311.477C104.395 311.808 105.984 311.609 107.374 311.013C108.301 312.205 110.353 311.874 111.148 310.616C111.677 309.822 112.141 309.027 112.538 308.233C113.134 308.101 113.663 307.77 113.994 307.24C114.921 305.85 115.782 304.393 116.444 302.871C116.907 302.209 117.371 301.481 117.834 300.752C118.959 300.752 120.085 299.892 120.217 298.501C120.35 297.045 120.482 295.522 120.548 294.066C121.078 291.948 121.409 289.763 121.475 287.512C121.475 286.916 121.276 286.453 121.012 286.122C120.945 285.857 120.879 285.526 120.879 285.261C120.879 284.732 120.879 284.202 120.879 283.672C121.276 280.429 121.276 277.185 121.012 273.875C120.879 272.551 119.886 271.756 118.893 271.69C118.959 270.896 119.026 270.035 119.026 269.241C119.092 267.983 118.364 267.255 117.437 267.056C117.371 266.857 117.371 266.659 117.304 266.46C117.172 265.798 116.841 265.335 116.444 265.07C116.444 265.004 116.378 264.938 116.378 264.871C118.43 266.99 122.6 268.579 124.851 269.307C127.301 270.432 129.949 271.094 132.729 271.491C134.119 272.154 135.51 272.683 137.032 273.08C138.423 273.61 140.144 273.61 141.6 272.882C142.13 272.683 142.395 272.286 142.593 271.822C144.579 269.77 141.203 266.857 139.018 265.798ZM103.866 288.174C103.866 287.049 103.866 285.989 103.932 284.864C103.998 285.46 104.064 286.056 104.13 286.652C103.998 287.181 103.932 287.711 103.866 288.174Z" fill="#FED530"/>
<path d="M122.336 283.011C122.601 279.237 122.005 275.53 120.615 271.955C120.284 271.161 119.423 270.764 118.629 270.83C118.563 270.3 118.497 269.771 118.364 269.241C118.364 269.042 118.298 268.91 118.166 268.711C119.357 265.865 118.033 263.349 116.444 260.833C115.782 259.84 115.12 258.847 114.458 257.921C114.458 257.523 114.326 257.192 113.995 256.861C113.598 256.464 113.201 256.001 112.803 255.604C111.612 253.948 110.354 252.293 109.096 250.705C109.03 250.572 108.897 250.506 108.831 250.374C108.633 250.109 108.368 249.976 108.103 249.91C107.309 248.719 105.323 249.381 105.124 250.572C104.462 249.844 103.138 249.712 102.41 250.771C102.211 251.036 102.079 251.3 101.88 251.565H101.814C98.9011 252.955 96.8489 255.339 95.9221 258.318C94.5981 259.708 93.4727 261.297 92.5458 263.15C92.3472 263.614 92.3472 264.077 92.4796 264.474C91.0232 266.791 89.964 269.307 89.1034 271.823C89.0372 271.889 88.971 272.021 88.9048 272.088C87.5808 274.537 86.9188 277.119 86.985 279.833C86.985 280.098 86.985 280.429 86.985 280.694C86.985 280.892 86.985 281.025 86.9188 281.223C86.4554 285.195 86.5878 289.101 87.316 293.007C87.7794 295.787 88.5076 298.568 89.5668 301.282C89.633 301.547 89.8316 301.746 90.0302 301.944C90.3612 303.732 90.957 305.651 92.4134 306.777C93.274 307.439 94.0023 307.704 94.5981 307.704C95.5249 308.564 96.5179 309.292 97.5771 309.822C97.9081 310.087 98.2391 310.352 98.5701 310.55C98.9011 310.815 99.2983 310.815 99.6955 310.749C100.027 310.881 100.358 311.014 100.755 311.08C101.218 311.212 101.682 311.146 102.013 310.881C102.079 310.881 102.145 310.948 102.211 310.948C103.006 311.08 103.734 311.146 104.528 311.08C106.382 311.477 108.037 311.345 109.559 310.683C109.758 310.683 109.89 310.683 110.089 310.616C111.744 310.153 113.068 309.425 114.392 308.299C115.12 307.704 115.054 306.909 114.591 306.313C114.988 305.85 115.385 305.387 115.716 304.923C116.709 304.063 117.636 303.136 118.497 302.143C119.159 301.348 119.026 300.488 118.563 299.958C118.828 299.296 119.092 298.568 119.291 297.84C119.357 297.774 119.423 297.641 119.423 297.575C119.688 297.178 119.754 296.714 119.622 296.383C119.821 295.589 119.953 294.794 120.019 293.934C120.35 293.735 120.681 293.404 120.88 292.941C122.469 289.697 122.8 286.321 122.336 283.011Z" fill="#6E3D90"/>
<path d="M92.2817 260.9C92.2155 260.833 92.1493 260.701 92.0831 260.635C92.0831 260.436 92.0169 260.238 91.8845 260.039C90.5605 256.994 85.8602 258.781 83.6094 259.377C82.9474 259.576 82.3516 259.774 81.6896 259.973C79.3725 259.84 76.9231 261.231 74.9371 262.157C72.4876 263.283 67.8536 265.136 67.2578 268.182C67.1916 268.446 67.1916 268.711 67.1916 268.976C66.9267 269.373 66.7281 269.837 66.5957 270.3C65.9337 271.624 65.8013 273.081 67.324 273.941C68.9128 274.802 70.7002 273.875 72.1566 272.683C73.0172 272.551 73.944 272.286 74.8709 271.889C76.8569 271.227 78.7767 270.3 80.2331 269.704C83.2122 268.513 88.9717 267.122 90.4281 263.746C90.8253 263.548 91.2887 263.283 91.6859 263.084C92.4803 262.753 92.6789 261.628 92.2817 260.9Z" fill="#6E3D90"/>
<path d="M143.256 269.506C143.322 268.844 142.991 268.182 142.461 267.851C140.277 266.659 138.026 265.534 135.709 264.474C132.002 262.224 127.831 260.767 123.859 259.046C123.197 258.781 122.469 258.913 122.005 259.245C121.343 259.046 120.747 259.377 120.416 259.907C120.218 259.774 120.019 259.642 119.821 259.509C118.298 258.384 116.378 260.9 117.835 262.091C117.967 262.224 118.099 262.29 118.232 262.422C118.099 263.217 118.43 264.011 119.357 264.21C120.019 264.342 120.615 264.541 121.277 264.673C121.939 265.136 122.667 265.6 123.396 266.063C123.396 266.46 123.528 266.858 123.859 267.122C125.713 268.844 127.699 269.969 130.082 270.763C130.545 270.896 130.942 270.83 131.273 270.631C131.34 270.697 131.472 270.697 131.538 270.763C134.12 272.882 138.092 275.53 141.071 273.544C141.468 273.279 141.799 272.882 141.866 272.418C142.064 272.418 142.197 272.418 142.395 272.418C144.05 272.551 144.514 270.366 143.256 269.506Z" fill="#6E3D90"/>
<path d="M116.115 148.821C115.122 145.776 112.474 142.267 108.833 142.598C105.125 142.929 103.404 146.835 102.543 149.947C99.8292 159.48 102.808 168.218 108.766 175.765C119.623 189.601 140.41 201.252 133.525 222.039C129.553 234.022 118.63 239.053 106.78 240.245C96.2543 241.304 83.3451 238.193 76.6589 229.52C69.6415 220.451 69.9064 208.468 75.9968 199.068C80.6309 191.852 87.5158 186.49 93.3415 180.333C100.226 173.051 105.986 164.246 104.463 153.786C103.934 150.145 102.874 144.584 99.0348 142.863C94.8641 141.01 91.2893 145.048 90.0976 148.623C89.4356 150.675 92.6133 151.535 93.2753 149.483C93.6725 148.225 94.4669 146.637 95.8571 146.107C97.5784 145.445 98.8362 146.504 99.5644 148.093C100.69 150.476 101.219 153.323 101.418 155.905C101.815 161.267 99.8292 166.1 96.9825 170.535C92.6133 177.288 86.3242 182.451 80.7633 188.145C75.4672 193.573 70.6346 199.796 68.7809 207.277C66.5963 216.081 69.0457 225.614 74.8052 232.499C81.0943 239.98 90.4948 242.562 99.8954 243.422C108.833 244.217 119.16 242.562 126.574 237.067C133.592 231.903 137.895 223.297 138.093 214.625C138.292 206.35 134.518 198.935 129.355 192.779C123.728 185.894 116.446 180.399 110.951 173.249C107.839 169.211 105.191 164.378 104.794 159.215C104.596 156.037 105.059 152.727 106.052 149.748C106.582 148.292 107.045 146.968 108.568 146.372C110.752 145.511 112.275 147.828 112.871 149.682C113.599 151.734 116.777 150.873 116.115 148.821Z" fill="black"/>
<path d="M112.54 311.742C123.728 305.85 125.449 290.293 123.926 279.105C122.139 266.394 115.585 254.544 105.589 246.402C104.86 245.806 104 245.806 103.271 246.402C90.7595 256.795 83.2788 273.213 84.5366 289.565C85.0662 296.45 86.8536 304.195 92.0173 309.16C97.512 314.39 105.787 314.721 112.54 311.742C114.459 310.881 112.804 308.035 110.885 308.895C103.735 312.073 95.5922 310.021 91.6201 303.202C88.3763 297.707 87.5157 290.756 87.7143 284.467C88.1777 270.631 94.9302 257.523 105.589 248.719C104.794 248.719 104 248.719 103.271 248.719C112.142 255.935 118.167 265.997 120.351 277.251C122.337 287.579 121.543 303.335 110.951 308.895C108.965 309.888 110.62 312.735 112.54 311.742Z" fill="black"/>
<path d="M145.64 270.234C143.918 264.872 137.298 261.562 132.4 259.576C126.772 257.259 120.682 256.067 114.658 256.928C113.532 257.06 113.201 258.516 113.665 259.377C117.438 266.13 124.058 271.161 131.076 274.206C135.379 276.06 146.633 279.171 145.64 270.631C145.375 268.513 142.065 268.513 142.33 270.631C143.058 276.92 129.288 269.704 127.368 268.513C123.065 265.799 119.093 262.224 116.577 257.656C116.246 258.45 115.915 259.245 115.584 260.105C120.285 259.443 125.117 260.37 129.487 261.959C133.657 263.481 140.939 266.461 142.462 271.095C143.124 273.147 146.302 272.286 145.64 270.234Z" fill="black"/>
<path d="M66.7946 271.095C68.3173 266.461 75.5332 263.481 79.77 261.959C84.2055 260.37 88.9719 259.443 93.6722 260.105C93.3412 259.311 93.0102 258.516 92.6792 257.656C90.1636 262.224 86.1915 265.799 81.756 268.513C79.77 269.704 66.0664 276.854 66.7946 270.631C67.0594 268.513 63.7494 268.513 63.4846 270.631C62.4916 279.171 73.7457 276.06 78.0488 274.206C85.0661 271.161 91.6862 266.13 95.4596 259.377C95.923 258.516 95.592 257.126 94.4666 256.928C88.4423 256.067 82.3519 257.259 76.7248 259.576C71.8921 261.562 65.272 264.806 63.4846 270.234C62.955 272.22 66.1326 273.147 66.7946 271.095Z" fill="black"/>
<path d="M88.7727 197.148C85.9923 196.287 83.609 197.28 82.8808 200.193C82.6822 201.054 82.8146 201.451 82.0864 202.179C81.6892 202.643 81.0272 202.841 80.63 203.305C79.7032 204.298 79.306 205.622 79.5708 206.946C79.7694 207.939 80.299 208.866 81.1596 209.461C82.285 210.256 83.3442 209.726 84.4696 210.057C85.5951 210.388 85.4627 211.977 86.5219 212.771C87.3825 213.433 88.6403 213.632 89.7657 213.566C90.8911 213.5 92.0828 213.169 92.8772 212.374C93.9364 211.315 93.4068 210.322 93.9364 209.197C94.9294 207.012 98.438 207.806 98.7028 204.562C98.9014 202.047 97.2464 201.252 95.3266 200.524C93.0096 199.664 91.3545 196.817 88.5079 197.082C86.3895 197.28 86.3895 200.59 88.5079 200.392C90.0967 200.259 91.2883 202.047 92.4138 202.841C93.0758 203.305 95.5914 203.702 94.9294 204.629C94.5322 205.224 92.4138 205.357 91.6855 206.019C90.6925 207.012 91.1559 208.204 90.6263 209.13C89.1037 211.845 88.7065 208.866 87.7797 207.674C86.8529 206.549 86.0585 207.012 84.933 206.615C82.6822 205.688 84.6682 204.761 85.5289 203.768C86.3233 202.841 86.3233 199.796 88.0445 200.392C89.9643 200.988 90.8249 197.81 88.7727 197.148Z" fill="black"/>
<path d="M115.915 199.399C117.702 198.803 117.636 201.716 118.298 202.643C118.563 203.04 119.159 203.305 119.423 203.702C120.152 203.9 120.218 204.298 119.754 204.893C119.821 205.622 119.556 205.886 119.026 205.688C118.033 206.151 117.106 205.688 116.18 206.747C115.253 207.872 114.789 211.05 113.333 208.203C112.803 207.144 113.333 206.085 112.274 205.092C111.612 204.43 109.427 204.231 109.03 203.702C108.434 202.775 110.751 202.444 111.413 202.047C112.605 201.252 113.796 199.333 115.451 199.465C117.57 199.664 117.57 196.353 115.451 196.155C112.605 195.89 111.281 198.671 108.964 199.531C106.978 200.326 105.058 200.789 105.256 203.569C105.521 206.813 109.096 205.953 110.023 208.203C110.486 209.263 110.023 210.388 111.082 211.381C111.876 212.175 113.068 212.506 114.193 212.573C115.253 212.639 116.511 212.44 117.437 211.778C118.43 210.984 118.43 209.395 119.49 209.064C120.681 208.733 121.542 209.329 122.8 208.468C123.66 207.872 124.19 206.946 124.388 205.953C124.984 202.841 121.807 201.848 121.078 199.399C120.218 196.486 118.298 195.162 115.187 196.155C113.002 196.817 113.862 199.995 115.915 199.399Z" fill="black"/>
<path d="M87.4487 228.924C88.9713 224.092 94.8632 229.322 97.9746 228.924C99.0338 228.792 99.8283 228.329 100.755 227.667C103.271 225.945 104.793 225.085 107.706 226.541C109.891 227.667 111.744 228.858 114.26 227.865C115.849 227.269 117.504 225.35 119.225 226.276C120.218 226.806 120.483 227.733 121.741 228.196C123.727 228.924 124.587 225.747 122.601 225.019C121.211 224.489 120.946 222.834 119.225 222.503C117.835 222.238 116.445 222.768 115.253 223.43C113.929 224.224 112.671 225.085 111.016 224.621C110.023 224.357 109.096 223.496 108.17 223.033C106.647 222.37 104.992 222.106 103.271 222.437C101.549 222.834 100.556 223.893 99.1662 224.754C96.3196 226.475 94.135 223.761 91.2883 223.496C88.0445 223.165 85.3302 224.886 84.3372 227.998C83.609 230.116 86.7867 230.977 87.4487 228.924Z" fill="black"/>
</svg>
