<svg width="277" height="560" viewBox="0 0 277 560" fill="none" xmlns="http://www.w3.org/2000/svg">
<path d="M135.5 92.4261L104.45 95.0853L110.288 129.127L79.8437 113.126L66.4705 136.624L56.9503 114.079L28.3277 129.127L34.8321 91.1625L3.10854 84.627L21.2186 68.9358L3 51.1746L37.1967 46.2052L32.9715 8.30277L58.9582 23.9785L69.3079 3L81.6965 28.1106L114.8 13.1171L106.916 47.0037L135.616 51.1746L115.637 70.6491L135.5 92.4261Z" fill="#FFA602" stroke="black" stroke-width="2.32578" stroke-miterlimit="10"/>
<path d="M38.7615 261.296C38.7615 261.296 28.2772 307.936 85.6668 337.059C143.056 366.182 110.507 396.162 110.507 396.162C110.507 396.162 91.6628 409.867 94.2325 451.838C96.8021 493.81 89.0931 534.925 76.2447 556.339C76.2447 556.339 98.5153 547.773 122.499 507.515C146.483 467.256 157.618 432.137 179.032 421.002C200.446 409.867 220.147 379.887 220.147 357.617C220.147 335.346 226.143 318.215 244.987 299.37C263.832 280.526 265.339 247.506 265.339 247.506" fill="#FFA602"/>
<path d="M38.7615 261.296C38.7615 261.296 28.2772 307.936 85.6668 337.059C143.056 366.182 110.507 396.162 110.507 396.162C110.507 396.162 91.6628 409.867 94.2325 451.838C96.8021 493.81 89.0931 534.925 76.2447 556.339C76.2447 556.339 98.5153 547.773 122.499 507.515C146.483 467.256 157.618 432.137 179.032 421.002C200.446 409.867 220.147 379.887 220.147 357.617C220.147 335.346 226.143 318.215 244.987 299.37C263.832 280.526 265.339 247.506 265.339 247.506" stroke="black" stroke-width="3.42625" stroke-miterlimit="10"/>
<path d="M153.305 275.36C215.871 271.556 266.02 259.093 265.316 247.524C264.613 235.955 213.323 229.661 150.757 233.466C88.1917 237.271 38.0425 249.734 38.746 261.302C39.4495 272.871 90.7393 279.165 153.305 275.36Z" fill="#FED52F" stroke="black" stroke-width="3.42625" stroke-miterlimit="10"/>
<path d="M94.0269 446.947C94.0269 446.947 82.2406 430.424 131.065 392.736C179.889 355.047 143.485 315.028 138.56 308.484" stroke="black" stroke-width="3.42625" stroke-miterlimit="10"/>
<path d="M147.981 460.25C147.981 460.25 140.058 440.061 147.981 410.826" stroke="black" stroke-width="3.42625" stroke-miterlimit="10"/>
<path d="M172.873 425.062C172.873 425.062 160.187 397.018 178.175 355.047" stroke="black" stroke-width="3.42625" stroke-miterlimit="10"/>
<path d="M168.573 396.359C168.573 396.359 181.602 402.158 186.741 380.744C191.88 359.33 193.936 320.168 216.464 308.484" stroke="black" stroke-width="3.42625" stroke-miterlimit="10"/>
<path d="M245.844 319.5C245.844 325.41 241.056 330.207 235.137 330.207C234.306 330.207 233.492 330.112 232.713 329.924C231.813 326.438 228.824 323.799 225.166 323.405C224.944 322.832 224.772 322.241 224.644 321.624C224.498 320.939 224.43 320.219 224.43 319.491C224.43 318.763 224.498 318.052 224.644 317.358C225.629 312.467 229.955 308.784 235.137 308.784C241.056 308.784 245.844 313.581 245.844 319.491V319.5Z" fill="#71BE44" stroke="black" stroke-width="2.56968" stroke-miterlimit="10"/>
<path d="M247.128 340.914C247.128 346.824 242.34 351.621 236.421 351.621C230.503 351.621 225.714 346.824 225.714 340.914C225.714 340.871 225.714 340.819 225.714 340.785C229.843 340.074 232.987 336.468 232.987 332.134C232.987 331.688 232.952 331.234 232.884 330.806C233.989 330.421 235.171 330.207 236.413 330.207C242.332 330.207 247.12 335.003 247.12 340.914H247.128Z" fill="#71BE44" stroke="black" stroke-width="2.56968" stroke-miterlimit="10"/>
<path d="M232.996 332.134C232.996 336.468 229.852 340.066 225.723 340.785C225.441 340.836 225.149 340.871 224.858 340.888C224.653 340.905 224.438 340.914 224.216 340.914C219.368 340.914 215.436 336.982 215.436 332.134C215.436 331.509 215.505 330.892 215.624 330.309C215.642 330.241 215.659 330.164 215.676 330.095C216.584 326.249 220.019 323.388 224.139 323.363C224.164 323.363 224.19 323.363 224.216 323.363C224.541 323.363 224.85 323.38 225.167 323.423C228.824 323.808 231.813 326.455 232.713 329.941C232.79 330.224 232.85 330.523 232.893 330.815C232.961 331.252 232.996 331.697 232.996 332.142V332.134Z" fill="#3699A5" stroke="black" stroke-width="2.56968" stroke-miterlimit="10"/>
<path d="M224.858 340.888V340.914C224.858 346.824 220.07 351.621 214.151 351.621C208.232 351.621 203.444 346.824 203.444 340.914C203.444 335.003 208.232 330.207 214.151 330.207C214.648 330.207 215.144 330.241 215.624 330.309C215.496 330.892 215.436 331.509 215.436 332.134C215.436 336.982 219.367 340.914 224.215 340.914C224.438 340.914 224.652 340.905 224.858 340.888Z" fill="#71BE44" stroke="black" stroke-width="2.56968" stroke-miterlimit="10"/>
<path d="M224.858 319.5C224.858 320.228 224.79 320.939 224.644 321.633C224.524 322.232 224.361 322.806 224.139 323.363C220.027 323.388 216.584 326.258 215.676 330.095C215.17 330.164 214.665 330.207 214.143 330.207C208.224 330.207 203.436 325.41 203.436 319.5C203.436 313.589 208.224 308.793 214.143 308.793C219.325 308.793 223.65 312.476 224.635 317.367C224.781 318.061 224.85 318.772 224.85 319.5H224.858Z" fill="#71BE44" stroke="black" stroke-width="2.56968" stroke-miterlimit="10"/>
<path d="M141.343 350.336C141.343 356.246 136.555 361.043 130.636 361.043C129.805 361.043 128.992 360.949 128.212 360.76C127.313 357.274 124.323 354.636 120.666 354.242C120.443 353.668 120.272 353.077 120.143 352.46C119.998 351.775 119.929 351.055 119.929 350.327C119.929 349.599 119.998 348.888 120.143 348.194C121.128 343.303 125.454 339.62 130.636 339.62C136.555 339.62 141.343 344.417 141.343 350.327V350.336Z" fill="#71BE44" stroke="black" stroke-width="2.56968" stroke-miterlimit="10"/>
<path d="M142.628 371.75C142.628 377.66 137.84 382.457 131.921 382.457C126.002 382.457 121.214 377.66 121.214 371.75C121.214 371.707 121.214 371.656 121.214 371.621C125.342 370.91 128.486 367.304 128.486 362.97C128.486 362.525 128.452 362.071 128.383 361.642C129.488 361.257 130.67 361.043 131.912 361.043C137.831 361.043 142.619 365.84 142.619 371.75H142.628Z" fill="#71BE44" stroke="black" stroke-width="2.56968" stroke-miterlimit="10"/>
<path d="M128.495 362.97C128.495 367.304 125.351 370.902 121.222 371.621C120.94 371.673 120.648 371.707 120.357 371.724C120.152 371.741 119.938 371.75 119.715 371.75C114.867 371.75 110.935 367.818 110.935 362.97C110.935 362.345 111.004 361.728 111.124 361.146C111.141 361.077 111.158 361 111.175 360.931C112.083 357.085 115.518 354.225 119.638 354.199C119.663 354.199 119.689 354.199 119.715 354.199C120.04 354.199 120.349 354.216 120.666 354.259C124.323 354.644 127.313 357.291 128.212 360.777C128.289 361.06 128.349 361.36 128.392 361.651C128.46 362.088 128.495 362.533 128.495 362.979V362.97Z" fill="#3699A5" stroke="black" stroke-width="2.56968" stroke-miterlimit="10"/>
<path d="M120.357 371.724V371.75C120.357 377.66 115.569 382.457 109.65 382.457C103.732 382.457 98.9434 377.66 98.9434 371.75C98.9434 365.84 103.732 361.043 109.65 361.043C110.147 361.043 110.644 361.077 111.124 361.146C110.995 361.728 110.935 362.345 110.935 362.97C110.935 367.818 114.867 371.75 119.715 371.75C119.938 371.75 120.152 371.741 120.357 371.724Z" fill="#71BE44" stroke="black" stroke-width="2.56968" stroke-miterlimit="10"/>
<path d="M120.358 350.336C120.358 351.064 120.289 351.775 120.144 352.469C120.024 353.068 119.861 353.642 119.638 354.199C115.527 354.225 112.083 357.094 111.175 360.932C110.67 361 110.165 361.043 109.642 361.043C103.723 361.043 98.9351 356.246 98.9351 350.336C98.9351 344.426 103.723 339.629 109.642 339.629C114.824 339.629 119.15 343.312 120.135 348.203C120.281 348.897 120.349 349.608 120.349 350.336H120.358Z" fill="#71BE44" stroke="black" stroke-width="2.56968" stroke-miterlimit="10"/>
<path d="M58.2563 250.975C58.2563 256.885 53.4681 261.682 47.5493 261.682C46.7184 261.682 45.9047 261.587 45.1252 261.399C44.2258 257.913 41.2364 255.275 37.5789 254.881C37.3562 254.307 37.1849 253.716 37.0564 253.099C36.9108 252.414 36.8423 251.694 36.8423 250.966C36.8423 250.238 36.9108 249.527 37.0564 248.833C38.0415 243.942 42.3671 240.259 47.5493 240.259C53.4681 240.259 58.2563 245.056 58.2563 250.966V250.975Z" fill="#FF6462" stroke="black" stroke-width="2.56968" stroke-miterlimit="10"/>
<path d="M59.5415 272.389C59.5415 278.299 54.7533 283.096 48.8345 283.096C42.9156 283.096 38.1274 278.299 38.1274 272.389C38.1274 272.346 38.1274 272.294 38.1274 272.26C42.2561 271.549 45.3997 267.943 45.3997 263.609C45.3997 263.163 45.3654 262.709 45.2969 262.281C46.4018 261.896 47.5839 261.682 48.8259 261.682C54.7447 261.682 59.5329 266.478 59.5329 272.389H59.5415Z" fill="#FF6462" stroke="black" stroke-width="2.56968" stroke-miterlimit="10"/>
<path d="M45.4081 263.609C45.4081 267.943 42.2646 271.541 38.1359 272.26C37.8533 272.312 37.562 272.346 37.2708 272.363C37.0652 272.38 36.8511 272.389 36.6284 272.389C31.7803 272.389 27.8486 268.457 27.8486 263.609C27.8486 262.984 27.9172 262.367 28.0371 261.784C28.0542 261.716 28.0713 261.639 28.0885 261.57C28.9964 257.724 32.4312 254.863 36.5513 254.838C36.577 254.838 36.6027 254.838 36.6284 254.838C36.9539 254.838 37.2622 254.855 37.5792 254.898C41.2367 255.283 44.2261 257.93 45.1255 261.416C45.2026 261.699 45.2625 261.999 45.3054 262.29C45.3739 262.727 45.4081 263.172 45.4081 263.617V263.609Z" fill="#FFA602" stroke="black" stroke-width="2.56968" stroke-miterlimit="10"/>
<path d="M37.271 272.363V272.389C37.271 278.299 32.4828 283.096 26.564 283.096C20.6451 283.096 15.8569 278.299 15.8569 272.389C15.8569 266.478 20.6451 261.682 26.564 261.682C27.0608 261.682 27.5576 261.716 28.0372 261.784C27.9088 262.367 27.8488 262.984 27.8488 263.609C27.8488 268.457 31.7804 272.389 36.6286 272.389C36.8513 272.389 37.0654 272.38 37.271 272.363Z" fill="#FF6462" stroke="black" stroke-width="2.56968" stroke-miterlimit="10"/>
<path d="M37.2708 250.975C37.2708 251.703 37.2022 252.414 37.0566 253.108C36.9367 253.707 36.7739 254.281 36.5512 254.838C32.4397 254.864 28.9964 257.733 28.0884 261.57C27.583 261.639 27.0777 261.682 26.5552 261.682C20.6363 261.682 15.8481 256.885 15.8481 250.975C15.8481 245.064 20.6363 240.268 26.5552 240.268C31.7374 240.268 36.063 243.951 37.048 248.842C37.1937 249.536 37.2622 250.247 37.2622 250.975H37.2708Z" fill="#FF6462" stroke="black" stroke-width="2.56968" stroke-miterlimit="10"/>
<path d="M167.58 439.204C167.58 443.581 164.033 447.127 159.656 447.127C159.04 447.127 158.44 447.059 157.866 446.922C157.198 444.343 154.988 442.39 152.281 442.099C152.119 441.68 151.99 441.234 151.896 440.78C151.793 440.266 151.742 439.744 151.742 439.204C151.742 438.664 151.793 438.133 151.896 437.628C152.624 434.005 155.827 431.281 159.665 431.281C164.042 431.281 167.588 434.827 167.588 439.204H167.58Z" fill="#FF6462" stroke="black" stroke-width="2.56968" stroke-miterlimit="10"/>
<path d="M168.531 455.05C168.531 459.427 164.985 462.974 160.608 462.974C156.231 462.974 152.685 459.427 152.685 455.05C152.685 455.016 152.685 454.982 152.685 454.956C155.742 454.434 158.072 451.761 158.072 448.558C158.072 448.224 158.047 447.898 157.995 447.573C158.809 447.281 159.691 447.127 160.608 447.127C164.985 447.127 168.531 450.673 168.531 455.05Z" fill="#FF6462" stroke="black" stroke-width="2.56968" stroke-miterlimit="10"/>
<path d="M158.071 448.558C158.071 451.761 155.742 454.434 152.684 454.956C152.478 454.99 152.264 455.025 152.05 455.033C151.896 455.042 151.733 455.05 151.57 455.05C147.981 455.05 145.069 452.138 145.069 448.549C145.069 448.087 145.12 447.633 145.214 447.196C145.223 447.144 145.24 447.084 145.249 447.042C145.917 444.198 148.469 442.082 151.51 442.056C151.527 442.056 151.544 442.056 151.57 442.056C151.81 442.056 152.041 442.065 152.273 442.099C154.979 442.39 157.189 444.343 157.857 446.922C157.917 447.136 157.96 447.35 157.994 447.573C158.046 447.89 158.071 448.224 158.071 448.558Z" fill="#FFA602" stroke="black" stroke-width="2.56968" stroke-miterlimit="10"/>
<path d="M152.05 455.033V455.05C152.05 459.427 148.504 462.974 144.127 462.974C139.75 462.974 136.204 459.427 136.204 455.05C136.204 450.673 139.75 447.127 144.127 447.127C144.495 447.127 144.863 447.153 145.223 447.204C145.129 447.641 145.078 448.095 145.078 448.558C145.078 452.147 147.99 455.059 151.579 455.059C151.742 455.059 151.896 455.059 152.059 455.042L152.05 455.033Z" fill="#FF6462" stroke="black" stroke-width="2.56968" stroke-miterlimit="10"/>
<path d="M152.05 439.204C152.05 439.744 151.999 440.275 151.888 440.78C151.802 441.217 151.673 441.645 151.511 442.056C148.47 442.082 145.926 444.198 145.249 447.042C144.881 447.093 144.504 447.127 144.119 447.127C139.741 447.127 136.195 443.581 136.195 439.204C136.195 434.827 139.741 431.281 144.119 431.281C147.956 431.281 151.151 434.005 151.888 437.628C151.99 438.142 152.05 438.664 152.05 439.204Z" fill="#FF6462" stroke="black" stroke-width="2.56968" stroke-miterlimit="10"/>
<path d="M49.7855 182.364C51.3101 183.769 52.2609 185.782 52.2609 188.017C52.2609 192.274 48.809 195.726 44.5519 195.726C41.9051 195.726 39.5667 194.39 38.1791 192.352C36.8685 193.397 35.2068 194.013 33.4166 194.013C29.1595 194.013 25.7075 190.561 25.7075 186.304C25.7075 183.88 26.8296 181.713 28.5856 180.308C26.8296 178.903 25.7075 176.736 25.7075 174.312C25.7075 170.055 29.1595 166.603 33.4166 166.603C36.2689 166.603 38.7615 168.154 40.0892 170.458C41.4683 169.13 43.3527 168.316 45.4084 168.316C49.6656 168.316 53.1175 171.768 53.1175 176.025C53.1175 178.655 51.7984 180.976 49.7855 182.364Z" fill="#FF6462" stroke="black" stroke-width="1.71312" stroke-miterlimit="10"/>
<path d="M37.3223 192.274L39.378 172.805C39.8063 168.488 41.0826 154.671 48.0293 157.909L47.9094 158.158C47.1899 157.824 46.3933 157.618 45.6395 157.781C41.0312 159.16 40.6886 168.805 40.3716 172.882L39.0268 192.42L37.3223 192.274Z" fill="black"/>
<path d="M32.4146 157.524C37.8366 153.978 40.0208 161.781 40.4834 165.798C40.7489 167.348 40.8089 168.89 40.9459 170.449L39.2328 170.466C39.2842 167.837 39.267 165.164 38.8388 162.569C38.1278 158.92 36.5517 155.571 32.4146 157.524Z" fill="black"/>
<path d="M268.911 68.4328C270.975 68.5955 272.971 69.5891 274.35 71.3451C276.98 74.6942 276.406 79.5424 273.057 82.172C270.975 83.8081 268.311 84.2021 265.964 83.4569C265.579 85.0843 264.654 86.6004 263.249 87.7054C259.9 90.335 255.052 89.7612 252.422 86.412C250.923 84.5104 250.469 82.1121 250.975 79.9193C248.722 79.9021 246.503 78.8914 245.004 76.9812C242.375 73.6321 242.949 68.784 246.298 66.1543C248.542 64.3898 251.454 64.0729 253.93 65.0579C254.195 63.1649 255.172 61.3576 256.791 60.0898C260.14 57.4602 264.988 58.0341 267.618 61.3833C269.245 63.4476 269.639 66.0944 268.92 68.4242L268.911 68.4328Z" fill="#71BE44" stroke="black" stroke-width="1.71312" stroke-miterlimit="10"/>
<path d="M265.244 83.928L254.829 67.3535C252.499 63.696 244.953 52.0467 252.422 50.2993L252.482 50.5734C251.711 50.7533 250.957 51.0874 250.46 51.6784C247.702 55.6529 253.381 63.3705 255.66 66.8053L266.683 82.9943L265.253 83.9365L265.244 83.928Z" fill="black"/>
<path d="M239.899 59.6444C241.972 53.5115 248.508 58.2911 251.36 61.1605C252.525 62.2141 253.527 63.3962 254.598 64.5268L253.262 65.5975C251.677 63.499 250.007 61.4089 248.062 59.6359C245.253 57.2032 241.947 55.5501 239.899 59.6359V59.6444Z" fill="black"/>
<path d="M268.329 139.836C268.329 148.71 261.142 155.896 252.268 155.896C251.017 155.896 249.801 155.751 248.636 155.477C247.283 150.243 242.803 146.286 237.312 145.703C236.978 144.847 236.713 143.956 236.533 143.039C236.319 142.003 236.208 140.932 236.208 139.844C236.208 138.756 236.319 137.677 236.533 136.641C238.015 129.309 244.499 123.784 252.277 123.784C261.151 123.784 268.337 130.97 268.337 139.844L268.329 139.836Z" fill="#FF6462" stroke="black" stroke-width="2.56968" stroke-miterlimit="10"/>
<path d="M270.256 171.957C270.256 180.831 263.069 188.017 254.195 188.017C245.321 188.017 238.135 180.831 238.135 171.957C238.135 171.888 238.135 171.82 238.135 171.76C244.336 170.689 249.047 165.293 249.047 158.791C249.047 158.115 248.996 157.447 248.893 156.796C250.555 156.213 252.328 155.896 254.187 155.896C263.061 155.896 270.247 163.083 270.247 171.957H270.256Z" fill="#FF6462" stroke="black" stroke-width="2.56968" stroke-miterlimit="10"/>
<path d="M249.056 158.791C249.056 165.293 244.336 170.698 238.143 171.76C237.715 171.837 237.286 171.897 236.85 171.923C236.533 171.948 236.216 171.957 235.89 171.957C228.618 171.957 222.716 166.064 222.716 158.783C222.716 157.841 222.811 156.924 223.008 156.042C223.025 155.931 223.05 155.819 223.085 155.716C224.447 149.952 229.603 145.652 235.77 145.609C235.805 145.609 235.847 145.609 235.882 145.609C236.361 145.609 236.841 145.635 237.304 145.695C242.794 146.277 247.274 150.243 248.627 155.468C248.739 155.896 248.833 156.333 248.893 156.787C248.996 157.438 249.047 158.106 249.047 158.783L249.056 158.791Z" fill="#71BE44" stroke="black" stroke-width="2.56968" stroke-miterlimit="10"/>
<path d="M236.85 171.923V171.957C236.85 180.831 229.663 188.017 220.789 188.017C211.915 188.017 204.729 180.831 204.729 171.957C204.729 163.083 211.915 155.896 220.789 155.896C221.543 155.896 222.279 155.948 223.008 156.05C222.819 156.933 222.716 157.849 222.716 158.791C222.716 166.064 228.609 171.965 235.89 171.965C236.216 171.965 236.541 171.948 236.85 171.931V171.923Z" fill="#FF6462" stroke="black" stroke-width="2.56968" stroke-miterlimit="10"/>
<path d="M236.85 139.836C236.85 140.932 236.738 142.003 236.524 143.031C236.344 143.922 236.096 144.787 235.77 145.618C229.603 145.66 224.447 149.96 223.085 155.725C222.331 155.836 221.569 155.896 220.789 155.896C211.915 155.896 204.729 148.71 204.729 139.836C204.729 130.962 211.915 123.775 220.789 123.775C228.558 123.775 235.051 129.3 236.533 136.632C236.747 137.669 236.858 138.739 236.858 139.836H236.85Z" fill="#FF6462" stroke="black" stroke-width="2.56968" stroke-miterlimit="10"/>
<path d="M240.31 172.471C235.788 187.452 234.134 203.393 233.895 219.025C233.792 224.301 234.023 229.569 234.28 234.837L231.719 235.034C231.291 229.706 230.888 224.378 230.828 219.033C230.563 205.654 231.496 192.163 234.083 179.015C234.623 176.351 235.188 173.773 235.985 171.049L240.319 172.471H240.31Z" fill="black"/>
<path d="M68.9359 99.5198C83.7075 99.5198 95.6823 87.545 95.6823 72.7733C95.6823 58.0017 83.7075 46.0269 68.9359 46.0269C54.1642 46.0269 42.1895 58.0017 42.1895 72.7733C42.1895 87.545 54.1642 99.5198 68.9359 99.5198Z" fill="#FED52F" stroke="black" stroke-width="2.32578" stroke-miterlimit="10"/>
<path d="M192.129 155.305C191.913 154.151 191.697 152.926 191.48 151.773C191.48 151.629 191.48 151.412 191.48 151.196C191.48 150.98 191.408 150.764 191.336 150.547C191.264 150.187 191.264 149.827 191.192 149.394C191.192 149.25 191.12 149.106 191.048 148.962C190.76 147.664 190.399 146.367 189.967 145.07C189.823 144.637 189.678 144.205 189.534 143.844V143.772C189.462 143.628 189.39 143.484 189.39 143.34C189.03 142.619 188.381 142.403 187.66 142.475C187.804 142.042 187.732 141.61 187.444 141.177L185.21 137.79C185.282 137.429 185.21 137.069 185.065 136.636C184.417 135.339 183.696 134.546 182.398 133.825C182.182 133.681 181.894 133.609 181.678 133.609C181.75 131.591 180.236 130.221 178.939 128.708C177.065 126.401 175.191 124.095 173.245 121.788C169.28 117.031 165.172 112.418 160.991 107.805C160.631 107.445 160.27 107.3 159.838 107.3C159.622 106.796 159.261 106.363 158.613 106.075C158.757 105.571 158.901 104.994 158.973 104.417C159.333 102.471 156.739 101.174 155.657 103.048C154.937 104.273 154.36 105.498 153.855 106.796C153.063 106.652 152.198 107.012 151.981 108.021C151.765 108.886 151.549 109.751 151.477 110.688C150.179 112.202 149.026 113.86 148.017 115.589C147.801 115.95 147.729 116.31 147.801 116.599C147.585 116.671 147.368 116.815 147.152 117.103C146.431 117.896 145.711 118.761 144.99 119.626C144.197 120.563 143.404 121.428 142.611 122.293C142.539 122.293 142.467 122.365 142.467 122.365C141.17 123.158 140.016 124.095 139.007 125.032C138.791 125.104 138.575 125.176 138.359 125.392C135.836 127.482 133.313 129.501 130.79 131.591C130.07 132.24 130.07 133.032 130.43 133.609C130.43 133.609 130.358 133.609 130.358 133.681C126.682 136.708 124.592 140.673 123.799 145.214C121.42 148.962 121.204 153.503 122.934 157.539C122.862 157.683 122.79 157.899 122.718 158.044C122.069 161.864 122.573 165.324 124.303 168.783C124.447 169.072 124.664 169.288 124.88 169.432C125.384 170.441 126.033 171.378 126.754 172.315C127.114 172.82 127.907 172.964 128.484 172.748C128.556 172.748 128.628 172.676 128.7 172.676C129.205 174.189 130.286 175.415 131.871 176.352C132.592 176.784 133.241 176.64 133.746 176.279C134.827 177.144 135.836 177.865 136.629 178.226C136.701 178.226 136.773 178.298 136.845 178.298C136.989 178.37 137.061 178.514 137.205 178.586C137.566 178.946 137.926 179.307 138.286 179.667C140.016 181.181 143.044 183.487 145.566 183.199C146.936 184.496 148.81 185.073 150.828 184.785C151.116 184.785 151.405 184.857 151.693 184.785C153.423 185.65 155.225 185.073 156.811 183.992C157.676 183.992 158.613 183.631 159.405 183.127C160.631 184.352 162.433 184.208 164.163 183.343C164.451 183.487 164.883 183.487 165.244 183.343C165.748 183.127 166.253 182.983 166.757 182.767C167.046 182.839 167.334 182.839 167.622 182.767C168.127 182.622 168.559 182.478 168.992 182.334C170.217 182.118 171.37 181.685 172.596 181.109C173.1 181.181 173.605 181.037 174.037 180.676C174.254 180.532 174.398 180.388 174.614 180.172C175.191 180.316 175.839 180.244 176.344 179.811C177.93 178.586 179.371 177.217 180.741 175.847C184.273 173.829 186.939 170.874 188.453 167.126C188.958 166.261 189.462 165.396 189.823 164.531C190.832 162.657 191.48 160.566 191.769 158.26C191.841 157.827 191.697 157.323 191.48 156.962C191.985 156.602 192.273 156.025 192.129 155.305ZM181.75 154.007C181.678 154.007 181.606 154.079 181.534 154.151C180.885 152.998 180.236 151.845 179.66 150.692C180.308 151.845 181.029 152.926 181.75 154.007ZM170.578 156.602C170.433 156.746 170.361 156.89 170.217 157.035C170.217 157.035 170.145 157.035 170.145 157.107C170.001 156.17 169.857 155.233 169.713 154.223C170.001 155.016 170.289 155.809 170.578 156.602Z" fill="#FED530"/>
<path d="M143.26 206.12C143.548 204.895 142.683 203.525 141.097 203.886C139.944 204.174 138.791 204.606 137.71 204.967C137.565 204.967 137.421 204.967 137.277 205.039C135.908 205.471 134.61 205.976 133.313 206.552C132.664 206.697 132.087 206.913 131.583 207.129C131.511 207.129 131.511 207.129 131.439 207.201C130.502 207.489 129.709 207.922 128.916 208.427C127.763 207.994 126.321 208.21 125.096 209.364C125.096 209.364 125.096 209.364 125.024 209.436C124.663 209.508 124.303 209.652 124.015 209.868C123.51 210.156 123.078 210.589 122.717 211.165C122.429 211.31 122.141 211.526 121.924 211.814C121.276 211.886 120.555 212.103 119.906 212.463C118.825 212.823 118.032 213.76 117.672 214.914C117.383 215.202 117.167 215.634 116.951 216.139C116.374 217.725 117.095 219.166 118.393 219.743C118.753 219.959 119.185 220.031 119.618 219.959C119.69 219.959 119.762 219.959 119.834 219.959C120.411 219.887 120.987 219.743 121.564 219.527C122.141 219.455 122.645 219.238 123.222 218.95C123.294 218.95 123.294 219.022 123.366 219.022C126.033 220.608 128.628 218.59 130.141 216.139C130.213 216.067 130.213 215.995 130.285 215.995C130.285 215.995 130.358 215.995 130.358 215.923C130.79 215.995 131.222 215.995 131.655 215.706C132.664 215.058 133.673 214.337 134.61 213.688C137.71 212.247 140.449 210.445 142.899 207.994C143.332 207.273 143.404 206.697 143.26 206.12Z" fill="#FED530"/>
<path d="M174.542 245.979C174.903 245.547 175.191 245.042 175.335 244.538C177.353 240.357 178.146 235.744 177.641 231.059C177.641 230.915 177.569 230.699 177.497 230.555C177.714 228.104 177.569 225.581 177.137 223.131C176.921 221.833 175.695 221.617 174.686 222.049C173.389 214.265 170.506 206.913 166.181 200.282C165.604 199.345 164.595 199.273 163.802 199.633C162.073 197.11 160.199 194.732 158.036 192.425C156.45 190.695 153.928 193.29 155.513 194.948C155.513 194.948 155.513 194.948 155.513 195.02C155.369 195.164 155.225 195.308 155.081 195.524C154.793 195.885 154.504 196.245 154.216 196.606C153.784 196.606 153.423 196.822 153.135 197.182C152.342 196.606 150.9 196.75 150.396 197.687C147.441 203.165 144.99 208.787 143.116 214.625C139.872 221.761 138.143 229.618 138.287 237.69C138.287 239.132 139.584 239.709 140.665 239.348C140.809 240.718 141.026 242.159 141.314 243.529C141.098 245.114 141.458 247.277 141.891 248.718C142.107 251.313 142.972 253.836 144.846 255.566C145.278 255.998 145.855 256.215 146.432 256.359C147.657 257.512 149.026 258.161 150.396 257.44C150.468 257.512 150.54 257.584 150.612 257.584C151.045 257.944 151.549 258.089 151.982 258.089C153.063 259.314 154.504 260.035 156.162 260.035C157.171 260.179 158.18 260.035 159.261 259.674C159.694 259.53 160.199 259.17 160.415 258.665C160.631 260.035 162.145 260.828 163.442 259.746C164.956 258.521 166.397 257.152 167.767 255.782C168.415 256.215 169.28 256.287 169.929 255.494C171.803 253.403 173.101 251.169 174.11 248.574C174.326 247.925 174.254 247.421 173.893 247.061C174.11 246.7 174.326 246.34 174.542 245.979Z" fill="#FED530"/>
<path d="M198.689 214.049C198.328 213.688 197.968 213.328 197.607 213.039C197.607 212.607 197.463 212.175 197.103 211.742C196.166 210.805 195.517 209.94 194.941 208.787C194.364 207.706 192.922 207.778 192.129 208.426C191.985 208.066 191.769 207.778 191.409 207.562C189.607 206.48 187.733 205.615 185.714 204.967C185.21 204.823 184.705 204.895 184.345 205.183C183.84 204.895 183.336 204.678 182.831 204.39C182.255 204.102 181.678 204.102 181.246 204.318C180.237 203.597 179.227 202.804 178.218 202.084C177.281 201.363 176.128 202.011 175.696 202.949C175.191 202.804 174.686 202.66 174.11 202.516C173.029 202.3 171.803 203.021 171.803 204.246C171.587 204.318 171.443 204.39 171.227 204.462C169.136 205.399 170.938 208.499 173.029 207.562C173.173 207.778 173.389 207.994 173.605 208.138C174.542 208.643 175.479 209.003 176.416 209.219C176.488 209.291 176.561 209.363 176.633 209.436C176.705 209.796 176.849 210.156 177.065 210.445C181.029 215.13 186.291 218.013 192.274 218.95C192.49 219.022 192.778 219.094 192.994 219.166C193.283 219.238 193.571 219.238 193.859 219.166C194.003 219.166 194.076 219.166 194.22 219.238C194.508 219.238 194.724 219.238 194.941 219.094C195.301 219.166 195.733 219.238 196.094 219.238C196.382 219.238 196.67 219.166 196.887 219.094C197.679 219.094 198.184 218.59 198.472 218.013C198.977 217.58 199.193 216.86 198.977 216.139C199.409 215.49 199.337 214.697 198.689 214.049Z" fill="#FED530"/>
<path d="M170.866 83.6587C169.785 80.3431 166.902 76.5229 162.938 76.8833C158.901 77.2437 157.027 81.4963 156.09 84.884C153.135 95.2633 156.378 104.778 162.866 112.995C174.686 128.059 197.319 140.745 189.823 163.377C185.498 176.424 173.605 181.902 160.703 183.199C149.243 184.352 135.187 180.965 127.907 171.522C120.267 161.648 120.555 148.601 127.187 138.366C132.232 130.51 139.728 124.671 146.071 117.968C153.567 110.039 159.838 100.453 158.18 89.0645C157.604 85.1002 156.451 79.0456 152.27 77.1716C147.729 75.1534 143.837 79.5502 142.539 83.4424C141.819 85.6769 145.278 86.6139 145.999 84.3794C146.432 83.01 147.297 81.2801 148.81 80.7034C150.684 79.9827 152.054 81.1359 152.847 82.8658C154.072 85.4606 154.649 88.56 154.865 91.3711C155.297 97.2094 153.135 102.471 150.036 107.3C145.278 114.652 138.431 120.275 132.376 126.473C126.61 132.384 121.348 139.159 119.33 147.304C116.952 156.89 119.618 167.27 125.889 174.766C132.737 182.911 142.972 185.722 153.207 186.659C162.938 187.524 174.182 185.722 182.255 179.739C189.895 174.117 194.58 164.747 194.796 155.305C195.013 146.295 190.904 138.222 185.282 131.519C179.155 124.023 171.227 118.04 165.244 110.256C161.856 105.859 158.973 100.597 158.541 94.975C158.325 91.5152 158.829 87.9113 159.91 84.6678C160.487 83.082 160.991 81.6405 162.649 80.9918C165.028 80.0547 166.686 82.5775 167.334 84.5957C168.127 86.8301 171.587 85.8931 170.866 83.6587Z" fill="black"/>
<path d="M166.974 261.044C179.155 254.629 181.029 237.69 179.371 225.509C177.425 211.67 170.289 198.768 159.405 189.902C158.612 189.254 157.675 189.254 156.883 189.902C143.26 201.219 135.115 219.094 136.484 236.897C137.061 244.394 139.007 252.827 144.629 258.233C150.612 263.927 159.622 264.287 166.974 261.044C169.064 260.107 167.262 257.007 165.172 257.944C157.387 261.404 148.521 259.17 144.197 251.746C140.665 245.763 139.728 238.195 139.944 231.347C140.449 216.283 147.801 202.012 159.405 192.425C158.54 192.425 157.675 192.425 156.883 192.425C166.541 200.282 173.1 211.238 175.479 223.491C177.641 234.735 176.776 251.89 165.244 257.944C163.081 259.026 164.883 262.125 166.974 261.044Z" fill="black"/>
<path d="M203.013 215.851C201.139 210.012 193.931 206.408 188.597 204.246C182.471 201.723 175.84 200.426 169.28 201.363C168.055 201.507 167.695 203.093 168.199 204.03C172.308 211.382 179.516 216.86 187.156 220.175C191.841 222.193 204.094 225.581 203.013 216.283C202.725 213.977 199.121 213.977 199.409 216.283C200.202 223.13 185.21 215.274 183.119 213.977C178.434 211.021 174.11 207.129 171.371 202.156C171.01 203.021 170.65 203.886 170.29 204.823C175.407 204.102 180.669 205.111 185.426 206.841C189.967 208.499 197.896 211.742 199.553 216.788C200.274 219.022 203.734 218.085 203.013 215.851Z" fill="black"/>
<path d="M117.168 216.788C118.826 211.742 126.682 208.499 131.295 206.841C136.124 205.111 141.314 204.102 146.432 204.823C146.071 203.958 145.711 203.093 145.35 202.156C142.611 207.129 138.287 211.021 133.457 213.977C131.295 215.274 116.375 223.058 117.168 216.283C117.456 213.977 113.852 213.977 113.564 216.283C112.483 225.581 124.736 222.193 129.421 220.175C137.061 216.86 144.269 211.382 148.378 204.03C148.882 203.093 148.522 201.579 147.297 201.363C140.737 200.426 134.106 201.723 127.979 204.246C122.718 206.408 115.51 209.94 113.564 215.851C112.987 218.013 116.447 219.022 117.168 216.788Z" fill="black"/>
<path d="M138.287 148.529C136.629 139.88 150.829 139.808 149.604 145.43C149.099 147.664 152.559 148.673 153.063 146.367C154.361 140.384 148.378 136.997 143.044 137.79C137.35 138.655 133.674 143.772 134.755 149.394C135.26 151.773 138.792 150.764 138.287 148.529Z" fill="black"/>
<path d="M178.506 149.466C179.587 143.844 175.911 138.727 170.217 137.862C164.955 137.069 158.973 140.456 160.198 146.439C160.703 148.673 164.162 147.736 163.658 145.502C162.433 139.88 176.632 139.952 174.974 148.601C174.614 150.764 178.074 151.773 178.506 149.466Z" fill="black"/>
<path d="M132.881 158.836C139.08 179.667 178.074 180.028 180.381 156.674C180.597 154.368 176.993 154.368 176.777 156.674C174.831 175.919 141.314 174.622 136.341 157.827C135.764 155.665 132.232 156.674 132.881 158.836Z" fill="black"/>
</svg>
