<svg width="367" height="579" viewBox="0 0 367 579" fill="none" xmlns="http://www.w3.org/2000/svg">
<path d="M62.1445 300.735C62.1445 300.735 52.3805 344.17 105.827 371.292C159.274 398.414 128.961 426.334 128.961 426.334C128.961 426.334 111.411 439.098 113.804 478.185C116.197 517.273 109.018 555.563 97.0523 575.506C97.0523 575.506 117.793 567.529 140.129 530.036C162.465 492.544 172.835 459.838 192.778 449.468C212.72 439.098 231.068 411.178 231.068 390.437C231.068 369.697 236.652 353.743 254.201 336.193C271.751 318.643 273.155 287.892 273.155 287.892" fill="#34708A"/>
<path d="M62.1445 300.735C62.1445 300.735 52.3805 344.17 105.827 371.292C159.274 398.414 128.961 426.334 128.961 426.334C128.961 426.334 111.411 439.098 113.804 478.185C116.197 517.273 109.018 555.563 97.0523 575.506C97.0523 575.506 117.793 567.529 140.129 530.036C162.465 492.544 172.835 459.838 192.778 449.468C212.72 439.098 231.068 411.178 231.068 390.437C231.068 369.697 236.652 353.743 254.201 336.193C271.751 318.643 273.155 287.892 273.155 287.892" stroke="black" stroke-width="3.19084" stroke-miterlimit="10"/>
<path d="M168.81 313.832C227.077 310.289 273.781 298.682 273.126 287.909C272.471 277.135 224.705 271.273 166.438 274.817C108.171 278.36 61.4672 289.966 62.1224 300.74C62.7775 311.514 110.543 317.376 168.81 313.832Z" fill="#34708A" stroke="black" stroke-width="3.19084" stroke-miterlimit="10"/>
<path d="M113.605 473.622C113.605 473.622 102.629 458.235 148.098 423.135C193.568 388.036 159.665 350.767 155.078 344.672" stroke="black" stroke-width="3.19084" stroke-miterlimit="10"/>
<path d="M163.887 486.019C163.887 486.019 156.508 467.217 163.887 439.991" stroke="black" stroke-width="3.19084" stroke-miterlimit="10"/>
<path d="M187.068 453.249C187.068 453.249 175.253 427.132 192.005 388.044" stroke="black" stroke-width="3.19084" stroke-miterlimit="10"/>
<path d="M183.063 426.518C183.063 426.518 195.196 431.918 199.982 411.975C204.769 392.033 206.683 355.561 227.663 344.68" stroke="black" stroke-width="3.19084" stroke-miterlimit="10"/>
<path d="M220.65 291.417C221.137 299.45 186.308 308.113 142.865 310.754C120.083 312.142 99.4458 311.599 84.9036 309.613C84.385 309.709 63.485 313.641 61.2355 342C58.962 370.622 68.4627 513.332 96.957 552.986C93.2476 553.537 84.401 554.837 63.3016 557.94C26.9738 563.285 24.6525 539.832 24.6525 539.832C-4.86278 548.607 2.93084 530.698 2.93084 530.698C19.4913 504.007 24.6525 454.477 35.9241 364.392C47.0522 275.463 83.9383 289.144 84.8956 289.519H84.9115C99.047 285.921 118.95 283.009 141.102 281.661C184.546 279.013 220.171 283.384 220.658 291.417H220.65Z" fill="#2D94C1" stroke="black" stroke-width="3.19084" stroke-miterlimit="10"/>
<path d="M201.154 76.9848C201.154 90.6416 190.664 102.24 176.074 106.428C172.309 107.505 168.264 108.096 164.061 108.096C151.513 108.096 140.416 102.871 133.7 94.8695C128.259 101.363 118.344 105.702 107.024 105.702C89.8416 105.702 75.9136 95.6991 75.9136 83.3665C75.9136 71.0339 89.8416 61.0306 107.024 61.0306C115.488 61.0306 123.154 63.4557 128.762 67.3963C131.49 60.3366 137.138 54.3777 144.525 50.5327C150.196 47.5812 156.889 45.8741 164.061 45.8741C184.546 45.8741 201.154 59.8021 201.154 76.9848Z" fill="#34708A" stroke="black" stroke-width="3.19084" stroke-miterlimit="10"/>
<path d="M364.718 83.7653C364.718 97.1987 350.966 108.095 334.006 108.095C325.319 108.095 317.478 105.24 311.894 100.645C302.505 111.877 286.614 119.263 268.594 119.263C258.439 119.263 248.954 116.918 240.937 112.858C233.367 114.94 225.223 116.073 216.743 116.073C201.706 116.073 187.722 112.515 176.108 106.428C190.698 102.24 201.188 90.6416 201.188 76.9848C201.188 59.8021 184.579 45.8741 164.094 45.8741C156.923 45.8741 150.23 47.5812 144.558 50.5327C149.815 23.0675 180.136 2 216.743 2C246.825 2 272.654 16.2232 283.83 36.5329C299.761 40.4576 312.46 50.3732 317.932 63.0328C322.607 60.7514 328.111 59.4351 334.006 59.4351C350.966 59.4351 364.718 70.3319 364.718 83.7653Z" fill="#2D94C1" stroke="black" stroke-width="3.19084" stroke-miterlimit="10"/>
<path d="M221.928 57.8397C221.928 57.8397 242.98 35.5038 275.925 45.874" stroke="black" stroke-width="3.19084" stroke-miterlimit="10"/>
<path d="M117.594 129.45L112.44 143.849" stroke="#22365E" stroke-width="3.19084" stroke-miterlimit="10" stroke-linecap="round"/>
<path d="M223.366 213.393L218.213 227.792" stroke="#22365E" stroke-width="3.19084" stroke-miterlimit="10" stroke-linecap="round"/>
<path d="M255.275 171.912L250.122 186.311" stroke="#22365E" stroke-width="3.19084" stroke-miterlimit="10" stroke-linecap="round"/>
<path d="M262.454 244.504L257.301 258.903" stroke="#22365E" stroke-width="3.19084" stroke-miterlimit="10" stroke-linecap="round"/>
<path d="M218.803 131.569L211.242 156.416" stroke="#22365E" stroke-width="3.19084" stroke-miterlimit="10" stroke-linecap="round"/>
<path d="M116.453 211.526L108.892 236.372" stroke="#22365E" stroke-width="3.19084" stroke-miterlimit="10" stroke-linecap="round"/>
<path d="M301.556 133.35L293.995 158.197" stroke="#22365E" stroke-width="3.19084" stroke-miterlimit="10" stroke-linecap="round"/>
<path d="M159.106 371.364C159.106 371.364 161.667 376.469 161.667 379.357V382.245C161.667 382.245 149.159 377.434 147.236 372.624C145.314 367.814 148.202 363.482 148.202 363.482" fill="#0088C2"/>
<path d="M159.106 371.364C159.106 371.364 161.667 376.469 161.667 379.357V382.245C161.667 382.245 149.159 377.434 147.236 372.624C145.314 367.814 148.202 363.482 148.202 363.482" stroke="black" stroke-width="2.39313" stroke-miterlimit="10"/>
<path d="M161.667 360.707C161.667 360.707 164.858 367.072 164.858 370.67V374.268C164.858 374.268 149.263 368.269 146.862 362.27C144.461 356.271 148.058 350.871 148.058 350.871" fill="#0088C2"/>
<path d="M161.667 360.707C161.667 360.707 164.858 367.072 164.858 370.67V374.268C164.858 374.268 149.263 368.269 146.862 362.27C144.461 356.271 148.058 350.871 148.058 350.871" stroke="black" stroke-width="2.39313" stroke-miterlimit="10"/>
<path d="M153.57 378.934C153.57 378.934 155.285 382.356 155.285 384.295V386.233C155.285 386.233 146.893 383.003 145.601 379.78C144.309 376.557 146.247 373.645 146.247 373.645" fill="#0088C2"/>
<path d="M153.57 378.934C153.57 378.934 155.285 382.356 155.285 384.295V386.233C155.285 386.233 146.893 383.003 145.601 379.78C144.309 376.557 146.247 373.645 146.247 373.645" stroke="black" stroke-width="2.39313" stroke-miterlimit="10"/>
<path d="M163.263 342.359C163.263 342.359 172.037 355.92 172.037 360.706V365.493C172.037 365.493 151.297 357.516 148.106 349.538C144.915 341.561 149.702 334.382 149.702 334.382" fill="#0088C2"/>
<path d="M163.263 342.359C163.263 342.359 172.037 355.92 172.037 360.706V365.493C172.037 365.493 151.297 357.516 148.106 349.538C144.915 341.561 149.702 334.382 149.702 334.382" stroke="black" stroke-width="2.39313" stroke-miterlimit="10"/>
<path d="M151.296 330.393C151.296 330.393 181.29 303.271 193.017 330.393C204.743 357.516 160.071 343.157 154.487 337.573C148.903 331.989 151.296 330.393 151.296 330.393Z" fill="#0088C2" stroke="black" stroke-width="2.39313" stroke-miterlimit="10"/>
<path d="M158.939 324.722C158.939 324.722 111.411 296.89 112.209 316.035C113.007 335.18 150.786 332.364 150.786 332.364" fill="#0088C2"/>
<path d="M158.939 324.722C158.939 324.722 111.411 296.89 112.209 316.035C113.007 335.18 150.786 332.364 150.786 332.364" stroke="black" stroke-width="2.39313" stroke-miterlimit="10"/>
<path d="M149.702 334.382C149.702 334.382 131.354 331.191 125.77 335.978C120.186 340.764 117.195 349.937 117.195 349.937C117.195 349.937 146.822 351.924 147.468 347.544" fill="#0088C2"/>
<path d="M149.702 334.382C149.702 334.382 131.354 331.191 125.77 335.978C120.186 340.764 117.195 349.937 117.195 349.937C117.195 349.937 146.822 351.924 147.468 347.544" stroke="black" stroke-width="2.39313" stroke-miterlimit="10"/>
<path d="M148.066 350.871C148.066 350.871 134.273 348.47 130.07 352.067C125.866 355.665 123.624 362.565 123.624 362.565C123.624 362.565 145.904 364.057 146.383 360.762" fill="#0088C2"/>
<path d="M148.066 350.871C148.066 350.871 134.273 348.47 130.07 352.067C125.866 355.665 123.624 362.565 123.624 362.565C123.624 362.565 145.904 364.057 146.383 360.762" stroke="black" stroke-width="2.39313" stroke-miterlimit="10"/>
<path d="M146.575 381.112C144.524 381.343 142.522 382.069 141.19 383.712C139.658 385.603 139.371 388.227 139.642 390.652C139.914 393.078 140.648 395.415 140.919 397.84C143.487 396.34 145.171 393.987 146.551 391.41C146.551 391.41 148.242 383.984 146.583 381.12" fill="#0088C2"/>
<path d="M146.575 381.112C144.524 381.343 142.522 382.069 141.19 383.712C139.658 385.603 139.371 388.227 139.642 390.652C139.914 393.078 140.648 395.415 140.919 397.84C143.487 396.34 145.171 393.987 146.551 391.41C146.551 391.41 148.242 383.984 146.583 381.12" stroke="black" stroke-width="2.39313" stroke-miterlimit="10"/>
<path d="M148.194 363.482C148.194 363.482 137.13 361.56 133.763 364.448C130.397 367.335 128.594 372.864 128.594 372.864C128.594 372.864 146.463 374.06 146.846 371.42" fill="#0088C2"/>
<path d="M148.194 363.482C148.194 363.482 137.13 361.56 133.763 364.448C130.397 367.335 128.594 372.864 128.594 372.864C128.594 372.864 146.463 374.06 146.846 371.42" stroke="black" stroke-width="2.39313" stroke-miterlimit="10"/>
<path d="M146.247 373.645C146.247 373.645 138.828 372.353 136.563 374.292C134.297 376.23 133.093 379.939 133.093 379.939C133.093 379.939 145.082 380.745 145.338 378.966" fill="#0088C2"/>
<path d="M146.247 373.645C146.247 373.645 138.828 372.353 136.563 374.292C134.297 376.23 133.093 379.939 133.093 379.939C133.093 379.939 145.082 380.745 145.338 378.966" stroke="black" stroke-width="2.39313" stroke-miterlimit="10"/>
<path d="M154.384 504.885C154.384 504.885 152.398 508.841 152.398 511.083V513.324C152.398 513.324 162.106 509.591 163.598 505.858C165.09 502.124 162.848 498.766 162.848 498.766" fill="#0088C2"/>
<path d="M154.384 504.885C154.384 504.885 152.398 508.841 152.398 511.083V513.324C152.398 513.324 162.106 509.591 163.598 505.858C165.09 502.124 162.848 498.766 162.848 498.766" stroke="black" stroke-width="2.39313" stroke-miterlimit="10"/>
<path d="M152.398 496.612C152.398 496.612 149.925 501.55 149.925 504.342V507.134C149.925 507.134 162.027 502.483 163.885 497.825C165.744 493.166 162.952 488.978 162.952 488.978" fill="#0088C2"/>
<path d="M152.398 496.612C152.398 496.612 149.925 501.55 149.925 504.342V507.134C149.925 507.134 162.027 502.483 163.885 497.825C165.744 493.166 162.952 488.978 162.952 488.978" stroke="black" stroke-width="2.39313" stroke-miterlimit="10"/>
<path d="M158.684 510.764C158.684 510.764 157.352 513.42 157.352 514.92V516.42C157.352 516.42 163.861 513.915 164.866 511.41C165.871 508.905 164.363 506.656 164.363 506.656" fill="#0088C2"/>
<path d="M158.684 510.764C158.684 510.764 157.352 513.42 157.352 514.92V516.42C157.352 516.42 163.861 513.915 164.866 511.41C165.871 508.905 164.363 506.656 164.363 506.656" stroke="black" stroke-width="2.39313" stroke-miterlimit="10"/>
<path d="M151.162 482.381C151.162 482.381 144.349 492.903 144.349 496.62V500.338C144.349 500.338 160.439 494.148 162.92 487.957C165.401 481.767 161.683 476.199 161.683 476.199" fill="#0088C2"/>
<path d="M151.162 482.381C151.162 482.381 144.349 492.903 144.349 496.62V500.338C144.349 500.338 160.439 494.148 162.92 487.957C165.401 481.767 161.683 476.199 161.683 476.199" stroke="black" stroke-width="2.39313" stroke-miterlimit="10"/>
<path d="M160.447 473.096C160.447 473.096 137.178 452.052 128.076 473.096C118.974 494.14 153.642 483.003 157.974 478.664C162.306 474.324 160.447 473.096 160.447 473.096Z" fill="#0088C2" stroke="black" stroke-width="2.39313" stroke-miterlimit="10"/>
<path d="M154.52 468.693C154.52 468.693 191.398 447.099 190.776 461.952C190.154 476.805 160.838 474.619 160.838 474.619" fill="#0088C2"/>
<path d="M154.52 468.693C154.52 468.693 191.398 447.099 190.776 461.952C190.154 476.805 160.838 474.619 160.838 474.619" stroke="black" stroke-width="2.39313" stroke-miterlimit="10"/>
<path d="M161.684 476.191C161.684 476.191 175.923 473.718 180.254 477.427C184.586 481.145 186.907 488.26 186.907 488.26C186.907 488.26 163.917 489.8 163.415 486.402" fill="#0088C2"/>
<path d="M161.684 476.191C161.684 476.191 175.923 473.718 180.254 477.427C184.586 481.145 186.907 488.26 186.907 488.26C186.907 488.26 163.917 489.8 163.415 486.402" stroke="black" stroke-width="2.39313" stroke-miterlimit="10"/>
<path d="M162.952 488.986C162.952 488.986 173.657 487.128 176.912 489.92C180.166 492.712 181.913 498.064 181.913 498.064C181.913 498.064 164.627 499.221 164.252 496.668" fill="#0088C2"/>
<path d="M162.952 488.986C162.952 488.986 173.657 487.128 176.912 489.92C180.166 492.712 181.913 498.064 181.913 498.064C181.913 498.064 164.627 499.221 164.252 496.668" stroke="black" stroke-width="2.39313" stroke-miterlimit="10"/>
<path d="M164.108 512.455C165.696 512.63 167.251 513.197 168.288 514.473C169.477 515.941 169.7 517.975 169.493 519.858C169.285 521.74 168.711 523.559 168.504 525.434C166.509 524.269 165.201 522.442 164.132 520.44C164.132 520.44 162.816 514.681 164.108 512.455Z" fill="#0088C2" stroke="black" stroke-width="2.39313" stroke-miterlimit="10"/>
<path d="M162.848 498.766C162.848 498.766 171.432 497.274 174.048 499.516C176.664 501.758 178.06 506.049 178.06 506.049C178.06 506.049 164.196 506.983 163.893 504.925" fill="#0088C2"/>
<path d="M162.848 498.766C162.848 498.766 171.432 497.274 174.048 499.516C176.664 501.758 178.06 506.049 178.06 506.049C178.06 506.049 164.196 506.983 163.893 504.925" stroke="black" stroke-width="2.39313" stroke-miterlimit="10"/>
<path d="M164.363 506.656C164.363 506.656 170.123 505.651 171.878 507.158C173.633 508.666 174.566 511.538 174.566 511.538C174.566 511.538 165.265 512.16 165.065 510.788" fill="#0088C2"/>
<path d="M164.363 506.656C164.363 506.656 170.123 505.651 171.878 507.158C173.633 508.666 174.566 511.538 174.566 511.538C174.566 511.538 165.265 512.16 165.065 510.788" stroke="black" stroke-width="2.39313" stroke-miterlimit="10"/>
<path d="M258.391 339.495C258.391 339.495 255.83 344.601 255.83 347.489V350.376C255.83 350.376 268.338 345.566 270.261 340.756C272.183 335.946 269.295 331.614 269.295 331.614" fill="#0088C2"/>
<path d="M258.391 339.495C258.391 339.495 255.83 344.601 255.83 347.489V350.376C255.83 350.376 268.338 345.566 270.261 340.756C272.183 335.946 269.295 331.614 269.295 331.614" stroke="black" stroke-width="2.39313" stroke-miterlimit="10"/>
<path d="M255.83 328.83C255.83 328.83 252.639 335.196 252.639 338.793V342.391C252.639 342.391 268.234 336.392 270.636 330.394C273.037 324.395 269.439 318.994 269.439 318.994" fill="#0088C2"/>
<path d="M255.83 328.83C255.83 328.83 252.639 335.196 252.639 338.793V342.391C252.639 342.391 268.234 336.392 270.636 330.394C273.037 324.395 269.439 318.994 269.439 318.994" stroke="black" stroke-width="2.39313" stroke-miterlimit="10"/>
<path d="M263.927 347.058C263.927 347.058 262.212 350.48 262.212 352.418V354.357C262.212 354.357 270.604 351.126 271.896 347.903C273.188 344.681 271.25 341.769 271.25 341.769" fill="#0088C2"/>
<path d="M263.927 347.058C263.927 347.058 262.212 350.48 262.212 352.418V354.357C262.212 354.357 270.604 351.126 271.896 347.903C273.188 344.681 271.25 341.769 271.25 341.769" stroke="black" stroke-width="2.39313" stroke-miterlimit="10"/>
<path d="M254.235 310.483C254.235 310.483 245.46 324.044 245.46 328.83V333.616C245.46 333.616 266.2 325.639 269.391 317.662C272.582 309.685 267.796 302.505 267.796 302.505" fill="#0088C2"/>
<path d="M254.235 310.483C254.235 310.483 245.46 324.044 245.46 328.83V333.616C245.46 333.616 266.2 325.639 269.391 317.662C272.582 309.685 267.796 302.505 267.796 302.505" stroke="black" stroke-width="2.39313" stroke-miterlimit="10"/>
<path d="M266.201 298.517C266.201 298.517 236.207 271.395 224.481 298.517C212.754 325.639 257.426 311.28 263.01 305.696C268.594 300.112 266.201 298.517 266.201 298.517Z" fill="#0088C2" stroke="black" stroke-width="2.39313" stroke-miterlimit="10"/>
<path d="M258.559 292.845C258.559 292.845 306.087 265.013 305.289 284.158C304.491 303.303 266.712 300.487 266.712 300.487" fill="#0088C2"/>
<path d="M258.559 292.845C258.559 292.845 306.087 265.013 305.289 284.158C304.491 303.303 266.712 300.487 266.712 300.487" stroke="black" stroke-width="2.39313" stroke-miterlimit="10"/>
<path d="M267.796 302.506C267.796 302.506 286.143 299.315 291.727 304.101C297.311 308.887 300.303 318.061 300.303 318.061C300.303 318.061 270.676 320.047 270.029 315.668" fill="#0088C2"/>
<path d="M267.796 302.506C267.796 302.506 286.143 299.315 291.727 304.101C297.311 308.887 300.303 318.061 300.303 318.061C300.303 318.061 270.676 320.047 270.029 315.668" stroke="black" stroke-width="2.39313" stroke-miterlimit="10"/>
<path d="M269.432 319.002C269.432 319.002 283.224 316.601 287.428 320.199C291.632 323.796 293.873 330.697 293.873 330.697C293.873 330.697 271.593 332.188 271.115 328.894" fill="#0088C2"/>
<path d="M269.432 319.002C269.432 319.002 283.224 316.601 287.428 320.199C291.632 323.796 293.873 330.697 293.873 330.697C293.873 330.697 271.593 332.188 271.115 328.894" stroke="black" stroke-width="2.39313" stroke-miterlimit="10"/>
<path d="M270.923 349.243C272.973 349.475 274.976 350.201 276.308 351.844C277.839 353.734 278.127 356.359 277.855 358.784C277.592 361.201 276.85 363.546 276.579 365.971C274.01 364.472 272.327 362.118 270.947 359.542C270.947 359.542 269.256 352.115 270.915 349.251" fill="#0088C2"/>
<path d="M270.923 349.243C272.973 349.475 274.976 350.201 276.308 351.844C277.839 353.734 278.127 356.359 277.855 358.784C277.592 361.201 276.85 363.546 276.579 365.971C274.01 364.472 272.327 362.118 270.947 359.542C270.947 359.542 269.256 352.115 270.915 349.251" stroke="black" stroke-width="2.39313" stroke-miterlimit="10"/>
<path d="M269.304 331.606C269.304 331.606 280.368 329.684 283.735 332.571C287.101 335.459 288.904 340.987 288.904 340.987C288.904 340.987 271.035 342.184 270.652 339.543" fill="#0088C2"/>
<path d="M269.304 331.606C269.304 331.606 280.368 329.684 283.735 332.571C287.101 335.459 288.904 340.987 288.904 340.987C288.904 340.987 271.035 342.184 270.652 339.543" stroke="black" stroke-width="2.39313" stroke-miterlimit="10"/>
<path d="M271.25 341.769C271.25 341.769 278.669 340.477 280.934 342.415C283.2 344.353 284.404 348.063 284.404 348.063C284.404 348.063 272.415 348.868 272.159 347.09" fill="#0088C2"/>
<path d="M271.25 341.769C271.25 341.769 278.669 340.477 280.934 342.415C283.2 344.353 284.404 348.063 284.404 348.063C284.404 348.063 272.415 348.868 272.159 347.09" stroke="black" stroke-width="2.39313" stroke-miterlimit="10"/>
<path d="M199.903 191.724C200.099 191.266 200.164 190.808 199.903 190.22C199.641 189.435 199.314 188.651 198.987 187.866C198.987 187.278 198.922 186.689 198.922 186.035C198.857 184.728 198.072 184.008 197.157 183.878C196.241 182.047 195.13 180.282 194.018 178.582C192.515 176.097 190.88 173.743 189.049 171.39C188.395 170.54 187.218 170.54 186.369 171.063C183.949 167.924 181.399 164.917 178.719 161.974C178.261 161.451 177.673 161.321 177.084 161.321C177.084 161.321 177.084 161.321 177.019 161.255C176.692 160.863 176.3 160.667 175.973 160.536C174.861 158.248 173.75 155.894 172.638 153.605C172.311 152.952 171.788 152.625 171.2 152.559C171.33 151.84 171.33 151.055 171.2 150.205C170.873 147.329 166.296 147.263 166.623 150.205C166.623 150.467 166.688 150.728 166.688 150.99C166.492 151.121 166.296 151.186 166.1 151.382C165.315 151.448 164.531 151.971 164.138 152.952C163.55 154.521 162.831 155.894 161.981 157.201C160.477 158.378 159.3 159.751 158.319 161.451C158.188 161.647 158.123 161.909 158.058 162.105C157.861 162.367 157.665 162.563 157.469 162.824C156.815 163.347 156.227 163.87 155.704 164.459C152.369 166.682 149.166 169.101 146.158 171.847C145.831 172.109 145.635 172.436 145.569 172.763C144.589 173.743 143.739 174.92 143.02 175.901C143.02 175.901 143.02 175.966 142.954 175.966C140.404 178.516 138.9 181.589 138.377 185.12C138.247 185.447 138.116 185.708 137.985 186.035C136.612 187.474 136.154 189.697 136.024 191.92C135.827 192.574 135.697 193.293 135.5 193.947C135.304 194.731 135.566 195.516 136.024 196.039C135.958 198.589 136.154 201.008 136.35 202.25C136.743 204.8 137.462 209.312 139.947 210.816C140.077 210.881 140.208 210.946 140.339 211.012C140.47 211.535 140.796 211.927 141.45 212.254C143.15 213.039 143.935 214.869 145.373 216.046C146.746 217.092 148.316 217.615 149.95 218.008C150.277 218.073 150.604 218.138 150.931 218.204C151.192 218.4 151.454 218.596 151.781 218.858C152.369 219.25 153.023 219.315 153.546 219.119C155.769 220.819 158.711 221.211 161.719 221.211C165.969 222.454 170.546 222.454 174.861 221.342C176.038 221.996 177.346 221.408 177.869 220.361C178.915 219.969 179.896 219.446 180.876 218.923C184.342 217.746 187.676 216.177 189.507 213.3C190.226 214.739 192.58 215.262 193.561 213.496L198.137 205.258C198.53 204.539 198.464 203.754 198.137 203.1C198.203 202.577 198.334 202.054 198.399 201.531C198.857 200.42 199.249 199.243 199.576 198.066C199.772 197.347 199.576 196.758 199.249 196.235C199.314 195.712 199.445 195.189 199.511 194.666C199.641 194.012 199.51 193.424 199.249 192.966C199.576 192.574 199.837 192.181 199.903 191.724Z" fill="#FED530"/>
<path d="M203.498 245.926C202.518 245.469 201.537 245.403 200.687 245.73C198.791 243.899 195.718 242.526 193.952 241.35C191.599 239.78 188.199 236.838 185.191 238.538C184.733 238.8 184.341 239.126 184.08 239.519C183.034 239.323 181.987 239.519 181.072 240.434C180.614 240.892 180.287 241.35 180.157 241.742C179.961 241.153 179.83 240.63 179.634 240.042C179.176 238.603 177.541 238.146 176.43 238.603C175.776 237.1 175.057 235.661 174.403 234.157C174.141 233.634 173.749 233.307 173.357 233.111C173.161 232.719 173.03 232.392 172.834 232C172.441 231.15 171.722 230.823 170.938 230.888C170.349 229.777 168.911 229.123 167.734 230.038C167.211 230.038 166.688 230.234 166.23 230.627C165.903 230.888 165.576 231.215 165.249 231.477C163.157 232 162.242 233.569 161.98 235.4C160.28 236.577 158.776 238.015 157.534 239.584C157.207 238.342 155.9 237.95 154.788 238.08C151.257 238.603 145.373 240.107 142.038 243.049C141.842 243.18 141.646 243.246 141.515 243.376C140.077 243.573 138.638 244.161 137.658 244.684C137.004 245.011 136.023 245.599 134.977 246.319C132.427 247.888 130.204 250.176 130.923 252.661C131.969 256.061 135.892 254.688 138.965 253.184C140.731 252.726 142.365 251.942 143.673 250.765C144.85 250.176 145.961 249.522 147.007 248.803C149.296 248.019 151.584 247.103 153.742 246.057C153.284 247.43 153.088 248.738 153.415 249.98C153.546 250.569 153.807 251.026 154.069 251.419C153.807 252.465 153.611 253.511 153.48 254.492C152.761 259.068 152.565 263.711 153.023 268.287C152.957 268.418 152.957 268.549 152.892 268.68C152.042 272.537 152.238 276.46 153.677 280.122C154.853 283.064 157.273 287.183 160.411 288.295C160.803 288.425 161.196 288.491 161.588 288.556C162.242 289.014 163.026 289.079 163.68 288.752C163.942 288.948 164.203 289.079 164.53 289.21C164.726 289.471 164.988 289.668 165.249 289.864C165.707 290.845 166.819 291.302 167.865 291.041C169.303 291.368 170.872 291.171 172.245 290.583C173.161 291.76 175.188 291.433 175.972 290.191C176.495 289.406 176.953 288.621 177.345 287.837C177.934 287.706 178.457 287.379 178.784 286.856C179.699 285.483 180.549 284.045 181.203 282.541C181.66 281.887 182.118 281.168 182.576 280.449C183.687 280.449 184.799 279.599 184.93 278.226C185.06 276.787 185.191 275.283 185.257 273.845C185.78 271.753 186.107 269.595 186.172 267.372C186.172 266.784 185.976 266.326 185.714 265.999C185.649 265.737 185.583 265.41 185.583 265.149C185.583 264.626 185.583 264.103 185.583 263.58C185.976 260.376 185.976 257.172 185.714 253.903C185.583 252.595 184.603 251.811 183.622 251.745C183.687 250.961 183.753 250.111 183.753 249.326C183.818 248.084 183.099 247.365 182.184 247.169C182.118 246.972 182.118 246.776 182.053 246.58C181.922 245.926 181.595 245.469 181.203 245.207C181.203 245.142 181.137 245.076 181.137 245.011C183.164 247.103 187.283 248.672 189.506 249.392C191.926 250.503 194.541 251.157 197.287 251.549C198.66 252.203 200.033 252.726 201.537 253.118C202.91 253.642 204.61 253.642 206.048 252.922C206.571 252.726 206.833 252.334 207.029 251.876C208.991 249.849 205.656 246.972 203.498 245.926ZM168.78 268.026C168.78 266.914 168.78 265.868 168.845 264.757C168.911 265.345 168.976 265.934 169.042 266.522C168.911 267.045 168.845 267.568 168.78 268.026Z" fill="#FED530"/>
<path d="M199.511 187.866C199.576 187.539 199.511 187.212 199.315 186.885C199.249 186.754 199.119 186.558 199.053 186.428C198.726 185.578 198.399 184.728 198.007 183.812C197.876 183.551 197.745 183.42 197.549 183.289C197.68 182.897 197.615 182.505 197.353 182.112L193.888 177.601C193.888 177.209 193.822 176.751 193.43 176.359C191.273 173.939 189.18 171.52 187.023 169.101C186.434 168.447 185.519 168.513 184.93 168.97C184.407 168.12 183.95 167.27 183.492 166.42C183.1 165.57 182.315 165.44 181.661 165.701C181.596 165.44 181.465 165.178 181.204 164.982C179.307 163.086 177.542 161.124 175.908 159.097C174.404 157.071 173.096 154.913 171.985 152.559C171.723 152.101 171.396 151.84 171.004 151.775C171.004 151.709 170.938 151.709 170.938 151.644C170.611 151.121 170.154 150.859 169.696 150.859C169.762 150.205 169.827 149.486 169.827 148.832C169.892 146.936 167.146 146.675 166.623 148.375C166.558 148.702 166.427 149.028 166.362 149.29C165.969 149.486 165.642 149.813 165.446 150.336C165.381 150.598 165.315 150.794 165.25 151.055C165.25 151.121 165.185 151.186 165.185 151.251C164.989 151.84 164.858 152.363 164.662 152.951C163.485 154.128 162.504 155.501 161.719 156.94C160.281 158.444 159.104 160.144 157.993 161.974C157.731 162.236 157.404 162.497 157.143 162.824C154.396 164.72 152.043 167.009 150.081 169.755C150.016 169.82 150.016 169.82 149.95 169.886C147.204 172.043 144.785 174.593 142.628 177.405C142.562 177.535 142.431 177.601 142.366 177.732C142.039 178.189 141.974 178.712 142.17 179.105C141.843 179.235 141.581 179.432 141.385 179.824C141.058 180.347 140.797 180.87 140.535 181.458C140.143 181.524 139.751 181.785 139.489 182.243C138.639 183.878 137.92 185.643 137.397 187.343C137.266 187.474 137.201 187.67 137.135 187.866C137.135 187.931 137.07 188.062 137.07 188.127C137.005 188.258 137.005 188.454 137.005 188.585C135.958 192.835 135.893 197.347 136.939 201.793C137.005 202.185 137.201 202.446 137.462 202.643C138.77 209.312 143.674 216.373 150.604 217.681C152.631 219.511 155.181 220.688 158.058 220.95C161.196 222.192 164.465 222.584 167.865 221.473C168.65 221.8 169.565 221.996 170.546 221.931C171.396 221.931 172.246 221.8 173.096 221.669C173.161 222.584 174.273 223.434 175.123 223.042C179.7 221.146 184.342 219.25 188.919 217.288C189.05 217.223 189.18 217.223 189.311 217.092C189.507 217.027 189.769 216.896 189.965 216.831C190.553 216.569 190.815 216.046 190.749 215.458C190.815 215.392 190.88 215.327 190.946 215.196C191.273 215.196 191.665 215.065 191.992 214.738C194.084 212.908 195.457 210.685 196.046 208.004C196.895 206.566 197.745 205.127 198.465 203.623C198.661 203.166 198.726 202.708 198.53 202.316C198.792 202.119 198.988 201.858 199.053 201.466C199.445 199.896 199.576 198.327 199.576 196.758C200.295 196.693 200.949 196.104 200.884 195.189C200.688 192.704 200.23 190.285 199.511 187.866Z" fill="#2D94C1"/>
<path d="M156.815 239.453C156.031 238.996 155.769 238.93 154.919 238.734C153.808 238.473 153.023 239.323 152.893 240.238C152.696 240.172 152.435 240.107 152.239 240.107C151.585 240.107 151.062 240.238 150.539 240.434C149.885 239.649 148.577 239.519 147.923 240.63C147.858 240.761 147.793 240.826 147.727 240.957C146.943 240.107 145.373 240.499 145.047 241.546C144.589 241.611 144.197 241.872 143.935 242.265C143.216 241.872 142.17 242.003 141.777 242.722C141.647 242.853 141.516 242.984 141.385 243.115C141.385 243.115 141.385 243.18 141.32 243.18C141.058 243.18 140.797 243.245 140.535 243.376C140.143 243.18 139.685 243.18 139.293 243.311C138.508 242.984 137.397 243.245 137.135 244.095C136.874 244.03 136.612 244.03 136.351 244.095C135.304 244.226 134.716 244.945 134.454 245.926C134.389 245.992 134.258 246.122 134.193 246.188C133.866 246.711 133.604 247.234 133.474 247.822C132.624 248.018 132.166 248.607 131.905 249.326C130.531 251.549 131.185 256.257 134.52 254.099C134.52 254.099 134.585 254.099 134.585 254.034C135.566 254.164 136.351 253.838 136.874 253.249C137.004 253.184 137.201 253.118 137.331 253.053C138.377 253.314 139.227 252.791 139.881 252.007C140.143 251.941 140.339 251.811 140.535 251.68C140.6 251.615 140.666 251.549 140.731 251.549C141.254 252.465 142.3 252.53 143.02 252.007H143.085C144.523 251.811 145.308 250.83 145.7 249.588C145.962 249.588 146.223 249.522 146.485 249.391C146.943 249.261 147.27 248.999 147.596 248.738C147.727 248.672 147.923 248.672 148.054 248.607C148.904 248.149 149.558 247.561 150.016 246.907C151.127 246.711 151.977 245.795 152.631 244.749C152.958 244.815 153.285 244.684 153.612 244.488C154.658 243.769 155.769 243.049 156.815 242.33C157.796 241.611 157.927 240.107 156.815 239.453Z" fill="#2D94C1"/>
<path d="M186.77 269.072C186.77 268.745 186.835 268.353 186.835 268.026C186.901 267.241 186.508 266.783 185.985 266.587C186.116 266.391 186.181 266.13 186.181 265.868C186.181 263.122 186.181 260.441 186.116 257.695C186.116 256.191 186.377 254.687 185.331 253.445C185.135 253.184 184.808 253.053 184.481 252.988C184.285 252.661 184.024 252.399 183.697 252.268C183.566 251.157 183.435 250.045 183.239 248.999C183.304 248.803 183.239 248.541 183.174 248.28C183.043 247.822 182.912 247.299 182.781 246.842C182.455 245.403 182.062 243.965 181.605 242.526C181.212 241.349 180.035 241.153 179.185 241.611C179.12 241.48 179.055 241.415 178.989 241.284C179.578 240.696 179.774 239.78 179.055 238.996C176.962 236.838 174.87 234.746 172.778 232.588C172.386 231.869 171.862 231.15 171.405 230.561C171.274 230.103 170.882 229.777 170.359 229.58C169.639 229.057 168.789 228.796 167.939 229.123C166.566 229.646 165.978 231.084 165.847 232.588C165.52 232.588 165.128 232.784 164.866 233.046C162.513 235.726 160.486 238.603 158.982 241.742C157.413 244.226 156.105 246.842 155.386 249.588C152.378 254.753 151.724 260.899 151.921 266.849C152.117 271.818 151.79 278.683 155.844 282.279C156.563 284.764 157.674 287.052 159.178 289.21C159.767 289.994 161.009 290.387 161.728 289.537C161.793 289.471 161.793 289.471 161.793 289.406C161.99 289.406 162.186 289.341 162.382 289.21C162.513 289.275 162.578 289.341 162.709 289.406C163.232 290.779 164.343 291.825 165.978 292.021C167.22 292.152 168.397 291.564 169.182 290.648C169.77 290.648 170.359 290.452 170.947 290.191C173.039 290.387 175.066 289.275 176.832 287.902C178.205 287.379 179.512 285.941 180.493 284.633C181.539 283.521 182.455 282.279 182.716 280.971C183.174 280.775 183.501 280.448 183.697 279.991C183.762 279.86 183.828 279.664 183.893 279.468C184.22 279.141 184.416 278.683 184.416 278.291C184.416 278.225 184.416 278.225 184.416 278.16C184.743 277.964 185.004 277.637 185.135 277.31C185.854 275.022 186.377 272.668 186.639 270.249C186.704 269.922 186.77 269.529 186.77 269.072Z" fill="#2D94C1"/>
<path d="M209.85 250.765C208.477 249.719 207.104 248.803 205.665 247.888C204.358 245.272 199.912 242.723 198.081 241.873C197.296 241.48 196.446 241.742 195.989 242.33C194.681 241.676 193.373 240.957 192.066 240.303C191.347 239.911 190.693 240.107 190.235 240.5C190.039 240.369 189.777 240.303 189.45 240.303C188.404 240.303 187.489 240.173 186.508 239.976C186.377 239.911 186.312 239.846 186.181 239.78C185.854 239.584 185.527 239.519 185.201 239.584C184.808 239.453 184.416 239.584 184.089 239.78C183.827 239.65 183.566 239.519 183.304 239.388C181.408 238.407 179.904 241.023 181.67 242.199C182.977 243.049 184.285 243.965 185.527 244.815C185.724 244.946 185.92 245.011 186.116 245.076C186.77 245.534 187.489 245.992 188.077 246.449C190.104 247.953 192.066 249.522 194.093 250.961C197.362 253.249 200.958 254.949 205.012 253.838C205.469 253.707 205.731 253.445 205.927 253.184C206.777 253.445 207.692 253.707 208.542 253.903C210.438 254.23 211.223 251.811 209.85 250.765Z" fill="#2D94C1"/>
<path d="M192.327 196.824C192.327 196.758 192.327 196.693 192.327 196.627C192.392 195.778 191.542 194.993 190.692 194.993C189.777 194.993 189.123 195.712 189.057 196.627C189.057 196.889 188.992 197.085 188.992 197.347C188.796 197.739 188.73 198.197 188.861 198.72C188.665 199.308 188.665 199.962 189.057 200.55C189.45 201.204 190.104 201.466 190.692 201.466C191.411 201.597 192.196 201.335 192.457 200.681C192.523 200.55 192.588 200.42 192.588 200.289C192.653 200.158 192.719 200.027 192.784 199.831C193.177 198.851 192.98 197.608 192.327 196.824Z" fill="#80C7E0"/>
<path d="M180.877 130.394C179.896 127.387 177.28 123.922 173.684 124.248C170.023 124.575 168.323 128.433 167.473 131.506C164.792 140.921 167.735 149.552 173.619 157.005C184.342 170.67 204.872 182.178 198.072 202.708C194.149 214.542 183.361 219.512 171.658 220.688C161.262 221.735 148.512 218.662 141.908 210.096C134.978 201.139 135.239 189.305 141.254 180.02C145.831 172.893 152.631 167.597 158.385 161.517C165.185 154.325 170.873 145.629 169.369 135.298C168.846 131.702 167.8 126.21 164.008 124.51C159.889 122.679 156.358 126.668 155.181 130.198C154.527 132.225 157.666 133.075 158.319 131.048C158.712 129.806 159.496 128.237 160.869 127.714C162.569 127.06 163.812 128.106 164.531 129.675C165.642 132.029 166.165 134.841 166.361 137.39C166.754 142.686 164.792 147.459 161.981 151.84C157.666 158.509 151.454 163.609 145.962 169.232C140.731 174.593 135.958 180.739 134.128 188.128C131.97 196.824 134.389 206.239 140.077 213.039C146.289 220.427 155.573 222.977 164.858 223.827C173.684 224.611 183.884 222.977 191.207 217.55C198.138 212.45 202.388 203.95 202.584 195.385C202.78 187.212 199.053 179.889 193.953 173.809C188.396 167.009 181.203 161.582 175.777 154.521C172.704 150.532 170.088 145.759 169.696 140.66C169.5 137.521 169.958 134.252 170.938 131.31C171.461 129.871 171.919 128.564 173.423 127.975C175.58 127.125 177.084 129.414 177.673 131.244C178.392 133.271 181.53 132.421 180.877 130.394Z" fill="black"/>
<path d="M177.354 291.302C188.404 285.483 190.104 270.118 188.6 259.068C186.835 246.515 180.362 234.811 170.489 226.769C169.77 226.181 168.92 226.181 168.2 226.769C155.843 237.034 148.455 253.249 149.697 269.399C150.22 276.199 151.985 283.848 157.085 288.752C162.512 293.917 170.685 294.244 177.354 291.302C179.25 290.452 177.616 287.641 175.719 288.491C168.658 291.629 160.616 289.602 156.693 282.868C153.489 277.441 152.639 270.576 152.835 264.364C153.293 250.699 159.962 237.753 170.489 229.057C169.704 229.057 168.92 229.057 168.2 229.057C176.962 236.184 182.912 246.122 185.069 257.237C187.031 267.437 186.246 282.998 175.785 288.491C173.823 289.471 175.458 292.283 177.354 291.302Z" fill="black"/>
<path d="M210.047 250.307C208.347 245.011 201.809 241.742 196.97 239.78C191.413 237.492 185.397 236.315 179.448 237.165C178.336 237.296 178.009 238.734 178.467 239.584C182.194 246.253 188.732 251.222 195.663 254.23C199.912 256.061 211.028 259.134 210.047 250.699C209.785 248.607 206.516 248.607 206.778 250.699C207.497 256.911 193.897 249.784 192.001 248.607C187.751 245.926 183.828 242.396 181.344 237.884C181.017 238.669 180.69 239.453 180.363 240.303C185.005 239.649 189.778 240.565 194.093 242.134C198.213 243.638 205.405 246.58 206.908 251.157C207.562 253.184 210.701 252.334 210.047 250.307Z" fill="black"/>
<path d="M132.166 251.157C133.67 246.58 140.797 243.638 144.981 242.134C149.362 240.565 154.069 239.649 158.712 240.303C158.385 239.519 158.058 238.734 157.731 237.884C155.246 242.396 151.323 245.926 146.943 248.607C144.981 249.784 131.447 256.845 132.166 250.699C132.428 248.607 129.158 248.607 128.897 250.699C127.916 259.134 139.031 256.061 143.281 254.23C150.212 251.222 156.75 246.253 160.477 239.584C160.935 238.734 160.608 237.361 159.496 237.165C153.546 236.315 147.531 237.492 141.974 239.78C137.201 241.742 130.662 244.945 128.897 250.307C128.374 252.268 131.512 253.184 132.166 251.157Z" fill="black"/>
<path d="M146.624 180.674C144.139 186.297 147.212 192.77 153.424 193.751C159.897 194.797 164.8 189.762 165.454 183.682C165.65 181.589 162.381 181.589 162.185 183.682C161.793 187.408 158.916 190.743 154.993 190.678C150.743 190.612 147.67 186.362 149.435 182.374C150.285 180.412 147.474 178.712 146.624 180.674Z" fill="black"/>
<path d="M185.984 181.263C187.75 185.316 184.742 189.501 180.427 189.566C176.438 189.632 173.627 186.362 173.235 182.57C173.039 180.478 169.769 180.478 169.966 182.57C170.619 188.651 175.523 193.751 181.996 192.639C188.207 191.593 191.28 185.186 188.796 179.563C188.011 177.666 185.2 179.366 185.984 181.263Z" fill="black"/>
<path d="M188.732 192.704C188.666 195.32 186.509 197.87 187.686 200.55C188.47 202.316 190.562 203.231 192.393 202.447C194.159 201.662 194.943 199.7 194.355 197.935C193.635 195.581 191.216 194.47 190.236 192.312C189.843 191.331 188.405 192.181 188.797 193.162C189.647 195.124 194.485 198.197 192.328 200.55C190.955 201.989 189.124 200.747 188.928 199.112C188.862 198.393 189.059 197.674 189.255 197.02C189.647 195.581 190.236 194.339 190.301 192.835C190.432 191.658 188.797 191.658 188.732 192.704Z" fill="black"/>
<path d="M159.504 213.235C164.474 208.135 172.058 207.612 177.55 212.189C179.185 213.562 181.473 211.208 179.839 209.9C172.973 204.146 163.427 204.473 157.151 210.946C155.712 212.45 158.001 214.738 159.504 213.235Z" fill="black"/>
</svg>
