<svg width="251" height="637" viewBox="0 0 251 637" fill="none" xmlns="http://www.w3.org/2000/svg">
<path d="M75.2985 235.924L35.6001 302.277L65.4993 321.492L60.0915 377.585L91.5232 293.17L60.2719 293.871L75.2985 235.924Z" fill="#FFA602" stroke="black" stroke-width="3.19084" stroke-miterlimit="10"/>
<path d="M24.5306 284.82L15.0856 330.956L38.5339 338.388L41.2321 358.719L43.9069 322.811L29.2376 319.47L24.5306 284.82Z" fill="#FED52F" stroke="black" stroke-width="2.39313" stroke-miterlimit="10"/>
<path d="M6.00095 358.839C6.00095 358.839 -3.76302 402.274 49.6836 429.396C103.13 456.518 72.8172 484.438 72.8172 484.438C72.8172 484.438 55.2675 497.202 57.6607 536.289C60.0538 575.377 52.8744 613.667 40.9088 633.61C40.9088 633.61 61.6492 625.633 83.9851 588.141C106.321 550.648 116.691 517.942 136.634 507.572C156.577 497.202 174.924 469.282 174.924 448.541C174.924 427.801 180.508 411.847 198.058 394.297C215.607 376.747 217.011 345.996 217.011 345.996" fill="#E05151"/>
<path d="M6.00095 358.839C6.00095 358.839 -3.76302 402.274 49.6836 429.396C103.13 456.518 72.8172 484.438 72.8172 484.438C72.8172 484.438 55.2675 497.202 57.6607 536.289C60.0538 575.377 52.8744 613.667 40.9088 633.61C40.9088 633.61 61.6492 625.633 83.9851 588.141C106.321 550.648 116.691 517.942 136.634 507.572C156.577 497.202 174.924 469.282 174.924 448.541C174.924 427.801 180.508 411.847 198.058 394.297C215.607 376.747 217.011 345.996 217.011 345.996" stroke="black" stroke-width="3.19084" stroke-miterlimit="10"/>
<path d="M57.4616 531.735C57.4616 531.735 46.4851 516.347 91.9546 481.247C137.424 446.148 103.521 408.879 98.9345 402.785" stroke="#FFA602" stroke-width="3.19084" stroke-miterlimit="10"/>
<path d="M107.709 544.131C107.709 544.131 100.33 525.329 107.709 498.103" stroke="#FFA602" stroke-width="3.19084" stroke-miterlimit="10"/>
<path d="M130.89 511.353C130.89 511.353 119.076 485.236 135.828 446.148" stroke="#FFA602" stroke-width="3.19084" stroke-miterlimit="10"/>
<path d="M126.886 484.622C126.886 484.622 139.019 490.022 143.805 470.079C148.591 450.137 150.506 413.665 171.486 402.785" stroke="#FFA602" stroke-width="3.19084" stroke-miterlimit="10"/>
<path d="M110.267 367.143C168.534 363.6 215.238 351.993 214.583 341.219C213.928 330.446 166.162 324.584 107.895 328.127C49.6278 331.671 2.9242 343.277 3.57938 354.051C4.23457 364.825 52.0004 370.686 110.267 367.143Z" fill="#FF6462" stroke="black" stroke-width="3.19084" stroke-miterlimit="10"/>
<path d="M246.424 128.59L204.9 165.149L212.018 189.555L184.271 231.967L225.878 194.615L226.432 164.419L246.424 128.59Z" fill="#FED52F" stroke="black" stroke-width="2.39313" stroke-miterlimit="10"/>
<path d="M73.9886 142.029L64.5436 188.166L87.992 195.598L90.6901 215.929L93.3649 180.021L78.6956 176.68L73.9886 142.029Z" fill="#FED52F" stroke="black" stroke-width="2.39313" stroke-miterlimit="10"/>
<path d="M155.069 10.9696L115.371 77.3228L145.27 96.5379L139.863 152.631L171.294 68.2156L140.043 68.9168L155.069 10.9696Z" fill="#FFA602" stroke="black" stroke-width="3.19084" stroke-miterlimit="10"/>
<path d="M163.947 249.549C164.142 249.094 164.207 248.64 163.947 248.055C163.687 247.275 163.362 246.496 163.037 245.716C163.037 245.131 162.972 244.547 162.972 243.897C162.907 242.598 162.128 241.883 161.218 241.753C160.309 239.934 159.204 238.18 158.1 236.491C156.606 234.022 154.981 231.683 153.162 229.344C152.513 228.5 151.343 228.5 150.499 229.019C148.095 225.901 145.561 222.912 142.898 219.989C142.443 219.469 141.858 219.339 141.273 219.339C141.273 219.339 141.273 219.339 141.208 219.274C140.884 218.884 140.494 218.69 140.169 218.56C139.064 216.286 137.96 213.947 136.856 211.673C136.531 211.023 136.011 210.699 135.426 210.634C135.556 209.919 135.556 209.139 135.426 208.295C135.101 205.436 130.554 205.371 130.879 208.295C130.879 208.555 130.944 208.815 130.944 209.074C130.749 209.204 130.554 209.269 130.359 209.464C129.579 209.529 128.8 210.049 128.41 211.023C127.825 212.583 127.11 213.947 126.266 215.246C124.772 216.416 123.602 217.78 122.628 219.469C122.498 219.664 122.433 219.924 122.368 220.119C122.173 220.379 121.978 220.574 121.783 220.834C121.133 221.353 120.549 221.873 120.029 222.458C116.716 224.667 113.532 227.07 110.544 229.799C110.219 230.059 110.024 230.384 109.959 230.709C108.985 231.683 108.14 232.852 107.425 233.827C107.425 233.827 107.425 233.892 107.36 233.892C104.827 236.426 103.332 239.479 102.813 242.987C102.683 243.312 102.553 243.572 102.423 243.897C101.059 245.326 100.604 247.535 100.474 249.744C100.279 250.394 100.149 251.108 99.9541 251.758C99.7592 252.538 100.019 253.317 100.474 253.837C100.409 256.371 100.604 258.774 100.799 260.009C101.189 262.543 101.903 267.025 104.372 268.52C104.502 268.584 104.632 268.649 104.762 268.714C104.892 269.234 105.216 269.624 105.866 269.949C107.555 270.728 108.335 272.547 109.764 273.717C111.129 274.756 112.688 275.276 114.312 275.666C114.637 275.731 114.962 275.796 115.286 275.861C115.546 276.056 115.806 276.251 116.131 276.51C116.716 276.9 117.365 276.965 117.885 276.77C120.094 278.46 123.018 278.849 126.006 278.849C130.229 280.084 134.777 280.084 139.064 278.979C140.234 279.629 141.533 279.044 142.053 278.005C143.092 277.615 144.067 277.095 145.041 276.575C148.485 275.406 151.798 273.847 153.617 270.988C154.332 272.418 156.671 272.937 157.645 271.183L162.193 262.997C162.583 262.283 162.518 261.503 162.193 260.853C162.258 260.334 162.388 259.814 162.453 259.294C162.907 258.19 163.297 257.02 163.622 255.851C163.817 255.136 163.622 254.552 163.297 254.032C163.362 253.512 163.492 252.992 163.557 252.473C163.687 251.823 163.557 251.238 163.297 250.783C163.622 250.394 163.882 250.004 163.947 249.549Z" fill="#FED530"/>
<path d="M167.52 303.407C166.546 302.952 165.571 302.887 164.727 303.212C162.843 301.393 159.789 300.029 158.035 298.859C155.696 297.3 152.318 294.377 149.33 296.066C148.875 296.326 148.485 296.65 148.225 297.04C147.186 296.845 146.146 297.04 145.237 297.95C144.782 298.405 144.457 298.859 144.327 299.249C144.132 298.664 144.002 298.145 143.807 297.56C143.353 296.131 141.728 295.676 140.624 296.131C139.974 294.636 139.26 293.207 138.61 291.713C138.35 291.193 137.96 290.868 137.57 290.673C137.376 290.284 137.246 289.959 137.051 289.569C136.661 288.724 135.946 288.4 135.167 288.465C134.582 287.36 133.153 286.71 131.983 287.62C131.464 287.62 130.944 287.815 130.489 288.205C130.164 288.465 129.839 288.789 129.515 289.049C127.436 289.569 126.526 291.128 126.266 292.947C124.577 294.117 123.083 295.546 121.848 297.105C121.524 295.871 120.224 295.481 119.12 295.611C115.612 296.131 109.764 297.625 106.451 300.548C106.256 300.678 106.061 300.743 105.931 300.873C104.502 301.068 103.073 301.653 102.098 302.173C101.449 302.497 100.474 303.082 99.4347 303.797C96.901 305.356 94.6921 307.63 95.4067 310.099C96.4462 313.477 100.344 312.113 103.398 310.618C105.152 310.164 106.776 309.384 108.075 308.215C109.245 307.63 110.349 306.98 111.389 306.266C113.663 305.486 115.936 304.576 118.08 303.537C117.626 304.901 117.431 306.201 117.755 307.435C117.885 308.02 118.145 308.474 118.405 308.864C118.145 309.904 117.95 310.943 117.82 311.918C117.106 316.465 116.911 321.078 117.366 325.626C117.301 325.756 117.301 325.886 117.236 326.016C116.391 329.849 116.586 333.747 118.015 337.385C119.185 340.308 121.589 344.401 124.707 345.506C125.097 345.636 125.487 345.701 125.876 345.766C126.526 346.22 127.306 346.285 127.955 345.961C128.215 346.155 128.475 346.285 128.8 346.415C128.995 346.675 129.255 346.87 129.515 347.065C129.969 348.04 131.074 348.494 132.113 348.234C133.543 348.559 135.102 348.364 136.466 347.78C137.376 348.949 139.39 348.624 140.169 347.39C140.689 346.61 141.144 345.831 141.533 345.051C142.118 344.921 142.638 344.596 142.963 344.077C143.872 342.712 144.717 341.283 145.367 339.789C145.821 339.139 146.276 338.424 146.731 337.71C147.835 337.71 148.94 336.865 149.07 335.501C149.2 334.072 149.33 332.577 149.395 331.148C149.914 329.069 150.239 326.925 150.304 324.716C150.304 324.132 150.109 323.677 149.849 323.352C149.784 323.092 149.719 322.767 149.719 322.507C149.719 321.988 149.719 321.468 149.719 320.948C150.109 317.765 150.109 314.581 149.849 311.333C149.719 310.034 148.745 309.254 147.77 309.189C147.835 308.409 147.9 307.565 147.9 306.785C147.965 305.551 147.251 304.836 146.341 304.641C146.276 304.446 146.276 304.252 146.211 304.057C146.081 303.407 145.756 302.952 145.367 302.692C145.367 302.627 145.302 302.562 145.302 302.497C147.316 304.576 151.409 306.136 153.617 306.85C156.021 307.955 158.62 308.604 161.349 308.994C162.713 309.644 164.077 310.164 165.571 310.553C166.936 311.073 168.625 311.073 170.054 310.359C170.574 310.164 170.834 309.774 171.029 309.319C172.978 307.305 169.664 304.446 167.52 303.407ZM133.023 325.366C133.023 324.262 133.023 323.222 133.088 322.118C133.153 322.702 133.218 323.287 133.283 323.872C133.153 324.391 133.088 324.911 133.023 325.366Z" fill="#FED530"/>
<path d="M164.727 256.955C164.792 255.851 164.662 254.617 164.402 253.317C164.532 252.992 164.597 252.603 164.532 252.213C164.077 250.199 163.492 248.315 162.843 246.366C162.973 245.976 162.908 245.586 162.713 245.131C162.518 244.742 162.258 244.352 162.063 243.962C162.193 243.572 162.193 243.117 161.868 242.663C161.608 242.273 161.283 241.818 160.894 241.493C160.634 240.909 160.374 240.389 160.114 239.804C159.919 239.349 159.594 239.154 159.204 239.024C159.01 238.635 158.75 238.245 158.555 237.855C158.62 237.465 158.49 237.01 158.1 236.621C157.385 235.776 156.606 234.996 155.891 234.152C154.462 232.008 152.903 229.994 151.149 228.11C150.759 227.72 150.369 227.59 149.914 227.655C149.719 227.395 149.524 227.2 149.264 226.941C149.394 226.291 149.199 225.576 148.615 225.186C145.951 223.367 143.287 221.483 141.144 219.144C140.494 218.3 139.779 217.455 139.13 216.611C138.935 216.351 138.74 216.221 138.48 216.091C138.415 215.961 138.415 215.766 138.285 215.636C137.57 214.532 136.986 213.427 136.336 212.258C136.206 211.998 136.141 211.738 136.011 211.478C136.531 210.634 135.946 209.464 135.102 209.075C134.777 208.1 134.517 207.19 134.257 206.151C133.802 204.397 131.593 204.787 131.139 206.151C130.424 206.086 129.709 206.476 129.579 207.32C129.384 208.295 129.255 209.269 129.06 210.179C128.93 210.309 128.865 210.439 128.735 210.569C127.89 212.063 127.176 213.622 126.656 215.246C121.848 217.91 117.82 221.613 114.702 226.291C114.637 226.421 114.572 226.551 114.507 226.681C111.129 228.89 108.335 231.813 106.256 235.321C105.801 235.386 105.412 235.646 105.152 236.036C101.903 241.363 100.019 247.21 99.4995 253.512C99.4345 254.097 99.7594 254.617 100.214 254.876C100.149 256.306 100.279 257.67 100.669 259.034C100.669 259.099 100.669 259.164 100.669 259.229C101.124 262.932 101.708 266.636 104.437 269.299C104.567 269.624 104.697 270.014 104.827 270.339C105.282 271.508 106.581 271.963 107.555 271.053C107.88 270.729 108.14 270.404 108.4 270.079C108.66 270.144 108.92 270.079 109.18 270.014C109.245 270.144 109.31 270.209 109.375 270.339C109.375 271.118 109.634 271.898 110.024 272.548C110.804 273.717 112.038 274.107 113.273 274.367C113.792 274.886 114.377 275.406 114.962 275.861C114.962 276.121 115.092 276.381 115.157 276.641C116.196 278.849 120.484 279.304 122.498 279.629C124.707 279.954 126.916 280.019 129.125 279.824C135.946 280.084 144.262 279.954 150.044 275.861C150.109 275.796 150.174 275.731 150.239 275.731C150.694 275.471 151.084 275.146 151.473 274.821C153.162 274.107 154.917 273.132 155.696 271.703C155.761 271.703 155.891 271.638 155.956 271.573C160.894 268.715 163.362 263.582 164.792 258.255C165.052 257.735 164.987 257.28 164.727 256.955ZM126.981 260.464C126.916 262.023 126.916 263.647 126.916 265.206C126.721 265.141 126.591 265.076 126.396 265.011C126.396 265.011 126.396 265.011 126.396 264.946C126.591 263.452 126.786 261.958 126.981 260.464ZM122.108 263.062C122.108 262.867 122.173 262.673 122.173 262.478C122.303 262.738 122.498 262.932 122.693 263.062C122.758 263.517 122.823 263.907 122.953 264.362C122.498 264.362 121.978 264.362 121.523 264.427C121.653 264.232 121.783 264.037 121.848 263.777C122.043 263.582 122.108 263.322 122.108 263.062Z" fill="#FF6462"/>
<path d="M148.939 334.461C149.979 330.758 150.434 326.925 150.498 323.027C150.498 322.897 150.498 322.767 150.434 322.572C150.498 322.377 150.498 322.118 150.498 321.858C150.109 319.129 149.914 316.335 149.784 313.542C149.849 313.412 149.914 313.347 149.914 313.217C150.304 311.723 150.174 310.683 149.459 309.319C149.264 308.929 149.004 308.734 148.614 308.604C148.614 308.344 148.549 308.02 148.355 307.76C147.705 306.85 147.12 305.941 146.535 305.031C146.535 304.771 146.471 304.511 146.341 304.252C145.496 302.562 144.586 300.808 143.742 299.119C143.417 298.404 143.027 297.69 142.637 296.975C142.572 296.845 142.508 296.78 142.508 296.65C142.443 296.52 142.378 296.455 142.313 296.326C141.208 294.506 139.909 292.947 138.285 291.453C137.895 291.063 137.44 290.933 137.05 290.998C136.66 290.478 136.206 289.959 135.686 289.504C135.556 289.244 135.426 288.984 135.296 288.659C134.906 287.88 134.192 287.75 133.542 287.945C132.503 287.75 131.528 288.594 131.658 289.829C131.528 290.024 131.333 290.284 131.203 290.478C130.943 290.413 130.618 290.349 130.359 290.478C126.201 291.908 124.706 296.066 123.277 299.834C122.887 300.808 122.563 301.783 122.238 302.757C121.718 302.887 121.263 303.212 121.068 303.862C120.484 303.862 119.899 304.187 119.704 305.031C119.184 306.85 118.794 308.669 118.47 310.488C117.885 310.813 117.365 311.463 116.91 312.372C114.701 316.66 114.637 322.832 114.637 327.575C114.637 330.109 113.792 338.099 117.885 338.099C118.015 338.099 118.08 338.099 118.21 338.035C118.405 338.879 118.6 339.724 118.859 340.568C119.119 341.478 120.224 341.998 121.068 341.608C121.328 342.582 121.653 343.622 121.978 344.596C122.303 345.636 123.537 346.025 124.382 345.571C124.577 345.896 124.966 346.155 125.356 346.285C125.876 347 126.396 347.715 126.98 348.429C127.565 349.144 128.669 348.949 129.254 348.429C129.319 348.364 129.384 348.364 129.384 348.299L129.449 348.364C130.489 349.339 132.113 348.624 132.243 347.26C132.308 347.26 132.438 347.26 132.503 347.26C133.022 347.26 133.542 347.195 133.932 347C134.322 347.52 134.776 347.975 135.231 348.429C136.011 349.144 137.18 349.014 137.765 348.104C138.025 347.78 138.22 347.39 138.35 347C138.739 346.87 139.064 346.675 139.389 346.415C139.714 346.48 140.169 346.415 140.623 346.285C141.598 345.961 142.443 345.051 143.222 343.882C143.677 344.012 144.197 343.882 144.586 343.362C144.651 343.232 144.781 343.167 144.846 343.037C145.496 342.192 146.081 341.283 146.535 340.373C147.965 339.009 148.42 336.28 148.939 334.461ZM130.943 300.548C131.138 299.379 131.398 298.21 131.788 297.04C131.593 298.275 131.333 299.444 130.943 300.548Z" fill="#FF6462"/>
<path d="M121.394 296.715C119.77 295.741 117.691 296.456 115.871 297.365C115.677 297.235 115.417 297.17 115.092 297.235C113.598 297.43 107.101 299.379 103.528 301.653C99.8246 302.692 94.2374 305.876 95.2119 309.514C95.2769 309.774 95.4718 310.034 95.6667 310.294C96.1214 311.853 97.9405 311.788 99.8895 311.138C100.669 311.138 101.579 310.943 102.488 310.618C102.618 310.618 102.683 310.553 102.813 310.553C104.502 310.294 106.451 309.449 108.075 308.28C108.725 308.28 109.375 307.89 109.635 307.305C112.558 306.266 115.222 304.901 117.756 303.147C117.95 303.017 118.08 302.822 118.21 302.692C119.77 301.783 121.199 300.678 122.563 299.444C123.862 298.275 122.693 296.78 121.394 296.715Z" fill="#FF6462"/>
<path d="M170.834 306.071C170.249 305.746 169.599 305.616 168.95 305.616C168.885 305.161 168.69 304.706 168.365 304.317C166.741 302.238 158.62 296.001 155.566 298.275C154.462 297.95 153.293 297.625 152.188 297.365C151.993 297.17 151.798 297.04 151.538 296.91C151.474 296.91 151.344 296.845 151.279 296.845C150.954 296.52 150.629 296.196 150.304 295.871C149.46 295.026 147.835 295.416 147.575 296.585C147.575 296.65 147.575 296.65 147.575 296.715C147.186 296.65 146.796 296.65 146.406 296.65C144.977 296.65 144.262 298.405 145.237 299.444C146.211 300.419 147.511 301.068 148.875 301.653C149.979 302.952 151.538 303.992 153.293 304.836C153.682 305.746 154.397 306.59 155.047 307.11C155.956 307.89 156.996 308.474 158.165 308.929C161.478 311.203 165.571 312.957 169.21 312.243C169.729 312.113 170.249 311.593 170.314 311.138C170.379 310.943 170.379 310.748 170.379 310.488C170.444 310.488 170.574 310.488 170.639 310.488C171.483 310.424 172.068 309.904 172.198 309.124C172.393 308.864 172.588 308.539 172.718 308.15C173.173 306.72 171.938 305.876 170.834 306.071Z" fill="#FF6462"/>
<path d="M145.042 188.61C144.068 185.621 141.469 182.178 137.896 182.503C134.257 182.828 132.568 186.661 131.724 189.714C129.06 199.069 131.984 207.645 137.831 215.051C148.485 228.63 168.885 240.064 162.128 260.464C158.23 272.223 147.511 277.16 135.882 278.33C125.552 279.369 112.883 276.316 106.322 267.805C99.435 258.904 99.6949 247.145 105.672 237.92C110.22 230.838 116.976 225.576 122.693 219.534C129.45 212.388 135.102 203.747 133.608 193.482C133.088 189.909 132.049 184.452 128.28 182.763C124.188 180.944 120.679 184.907 119.51 188.415C118.86 190.429 121.979 191.273 122.628 189.259C123.018 188.025 123.798 186.466 125.162 185.946C126.851 185.296 128.086 186.336 128.8 187.895C129.905 190.234 130.424 193.028 130.619 195.561C131.009 200.824 129.06 205.566 126.266 209.919C121.979 216.546 115.807 221.613 110.35 227.2C105.152 232.528 100.41 238.635 98.5904 245.976C96.4465 254.617 98.8503 263.972 104.502 270.728C110.674 278.07 119.9 280.603 129.125 281.448C137.896 282.228 148.031 280.603 155.307 275.211C162.193 270.144 166.416 261.698 166.611 253.187C166.806 245.066 163.103 237.79 158.036 231.748C152.513 224.991 145.367 219.599 139.975 212.583C136.921 208.62 134.322 203.877 133.933 198.81C133.738 195.691 134.193 192.443 135.167 189.519C135.687 188.09 136.142 186.791 137.636 186.206C139.78 185.361 141.274 187.635 141.859 189.454C142.573 191.468 145.692 190.624 145.042 188.61Z" fill="black"/>
<path d="M141.533 348.494C152.512 342.712 154.201 327.445 152.707 316.465C150.953 303.992 144.521 292.363 134.711 284.372C133.997 283.787 133.152 283.787 132.437 284.372C120.159 294.572 112.817 310.683 114.052 326.73C114.571 333.487 116.325 341.088 121.393 345.961C126.785 351.093 134.906 351.418 141.533 348.494C143.417 347.65 141.793 344.856 139.909 345.701C132.892 348.819 124.901 346.805 121.003 340.114C117.82 334.721 116.975 327.9 117.17 321.728C117.625 308.15 124.252 295.286 134.711 286.645C133.932 286.645 133.152 286.645 132.437 286.645C141.143 293.727 147.055 303.602 149.199 314.646C151.148 324.781 150.368 340.244 139.974 345.701C138.025 346.675 139.649 349.469 141.533 348.494Z" fill="black"/>
<path d="M174.018 307.76C172.328 302.498 165.832 299.249 161.024 297.3C155.502 295.026 149.525 293.857 143.613 294.701C142.508 294.831 142.184 296.261 142.638 297.105C146.342 303.732 152.838 308.669 159.725 311.658C163.948 313.477 174.992 316.53 174.018 308.15C173.758 306.071 170.509 306.071 170.769 308.15C171.484 314.322 157.971 307.24 156.087 306.071C151.864 303.407 147.966 299.899 145.497 295.416C145.172 296.196 144.847 296.975 144.522 297.82C149.135 297.17 153.878 298.08 158.166 299.639C162.259 301.133 169.405 304.057 170.899 308.604C171.549 310.618 174.667 309.774 174.018 307.76Z" fill="black"/>
<path d="M96.641 308.604C98.1352 304.057 105.217 301.133 109.375 299.639C113.727 298.08 118.405 297.17 123.018 297.82C122.693 297.04 122.368 296.261 122.043 295.416C119.574 299.899 115.676 303.407 111.324 306.071C109.375 307.24 95.9263 314.257 96.641 308.15C96.9008 306.071 93.6525 306.071 93.3926 308.15C92.4181 316.53 103.463 313.477 107.685 311.658C114.572 308.669 121.069 303.732 124.772 297.105C125.227 296.261 124.902 294.896 123.797 294.701C117.885 293.857 111.908 295.026 106.386 297.3C101.643 299.249 95.1467 302.433 93.3926 307.76C92.8729 309.709 95.9913 310.618 96.641 308.604Z" fill="black"/>
<path d="M114.963 236.491C116.327 237.205 117.626 237.985 118.796 238.894C119.381 239.349 119.965 239.804 120.55 240.324C120.81 240.584 121.07 240.779 121.33 241.038C121.979 241.623 121.719 241.818 121.914 240.844C122.434 240.454 122.954 240.064 123.473 239.674C123.408 239.674 123.408 239.674 123.344 239.674C121.265 239.414 121.265 242.663 123.344 242.922C123.408 242.922 123.408 242.922 123.473 242.922C124.123 242.987 124.903 242.338 125.033 241.753C125.487 239.804 123.344 238.44 121.979 237.335C120.29 235.906 118.471 234.737 116.522 233.632C114.703 232.723 113.079 235.516 114.963 236.491Z" fill="black"/>
<path d="M147.12 233.697C145.171 234.737 143.352 235.971 141.663 237.4C140.363 238.505 138.219 239.869 138.609 241.818C138.739 242.468 139.519 243.117 140.168 242.988C140.233 242.988 140.233 242.988 140.298 242.988C142.377 242.728 142.377 239.479 140.298 239.739C140.233 239.739 140.233 239.739 140.168 239.739C140.688 240.129 141.208 240.519 141.728 240.909C141.858 241.623 141.468 241.688 142.117 241.298C142.377 241.103 142.637 240.779 142.897 240.584C143.547 239.999 144.196 239.479 144.846 238.96C146.08 238.05 147.38 237.27 148.679 236.556C150.628 235.516 149.004 232.723 147.12 233.697Z" fill="black"/>
<path d="M142.573 251.888C143.938 250.134 145.757 247.73 148.226 249.094C149.72 249.939 151.084 251.563 152.383 252.667C153.943 254.032 156.216 251.758 154.657 250.394C152.513 248.51 150.11 245.456 146.991 245.391C143.743 245.326 141.534 247.86 139.78 250.264C138.48 251.953 141.274 253.577 142.573 251.888Z" fill="black"/>
<path d="M127.241 251.173C125.422 248.77 123.278 246.236 120.029 246.301C116.911 246.366 114.507 249.419 112.363 251.303C110.804 252.668 113.078 255.006 114.637 253.577C115.936 252.408 117.301 250.848 118.795 250.004C121.264 248.64 123.148 251.043 124.447 252.798C125.681 254.487 128.475 252.862 127.241 251.173Z" fill="black"/>
<path d="M119.445 266.895C125.552 263.582 133.413 264.037 137.571 270.144C138.74 271.898 141.534 270.274 140.364 268.519C135.232 260.853 125.552 259.879 117.821 264.102C115.937 265.076 117.626 267.87 119.445 266.895Z" fill="black"/>
</svg>
