<svg width="137" height="89" viewBox="0 0 137 89" fill="none" xmlns="http://www.w3.org/2000/svg">
<path d="M58.6157 62.9748C53.4447 67.2501 52.5049 75.5504 51.8171 81.2842C47.4619 78.1418 43.4388 74.8149 39.4196 71.4253C36.6121 67.0999 37.324 66.211 36.4202 62.0359C37.068 60.1048 37.232 57.8983 37.8199 55.8545C38.4678 53.6136 39.6035 51.454 40.2194 49.2037C46.2022 53.8702 52.3889 58.5055 58.6157 62.9748Z" fill="#FED52F"/>
<path d="M42.6189 49.9611C41.875 52.1864 40.6153 54.3053 39.8434 56.5212C39.1396 58.5399 38.8516 60.7402 38.0918 62.6462C35.6323 68.8307 35.6963 66.6649 32.5049 62.3708C25.5143 46.8438 26.786 39.2572 2.74289 36.8128C2.02704 36.1931 1.2032 35.6016 0.443354 35.01C-0.0205522 33.5484 0.0834287 33.2636 0.0234408 31.8615C-0.228508 26.2059 1.54313 17.8524 5.69829 13.1077C9.31357 18.541 13.7887 23.6989 18.6277 28.5188C22.6629 32.5406 37.5039 45.595 42.6189 49.958V49.9611Z" fill="#E14543"/>
<path d="M38.0878 62.6462C38.7516 66.8495 37.9918 67.7134 40.5473 72.1295C33.2048 65.3504 26.4301 58.205 19.1156 51.4071C13.3368 46.7687 8.26578 41.6171 2.73889 36.8128C26.782 39.2572 25.5103 46.8407 32.5009 62.3708C35.6923 66.6649 35.6283 68.8276 38.0878 62.6462Z" fill="#E14543"/>
<path d="M136.196 54.9938C136.32 55.1097 136.4 55.2974 136.596 55.3851C136.512 55.7074 132.293 57.1252 131.597 57.3412C131.421 57.3975 130.997 57.2223 130.997 57.4977C123.578 59.4163 74.4563 73.0559 71.313 73.1467C70.3732 73.1749 69.1454 72.6585 68.9135 72.6772C68.4016 72.7211 62.8867 75.8916 62.2148 78.6239C61.259 82.4923 64.0304 86.6894 69.1134 86.2919C72.1248 86.0572 94.9402 79.0307 99.9072 77.3719C110.881 74.6584 121.723 71.5255 132.401 68.139C133.38 66.8871 136.452 69.4504 136.2 68.2173C136.156 68.0044 132.153 66.0796 131.601 65.7917C131.597 65.7385 131.605 65.6884 131.601 65.6352C132.169 65.5382 137.032 68.2204 137 68.5303C136.992 68.6148 136.464 68.837 136.4 69.078C135.376 69.3346 134.696 69.8323 134.6 69.8604C131.477 70.8119 121.523 73.5066 119.603 74.3986C107.072 77.8936 94.5416 81.3885 82.0108 84.8835C76.204 85.9758 70.6891 88.1322 64.8143 88.9522C63.6745 89.0931 61.375 88.2574 60.6151 87.7003C55.7241 84.1323 56.8559 72.5583 66.6139 68.6085C68.3896 69.7164 70.3732 71.3659 71.5129 71.4253L126.298 56.8717C130.149 55.1942 134.064 55.6198 132.597 53.116C132.821 53.2881 135.932 54.7435 136.196 54.9938Z" fill="#3699A5"/>
<path d="M131.597 57.3412C131.773 60.0422 131.361 62.9623 131.597 65.6352C131.601 65.6884 131.593 65.7385 131.597 65.7917C131.717 66.909 131.749 67.0311 132.397 68.139C121.719 71.5255 110.881 74.6584 99.9034 77.372C94.9364 79.0276 72.121 86.0572 69.1096 86.2919C64.0306 86.6894 61.2591 82.4955 62.2109 78.6239C64.3545 79.422 62.8388 77.7413 65.5103 77.059C66.5061 76.8055 75.5123 75.7664 78.7076 75.1811C90.2973 73.056 101.863 70.2391 112.901 66.7306C116.68 65.5288 120.219 64.014 123.899 62.6619C127.762 61.241 130.629 61.9765 130.997 57.4977C130.997 57.2223 131.421 57.3976 131.597 57.3412Z" fill="#FBE6C3"/>
<path d="M130.997 57.4977C130.629 61.9764 127.762 61.2409 123.899 62.6619C120.219 64.0139 116.68 65.5288 112.901 66.7306C101.863 70.2391 90.3013 73.0559 78.7076 75.1811C75.5123 75.7663 66.5061 76.8054 65.5103 77.059C62.8388 77.7413 64.3545 79.422 62.2109 78.6239C62.8828 75.8915 68.3937 72.721 68.9096 72.6772C69.1415 72.6585 70.3693 73.1749 71.3091 73.1467C74.4565 73.0559 123.579 59.4163 130.993 57.4977H130.997Z" fill="#CCA17B"/>
<path d="M59.8153 63.6008C61.443 64.7588 62.3428 65.6696 64.6144 67.2001C65.2982 67.6602 65.9101 68.1672 66.614 68.6085C56.8559 72.5583 55.7242 84.1323 60.6152 87.7003C56.8239 86.5579 54.1645 84.0635 51.8169 81.5972C51.8289 81.4939 51.8049 81.3875 51.8169 81.2842C52.5048 75.5535 53.4446 67.2502 58.6156 62.9749C59.5954 63.6791 59.7633 63.5633 59.8153 63.6008Z" fill="#F4D038"/>
<path d="M132.397 68.139C131.749 67.031 131.717 66.909 131.597 65.7916C132.149 66.0796 136.152 68.0044 136.196 68.2172C136.448 69.4504 133.376 66.8871 132.397 68.139Z" fill="#3699A5"/>
<path d="M136.612 52.587C134.54 53.4915 128.638 55.1158 127.494 55.8138C124.146 56.8466 112.977 59.8074 111.441 60.4803C111.077 60.64 110.981 61.3379 110.585 61.5664C110.093 61.3661 109.321 61.2346 108.81 61.3223C106.194 61.7636 89.6454 65.6977 88.2657 66.3988C87.4219 66.6805 88.1177 66.9309 87.9298 67.1312C87.8778 67.1844 87.7658 67.4348 87.7098 67.4942C86.4421 66.3112 84.7144 68.02 82.8188 67.8886C76.844 58.3583 67.5019 51.2975 59.8274 43.0598C49.1896 31.6392 40.4073 18.494 27.9178 8.64452C44.4945 6.98572 59.4395 6.04991 75.1843 0C86.2061 8.61948 96.1201 18.3438 106.678 27.4359C111.477 31.298 133.489 48.3523 135.512 50.7873C136.044 51.4289 136.344 51.7889 136.608 52.5901L136.612 52.587Z" fill="#FFA602"/>
<path d="M18.3477 9.25484C18.3437 9.38003 18.3797 9.59286 18.2277 9.62103C16.876 9.89332 10.9852 10.2219 10.4293 10.4755L10.4933 11.1265C22.8908 26.3592 37.3999 39.9269 50.6612 54.4586C52.7488 56.7465 65.1063 72.1264 66.27 72.5364C67.1019 72.8306 68.6176 71.8384 68.3536 72.6052C65.1063 73.372 61.7589 73.9761 58.6716 75.2562C58.6196 75.2092 58.4476 75.3407 57.5198 74.4737C51.633 68.9684 45.7942 63.2721 40.1593 57.5446C35.1123 52.4117 20.4713 37.0569 16.4921 32.3215C11.725 26.644 7.31792 20.566 3.77063 14.153C5.64225 11.6085 6.47009 11.1202 9.53747 10.4442C11.709 9.9653 15.9122 9.51148 18.3477 9.25171V9.25484Z" fill="#5FB9CB"/>
<path d="M27.9178 8.64447C40.4033 18.4971 49.1895 31.6391 59.8274 43.0598C67.5018 51.2974 76.8479 58.3583 82.8187 67.8885C84.7144 68.02 86.442 66.3111 87.7097 67.4942C86.7659 68.5708 71.0411 71.9761 68.3536 72.6083C68.6176 71.8383 67.1019 72.8336 66.2701 72.5394C65.1023 72.1294 52.7488 56.7464 50.6612 54.4617C37.3999 39.9331 22.8908 26.3623 10.4933 11.1295L10.4293 10.4785C10.9812 10.225 16.872 9.89326 18.2277 9.6241C18.3797 9.5928 18.3437 9.38311 18.3477 9.25791C21.5191 8.9199 24.7664 8.96371 27.9178 8.6476V8.64447Z" fill="#5FB9CB"/>
<path d="M136.612 52.587C137.188 54.3397 136.024 54.2083 131.261 55.9391C126.63 57.6198 121.855 58.9468 117.112 60.2989C117.328 59.4695 127.75 57.2598 127.434 56.8342C127.19 56.5056 125.842 56.8185 127.49 55.8139C128.633 55.1159 134.536 53.4915 136.608 52.587H136.612Z" fill="#3699A5"/>
<path d="M127.494 55.8138C125.846 56.8185 127.194 56.5055 127.438 56.8342C127.754 57.2598 117.328 59.4695 117.116 60.2989C114.968 60.9123 112.377 61.2034 110.381 61.748C104.25 63.4099 98.2516 65.5381 92.0168 66.8965C89.8612 67.366 87.9856 67.9043 87.9296 67.1312C88.1176 66.9309 87.4217 66.6837 88.2656 66.3988C89.6453 65.7009 106.194 61.7636 108.809 61.3223C109.317 61.2378 110.093 61.3661 110.585 61.5664C110.981 61.3379 111.077 60.64 111.441 60.4804C112.977 59.8075 124.142 56.8467 127.494 55.8138Z" fill="#3699A5"/>
</svg>
