<svg width="194" height="43" viewBox="0 0 194 43" fill="none" xmlns="http://www.w3.org/2000/svg">
<path d="M0 14.7016C0 12.9022 0.49306 11.373 1.48273 10.1106C2.47239 8.85167 3.82387 7.81683 5.54426 7.00957C7.2611 6.20231 9.26172 5.61553 11.5497 5.24568C13.834 4.87584 16.2816 4.69092 18.8888 4.69092C20.1303 4.69092 21.3435 4.70159 22.5247 4.72648C23.7059 4.75138 24.7842 4.78338 25.7562 4.82962C26.7316 4.87585 27.5688 4.92918 28.2747 4.98964C28.9806 5.05009 29.4949 5.12122 29.8141 5.1959C30.1228 5.27414 30.3675 5.35593 30.552 5.44839C30.7364 5.54085 30.8748 5.64754 30.967 5.77201C31.0592 5.89647 31.1195 6.03872 31.1514 6.19874C31.1834 6.35877 31.1975 6.54726 31.1975 6.76419C31.1975 6.94911 31.1763 7.15182 31.1302 7.37586C31.084 7.5999 31.0166 7.80616 30.9244 7.99819C30.8322 8.19023 30.7187 8.35737 30.5803 8.49606C30.442 8.63475 30.2717 8.70231 30.0731 8.70231C29.9489 8.70231 29.8177 8.64898 29.6687 8.54229C29.5233 8.43561 29.3175 8.29691 29.048 8.12621C28.7784 7.95551 28.4201 7.78126 27.9661 7.59634C27.512 7.41142 26.909 7.2336 26.1499 7.06646C25.3908 6.89576 24.4472 6.75708 23.3192 6.65039C22.1912 6.5437 20.8291 6.49036 19.2364 6.49036C19.2896 6.49036 19.2364 11.9456 19.2329 12.2976C19.2116 14.851 19.1761 17.4043 19.1548 19.9577C19.1513 20.3987 19.2151 20.9392 19.6763 21.1419C19.8927 21.2379 20.1339 21.2593 20.3715 21.2735C23.0284 21.4335 25.9229 21.1988 28.4095 20.2066C28.8777 20.0182 29.392 19.8012 29.8744 19.9577C31.0557 20.3418 31.1479 22.1163 30.5768 23.0054C29.9028 24.0509 28.5762 24.1576 27.4446 24.09C25.5646 23.9762 23.674 23.77 21.801 23.5459C21.1696 23.4712 19.389 22.8453 19.2329 23.7095C19.1797 24.0118 19.2329 24.371 19.2329 24.6768V30.6014V32.3226C19.2329 33.0445 19.3393 33.6633 19.5557 34.179C20.3041 35.9713 22.287 36.5652 24.0783 36.5474C26.1357 36.5261 27.8703 35.7472 29.6332 34.7693C30.1511 34.4812 30.669 34.1932 31.1869 33.9051C31.6055 33.674 32.0808 33.5282 32.4533 33.9443C32.6732 34.1896 32.7441 34.5488 32.6874 34.8724C32.5987 35.3774 32.2333 35.7864 31.8751 36.1278C29.8674 38.0339 27.1467 39.0367 24.4366 39.3959C21.6166 39.7693 18.5908 39.7337 15.9056 38.6882C15.6963 38.6064 15.4906 38.5175 15.2884 38.4251C14.6073 38.1086 14.0008 37.6925 13.4722 37.1697C12.9437 36.647 12.5145 36.0068 12.1846 35.2423C11.8547 34.4812 11.6915 33.5708 11.6915 32.5111V23.3076H8.09469V21.2771H11.6844V6.7713C11.1949 6.81753 10.6309 6.90643 9.99244 7.03801C9.35749 7.16959 8.70481 7.35452 8.03794 7.59278C7.37106 7.83105 6.71483 8.11198 6.06924 8.4356C5.42366 8.75921 4.84901 9.13617 4.34531 9.56647C3.83806 9.99677 3.43013 10.4769 3.11443 11.0067C2.79873 11.5366 2.64266 12.1092 2.64266 12.7244C2.64266 13.2151 2.70651 13.6099 2.83775 13.9015C2.969 14.1931 3.11798 14.4136 3.28825 14.5594C3.45496 14.7052 3.62878 14.7976 3.80614 14.8368C3.9835 14.8759 4.10765 14.8937 4.18569 14.8937C4.56878 14.8937 4.88448 14.8297 5.12924 14.6981C5.374 14.5665 5.59747 14.4278 5.79611 14.282C5.99475 14.1362 6.18275 13.9975 6.36011 13.8659C6.53747 13.7343 6.73966 13.6703 6.97023 13.6703C7.15469 13.6703 7.34978 13.713 7.55552 13.7984C7.76125 13.8837 7.9528 14.0188 8.13016 14.2038C8.30752 14.3887 8.4565 14.6305 8.57711 14.9292C8.70126 15.228 8.76156 15.5942 8.76156 16.0245C8.76156 16.6398 8.64451 17.1732 8.40684 17.6284C8.16918 18.08 7.86058 18.4534 7.48457 18.7486C7.10857 19.0402 6.67936 19.2607 6.19694 19.4065C5.71453 19.5523 5.23565 19.627 4.76033 19.627C4.02252 19.627 3.36274 19.4989 2.77036 19.2465C2.18152 18.994 1.67782 18.6419 1.2628 18.1974C0.847779 17.7529 0.535626 17.2336 0.319247 16.6398C0.106416 16.0352 0 15.3951 0 14.7016Z" fill="white"/>
<path d="M55.0334 37.0818C55.0334 37.2804 55.0015 37.5179 54.9413 37.7944C54.881 38.0709 54.7287 38.3296 54.4948 38.5778C54.2573 38.8224 53.8994 39.0351 53.4245 39.2088C52.9496 39.386 52.3046 39.4746 51.4931 39.4746C50.6815 39.4746 50.0401 39.3789 49.5758 39.1875C49.108 38.9961 48.7572 38.7692 48.5197 38.5104C48.2823 38.2481 48.1334 37.9822 48.0732 37.7057C48.0129 37.4292 47.9811 37.2095 47.9811 37.0393V20.786C47.9811 20.5698 47.9492 20.3535 47.8889 20.1302C47.8287 19.9069 47.7365 19.7048 47.6125 19.5205C47.4885 19.3362 47.3361 19.1873 47.1518 19.0738C46.9675 18.9604 46.7513 18.9001 46.5068 18.9001C46.0921 18.9001 45.6881 19.0171 45.2877 19.2546C44.8872 19.4921 44.5187 19.7651 44.1714 20.07C43.8276 20.3784 43.5264 20.6832 43.2747 20.9916C43.0231 21.3 42.8424 21.5269 42.7361 21.6829V37.0854C42.7361 37.2839 42.7042 37.5214 42.6439 37.7979C42.5837 38.0744 42.4313 38.3332 42.1974 38.5813C41.96 38.8259 41.6056 39.0386 41.1413 39.2123C40.6735 39.3896 40.0356 39.4782 39.2205 39.4782C38.409 39.4782 37.7675 39.3825 37.3033 39.191C36.8355 38.9996 36.4811 38.7728 36.233 38.514C35.9885 38.2517 35.8325 37.9858 35.7723 37.7093C35.712 37.4328 35.6801 37.213 35.6801 37.0429V19.2936C35.6801 18.8505 35.5774 18.4606 35.3683 18.1344C35.1627 17.8048 34.8119 17.6417 34.3228 17.6417C34.0606 17.6417 33.8409 17.6878 33.6566 17.78C33.4723 17.8721 33.2738 18.0033 33.0577 18.1699L32.5757 17.5956C32.9265 17.3049 33.3234 17.0178 33.7594 16.7342C34.1953 16.4506 34.6666 16.2025 35.1734 15.9862C35.6801 15.7735 36.2224 15.5963 36.8036 15.4581C37.3848 15.3198 37.9979 15.2525 38.6429 15.2525C39.6387 15.2525 40.4113 15.4155 40.9641 15.7452C41.517 16.0749 41.921 16.4683 42.1832 16.9292C42.4419 17.39 42.6014 17.8686 42.6546 18.3649C42.7077 18.8611 42.7361 19.2794 42.7361 19.6162C43.4555 18.8044 44.2316 18.0742 45.0573 17.4326C45.394 17.1561 45.7661 16.8902 46.1737 16.6279C46.5777 16.3691 46.9959 16.1351 47.4247 15.926C47.8535 15.7204 48.2965 15.5538 48.7572 15.4332C49.2179 15.3092 49.6786 15.2489 50.1358 15.2489C51.0253 15.2489 51.7837 15.4084 52.4109 15.731C53.0382 16.0536 53.545 16.44 53.9277 16.8902C54.3105 17.3439 54.5904 17.8189 54.7676 18.3152C54.9448 18.8151 55.0334 19.2475 55.0334 19.6127C55.767 18.8009 56.5431 18.0706 57.3547 17.429C57.6914 17.1525 58.0599 16.8866 58.4568 16.6243C58.8538 16.3655 59.2719 16.1316 59.7114 15.9224C60.1473 15.7168 60.5938 15.5502 61.0439 15.4297C61.494 15.3056 61.9511 15.2454 62.4118 15.2454C63.3014 15.2454 64.0598 15.4084 64.687 15.7381C65.3143 16.0678 65.8211 16.5003 66.2038 17.0355C66.5866 17.5708 66.8665 18.177 67.0437 18.8505C67.2209 19.524 67.3095 20.1976 67.3095 20.8746V35.1038C67.3095 35.242 67.3166 35.3909 67.3343 35.554C67.3485 35.7135 67.3875 35.8695 67.4477 36.0148C67.508 36.1602 67.6037 36.2807 67.7348 36.3729C67.8659 36.465 68.036 36.5111 68.2522 36.5111C68.5428 36.5111 68.8051 36.4083 69.0354 36.1992C69.2658 35.9936 69.4784 35.7809 69.6804 35.5682L70.2333 36.0503C70.0171 36.3729 69.7336 36.7274 69.3827 37.1208C69.0319 37.5108 68.6137 37.883 68.1317 38.2375C67.6497 38.5884 67.0898 38.8862 66.4519 39.1237C65.8175 39.3612 65.0981 39.4817 64.3043 39.4817C63.631 39.4817 63.0427 39.3931 62.5465 39.2159C62.0504 39.0386 61.6286 38.8011 61.2813 38.5033C60.9376 38.2056 60.6789 37.8511 60.5123 37.447C60.3422 37.0428 60.2607 36.6068 60.2607 36.1495V20.7931C60.2607 20.5769 60.2288 20.3606 60.1686 20.1373C60.1083 19.914 60.0197 19.7119 59.9028 19.5276C59.7894 19.3433 59.6405 19.1944 59.4562 19.0809C59.2719 18.9675 59.0558 18.9072 58.8112 18.9072C58.3966 18.9072 57.9891 19.0242 57.5815 19.2617C57.174 19.4992 56.7983 19.7722 56.4545 20.077C56.1108 20.3854 55.8131 20.6903 55.5686 20.9987C55.324 21.3071 55.1468 21.534 55.0405 21.69V37.0818H55.0334Z" fill="white"/>
<path d="M80.7799 37.0437C80.7799 37.2422 80.7445 37.4832 80.6772 37.7667C80.6099 38.0502 80.4469 38.3195 80.1954 38.5712C79.9439 38.8228 79.5791 39.039 79.1044 39.2162C78.6297 39.3934 77.9851 39.482 77.1739 39.482C76.3627 39.482 75.7251 39.3863 75.2681 39.1949C74.8112 39.0035 74.4641 38.7767 74.2338 38.518C74.0036 38.2558 73.8619 37.99 73.8087 37.7135C73.7556 37.4371 73.7273 37.2174 73.7273 37.0473V19.3029C73.7273 18.8599 73.6245 18.4701 73.4156 18.144C73.2101 17.8145 72.8594 17.6514 72.3706 17.6514C72.1085 17.6514 71.8888 17.6975 71.7047 17.7897C71.5205 17.8818 71.3221 18.0129 71.106 18.1795L70.6243 17.6054C70.9749 17.3148 71.3717 17.0277 71.8074 16.7442C72.2431 16.4607 72.7142 16.2126 73.2207 15.9964C73.7273 15.7838 74.2692 15.6066 74.8502 15.4684C75.4311 15.3302 76.0439 15.2628 76.6886 15.2628C77.684 15.2628 78.4562 15.3975 79.0088 15.6633C79.5613 15.9326 79.9652 16.2622 80.2273 16.6521C80.4894 17.0419 80.6453 17.4601 80.6984 17.9066C80.7515 18.3496 80.7799 18.743 80.7799 19.0796V37.0437ZM74.1063 12.2576C72.6929 11.0952 72.8559 9.07162 74.1417 7.82416C74.7439 7.23942 75.5303 6.89566 76.2529 6.47039C76.9755 6.04157 77.6769 5.46746 77.9142 4.66299C78.0524 4.19874 78.148 3.55729 78.6297 3.51831C79.4799 5.29381 81.003 7.46977 81.166 9.46145C81.4635 13.1294 76.5115 14.2386 74.1063 12.2576Z" fill="#F54AA7"/>
<path d="M100.037 27.6937C100.037 25.7564 99.9481 24.2101 99.7704 23.0478C99.5928 21.889 99.3584 21.0039 99.0671 20.396C98.7759 19.7882 98.4526 19.3901 98.101 19.1981C97.7493 19.0062 97.387 18.9102 97.0176 18.9102C96.5736 18.9102 96.1757 19.0275 95.8312 19.2692C95.4866 19.5074 95.1847 19.7811 94.9325 20.0868C94.6803 20.3925 94.4636 20.7017 94.286 21.0074C94.1084 21.3131 93.9592 21.5442 93.8384 21.697V37.0957C93.8384 37.2947 93.8065 37.5364 93.7461 37.8208C93.6857 38.1052 93.533 38.3753 93.2985 38.6277C93.0605 38.8801 92.7089 39.0969 92.24 39.2747C91.7711 39.4524 91.1317 39.5412 90.3147 39.5412C89.5013 39.5412 88.8584 39.4453 88.3895 39.2533C87.9206 39.0614 87.5654 38.8339 87.3203 38.5744C87.0752 38.3114 86.9189 38.0448 86.8585 37.7675C86.7982 37.4902 86.7662 37.2698 86.7662 37.0992V19.3012C86.7662 18.8569 86.6632 18.4659 86.4536 18.1388C86.2476 17.8082 85.8959 17.6447 85.4057 17.6447C85.1429 17.6447 84.9226 17.6909 84.7379 17.7834C84.5532 17.8758 84.3543 18.0073 84.1376 18.1744L83.6545 17.5985C84.0062 17.307 84.404 17.0191 84.8409 16.7348C85.2779 16.4504 85.7503 16.2016 86.2582 15.9847C86.7662 15.7679 87.3097 15.5937 87.8958 15.4551C88.4783 15.3165 89.0928 15.2489 89.7393 15.2489C90.7374 15.2489 91.5118 15.4124 92.0659 15.743C92.6201 16.0736 93.025 16.4682 93.2879 16.9303C93.5507 17.3924 93.707 17.8722 93.7603 18.3699C93.8136 18.8711 93.842 19.287 93.842 19.6247C94.4103 18.8106 95.0532 18.0784 95.7779 17.435C96.0691 17.1578 96.3959 16.8876 96.7583 16.6281C97.1206 16.3686 97.5042 16.134 97.9091 15.9243C98.3176 15.7181 98.7474 15.5511 99.1986 15.4302C99.6497 15.3058 100.115 15.2454 100.591 15.2454C101.635 15.2454 102.559 15.4444 103.365 15.8461C104.172 16.2478 104.85 16.916 105.404 17.8509C105.958 18.7893 106.377 20.0299 106.672 21.5726C106.963 23.1189 107.109 25.0348 107.109 27.324C107.109 29.5527 106.91 31.49 106.512 33.1323C106.111 34.778 105.592 36.175 104.946 37.3267C104.299 38.4784 103.571 39.4204 102.758 40.1526C101.944 40.8813 101.124 41.4536 100.293 41.8695C99.4614 42.2854 98.6693 42.5734 97.9091 42.7333C97.149 42.8968 96.4919 42.9821 95.9413 42.9999L95.6891 42.0544C96.1508 41.9477 96.5771 41.7771 96.9678 41.5461C97.3586 41.315 97.7173 40.9773 98.0406 40.533C98.3638 40.0851 98.648 39.5235 98.8931 38.8374C99.1382 38.1549 99.3513 37.2983 99.5254 36.2674C99.703 35.2366 99.8344 34.0209 99.9161 32.6133C99.9942 31.2092 100.037 29.5705 100.037 27.6937Z" fill="white"/>
<path d="M117.88 28.5805C117.88 29.0709 117.95 29.6074 118.095 30.183C118.239 30.7586 118.451 31.3378 118.723 31.9241C118.998 32.5068 119.337 33.0647 119.742 33.5941C120.144 34.1235 120.61 34.5961 121.139 35.0118C121.665 35.4275 122.251 35.758 122.889 36.0032C123.531 36.2483 124.23 36.3727 124.995 36.3727C125.528 36.3727 126.025 36.3123 126.484 36.1879C126.943 36.0636 127.37 35.8966 127.765 35.6798C128.16 35.4631 128.544 35.2143 128.908 34.9301C129.275 34.6458 129.638 34.3438 130.005 34.0205L130.576 34.5748C130.224 35.0509 129.776 35.5732 129.225 36.1417C128.675 36.7102 128.012 37.2432 127.236 37.7442C126.459 38.2417 125.549 38.6574 124.512 38.9878C123.475 39.3183 122.293 39.4817 120.966 39.4817C119.64 39.4817 118.345 39.2401 117.089 38.7569C115.83 38.2736 114.711 37.5488 113.738 36.5788C112.761 35.6123 111.981 34.4042 111.392 32.9616C110.806 31.519 110.51 29.8277 110.51 27.8912C110.51 26.4948 110.686 25.2121 111.035 24.0431C111.385 22.8741 111.864 21.8223 112.464 20.8878C113.067 19.9498 113.77 19.129 114.57 18.4219C115.371 17.7148 116.214 17.1286 117.1 16.6595C117.985 16.1905 118.889 15.8387 119.809 15.6007C120.734 15.3626 121.619 15.2454 122.476 15.2454C123.605 15.2454 124.59 15.3697 125.426 15.6149C126.265 15.8601 126.964 16.1905 127.518 16.6062C128.075 17.022 128.491 17.5016 128.763 18.0453C129.038 18.5925 129.176 19.161 129.176 19.7615C129.176 20.4828 128.971 21.133 128.558 21.7086C128.146 22.2842 127.599 22.7888 126.911 23.2187L117.88 28.5805ZM122.48 23.9045C122.677 23.7801 122.843 23.6629 122.97 23.5492C123.101 23.4319 123.203 23.2969 123.281 23.1335C123.355 22.9736 123.415 22.771 123.454 22.533C123.492 22.2949 123.51 22 123.51 21.6447C123.51 21.2609 123.468 20.8345 123.383 20.3655C123.298 19.8965 123.157 19.4559 122.96 19.0402C122.762 18.6245 122.512 18.2798 122.205 18.0026C121.898 17.7255 121.534 17.5869 121.108 17.5869C120.557 17.5869 120.092 17.7504 119.7 18.0808C119.312 18.4113 118.991 18.8376 118.74 19.36C118.49 19.8823 118.289 20.4757 118.144 21.1472C117.999 21.8152 117.887 22.4868 117.813 23.1654C117.735 23.8406 117.689 24.4908 117.675 25.1126C117.661 25.7344 117.65 26.2603 117.65 26.6902L122.48 23.9045Z" fill="white"/>
<path d="M180.473 27.9292C180.473 28.4195 180.544 28.956 180.69 29.5316C180.835 30.1073 181.048 30.6864 181.322 31.2727C181.599 31.8554 181.94 32.4133 182.348 32.9427C182.756 33.4721 183.221 33.9447 183.754 34.3604C184.283 34.7762 184.872 35.1066 185.515 35.3518C186.161 35.597 186.864 35.7213 187.635 35.7213C188.171 35.7213 188.672 35.6609 189.133 35.5366C189.595 35.4122 190.025 35.2452 190.422 35.0284C190.82 34.8117 191.207 34.563 191.573 34.2787C191.942 33.9945 192.311 33.6924 192.677 33.3691L193.252 33.9234C192.897 34.3995 192.446 34.9218 191.892 35.4904C191.339 36.0589 190.671 36.5919 189.89 37.0929C189.109 37.5939 188.192 38.006 187.149 38.3365C186.105 38.6669 184.915 38.8304 183.58 38.8304C182.245 38.8304 180.942 38.5888 179.678 38.1055C178.41 37.6223 177.288 36.8974 176.304 35.9274C175.321 34.9609 174.536 33.7528 173.943 32.3103C173.354 30.8677 173.055 29.1763 173.055 27.2398C173.055 25.8434 173.233 24.5607 173.584 23.3917C173.936 22.2227 174.419 21.171 175.023 20.2365C175.63 19.2984 176.336 18.4776 177.142 17.7706C177.948 17.0635 178.797 16.4772 179.688 16.0082C180.58 15.5391 181.489 15.1874 182.415 14.9493C183.346 14.7112 184.237 14.594 185.1 14.594C186.236 14.594 187.227 14.7184 188.068 14.9635C188.913 15.2087 189.616 15.5392 190.174 15.9549C190.735 16.3706 191.154 16.8503 191.427 17.3939C191.704 17.9411 191.843 18.5096 191.843 19.1101C191.843 19.8314 191.637 20.4816 191.221 21.0573C190.806 21.6329 190.256 22.1374 189.563 22.5674L180.473 27.9292ZM185.1 23.2531C185.299 23.1288 185.465 23.0115 185.593 22.8978C185.725 22.7806 185.828 22.6455 185.906 22.4821C185.98 22.3222 186.041 22.1197 186.08 21.8816C186.119 21.6435 186.137 21.3486 186.137 20.9933C186.137 20.6096 186.094 20.1832 186.009 19.7142C185.924 19.2451 185.782 18.8045 185.583 18.3888C185.384 17.9731 185.128 17.6284 184.823 17.3513C184.514 17.0741 184.148 16.9356 183.718 16.9356C183.165 16.9356 182.696 17.099 182.302 17.4295C181.911 17.7599 181.588 18.1863 181.336 18.7086C181.084 19.2309 180.881 19.8243 180.736 20.4959C180.59 21.1639 180.477 21.8354 180.402 22.5141C180.324 23.1892 180.278 23.8394 180.264 24.4612C180.249 25.083 180.239 25.6089 180.239 26.0388L185.1 23.2531Z" fill="white"/>
<path d="M147.265 27.6937C147.265 25.7564 147.176 24.2101 147 23.0478C146.823 21.889 146.59 21.0039 146.3 20.396C146.011 19.7882 145.689 19.3901 145.339 19.1981C144.99 19.0062 144.629 18.9102 144.262 18.9102C143.82 18.9102 143.425 19.0275 143.082 19.2692C142.739 19.5074 142.439 19.7811 142.188 20.0868C141.937 20.3925 141.722 20.7017 141.545 21.0074C141.368 21.3131 141.22 21.5442 141.1 21.697V37.0957C141.1 37.2947 141.068 37.5364 141.008 37.8208C140.948 38.1052 140.796 38.3753 140.559 38.6277C140.323 38.8801 139.973 39.0969 139.507 39.2747C139.04 39.4524 138.404 39.5412 137.595 39.5412C136.786 39.5412 136.147 39.4453 135.68 39.2533C135.214 39.0614 134.857 38.8339 134.613 38.5744C134.37 38.3114 134.214 38.0448 134.154 37.7675C134.094 37.4902 134.062 37.2698 134.062 37.0992V19.3012C134.062 18.8569 133.96 18.4659 133.751 18.1388C133.547 17.8082 133.197 17.6447 132.709 17.6447C132.448 17.6447 132.229 17.6909 132.045 17.7834C131.861 17.8758 131.664 18.0073 131.448 18.1744L130.968 17.5985C131.317 17.307 131.713 17.0191 132.148 16.7348C132.582 16.4504 133.052 16.2016 133.557 15.9847C134.062 15.7679 134.603 15.5937 135.182 15.4551C135.762 15.3165 136.373 15.2489 137.016 15.2489C138.009 15.2489 138.779 15.4124 139.33 15.743C139.881 16.0736 140.284 16.4682 140.545 16.9303C140.803 17.3924 140.962 17.8722 141.015 18.3699C141.068 18.8711 141.096 19.287 141.096 19.6247C141.662 18.8106 142.301 18.0784 143.022 17.435C143.311 17.1578 143.637 16.8876 143.997 16.6281C144.357 16.3686 144.739 16.134 145.142 15.9243C145.544 15.7181 145.975 15.5511 146.424 15.4302C146.873 15.3058 147.335 15.2454 147.809 15.2454C148.848 15.2454 149.77 15.4444 150.568 15.8461C151.37 16.2478 152.045 16.916 152.596 17.8509C153.147 18.7893 153.564 20.0299 153.857 21.5726C154.147 23.1189 154.292 25.0348 154.292 27.324C154.292 29.5527 154.094 31.49 153.695 33.1323C153.295 34.778 152.78 36.175 152.137 37.3267C151.494 38.4784 150.769 39.4204 149.96 40.1526C149.151 40.8813 148.335 41.4536 147.509 41.8695C146.685 42.2854 145.894 42.5734 145.138 42.7333C144.382 42.8968 143.728 42.9821 143.177 42.9999L142.926 42.0544C143.386 41.9477 143.81 41.7771 144.198 41.5461C144.587 41.315 144.944 40.9773 145.262 40.533C145.583 40.0851 145.866 39.5235 146.11 38.8374C146.353 38.1549 146.565 37.2983 146.738 36.2674C146.915 35.2366 147.042 34.0209 147.127 32.6133C147.222 31.2092 147.265 29.5705 147.265 27.6937Z" fill="white"/>
<path d="M166.547 17.2846V34.2637C166.547 35.075 166.699 35.6382 167.006 35.9535C167.309 36.2688 167.729 36.4246 168.265 36.4246C168.677 36.4246 169.044 36.3113 169.362 36.081C169.683 35.8508 169.954 35.5922 170.183 35.3017C170.459 34.9793 170.695 34.6038 170.892 34.1752L171.601 34.4975C171.372 34.9864 171.1 35.5249 170.79 36.1058C170.476 36.6868 170.064 37.2288 169.545 37.7247C169.027 38.2207 168.374 38.6387 167.588 38.9752C166.801 39.3118 165.814 39.4818 164.625 39.4818C163.955 39.4818 163.31 39.3826 162.692 39.1842C162.075 38.9859 161.525 38.6706 161.045 38.2419C160.566 37.8133 160.181 37.2784 159.892 36.6337C159.603 35.9889 159.458 35.2167 159.458 34.3133V17.2882H156.898V15.6338C157.324 15.6338 157.921 15.524 158.682 15.3008C159.444 15.0776 160.227 14.7092 161.028 14.1885C161.828 13.6677 162.572 12.9699 163.257 12.0984C163.944 11.227 164.431 10.1465 164.72 8.8606H166.551V15.6374H170.279C171.499 15.6374 172.109 15.4319 172.109 15.0174C172.109 14.8651 172.032 14.7624 171.88 14.7057C171.728 14.6526 171.555 14.5817 171.365 14.5002C171.175 14.4152 171.002 14.2983 170.85 14.1424C170.698 13.9901 170.621 13.735 170.621 13.3843C170.621 12.9557 170.755 12.6192 171.019 12.3747C171.287 12.1303 171.633 12.0063 172.06 12.0063C172.335 12.0063 172.575 12.063 172.779 12.1799C172.984 12.2968 173.157 12.4491 173.294 12.6404C173.432 12.8317 173.534 13.0513 173.605 13.2958C173.672 13.5402 173.707 13.7846 173.707 14.0326C173.707 15.0281 173.421 15.8216 172.85 16.4096C172.278 17.0012 171.358 17.2952 170.095 17.2952H166.547V17.2846Z" fill="white"/>
<path d="M117.477 12.0751C116.827 12.0751 116.202 11.9708 115.601 11.7623C115.009 11.5538 114.55 11.2786 114.225 10.9367L114.588 10.2237C114.905 10.5406 115.326 10.7991 115.851 10.9993C116.377 11.1911 116.919 11.287 117.477 11.287C118.261 11.287 118.849 11.1452 119.241 10.8617C119.633 10.5698 119.829 10.1945 119.829 9.73585C119.829 9.3856 119.721 9.10623 119.504 8.89774C119.295 8.68926 119.037 8.53081 118.728 8.4224C118.42 8.30565 117.99 8.18056 117.44 8.04713C116.781 7.88034 116.256 7.72189 115.864 7.57178C115.472 7.41333 115.134 7.17566 114.851 6.85876C114.575 6.54187 114.438 6.11239 114.438 5.57033C114.438 5.12834 114.555 4.72805 114.788 4.36945C115.022 4.00252 115.38 3.71064 115.864 3.49382C116.348 3.27699 116.948 3.16858 117.665 3.16858C118.165 3.16858 118.653 3.23947 119.129 3.38124C119.612 3.51467 120.029 3.7023 120.38 3.94414L120.067 4.68218C119.7 4.44034 119.308 4.26104 118.891 4.14429C118.474 4.0192 118.065 3.95665 117.665 3.95665C116.898 3.95665 116.318 4.10676 115.926 4.40698C115.543 4.69886 115.351 5.0783 115.351 5.54531C115.351 5.89556 115.455 6.1791 115.664 6.39593C115.881 6.60441 116.147 6.76703 116.464 6.88378C116.789 6.99219 117.223 7.11311 117.765 7.24654C118.407 7.40499 118.924 7.56344 119.316 7.72189C119.717 7.872 120.054 8.1055 120.33 8.4224C120.605 8.73096 120.742 9.1521 120.742 9.68582C120.742 10.1278 120.621 10.5323 120.38 10.8992C120.146 11.2578 119.783 11.5455 119.291 11.7623C118.799 11.9708 118.195 12.0751 117.477 12.0751ZM125.811 11.5997C125.645 11.7498 125.44 11.8666 125.199 11.95C124.957 12.025 124.702 12.0625 124.435 12.0625C123.818 12.0625 123.343 11.8958 123.009 11.5622C122.676 11.2286 122.509 10.7574 122.509 10.1487V3.98167H123.397V5.42022H125.386V6.17076H123.397V10.0986C123.397 10.4906 123.493 10.7908 123.685 10.9993C123.877 11.1994 124.156 11.2995 124.523 11.2995C124.923 11.2995 125.249 11.1869 125.499 10.9617L125.811 11.5997ZM133.351 5.42022V12H132.5V10.7991C132.267 11.1994 131.945 11.5121 131.537 11.7373C131.128 11.9541 130.661 12.0625 130.136 12.0625C129.277 12.0625 128.597 11.8249 128.097 11.3495C127.605 10.8658 127.359 10.1612 127.359 9.23549V5.42022H128.247V9.14793C128.247 9.8401 128.418 10.3655 128.76 10.7241C129.102 11.0827 129.59 11.262 130.223 11.262C130.916 11.262 131.462 11.0535 131.862 10.6365C132.262 10.2112 132.463 9.62327 132.463 8.87273V5.42022H133.351ZM141.842 2.71825V12H140.992V10.6991C140.725 11.141 140.371 11.4788 139.929 11.7123C139.495 11.9458 139.003 12.0625 138.453 12.0625C137.835 12.0625 137.277 11.9208 136.776 11.6372C136.276 11.3537 135.884 10.9576 135.6 10.4489C135.317 9.94017 135.175 9.36058 135.175 8.71011C135.175 8.05964 135.317 7.48005 135.6 6.97134C135.884 6.46264 136.276 6.07069 136.776 5.79549C137.277 5.51195 137.835 5.37018 138.453 5.37018C138.986 5.37018 139.466 5.48276 139.891 5.70793C140.325 5.92475 140.679 6.24582 140.954 6.67113V2.71825H141.842ZM138.528 11.2745C138.986 11.2745 139.399 11.1702 139.766 10.9617C140.141 10.7449 140.433 10.4405 140.642 10.0486C140.858 9.65663 140.967 9.21047 140.967 8.71011C140.967 8.20974 140.858 7.76359 140.642 7.37164C140.433 6.97968 140.141 6.67947 139.766 6.47098C139.399 6.25416 138.986 6.14574 138.528 6.14574C138.061 6.14574 137.639 6.25416 137.264 6.47098C136.897 6.67947 136.605 6.97968 136.389 7.37164C136.18 7.76359 136.076 8.20974 136.076 8.71011C136.076 9.21047 136.18 9.65663 136.389 10.0486C136.605 10.4405 136.897 10.7449 137.264 10.9617C137.639 11.1702 138.061 11.2745 138.528 11.2745ZM144.316 5.42022H145.204V12H144.316V5.42022ZM144.766 3.98167C144.583 3.98167 144.429 3.91913 144.303 3.79404C144.178 3.66894 144.116 3.51884 144.116 3.34371C144.116 3.17692 144.178 3.03098 144.303 2.90589C144.429 2.7808 144.583 2.71825 144.766 2.71825C144.95 2.71825 145.104 2.7808 145.229 2.90589C145.354 3.02264 145.417 3.16441 145.417 3.3312C145.417 3.51467 145.354 3.66894 145.229 3.79404C145.104 3.91913 144.95 3.98167 144.766 3.98167ZM150.365 12.0625C149.731 12.0625 149.16 11.9208 148.651 11.6372C148.142 11.3454 147.742 10.9451 147.45 10.4364C147.158 9.92766 147.012 9.35224 147.012 8.71011C147.012 8.06798 147.158 7.49256 147.45 6.98385C147.742 6.47515 148.142 6.07903 148.651 5.79549C149.16 5.51195 149.731 5.37018 150.365 5.37018C150.999 5.37018 151.57 5.51195 152.079 5.79549C152.587 6.07903 152.983 6.47515 153.267 6.98385C153.559 7.49256 153.705 8.06798 153.705 8.71011C153.705 9.35224 153.559 9.92766 153.267 10.4364C152.983 10.9451 152.587 11.3454 152.079 11.6372C151.57 11.9208 150.999 12.0625 150.365 12.0625ZM150.365 11.2745C150.832 11.2745 151.249 11.1702 151.616 10.9617C151.991 10.7449 152.283 10.4405 152.491 10.0486C152.7 9.65663 152.804 9.21047 152.804 8.71011C152.804 8.20974 152.7 7.76359 152.491 7.37164C152.283 6.97968 151.991 6.67947 151.616 6.47098C151.249 6.25416 150.832 6.14574 150.365 6.14574C149.898 6.14574 149.477 6.25416 149.101 6.47098C148.734 6.67947 148.443 6.97968 148.226 7.37164C148.017 7.76359 147.913 8.20974 147.913 8.71011C147.913 9.21047 148.017 9.65663 148.226 10.0486C148.443 10.4405 148.734 10.7449 149.101 10.9617C149.477 11.1702 149.898 11.2745 150.365 11.2745Z" fill="white"/>
</svg>
