<svg width="339" height="231" viewBox="0 0 339 231" fill="none" xmlns="http://www.w3.org/2000/svg">
<path d="M138.717 31.7862C138.717 31.7862 139.146 31.8522 140.003 31.9842C140.861 32.0502 141.818 32.3471 142.874 32.875C143.996 33.337 144.953 34.1949 145.745 35.4487C146.537 36.6365 146.866 38.3853 146.735 40.6949C146.669 42.2127 146.57 44.2584 146.438 46.832C146.372 49.3397 146.339 52.1113 146.339 55.1469C146.339 58.1164 146.405 61.086 146.537 64.0556C146.735 67.0252 147.031 69.7638 147.427 72.2714C147.889 74.779 148.483 76.7918 149.209 78.3095C150.001 79.7613 150.958 80.4542 152.08 80.3882C153.268 80.3222 154.158 79.5304 154.752 78.0126C155.346 76.4288 155.742 74.4491 155.94 72.0734C156.138 69.6318 156.204 67.0581 156.138 64.3525C156.072 61.6469 155.94 59.0733 155.742 56.6316C155.544 54.124 155.346 52.0783 155.148 50.4945C155.016 48.8448 154.917 47.9209 154.851 47.7229C154.785 47.459 154.686 46.898 154.554 46.0402C154.422 45.1823 154.488 44.2584 154.752 43.2686C155.016 42.2787 155.676 41.3878 156.732 40.5959C157.854 39.8041 159.603 39.3091 161.978 39.1112C164.354 38.9132 166.202 39.2101 167.522 40.002C168.841 40.7939 169.765 41.7508 170.293 42.8726C170.887 43.9945 171.217 44.9843 171.283 45.8422C171.415 46.7001 171.481 47.129 171.481 47.129C171.481 47.129 171.58 47.8879 171.778 49.4057C172.042 50.9235 172.24 52.9362 172.372 55.4438C172.57 57.8855 172.57 60.5911 172.372 63.5606C172.24 66.5302 171.811 69.5328 171.085 72.5684C170.425 75.5379 169.336 78.2765 167.818 80.7842C166.301 83.2258 164.255 85.2055 161.681 86.7233C159.108 88.2411 155.874 89 151.981 89C148.087 89 144.788 88.2081 142.082 86.6243C139.443 84.9746 137.265 82.8299 135.549 80.1903C133.899 77.4847 132.613 74.4821 131.689 71.1826C130.831 67.883 130.237 64.5175 129.907 61.086C129.643 57.5885 129.511 54.289 129.511 51.1874C129.577 48.0859 129.676 45.3803 129.808 43.0706C130.006 40.7609 130.138 39.1112 130.204 38.1213C130.336 36.4055 130.831 35.1187 131.689 34.2608C132.547 33.337 133.503 32.7101 134.559 32.3801C135.681 32.0502 136.638 31.8852 137.43 31.8852C138.288 31.8192 138.717 31.7862 138.717 31.7862ZM186.306 89C183.865 89 182.017 88.67 180.763 88.0101C179.575 87.3502 178.783 86.5913 178.388 85.7335C177.992 84.8756 177.794 84.1167 177.794 83.4568C177.794 82.7969 177.794 82.4669 177.794 82.4669L176.606 39.5071C176.606 39.5071 176.573 39.1771 176.507 38.5172C176.441 37.8573 176.573 37.0984 176.903 36.2406C177.233 35.3167 177.926 34.5248 178.981 33.8649C180.037 33.139 181.687 32.7761 183.931 32.7761C186.9 32.7101 189.144 33.139 190.662 34.0629C192.18 34.9208 193.169 35.8116 193.631 36.7355C194.159 37.5934 194.423 38.0223 194.423 38.0223L205.807 58.7103C205.807 58.7103 206.071 58.1164 206.598 56.9286C207.192 55.6748 207.885 54.124 208.677 52.2763C209.535 50.4285 210.393 48.5478 211.251 46.6341C212.109 44.7203 212.868 43.0706 213.527 41.6848C214.187 40.233 214.616 39.3091 214.814 38.9132C215.144 38.2533 215.738 37.3624 216.596 36.2406C217.454 35.0527 218.675 33.9639 220.259 32.974C221.908 31.9842 224.053 31.4563 226.693 31.3903C228.672 31.3243 230.19 31.5552 231.246 32.0832C232.302 32.5451 233.028 33.106 233.424 33.7659C233.886 34.4258 234.15 35.0197 234.216 35.5477C234.282 36.0756 234.315 36.3396 234.315 36.3396C234.315 36.3396 234.315 37.1974 234.315 38.9132C234.315 40.5629 234.315 42.7736 234.315 45.5452C234.381 48.3168 234.414 51.3524 234.414 54.6519C234.414 57.9515 234.414 61.284 234.414 64.6495C234.414 67.949 234.414 70.9846 234.414 73.7562C234.479 76.5278 234.512 78.7715 234.512 80.4872C234.512 82.203 234.512 83.0938 234.512 83.1598C234.512 83.2258 234.479 83.5558 234.414 84.1497C234.414 84.7436 234.183 85.4365 233.721 86.2284C233.259 86.9543 232.434 87.6142 231.246 88.2081C230.124 88.736 228.441 89 226.198 89C223.954 89 222.238 88.769 221.05 88.3071C219.929 87.7792 219.137 87.2183 218.675 86.6243C218.213 85.9644 217.949 85.4035 217.883 84.9416C217.817 84.4796 217.784 84.2487 217.784 84.2487C217.784 84.2487 217.784 83.6878 217.784 82.5659C217.784 81.3781 217.784 79.9263 217.784 78.2105C217.85 76.4288 217.883 74.6801 217.883 72.9643C217.949 71.1826 217.982 69.6978 217.982 68.5099C217.982 67.3221 217.982 66.7282 217.982 66.7282L218.774 52.5732L213.626 63.5606C213.626 63.5606 213.429 63.9236 213.033 64.6495C212.703 65.3754 212.043 66.1013 211.053 66.8272C210.063 67.5531 208.578 67.949 206.598 68.015C204.685 68.081 203.167 67.817 202.045 67.2231C200.989 66.5632 200.23 65.9363 199.768 65.3424C199.373 64.6825 199.175 64.3525 199.175 64.3525L192.74 52.5732C192.74 52.5732 192.773 53.3651 192.839 54.9489C192.971 56.4667 193.103 58.4794 193.235 60.987C193.367 63.4287 193.499 66.0353 193.631 68.8069C193.763 71.5125 193.862 74.0861 193.928 76.5278C194.06 78.9034 194.159 80.8172 194.225 82.269C194.291 84.0507 193.928 85.4365 193.136 86.4264C192.345 87.3502 191.421 88.0101 190.365 88.4061C189.309 88.736 188.352 88.934 187.494 89C186.702 89 186.306 89 186.306 89Z" fill="#FF6462"/>
<path d="M169.22 95.3321C169.22 95.3321 169.792 95.4201 170.936 95.5961C172.08 95.6841 173.356 96.08 174.764 96.7839C176.259 97.3998 177.535 98.5437 178.591 100.215C179.647 101.799 180.087 104.131 179.911 107.21C179.823 109.234 179.691 111.962 179.515 115.393C179.427 118.737 179.383 122.432 179.383 126.48C179.383 130.439 179.471 134.399 179.647 138.358C179.911 142.317 180.307 145.969 180.835 149.312C181.451 152.656 182.242 155.34 183.21 157.363C184.266 159.299 185.542 160.223 187.038 160.135C188.622 160.047 189.809 158.991 190.601 156.967C191.393 154.856 191.921 152.216 192.185 149.048C192.449 145.793 192.537 142.361 192.449 138.754C192.361 135.146 192.185 131.715 191.921 128.459C191.657 125.116 191.393 122.388 191.129 120.277C190.953 118.077 190.821 116.845 190.733 116.581C190.645 116.229 190.513 115.481 190.337 114.337C190.161 113.194 190.249 111.962 190.601 110.642C190.953 109.322 191.833 108.134 193.241 107.078C194.737 106.023 197.068 105.363 200.236 105.099C203.403 104.835 205.867 105.231 207.627 106.287C209.387 107.342 210.618 108.618 211.322 110.114C212.114 111.61 212.554 112.93 212.642 114.073C212.818 115.217 212.906 115.789 212.906 115.789C212.906 115.789 213.038 116.801 213.302 118.825C213.654 120.848 213.918 123.532 214.094 126.876C214.358 130.131 214.358 133.739 214.094 137.698C213.918 141.657 213.346 145.661 212.378 149.708C211.498 153.668 210.047 157.319 208.023 160.663C205.999 163.918 203.271 166.558 199.84 168.582C196.408 170.605 192.097 171.617 186.906 171.617C181.715 171.617 177.315 170.561 173.708 168.45C170.188 166.25 167.285 163.39 164.997 159.871C162.797 156.263 161.082 152.26 159.85 147.861C158.706 143.461 157.914 138.974 157.474 134.399C157.122 129.735 156.946 125.336 156.946 121.2C157.034 117.065 157.166 113.458 157.342 110.378C157.606 107.298 157.782 105.099 157.87 103.779C158.046 101.491 158.706 99.7755 159.85 98.6317C160.994 97.3998 162.269 96.564 163.677 96.124C165.173 95.6841 166.449 95.4641 167.505 95.4641C168.648 95.3761 169.22 95.3321 169.22 95.3321ZM232.673 171.617C229.418 171.617 226.954 171.177 225.282 170.297C223.699 169.418 222.643 168.406 222.115 167.262C221.587 166.118 221.323 165.106 221.323 164.226C221.323 163.346 221.323 162.906 221.323 162.906L219.739 105.627C219.739 105.627 219.695 105.187 219.607 104.307C219.519 103.427 219.695 102.415 220.135 101.271C220.575 100.039 221.499 98.9836 222.907 98.1037C224.315 97.1359 226.514 96.6519 229.506 96.6519C233.465 96.564 236.457 97.1359 238.481 98.3677C240.504 99.5115 241.824 100.699 242.44 101.931C243.144 103.075 243.496 103.647 243.496 103.647L258.674 131.231C258.674 131.231 259.026 130.439 259.729 128.855C260.521 127.184 261.445 125.116 262.501 122.652C263.645 120.189 264.789 117.681 265.933 115.129C267.076 112.578 268.088 110.378 268.968 108.53C269.848 106.595 270.42 105.363 270.684 104.835C271.124 103.955 271.916 102.767 273.06 101.271C274.203 99.6875 275.831 98.2357 277.943 96.9159C280.143 95.5961 283.002 94.8922 286.522 94.8042C289.161 94.7162 291.185 95.0242 292.593 95.7281C294.001 96.344 294.968 97.0919 295.496 97.9718C296.112 98.8516 296.464 99.6435 296.552 100.347C296.64 101.051 296.684 101.403 296.684 101.403C296.684 101.403 296.684 102.547 296.684 104.835C296.684 107.034 296.684 109.982 296.684 113.677C296.772 117.373 296.816 121.42 296.816 125.82C296.816 130.219 296.816 134.662 296.816 139.15C296.816 143.549 296.816 147.597 296.816 151.292C296.904 154.988 296.948 157.979 296.948 160.267C296.948 162.554 296.948 163.742 296.948 163.83C296.948 163.918 296.904 164.358 296.816 165.15C296.816 165.942 296.508 166.866 295.892 167.922C295.276 168.89 294.177 169.769 292.593 170.561C291.097 171.265 288.853 171.617 285.862 171.617C282.87 171.617 280.582 171.309 278.999 170.693C277.503 169.989 276.447 169.242 275.831 168.45C275.215 167.57 274.863 166.822 274.775 166.206C274.687 165.59 274.643 165.282 274.643 165.282C274.643 165.282 274.643 164.534 274.643 163.038C274.643 161.455 274.643 159.519 274.643 157.231C274.731 154.856 274.775 152.524 274.775 150.236C274.863 147.861 274.907 145.881 274.907 144.297C274.907 142.713 274.907 141.921 274.907 141.921L275.963 123.048L269.1 137.698C269.1 137.698 268.836 138.182 268.308 139.15C267.868 140.118 266.988 141.086 265.669 142.053C264.349 143.021 262.369 143.549 259.729 143.637C257.178 143.725 255.154 143.373 253.658 142.581C252.251 141.701 251.239 140.866 250.623 140.074C250.095 139.194 249.831 138.754 249.831 138.754L241.252 123.048C241.252 123.048 241.296 124.104 241.384 126.216C241.56 128.239 241.736 130.923 241.912 134.267C242.088 137.522 242.264 140.998 242.44 144.693C242.616 148.301 242.748 151.732 242.836 154.988C243.012 158.155 243.144 160.707 243.232 162.642C243.32 165.018 242.836 166.866 241.78 168.186C240.724 169.418 239.492 170.297 238.085 170.825C236.677 171.265 235.401 171.529 234.257 171.617C233.201 171.617 232.673 171.617 232.673 171.617Z" fill="#3699A5"/>
<path fill-rule="evenodd" clip-rule="evenodd" d="M74.7036 6.57834C84.5095 8.37938 94.6514 13.1242 105.139 21.0943C112.11 26.4256 115.673 31.4885 116.837 36.1457L116.863 36.2468L116.892 36.3466C118.379 41.3666 118.367 46.1837 116.914 50.9212C115.32 55.8943 113.041 60.4513 110.076 64.6114C106.918 68.8189 104.061 72.0614 101.509 74.4173L101.438 74.4825L101.37 74.5512L98.416 77.5051L97.6773 78.2433L97.4926 78.428L97.4467 78.4744L97.4351 78.4855L97.4322 78.4884L97.4317 78.4894L92.0291 83.8915L99.2239 86.461L99.2248 86.4615L99.2282 86.4625L99.2417 86.4673L99.2954 86.4866L99.511 86.5635L100.373 86.871L103.819 88.1019C106.547 89.0765 110.018 90.6956 114.274 93.0369L114.317 93.0606L114.361 93.0834C118.532 95.2681 122.796 98.2974 127.146 102.232L127.193 102.276L127.243 102.318C131.322 105.814 134.778 110.23 137.585 115.642L137.617 115.704L137.651 115.765C140.498 120.89 142.095 126.998 142.296 134.229L142.296 134.241V134.253C142.694 146.383 138.965 155.963 131.281 163.455L131.259 163.476L131.238 163.498C123.445 171.29 112.335 177.406 97.5743 181.626C82.9905 185.639 66.0494 187.682 46.6941 187.682C35.472 187.682 27.2475 186.809 21.7649 185.243C15.8756 183.56 12.3681 181.735 10.575 180.091C8.08238 177.806 7.47729 176.542 7.40327 176.246L6.91097 174.277L6.84895 174.029L6.83788 173.875L6.71484 172.151L6.22858 165.344C6.00663 159.169 5.56756 151.282 4.91446 141.697C4.47608 132.06 3.92866 121.772 3.27234 110.833C2.6166 99.6854 1.96078 89.0818 1.30484 79.0221C0.868818 68.773 0.54214 60.2763 0.324449 53.5278C0.118606 46.9408 0.0128206 42.9638 0 41.4811C0.407773 38.0069 0.720703 35.1932 0.93713 33.0494C1.06232 32.4508 1.22426 32.137 1.32012 31.9932C1.40428 31.8669 1.47643 31.8067 1.59302 31.7484C2.74375 31.173 4.40821 30.0537 5.18848 27.973C5.92749 26.0023 5.51075 24.1907 4.87177 22.8831C4.83769 22.7228 4.79413 22.3968 4.82063 21.8484C4.90378 21.762 5.02242 21.648 5.18776 21.5075C5.873 20.9251 7.02855 20.1688 8.81379 19.2762C11.7524 17.8068 16.4649 15.6622 23.0154 12.8236L23.0494 12.8089L23.083 12.7937C29.4292 9.92774 37.1353 7.61852 46.2655 5.91989C54.9807 4.29846 64.4119 4.47895 74.6103 6.56025L74.6567 6.56975L74.7036 6.57834ZM43.4732 29.0459L40.8749 30.4015V33.3321V33.3326V33.3334V33.3341V33.335V33.336V33.3366V33.3372V33.3379V33.3386V33.3393V33.3401V33.3409V33.3418V33.3427V33.3436V33.3446V33.3456V33.3467V33.3478V33.349V33.3501V33.3513V33.3526V33.3539V33.3553V33.3567V33.3581V33.3596V33.3611V33.3626V33.3641V33.3658V33.3674V33.3691V33.3709V33.3727V33.3745V33.3764V33.3783V33.3802V33.3822V33.3842V33.3863V33.3884V33.3905V33.3927V33.3949V33.3972V33.3995V33.4019V33.4042V33.4066V33.4091V33.4116V33.4141V33.4167V33.4194V33.422V33.4247V33.4275V33.4303V33.4331V33.4359V33.4388V33.4418V33.4448V33.4478V33.4509V33.454V33.4571V33.4603V33.4635V33.4668V33.4701V33.4735V33.4768V33.4803V33.4838V33.4872V33.4908V33.4944V33.498V33.5016V33.5054V33.5091V33.5129V33.5167V33.5206V33.5245V33.5284V33.5324V33.5364V33.5405V33.5446V33.5488V33.553V33.5572V33.5614V33.5657V33.5701V33.5745V33.5789V33.5834V33.5879V33.5924V33.597V33.6017V33.6064V33.611V33.6158V33.6206V33.6254V33.6303V33.6352V33.6402V33.6451V33.6502V33.6552V33.6603V33.6655V33.6707V33.6759V33.6811V33.6865V33.6918V33.6972V33.7026V33.7081V33.7136V33.7191V33.7248V33.7304V33.7361V33.7418V33.7475V33.7533V33.7591V33.765V33.7709V33.7769V33.7828V33.7889V33.795V33.801V33.8072V33.8134V33.8196V33.8259V33.8322V33.8386V33.8449V33.8514V33.8578V33.8644V33.8709V33.8775V33.8841V33.8908V33.8975V33.9043V33.911V33.9179V33.9248V33.9317V33.9386V33.9456V33.9527V33.9597V33.9668V33.974V33.9812V33.9884V33.9957V34.003V34.0103V34.0177V34.0252V34.0326V34.0402V34.0477V34.0553V34.0629V34.0706V34.0783V34.086V34.0939V34.1017V34.1095V34.1175V34.1254V34.1334V34.1414V34.1495V34.1576V34.1658V34.174V34.1822V34.1905V34.1988V34.2071V34.2156V34.224V34.2325V34.241V34.2495V34.2581V34.2668V34.2754V34.2842V34.2929V34.3017V34.3105V34.3194V34.3283V34.3373V34.3463V34.3553V34.3644V34.3735V34.3826V34.3918V34.4011V34.4103V34.4197V34.429V34.4384V34.4479V34.4573V34.4669V34.4764V34.486V34.4956V34.5053V34.515V34.5248V34.5346V34.5444V34.5543V34.5642V34.5742V34.5841V34.5942V34.6042V34.6144V34.6246V34.6348V34.645V34.6553V34.6656V34.6759V34.6863V34.6967V34.7072V34.7178V34.7283V34.7389V34.7495V34.7602V34.7709V34.7817V34.7925V34.8033V34.8142V34.8251V34.8361V34.8471V34.8581V34.8692V34.8803V34.8915V34.9027V34.9139V34.9252V34.9365V34.9479V34.9592V34.9707V34.9822V34.9937V35.0053V35.0169V35.0285V35.0402V35.0519V35.0637V35.0755V35.0873V35.0992V35.1111V35.123V35.135V35.1471V35.1592V35.1713V35.1835V35.1957V35.2079V35.2202V35.2325V35.2448V35.2572V35.2697V35.2822V35.2947V35.3072V35.3199V35.3325V35.3452V35.3579V35.3707V35.3835V35.3963V35.4092V35.4221V35.4351V35.4481V35.4611V35.4742V35.4873V35.5005V35.5137V35.5269V35.5402V35.5535V35.5669V35.5803V35.5937V35.6072V35.6207V35.6343V35.6479V35.6615V35.6752V35.6889V35.7027V35.7165V35.7304V35.7442V35.7582V35.7721V35.7861V35.8002V35.8142V35.8284V35.8425V35.8567V35.871V35.8853V35.8996V35.9139V35.9283V35.9428V35.9573V35.9718V35.9863V36.0009V36.0156V36.0303V36.045V36.0598V36.0746V36.0894V36.1043V36.1192V36.1342V36.1492V36.1643V36.1793V36.1945V36.2096V36.2248V36.2401V36.2554V36.2707V36.286V36.3015V36.3169V36.3324V36.3479V36.3635V36.3791V36.3947V36.4104V36.4261V36.4419V36.4577V36.4736V36.4894V36.5054V36.5213V36.5373V36.5534V36.5695V36.5856V36.6018V36.618V36.6342V36.6505V36.6669V36.6832V36.6996V36.7161V36.7326V36.7491V36.7656V36.7823V36.7989V36.8156V36.8323V36.8491V36.8659V36.8827V36.8996V36.9166V36.9335V36.9505V36.9676V36.9847V37.0018V37.0189V37.0362V37.0534V37.0707V37.088V37.1054V37.1228V37.1402V37.1577V37.1753V37.1928V37.2104V37.2281V37.2458V37.2635V37.2813V37.2991V37.3169V37.3348V37.3528V37.3707V37.3887V37.4068V37.4249V37.443V37.4612V37.4794V37.4976V37.5159V37.5343V37.5526V37.5711V37.5895V37.608V37.6265V37.6451V37.6637V37.6823V37.701V37.7198V37.7385V37.7573V37.7762V37.7951V37.814V37.833V37.852V37.871V37.8901V37.9093V37.9284V37.9477V37.9669V37.9862V38.0055V38.0249V38.0443V38.0637V38.0833V38.1028V38.1223V38.142V38.1616V38.1813V38.201V38.2208V38.2406V38.2605V38.2804V38.3003V38.3203V38.3403V38.3603V38.3804V38.4006V38.4207V38.441V38.4612V38.4815V38.5018V38.5222V38.5426V38.5631V38.5835V38.7445L40.8856 38.9051C41.0951 42.0477 41.2031 45.8731 41.2031 50.3994V50.5144L41.2086 50.6293C41.4279 55.2348 41.6474 59.5149 41.867 63.468L41.8753 63.6165L41.8927 63.7649C42.1179 65.6793 42.3523 67.31 42.6014 68.6173C42.8201 69.766 43.1339 71.1564 43.6828 72.2543C45.3378 75.5645 48.7427 75.5742 50.1675 75.3706C51.7223 75.1482 53.3249 74.4796 54.7641 73.7598C57.9022 72.191 61.0074 69.9226 64.0865 67.0804L64.0919 67.0756L64.0972 67.0707C67.5418 63.8717 70.3028 60.2555 72.3275 56.2216C74.692 51.7332 75.6391 47.0329 74.7491 42.2877L74.7355 42.2164L74.7201 42.1455C72.9951 34.2597 68.9786 28.0085 61.5504 26.3203C55.4526 24.9344 49.3611 25.9738 43.4732 29.0459ZM51.7575 104.788L47.9339 105.744L48.0999 109.682L50.3976 164.166L50.5929 168.797H55.2278H55.2287H55.2297H55.2302H55.2312H55.2321H55.2336H55.2345H55.2355H55.237H55.2379H55.2389H55.2403H55.2413H55.2423H55.2432H55.2447H55.2457H55.2466H55.2481H55.249H55.2505H55.2519H55.2529H55.2544H55.2558H55.2573H55.2587H55.2602H55.2616H55.2631H55.265H55.2664H55.2679H55.2698H55.2718H55.2732H55.2751H55.2771H55.279H55.2809H55.2829H55.2848H55.2868H55.2887H55.2906H55.293H55.295H55.2974H55.2993H55.3017H55.3042H55.3066H55.309H55.3109H55.3138H55.3162H55.3187H55.3211H55.3235H55.3264H55.3288H55.3317H55.3341H55.337H55.3399H55.3428H55.3457H55.3486H55.3515H55.3544H55.3573H55.3602H55.3636H55.3665H55.3699H55.3728H55.3762H55.3791H55.3825H55.3859H55.3892H55.3926H55.396H55.3994H55.4028H55.4066H55.41H55.4139H55.4173H55.4212H55.4245H55.4284H55.4323H55.4361H55.44H55.4439H55.4477H55.4516H55.4555H55.4593H55.4637H55.4676H55.4719H55.4758H55.4801H55.4845H55.4888H55.4927H55.4971H55.5014H55.5058H55.5106H55.5149H55.5193H55.5241H55.5285H55.5333H55.5377H55.5425H55.5473H55.5517H55.5565H55.5614H55.5662H55.5715H55.5763H55.5812H55.586H55.5913H55.5962H55.6015H55.6063H55.6116H55.6169H55.6223H55.6276H55.6329H55.6382H55.6435H55.6489H55.6542H55.66H55.6653H55.6706H55.6764H55.6822H55.6875H55.6933H55.6991H55.7049H55.7107H55.7165H55.7223H55.7281H55.7344H55.7402H55.7465H55.7523H55.7586H55.7644H55.7707H55.777H55.7833H55.7895H55.7958H55.8021H55.8084H55.8147H55.821H55.8277H55.834H55.8408H55.8471H55.8538H55.8606H55.8674H55.8737H55.8804H55.8872H55.8944H55.9012H55.908H55.9148H55.922H55.9288H55.936H55.9428H55.95H55.9573H55.9646H55.9713H55.9786H55.9858H55.9936H56.0008H56.0081H56.0153H56.023H56.0303H56.038H56.0453H56.053H56.0608H56.0685H56.0762H56.084H56.0917H56.0994H56.1072H56.1149H56.1231H56.1309H56.1391H56.1468H56.155H56.1632H56.171H56.1792H56.1874H56.1956H56.2039H56.2121H56.2208H56.229H56.2372H56.2459H56.2541H56.2628H56.2711H56.2798H56.2885H56.2972H56.3059H56.3146H56.3233H56.332H56.3407H56.3499H56.3586H56.3673H56.3764H56.3856H56.3943H56.4035H56.4127H56.4219H56.4311H56.4403H56.4495H56.4586H56.4678H56.4775H56.4867H56.4959H56.5055H56.5152H56.5244H56.5341H56.5437H56.5534H56.5631H56.5727H56.5824H56.5921H56.6017H56.6119H56.6216H56.6317H56.6414H56.6515H56.6617H56.6714H56.6815H56.6917H56.7018H56.712H56.7221H56.7328H56.7429H56.7531H56.7637H56.7738H56.7845H56.7946H56.8053H56.8159H56.8265H56.8372H56.8478H56.8585H56.8691H56.8797H56.8904H56.9015H56.9121H56.9232H56.9339H56.945H56.9561H56.9667H56.9779H56.989H57.0001H57.0112H57.0228H57.0339H57.0451H57.0567H57.0678H57.0794H57.0905H57.1021H57.1137H57.1248H57.1364H57.148H57.1596H57.1712H57.1833H57.1949H57.2065H57.2186H57.2302H57.2423H57.2539H57.266H57.2781H57.2897H57.3018H57.3139H57.326H57.3385H57.3506H57.3627H57.3748H57.3873H57.3994H57.412H57.4241H57.4367H57.4492H57.4618H57.4744H57.4869H57.4995H57.5121H57.5246H57.5372H57.5503H57.5628H57.5759H57.5885H57.6015H57.6146H57.6271H57.6402H57.6532H57.6663H57.6794H57.6929H57.7059H57.719H57.732H57.7456H57.7586H57.7722H57.7857H57.7988H57.8123H57.8258H57.8394H57.8529H57.8665H57.88H57.894H57.9075H57.9211H57.9351H57.9486H57.9627H57.9767H57.9902H58.0042H58.0183H58.0323H58.0463H58.0603H58.0743H58.0888H58.1029H58.1169H58.1314H58.1454H58.1599H58.1744H58.1884H58.2029H58.2174H58.2319H58.2464H58.2609H58.2759H58.2904H58.3049H58.3199H58.3344H58.3494H58.3639H58.3789H58.3939H58.4089H58.4239H58.4389H58.4538H58.4688H58.4838H58.4988H58.5143H58.5293H58.5447H58.5597H58.5752H58.5907H58.6056H58.6211H58.6366H58.6521H58.6675H58.683H58.699H58.7144H58.7299H58.7458H58.7613H58.7773H58.7932H58.8087H58.8247H58.8406H58.8566H58.8725H58.8885H58.9044H58.9209H58.9368H58.9528H58.9692H58.9852H59.0016H59.018H59.034H59.0504H59.0669H59.0833H59.0997H59.1162H59.1326H59.1495H59.166H59.1824H59.1993H59.2158H59.2327H59.2496H59.2665H59.283H59.2999H59.3168H59.3337H59.3506H59.3681H59.385H59.4019H59.4193H59.4362H59.4536H59.4705H59.4879H59.5054H59.5228H59.5402H59.5576H59.575H59.5924H59.6098H59.6272H59.6451H59.6625H59.6804H59.6978H59.7157H59.7335H59.7514H59.7688H59.7867H59.8046H59.8225C63.2057 168.797 67.1802 168.436 71.6995 167.758C76.6283 167.019 81.3966 165.424 85.9903 163.012C91.1628 160.415 95.2426 156.608 98.123 151.646C101.487 146.017 102.327 138.912 101.384 130.904C100.46 123.042 98.1989 116.436 93.9823 111.868C90.3312 107.479 85.7795 104.508 80.389 103.154C75.7315 101.932 71.0357 101.551 66.3298 102.032C62.2572 102.265 58.6211 102.839 55.5251 103.846L52.7423 104.542L52.0036 104.726L51.8189 104.773L51.773 104.784L51.7614 104.787L51.7585 104.788L51.7575 104.788Z" fill="#FFA602"/>
<path fill-rule="evenodd" clip-rule="evenodd" d="M337.153 26.0598C334.977 18.3254 330.814 11.3286 324.299 6.742C318.902 2.95148 311.912 1.68797 305.456 2.81271C304.302 3.00991 303.163 3.29475 302.06 3.64531C297.626 5.0622 293.653 7.65494 290.849 11.555C290.067 12.6359 289.395 13.7242 288.818 14.8197C287.482 17.2372 286.481 19.7057 285.539 22.2912C283.012 19.6254 280.332 17.0546 277.22 15.1045C270.633 10.9707 262.321 11.2483 256.084 15.9298C249.467 20.8962 246.56 29.9307 246.137 37.9426C245.728 45.6405 247.422 54.0249 251.337 60.6931C255.427 67.6606 261.452 73.2478 268.164 77.6591C274.92 82.0996 282.742 86.5475 290.747 88.0666C296.027 89.0672 301.322 87.8767 306.011 85.3862C311.043 82.7131 316.024 79.9086 320.589 76.4906C328.162 70.8303 334.422 63.3296 337.065 54.1199C339.512 45.5894 339.746 35.2914 337.146 26.0525L337.153 26.0598ZM287.751 51.9641C287.344 60.0587 281.635 66.3499 275 66.0161C268.365 65.6822 263.317 58.8497 263.724 50.7551C264.132 42.6606 269.84 36.3693 276.475 36.7031C283.11 37.037 288.159 43.8696 287.751 51.9641ZM310.637 66.0161C304.002 66.3499 298.293 60.0587 297.886 51.9641C297.478 43.8696 302.527 37.037 309.162 36.7031C315.797 36.3693 321.505 42.6606 321.913 50.7551C322.32 58.8497 317.272 65.6822 310.637 66.0161Z" fill="#71BE44"/>
<ellipse cx="5.44675" cy="8.29083" rx="5.44675" ry="8.29083" transform="matrix(-0.998737 0.0502535 0.0502535 0.998737 279.159 47.5879)" fill="#71BE44"/>
<ellipse cx="5.44675" cy="8.29083" rx="5.44675" ry="8.29083" transform="matrix(-0.998737 0.0502535 0.0502535 0.998737 313.321 47.5879)" fill="#71BE44"/>
<path d="M19.7925 222.765H9.55876V203.851H20.097L19.7925 208.511H14.767V211.344H19.1224V215.364H14.767V218.501H20.097L19.7925 222.765ZM21.0198 209.547C21.0198 207.739 21.5477 206.288 22.6036 205.191C23.6595 204.095 25.1011 203.546 26.9286 203.546C28.7763 203.546 30.6647 203.729 32.5937 204.095L31.9845 208.968C29.9743 208.501 28.5936 208.267 27.8423 208.267C26.888 208.267 26.4108 208.653 26.4108 209.425C26.4108 209.729 26.6341 210.024 27.0809 210.308C27.5479 210.592 28.1063 210.897 28.756 211.222C29.4058 211.526 30.0555 211.902 30.7053 212.349C31.3551 212.775 31.9033 213.394 32.35 214.207C32.817 215.019 33.0505 215.953 33.0505 217.009C33.0505 218.938 32.5327 220.43 31.4972 221.486C30.4616 222.542 28.9895 223.07 27.0809 223.07C25.1925 223.07 23.3447 222.775 21.5376 222.186L21.8726 217.648C24.0453 218.278 25.558 218.592 26.4108 218.592C27.2636 218.592 27.69 218.217 27.69 217.466C27.69 217.08 27.4565 216.724 26.9895 216.4C26.5428 216.075 25.9945 215.75 25.3448 215.425C24.695 215.1 24.0351 214.724 23.365 214.298C22.7153 213.872 22.1569 213.252 21.6899 212.44C21.2432 211.628 21.0198 210.663 21.0198 209.547ZM39.561 213.506C39.561 215.293 39.7336 216.572 40.0788 217.344C40.4443 218.095 41.0332 218.471 41.8454 218.471C42.6576 218.471 43.8048 218.278 45.2871 217.892L46.0789 222.186C44.4749 222.775 42.8606 223.07 41.2362 223.07C38.7996 223.07 37.0229 222.268 35.9061 220.664C34.8097 219.039 34.2614 216.633 34.2614 213.445C34.2614 210.237 34.8401 207.79 35.9975 206.105C37.1549 204.399 39.0433 203.546 41.6626 203.546C43.2058 203.546 44.6779 203.871 46.0789 204.521L45.2566 209.242C43.6728 208.714 42.5662 208.45 41.9367 208.45C41.0433 208.45 40.424 208.846 40.0788 209.638C39.7336 210.41 39.561 211.699 39.561 213.506ZM52.693 216.552C52.693 217.181 52.825 217.648 53.0889 217.953C53.3529 218.257 53.7793 218.41 54.3681 218.41C54.9773 218.41 55.3935 218.268 55.6169 217.983C55.8606 217.679 55.9824 217.191 55.9824 216.521V203.851H61.2211V216.826C61.2211 218.999 60.6221 220.582 59.4241 221.577C58.2464 222.572 56.5002 223.07 54.1854 223.07C51.8909 223.07 50.1752 222.582 49.0381 221.608C47.9213 220.613 47.3629 219.039 47.3629 216.887V203.851H52.693V216.552ZM68.5908 213.506C68.5908 215.293 68.7634 216.572 69.1086 217.344C69.4741 218.095 70.063 218.471 70.8752 218.471C71.6874 218.471 72.8346 218.278 74.3168 217.892L75.1087 222.186C73.5046 222.775 71.8904 223.07 70.266 223.07C67.8294 223.07 66.0527 222.268 64.9359 220.664C63.8395 219.039 63.2912 216.633 63.2912 213.445C63.2912 210.237 63.8699 207.79 65.0273 206.105C66.1847 204.399 68.0731 203.546 70.6924 203.546C72.2356 203.546 73.7077 203.871 75.1087 204.521L74.2864 209.242C72.7026 208.714 71.596 208.45 70.9665 208.45C70.0731 208.45 69.4538 208.846 69.1086 209.638C68.7634 210.41 68.5908 211.699 68.5908 213.506ZM90.3727 222.765H85.1949V215.608H81.6314V222.765H76.3927V203.851H81.6314V211.283H85.1949V203.851H90.3727V222.765ZM106.514 222.765H101.428L100.849 219.78H97.2551L96.6765 222.765H91.8337L95.3059 203.851H103.042L106.514 222.765ZM100.27 216.217L99.2044 209.455H98.9912L97.9252 216.217H100.27ZM121.897 222.765H116.902L112.973 213.963H112.729V222.765H108.099V203.851H113.247L116.993 212.927H117.237V203.851H121.897V222.765ZM138.649 212.897C138.649 219.476 136.05 222.765 130.852 222.765H124.577V203.851H130.973C133.755 203.851 135.725 204.633 136.882 206.196C138.06 207.739 138.649 209.973 138.649 212.897ZM130.76 218.379C131.836 218.379 132.527 218.004 132.831 217.252C133.156 216.481 133.319 215.202 133.319 213.415C133.319 211.608 133.146 210.328 132.801 209.577C132.476 208.826 131.765 208.45 130.669 208.45H129.755V218.379H130.76ZM141.736 205.831C142.914 204.308 144.833 203.546 147.493 203.546C150.153 203.546 152.051 204.298 153.188 205.8C154.346 207.303 154.924 209.75 154.924 213.141C154.924 216.511 154.335 219.009 153.158 220.633C151.98 222.258 150.071 223.07 147.432 223.07C144.792 223.07 142.894 222.268 141.736 220.664C140.579 219.059 140 216.572 140 213.201C140 209.811 140.579 207.354 141.736 205.831ZM149.686 213.141C149.686 211.273 149.533 210.014 149.229 209.364C148.944 208.694 148.345 208.359 147.432 208.359C146.538 208.359 145.96 208.694 145.696 209.364C145.432 210.014 145.3 211.262 145.3 213.11V213.841C145.3 215.811 145.442 217.11 145.726 217.74C146.031 218.349 146.63 218.653 147.523 218.653C148.437 218.653 149.026 218.359 149.29 217.77C149.554 217.181 149.686 215.963 149.686 214.115V213.141ZM168.083 213.506C168.083 215.293 168.256 216.572 168.601 217.344C168.967 218.095 169.555 218.471 170.368 218.471C171.18 218.471 172.327 218.278 173.809 217.892L174.601 222.186C172.997 222.775 171.383 223.07 169.758 223.07C167.322 223.07 165.545 222.268 164.428 220.664C163.332 219.039 162.784 216.633 162.784 213.445C162.784 210.237 163.362 207.79 164.52 206.105C165.677 204.399 167.566 203.546 170.185 203.546C171.728 203.546 173.2 203.871 174.601 204.521L173.779 209.242C172.195 208.714 171.088 208.45 170.459 208.45C169.566 208.45 168.946 208.846 168.601 209.638C168.256 210.41 168.083 211.699 168.083 213.506ZM189.469 222.765H184.383L183.804 219.78H180.21L179.631 222.765H174.789L178.261 203.851H185.997L189.469 222.765ZM183.225 216.217L182.159 209.455H181.946L180.88 216.217H183.225ZM205.126 212.897C205.126 219.476 202.527 222.765 197.329 222.765H191.054V203.851H197.451C200.232 203.851 202.202 204.633 203.359 206.196C204.537 207.739 205.126 209.973 205.126 212.897ZM197.237 218.379C198.313 218.379 199.004 218.004 199.308 217.252C199.633 216.481 199.796 215.202 199.796 213.415C199.796 211.608 199.623 210.328 199.278 209.577C198.953 208.826 198.242 208.45 197.146 208.45H196.232V218.379H197.237ZM220.67 222.765H215.584L215.005 219.78H211.411L210.833 222.765H205.99L209.462 203.851H217.198L220.67 222.765ZM214.427 216.217L213.361 209.455H213.147L212.081 216.217H214.427ZM238.884 222.765H228.65V203.851H239.189L238.884 208.511H233.859V211.344H238.214V215.364H233.859V218.501H239.189L238.884 222.765ZM259.269 222.765H254.487V212.897H254.213L252.416 222.765H247.513L245.807 212.897H245.502V222.765H240.782L241.421 203.851H248.274L249.98 214.085H250.223L251.868 203.851H258.63L259.269 222.765ZM262.882 205.831C264.06 204.308 265.979 203.546 268.638 203.546C271.298 203.546 273.197 204.298 274.334 205.8C275.491 207.303 276.07 209.75 276.07 213.141C276.07 216.511 275.481 219.009 274.304 220.633C273.126 222.258 271.217 223.07 268.578 223.07C265.938 223.07 264.039 222.268 262.882 220.664C261.725 219.059 261.146 216.572 261.146 213.201C261.146 209.811 261.725 207.354 262.882 205.831ZM270.831 213.141C270.831 211.273 270.679 210.014 270.375 209.364C270.09 208.694 269.491 208.359 268.578 208.359C267.684 208.359 267.105 208.694 266.841 209.364C266.578 210.014 266.446 211.262 266.446 213.11V213.841C266.446 215.811 266.588 217.11 266.872 217.74C267.177 218.349 267.776 218.653 268.669 218.653C269.583 218.653 270.171 218.359 270.435 217.77C270.699 217.181 270.831 215.963 270.831 214.115V213.141ZM282.834 213.506C282.834 215.293 283.007 216.572 283.352 217.344C283.718 218.095 284.306 218.471 285.119 218.471C285.931 218.471 287.078 218.278 288.56 217.892L289.352 222.186C287.748 222.775 286.134 223.07 284.509 223.07C282.073 223.07 280.296 222.268 279.179 220.664C278.083 219.039 277.535 216.633 277.535 213.445C277.535 210.237 278.113 207.79 279.271 206.105C280.428 204.399 282.317 203.546 284.936 203.546C286.479 203.546 287.951 203.871 289.352 204.521L288.53 209.242C286.946 208.714 285.839 208.45 285.21 208.45C284.317 208.45 283.697 208.846 283.352 209.638C283.007 210.41 282.834 211.699 282.834 213.506ZM296.118 222.765H290.941V203.851H296.118V222.765ZM300.24 205.831C301.418 204.308 303.337 203.546 305.996 203.546C308.656 203.546 310.555 204.298 311.692 205.8C312.849 207.303 313.428 209.75 313.428 213.141C313.428 216.511 312.839 219.009 311.662 220.633C310.484 222.258 308.575 223.07 305.936 223.07C303.296 223.07 301.397 222.268 300.24 220.664C299.083 219.059 298.504 216.572 298.504 213.201C298.504 209.811 299.083 207.354 300.24 205.831ZM308.189 213.141C308.189 211.273 308.037 210.014 307.733 209.364C307.448 208.694 306.849 208.359 305.936 208.359C305.042 208.359 304.463 208.694 304.199 209.364C303.936 210.014 303.804 211.262 303.804 213.11V213.841C303.804 215.811 303.946 217.11 304.23 217.74C304.535 218.349 305.134 218.653 306.027 218.653C306.941 218.653 307.529 218.359 307.793 217.77C308.057 217.181 308.189 215.963 308.189 214.115V213.141ZM310.321 198.491L307.215 202.541H303.864L305.692 198.491H310.321ZM329.299 222.765H324.304L320.375 213.963H320.131V222.765H315.502V203.851H320.649L324.395 212.927H324.639V203.851H329.299V222.765Z" fill="#313131"/>
</svg>
