<svg width="327" height="206" viewBox="0 0 327 206" fill="none" xmlns="http://www.w3.org/2000/svg">
<path d="M133.806 30.8115C133.806 30.8115 134.22 30.8751 135.048 31.0024C135.875 31.0661 136.798 31.3525 137.817 31.8618C138.899 32.3073 139.822 33.1349 140.585 34.3443C141.349 35.4901 141.668 37.1769 141.54 39.4048C141.477 40.8689 141.381 42.8422 141.254 45.3247C141.19 47.7436 141.158 50.4171 141.158 53.3452C141.158 56.2096 141.222 59.0741 141.349 61.9386C141.54 64.803 141.827 67.4447 142.209 69.8636C142.654 72.2824 143.227 74.2239 143.927 75.688C144.691 77.0884 145.614 77.7567 146.696 77.6931C147.842 77.6294 148.701 76.8656 149.274 75.4015C149.847 73.8738 150.229 71.9642 150.42 69.6726C150.611 67.3174 150.675 64.8348 150.611 62.225C150.547 59.6152 150.42 57.1326 150.229 54.7774C150.038 52.3585 149.847 50.3853 149.656 48.8575C149.529 47.2662 149.433 46.375 149.37 46.184C149.306 45.9294 149.211 45.3884 149.083 44.5609C148.956 43.7333 149.02 42.8422 149.274 41.8874C149.529 40.9325 150.166 40.0732 151.184 39.3094C152.266 38.5455 153.953 38.0681 156.245 37.8771C158.536 37.6862 160.318 37.9726 161.592 38.7365C162.865 39.5003 163.756 40.4233 164.265 41.5054C164.838 42.5876 165.156 43.5424 165.22 44.3699C165.347 45.1974 165.411 45.6112 165.411 45.6112C165.411 45.6112 165.506 46.3432 165.697 47.8072C165.952 49.2713 166.143 51.2128 166.27 53.6316C166.461 55.9869 166.461 58.5967 166.27 61.4612C166.143 64.3256 165.729 67.2219 165.029 70.15C164.392 73.0145 163.342 75.6561 161.878 78.075C160.414 80.4302 158.441 82.3399 155.958 83.8039C153.476 85.268 150.356 86 146.601 86C142.845 86 139.663 85.2361 137.053 83.7084C134.506 82.1171 132.406 80.0483 130.751 77.5021C129.159 74.8923 127.918 71.996 127.027 68.8133C126.2 65.6305 125.627 62.3841 125.308 59.0741C125.054 55.7004 124.926 52.5177 124.926 49.5259C124.99 46.5341 125.086 43.9243 125.213 41.6964C125.404 39.4685 125.531 37.8771 125.595 36.9223C125.722 35.2673 126.2 34.026 127.027 33.1985C127.855 32.3073 128.778 31.7026 129.796 31.3844C130.878 31.0661 131.801 30.9069 132.565 30.9069C133.393 30.8433 133.806 30.8115 133.806 30.8115ZM179.711 86C177.356 86 175.574 85.6817 174.364 85.0452C173.219 84.4086 172.455 83.6766 172.073 82.8491C171.691 82.0216 171.5 81.2896 171.5 80.653C171.5 80.0165 171.5 79.6982 171.5 79.6982L170.354 38.2591C170.354 38.2591 170.322 37.9408 170.259 37.3042C170.195 36.6677 170.322 35.9357 170.641 35.1081C170.959 34.217 171.627 33.4531 172.646 32.8166C173.664 32.1164 175.256 31.7663 177.42 31.7663C180.284 31.7026 182.449 32.1164 183.913 33.0075C185.377 33.8351 186.332 34.6944 186.777 35.5856C187.286 36.4131 187.541 36.8268 187.541 36.8268L198.521 56.7825C198.521 56.7825 198.776 56.2096 199.285 55.0639C199.858 53.8544 200.526 52.3585 201.29 50.5762C202.118 48.7939 202.945 46.9797 203.773 45.1337C204.6 43.2878 205.332 41.6964 205.969 40.3597C206.606 38.9593 207.019 38.0681 207.21 37.6862C207.528 37.0496 208.101 36.1903 208.929 35.1081C209.756 33.9624 210.934 32.9121 212.462 31.9572C214.053 31.0024 216.122 30.4932 218.668 30.4295C220.578 30.3659 222.042 30.5887 223.06 31.0979C224.079 31.5435 224.779 32.0846 225.161 32.7211C225.606 33.3576 225.861 33.9305 225.925 34.4398C225.988 34.949 226.02 35.2036 226.02 35.2036C226.02 35.2036 226.02 36.0311 226.02 37.6862C226.02 39.2775 226.02 41.41 226.02 44.0834C226.084 46.7569 226.116 49.6851 226.116 52.8678C226.116 56.0505 226.116 59.2651 226.116 62.5115C226.116 65.6942 226.116 68.6223 226.116 71.2958C226.179 73.9693 226.211 76.1335 226.211 77.7886C226.211 79.4436 226.211 80.3029 226.211 80.3666C226.211 80.4302 226.179 80.7485 226.116 81.3214C226.116 81.8943 225.893 82.5627 225.447 83.3265C225.002 84.0267 224.206 84.6633 223.06 85.2361C221.978 85.7454 220.355 86 218.191 86C216.026 86 214.371 85.7772 213.226 85.3316C212.143 84.8224 211.38 84.2813 210.934 83.7084C210.488 83.0719 210.234 82.5308 210.17 82.0852C210.107 81.6397 210.075 81.4169 210.075 81.4169C210.075 81.4169 210.075 80.8758 210.075 79.7937C210.075 78.6479 210.075 77.2475 210.075 75.5925C210.138 73.8738 210.17 72.187 210.17 70.5319C210.234 68.8133 210.266 67.381 210.266 66.2352C210.266 65.0895 210.266 64.5166 210.266 64.5166L211.029 50.8627L206.064 61.4612C206.064 61.4612 205.873 61.8113 205.492 62.5115C205.173 63.2117 204.537 63.9119 203.582 64.6121C202.627 65.3123 201.195 65.6942 199.285 65.7578C197.439 65.8215 195.975 65.5669 194.893 64.994C193.875 64.3574 193.143 63.7527 192.697 63.1798C192.315 62.5433 192.124 62.225 192.124 62.225L185.918 50.8627C185.918 50.8627 185.95 51.6265 186.013 53.1542C186.141 54.6183 186.268 56.5597 186.395 58.9786C186.522 61.3338 186.65 63.8482 186.777 66.5217C186.904 69.1315 187 71.6141 187.064 73.9693C187.191 76.2608 187.286 78.1068 187.35 79.5072C187.414 81.2259 187.064 82.5627 186.3 83.5175C185.536 84.4086 184.645 85.0452 183.626 85.4271C182.608 85.7454 181.685 85.9363 180.857 86C180.093 86 179.711 86 179.711 86Z" fill="white"/>
<path d="M163.23 92.1345C163.23 92.1345 163.782 92.2194 164.885 92.3891C165.989 92.474 167.219 92.8559 168.577 93.5349C170.02 94.129 171.251 95.2324 172.269 96.845C173.288 98.3727 173.712 100.622 173.542 103.592C173.457 105.544 173.33 108.175 173.16 111.486C173.076 114.711 173.033 118.275 173.033 122.179C173.033 125.999 173.118 129.818 173.288 133.637C173.542 137.457 173.924 140.979 174.434 144.204C175.028 147.429 175.791 150.018 176.725 151.97C177.744 153.837 178.974 154.728 180.417 154.643C181.945 154.558 183.091 153.54 183.854 151.588C184.618 149.551 185.127 147.005 185.382 143.949C185.637 140.809 185.722 137.499 185.637 134.019C185.552 130.539 185.382 127.229 185.127 124.089C184.873 120.864 184.618 118.233 184.364 116.196C184.194 114.074 184.067 112.886 183.982 112.631C183.897 112.292 183.77 111.57 183.6 110.467C183.43 109.364 183.515 108.175 183.854 106.902C184.194 105.629 185.043 104.484 186.401 103.465C187.843 102.447 190.093 101.81 193.148 101.555C196.203 101.301 198.58 101.683 200.277 102.701C201.975 103.72 203.163 104.95 203.842 106.393C204.606 107.836 205.03 109.109 205.115 110.212C205.285 111.316 205.37 111.867 205.37 111.867C205.37 111.867 205.497 112.843 205.752 114.796C206.091 116.748 206.346 119.336 206.515 122.561C206.77 125.702 206.77 129.181 206.515 133.001C206.346 136.82 205.794 140.682 204.86 144.586C204.012 148.405 202.611 151.927 200.659 155.153C198.707 158.293 196.076 160.839 192.766 162.791C189.456 164.743 185.297 165.719 180.29 165.719C175.282 165.719 171.039 164.701 167.559 162.664C164.164 160.542 161.363 157.784 159.156 154.389C157.035 150.909 155.38 147.047 154.191 142.804C153.088 138.56 152.324 134.231 151.9 129.818C151.56 125.32 151.391 121.076 151.391 117.087C151.475 113.098 151.603 109.618 151.772 106.648C152.027 103.677 152.197 101.555 152.282 100.282C152.451 98.0756 153.088 96.4206 154.191 95.3172C155.295 94.129 156.525 93.3227 157.883 92.8984C159.326 92.474 160.557 92.2618 161.575 92.2618C162.679 92.177 163.23 92.1345 163.23 92.1345ZM224.437 165.719C221.297 165.719 218.92 165.295 217.308 164.446C215.78 163.597 214.762 162.621 214.252 161.518C213.743 160.415 213.489 159.439 213.489 158.59C213.489 157.741 213.489 157.317 213.489 157.317L211.961 102.065C211.961 102.065 211.918 101.64 211.834 100.792C211.749 99.9428 211.918 98.9668 212.343 97.8634C212.767 96.6752 213.658 95.6567 215.016 94.808C216.374 93.8744 218.496 93.4076 221.382 93.4076C225.201 93.3227 228.087 93.8744 230.039 95.0626C231.991 96.166 233.264 97.3118 233.858 98.5C234.537 99.6033 234.877 100.155 234.877 100.155L249.517 126.763C249.517 126.763 249.857 125.999 250.536 124.471C251.299 122.858 252.191 120.864 253.209 118.488C254.312 116.111 255.416 113.692 256.519 111.231C257.622 108.77 258.598 106.648 259.447 104.865C260.296 102.998 260.848 101.81 261.102 101.301C261.527 100.452 262.29 99.3063 263.394 97.8634C264.497 96.3357 266.067 94.9353 268.104 93.6622C270.226 92.3891 272.984 91.7102 276.379 91.6253C278.926 91.5404 280.878 91.8375 282.236 92.5164C283.594 93.1106 284.527 93.832 285.036 94.6807C285.63 95.5294 285.97 96.2933 286.055 96.9723C286.14 97.6512 286.182 97.9907 286.182 97.9907C286.182 97.9907 286.182 99.0941 286.182 101.301C286.182 103.423 286.182 106.266 286.182 109.83C286.267 113.395 286.309 117.299 286.309 121.543C286.309 125.787 286.309 130.073 286.309 134.401C286.309 138.645 286.309 142.549 286.309 146.114C286.394 149.678 286.437 152.564 286.437 154.771C286.437 156.977 286.437 158.123 286.437 158.208C286.437 158.293 286.394 158.717 286.309 159.481C286.309 160.245 286.012 161.136 285.418 162.155C284.824 163.088 283.763 163.937 282.236 164.701C280.793 165.38 278.628 165.719 275.743 165.719C272.857 165.719 270.65 165.422 269.123 164.828C267.68 164.149 266.661 163.428 266.067 162.664C265.473 161.815 265.134 161.094 265.049 160.5C264.964 159.905 264.922 159.608 264.922 159.608C264.922 159.608 264.922 158.887 264.922 157.444C264.922 155.916 264.922 154.049 264.922 151.843C265.006 149.551 265.049 147.302 265.049 145.095C265.134 142.804 265.176 140.894 265.176 139.366C265.176 137.839 265.176 137.075 265.176 137.075L266.195 118.869L259.575 133.001C259.575 133.001 259.32 133.468 258.811 134.401C258.386 135.335 257.538 136.268 256.264 137.202C254.991 138.136 253.082 138.645 250.536 138.73C248.074 138.815 246.122 138.475 244.679 137.711C243.321 136.862 242.345 136.056 241.751 135.292C241.242 134.444 240.987 134.019 240.987 134.019L232.712 118.869C232.712 118.869 232.755 119.888 232.84 121.925C233.009 123.877 233.179 126.466 233.349 129.691C233.519 132.831 233.688 136.184 233.858 139.748C234.028 143.228 234.155 146.538 234.24 149.678C234.41 152.734 234.537 155.195 234.622 157.062C234.707 159.354 234.24 161.136 233.222 162.409C232.203 163.597 231.015 164.446 229.657 164.955C228.299 165.38 227.068 165.634 225.965 165.719C224.946 165.719 224.437 165.719 224.437 165.719Z" fill="white"/>
<path fill-rule="evenodd" clip-rule="evenodd" d="M72.0593 6.34547C81.518 8.08275 91.3009 12.6596 101.418 20.3476C108.141 25.4902 111.578 30.3739 112.701 34.8662L112.726 34.9637L112.754 35.06C114.189 39.9023 114.177 44.5489 112.776 49.1187C111.238 53.9157 109.04 58.3114 106.18 62.3243C103.133 66.3828 100.378 69.5106 97.9159 71.783L97.8474 71.846L97.7816 71.9122L94.9323 74.7615L94.2197 75.4736L94.0416 75.6518L93.9973 75.6965L93.9861 75.7073L93.9833 75.7101L93.9828 75.711L88.7715 80.9219L95.7115 83.4005L95.7124 83.4009L95.7157 83.4019L95.7288 83.4065L95.7805 83.4252L95.9885 83.4993L96.8195 83.7959L100.144 84.9832C102.776 85.9233 106.123 87.4851 110.229 89.7436L110.271 89.7664L110.313 89.7884C114.337 91.8958 118.45 94.8178 122.645 98.6134L122.691 98.6553L122.739 98.6959C126.674 102.068 130.007 106.328 132.715 111.549L132.745 111.608L132.778 111.667C135.524 116.61 137.065 122.503 137.259 129.477L137.259 129.489V129.5C137.643 141.201 134.046 150.442 126.634 157.669L126.613 157.689L126.592 157.71C119.076 165.227 108.358 171.126 94.1204 175.197C80.0528 179.068 63.7113 181.039 45.0412 181.039C34.2163 181.039 26.283 180.197 20.9945 178.686C15.3137 177.062 11.9303 175.302 10.2006 173.716C7.79628 171.512 7.21261 170.293 7.14121 170.008L6.66634 168.108L6.60651 167.869L6.59583 167.72L6.47715 166.058L6.0081 159.492C5.79401 153.535 5.37048 145.927 4.7405 136.682C4.31764 127.386 3.7896 117.461 3.15651 106.91C2.52398 96.1567 1.89137 85.9285 1.25866 76.2249C0.838064 66.3385 0.522949 58.1426 0.312964 51.633C0.114408 45.2792 0.0123668 41.4429 0 40.0127C0.393338 36.6615 0.695192 33.9474 0.903958 31.8795C1.02472 31.3021 1.18093 30.9994 1.27339 30.8607C1.35457 30.7389 1.42416 30.6807 1.53663 30.6245C2.64662 30.0695 4.25216 28.9899 5.00482 26.9828C5.71767 25.0819 5.31568 23.3344 4.69932 22.0731C4.66645 21.9184 4.62443 21.604 4.64999 21.075C4.73019 20.9916 4.84463 20.8817 5.00412 20.7461C5.66511 20.1843 6.77975 19.4548 8.5018 18.5938C11.3364 17.1765 15.8821 15.1078 22.2007 12.3697L22.2335 12.3555L22.2659 12.3409C28.3874 9.5763 35.8208 7.34883 44.6278 5.71033C53.0345 4.1463 62.1319 4.3204 71.9693 6.32801L72.014 6.33718L72.0593 6.34547ZM41.9343 28.0177L39.428 29.3253V32.1522V32.1527V32.1534V32.1541V32.155V32.156V32.1565V32.1571V32.1578V32.1584V32.1592V32.1599V32.1607V32.1616V32.1624V32.1633V32.1643V32.1652V32.1663V32.1673V32.1685V32.1696V32.1707V32.172V32.1732V32.1745V32.1759V32.1772V32.1787V32.1801V32.1816V32.1831V32.1847V32.1863V32.1879V32.1896V32.1913V32.1931V32.1949V32.1967V32.1986V32.2005V32.2025V32.2045V32.2065V32.2086V32.2107V32.2128V32.215V32.2172V32.2195V32.2218V32.2241V32.2265V32.2289V32.2313V32.2338V32.2364V32.2389V32.2415V32.2442V32.2469V32.2496V32.2524V32.2552V32.258V32.2609V32.2638V32.2668V32.2698V32.2728V32.2759V32.279V32.2821V32.2853V32.2885V32.2918V32.2951V32.2985V32.3018V32.3052V32.3087V32.3122V32.3157V32.3193V32.323V32.3266V32.3303V32.334V32.3378V32.3416V32.3454V32.3493V32.3532V32.3572V32.3612V32.3653V32.3693V32.3734V32.3776V32.3818V32.386V32.3903V32.3946V32.3989V32.4033V32.4077V32.4122V32.4167V32.4213V32.4258V32.4305V32.4351V32.4398V32.4445V32.4493V32.4541V32.459V32.4639V32.4688V32.4738V32.4788V32.4838V32.4889V32.494V32.4992V32.5044V32.5096V32.5149V32.5202V32.5255V32.531V32.5364V32.5419V32.5474V32.5529V32.5585V32.5641V32.5697V32.5755V32.5812V32.587V32.5928V32.5987V32.6045V32.6105V32.6164V32.6224V32.6285V32.6346V32.6407V32.6469V32.6531V32.6593V32.6656V32.6719V32.6783V32.6847V32.6911V32.6976V32.7041V32.7106V32.7173V32.7239V32.7305V32.7373V32.744V32.7508V32.7576V32.7644V32.7713V32.7783V32.7852V32.7923V32.7993V32.8064V32.8136V32.8207V32.8279V32.8352V32.8425V32.8498V32.8572V32.8645V32.872V32.8794V32.887V32.8946V32.9021V32.9098V32.9175V32.9251V32.9329V32.9407V32.9485V32.9564V32.9643V32.9722V32.9802V32.9882V32.9963V33.0044V33.0125V33.0207V33.0289V33.0372V33.0454V33.0538V33.0621V33.0706V33.079V33.0875V33.096V33.1045V33.1131V33.1218V33.1305V33.1392V33.1479V33.1567V33.1655V33.1744V33.1833V33.1923V33.2013V33.2103V33.2194V33.2285V33.2376V33.2468V33.256V33.2652V33.2745V33.2839V33.2932V33.3026V33.3121V33.3216V33.3311V33.3407V33.3503V33.3599V33.3696V33.3793V33.3891V33.3989V33.4087V33.4186V33.4285V33.4384V33.4484V33.4585V33.4685V33.4786V33.4888V33.499V33.5092V33.5194V33.5298V33.5401V33.5505V33.5609V33.5714V33.5818V33.5924V33.6029V33.6136V33.6242V33.6349V33.6456V33.6564V33.6672V33.678V33.6889V33.6998V33.7108V33.7217V33.7328V33.7439V33.755V33.7661V33.7773V33.7885V33.7998V33.8111V33.8225V33.8339V33.8453V33.8567V33.8682V33.8797V33.8913V33.9029V33.9146V33.9263V33.938V33.9498V33.9616V33.9734V33.9853V33.9972V34.0092V34.0212V34.0333V34.0453V34.0574V34.0696V34.0818V34.094V34.1063V34.1186V34.131V34.1433V34.1558V34.1682V34.1807V34.1933V34.2059V34.2184V34.2311V34.2438V34.2565V34.2693V34.2821V34.295V34.3078V34.3208V34.3338V34.3468V34.3598V34.3729V34.386V34.3992V34.4123V34.4256V34.4389V34.4522V34.4656V34.4789V34.4924V34.5058V34.5193V34.5329V34.5465V34.5601V34.5737V34.5875V34.6012V34.615V34.6288V34.6426V34.6565V34.6705V34.6845V34.6984V34.7125V34.7266V34.7407V34.7549V34.7691V34.7833V34.7976V34.8119V34.8263V34.8407V34.8551V34.8696V34.8841V34.8986V34.9132V34.9278V34.9425V34.9572V34.972V34.9868V35.0016V35.0164V35.0313V35.0463V35.0613V35.0763V35.0913V35.1064V35.1216V35.1367V35.1519V35.1672V35.1825V35.1978V35.2131V35.2285V35.244V35.2595V35.275V35.2905V35.3061V35.3218V35.3374V35.3531V35.3689V35.3847V35.4005V35.4164V35.4323V35.4482V35.4642V35.4802V35.4963V35.5123V35.5285V35.5447V35.5609V35.5771V35.5934V35.6098V35.6261V35.6425V35.659V35.6755V35.692V35.7085V35.7251V35.7418V35.7584V35.7752V35.7919V35.8087V35.8255V35.8424V35.8593V35.8763V35.8933V35.9103V35.9273V35.9445V35.9616V35.9787V35.996V36.0132V36.0305V36.0478V36.0652V36.0826V36.1001V36.1176V36.1351V36.1527V36.1703V36.1879V36.2056V36.2233V36.2411V36.2589V36.2767V36.2946V36.3125V36.3304V36.3484V36.3664V36.3845V36.4026V36.4208V36.439V36.4572V36.4754V36.4938V36.5121V36.5305V36.5489V36.5673V36.5858V36.6044V36.6229V36.6415V36.6602V36.6788V36.6976V36.7163V36.7352V36.754V36.7729V36.7918V36.8108V36.8298V36.8488V36.8679V36.887V36.9061V36.9253V36.9445V36.9638V36.9831V37.0024V37.0218V37.0412V37.0607V37.0802V37.0997V37.1193V37.1389V37.1586V37.1782V37.198V37.2178V37.373L39.4384 37.528C39.6404 40.5593 39.7446 44.2493 39.7446 48.6153V48.7262L39.7499 48.8371C39.9614 53.2796 40.1732 57.4081 40.385 61.2214L40.393 61.3645L40.4097 61.5077C40.6271 63.3544 40.8531 64.9274 41.0933 66.1884C41.3044 67.2964 41.6071 68.6376 42.1365 69.6966C43.7329 72.8896 47.0173 72.899 48.3916 72.7026C49.8914 72.4881 51.4373 71.8432 52.8256 71.1488C55.8526 69.6355 58.8479 67.4475 61.818 64.7059L61.8231 64.7012L61.8283 64.6965C65.1509 61.6108 67.8142 58.1226 69.7672 54.2314C72.0481 49.9019 72.9616 45.368 72.1031 40.7907L72.09 40.722L72.0751 40.6536C70.4112 33.047 66.5369 27.0171 59.3716 25.3886C53.4897 24.0518 47.6138 25.0544 41.9343 28.0177ZM49.9254 101.079L46.2372 102.001L46.3973 105.799L48.6136 158.355L48.802 162.822H53.2728H53.2737H53.2747H53.2751H53.2761H53.277H53.2784H53.2793H53.2803H53.2817H53.2826H53.2835H53.2849H53.2859H53.2868H53.2877H53.2891H53.2901H53.291H53.2924H53.2933H53.2947H53.2961H53.2971H53.2985H53.2999H53.3013H53.3027H53.3041H53.3055H53.3069H53.3087H53.3101H53.3115H53.3134H53.3153H53.3166H53.3185H53.3204H53.3222H53.3241H53.326H53.3278H53.3297H53.3316H53.3334H53.3358H53.3376H53.34H53.3418H53.3442H53.3465H53.3488H53.3512H53.353H53.3558H53.3582H53.3605H53.3628H53.3651H53.3679H53.3703H53.3731H53.3754H53.3782H53.381H53.3838H53.3866H53.3894H53.3922H53.395H53.3978H53.4006H53.4039H53.4067H53.4099H53.4127H53.416H53.4188H53.422H53.4253H53.4286H53.4318H53.4351H53.4384H53.4416H53.4454H53.4486H53.4524H53.4556H53.4593H53.4626H53.4663H53.4701H53.4738H53.4775H53.4813H53.485H53.4887H53.4925H53.4962H53.5004H53.5041H53.5083H53.512H53.5162H53.5204H53.5246H53.5284H53.5326H53.5368H53.541H53.5456H53.5498H53.554H53.5587H53.5629H53.5675H53.5717H53.5764H53.5811H53.5853H53.5899H53.5946H53.5993H53.6044H53.609H53.6137H53.6184H53.6235H53.6282H53.6333H53.638H53.6431H53.6482H53.6533H53.6585H53.6636H53.6687H53.6739H53.679H53.6841H53.6897H53.6948H53.7H53.7056H53.7112H53.7163H53.7219H53.7275H53.7331H53.7387H53.7443H53.7499H53.7555H53.7615H53.7671H53.7732H53.7788H53.7849H53.7904H53.7965H53.8026H53.8086H53.8147H53.8208H53.8268H53.8329H53.839H53.845H53.8515H53.8576H53.8641H53.8702H53.8767H53.8832H53.8898H53.8958H53.9024H53.9089H53.9159H53.9224H53.929H53.9355H53.9425H53.949H53.956H53.9625H53.9695H53.9765H53.9835H53.99H53.997H54.004H54.0115H54.0185H54.0255H54.0325H54.0399H54.0469H54.0544H54.0614H54.0689H54.0763H54.0838H54.0912H54.0987H54.1062H54.1136H54.1211H54.1285H54.1365H54.1439H54.1519H54.1593H54.1672H54.1752H54.1826H54.1906H54.1985H54.2064H54.2144H54.2223H54.2307H54.2386H54.2465H54.2549H54.2628H54.2712H54.2792H54.2876H54.296H54.3044H54.3127H54.3211H54.3295H54.3379H54.3463H54.3552H54.3636H54.372H54.3808H54.3897H54.3981H54.4069H54.4158H54.4247H54.4335H54.4424H54.4513H54.4601H54.469H54.4783H54.4872H54.496H54.5053H54.5147H54.5235H54.5329H54.5422H54.5515H54.5608H54.5702H54.5795H54.5888H54.5981H54.6079H54.6173H54.6271H54.6364H54.6462H54.656H54.6653H54.6751H54.6849H54.6947H54.7045H54.7143H54.7245H54.7343H54.7441H54.7544H54.7642H54.7744H54.7842H54.7945H54.8047H54.815H54.8253H54.8355H54.8458H54.856H54.8663H54.8766H54.8873H54.8975H54.9083H54.9185H54.9292H54.94H54.9502H54.961H54.9717H54.9824H54.9931H55.0043H55.0151H55.0258H55.037H55.0477H55.0589H55.0696H55.0808H55.092H55.1027H55.1139H55.1251H55.1363H55.1475H55.1592H55.1703H55.1815H55.1932H55.2044H55.216H55.2272H55.2389H55.2506H55.2617H55.2734H55.2851H55.2967H55.3088H55.3205H55.3322H55.3438H55.3559H55.3676H55.3797H55.3914H55.4035H55.4156H55.4278H55.4399H55.452H55.4641H55.4763H55.4884H55.5005H55.5131H55.5252H55.5378H55.5499H55.5625H55.5751H55.5873H55.5998H55.6124H55.625H55.6376H55.6507H55.6633H55.6759H55.6884H55.7015H55.7141H55.7272H55.7402H55.7528H55.7659H55.7789H55.792H55.805H55.8181H55.8311H55.8447H55.8577H55.8708H55.8843H55.8974H55.9109H55.9244H55.9375H55.951H55.9645H55.978H55.9916H56.0051H56.0186H56.0326H56.0461H56.0597H56.0736H56.0872H56.1012H56.1151H56.1287H56.1427H56.1567H56.1706H56.1846H56.1986H56.2131H56.2271H56.2411H56.2555H56.2695H56.284H56.298H56.3124H56.3269H56.3413H56.3558H56.3702H56.3847H56.3992H56.4136H56.4281H56.443H56.4574H56.4724H56.4868H56.5017H56.5167H56.5311H56.546H56.561H56.5759H56.5908H56.6057H56.6211H56.636H56.651H56.6664H56.6813H56.6967H56.7121H56.727H56.7424H56.7578H56.7732H56.7885H56.8039H56.8193H56.8352H56.8506H56.866H56.8818H56.8972H56.9131H56.9289H56.9443H56.9602H56.976H56.9919H57.0077H57.0236H57.0394H57.0558H57.0716H57.0875H57.1038H57.1196H57.136H57.1523H57.1686H57.1845H57.2008H57.2171H57.2334H57.2497H57.2665H57.2829H57.2992H57.316H57.3323H57.3491H57.3654H57.3822H57.399H57.4158H57.4326H57.4493H57.4661H57.4829H57.4997H57.5165H57.5338H57.5505H57.5678H57.5846H57.6018H57.6191H57.6363H57.6531H57.6704H57.6876H57.7049C60.9683 162.822 64.8021 162.474 69.1614 161.82C73.9158 161.107 78.5153 159.568 82.9464 157.242C87.9358 154.737 91.8712 151.064 94.6497 146.278C97.8945 140.848 98.7045 133.995 97.7956 126.27C96.9035 118.687 94.7229 112.314 90.6555 107.908C87.1337 103.675 82.7431 100.809 77.5434 99.5027C73.0507 98.3238 68.5212 97.9568 63.9818 98.4203C60.0534 98.6451 56.546 99.1986 53.5596 100.17L50.8754 100.842L50.1628 101.019L49.9847 101.064L49.9404 101.075L49.9292 101.078L49.9264 101.078L49.9254 101.079Z" fill="white"/>
<path fill-rule="evenodd" clip-rule="evenodd" d="M325.219 25.1373C323.119 17.6767 319.104 10.9276 312.82 6.50334C307.613 2.847 300.871 1.62822 294.643 2.71314C293.53 2.90336 292.431 3.17811 291.368 3.51627C287.091 4.883 283.259 7.38397 280.554 11.146C279.8 12.1886 279.152 13.2383 278.595 14.2951C277.306 16.627 276.341 19.0082 275.432 21.5021C272.994 18.9307 270.409 16.4509 267.408 14.5698C261.053 10.5824 253.036 10.8501 247.019 15.3659C240.637 20.1565 237.833 28.8712 237.424 36.5995C237.03 44.0249 238.664 52.1126 242.44 58.5446C246.385 65.2655 252.197 70.655 258.672 74.9101C265.188 79.1935 272.734 83.4839 280.455 84.9492C285.548 85.9144 290.656 84.7661 295.179 82.3637C300.033 79.7852 304.838 77.08 309.241 73.7829C316.546 68.3231 322.584 61.0879 325.134 52.2041C327.494 43.9756 327.72 34.0422 325.212 25.1303L325.219 25.1373ZM277.566 50.1247C277.173 57.9327 271.666 64.0013 265.266 63.6793C258.866 63.3573 253.996 56.7666 254.389 48.9585C254.782 41.1505 260.289 35.0819 266.689 35.404C273.089 35.726 277.958 42.3167 277.566 50.1247ZM299.641 63.6793C293.241 64.0013 287.734 57.9327 287.341 50.1247C286.948 42.3167 291.818 35.726 298.218 35.404C304.618 35.0819 310.125 41.1505 310.518 48.9585C310.911 56.7666 306.041 63.3573 299.641 63.6793Z" fill="white"/>
<ellipse cx="5.25395" cy="7.99735" rx="5.25395" ry="7.99735" transform="matrix(-0.998737 0.0502535 0.0502535 0.998737 269.278 45.9034)" fill="white"/>
<ellipse cx="5.25395" cy="7.99735" rx="5.25395" ry="7.99735" transform="matrix(-0.998737 0.0502535 0.0502535 0.998737 302.23 45.9034)" fill="white"/>
</svg>
