<svg width="303" height="192" viewBox="0 0 303 192" fill="none" xmlns="http://www.w3.org/2000/svg">
<path d="M64.0002 11.9998C167 -11.0002 119 84.9998 214 44.9998C309 4.99979 335 199 255 165C175 131 129 205 64.0002 186C-0.999874 167 -38.9998 34.9998 64.0002 11.9998Z" fill="#FFA602"/>
<path d="M169.64 169.805C173.709 171.192 182.843 176.287 187.69 178.056C187.618 178.185 186.927 180.748 186.917 180.892L176.087 184.245C172.802 184.771 169.754 186.256 166.417 186.565C164.994 185.446 154.896 181.341 154.943 180.248C155.742 179.34 156.33 178.278 157.005 177.282C158.924 174.446 161.76 171.321 163.839 168.515C164.287 168.366 168.903 169.552 169.64 169.805Z" fill="#09B7AA"/>
<path d="M169.64 169.805C168.903 169.552 164.287 168.366 163.839 168.515C161.76 171.321 158.924 174.446 157.005 177.282C154.525 176.483 151.353 175.983 148.754 175.993C145.897 173.172 142.323 170.949 139.342 168.257C138.615 168.154 138.244 168.753 138.182 168.773C137.321 169.062 133.855 171.089 133.283 171.61C131.199 171.553 132.463 170.191 132.509 170.062C132.55 173.007 136.129 168.206 139.342 167.742L148.367 175.22C160.894 177.205 155.402 176.194 147.078 170.836C143.535 168.557 139.781 165.901 136.635 163.358C141.524 155.107 146.624 147.031 151.848 138.991L152.493 138.862L169.64 169.805Z" fill="#F4D735"/>
<path d="M132.509 170.062C133.339 167.67 135.356 165.514 136.635 163.358C139.781 165.901 143.535 168.557 147.078 170.836C155.401 176.194 160.894 177.205 148.367 175.22L139.342 167.742C136.129 168.206 132.55 173.007 132.509 170.062Z" fill="#F4D735"/>
<path d="M138.182 168.773C138.811 176.009 139.167 183.28 140.503 190.433C137.511 190.578 123.149 188.515 122.324 188.112C120.993 187.463 122.056 186.926 123.484 184.76C124.546 183.151 132.638 172.198 133.283 171.61C133.855 171.089 137.321 169.062 138.182 168.773Z" fill="#4C8D3B"/>
<path d="M148.754 175.993C151.822 179.026 154.87 182.94 156.49 186.952C156.175 187.71 142.22 190.351 140.503 190.433C139.167 183.28 138.811 176.009 138.182 168.773C138.244 168.753 138.615 168.154 139.342 168.257C142.323 170.95 145.897 173.172 148.754 175.993Z" fill="#6BA84C"/>
<path d="M74.4913 22.8267C73.4496 22.641 74.8111 23.8839 74.7492 25.5342C74.579 30.0415 67.5292 30.3406 64.5639 28.4995C62.1967 27.0297 60.7889 22.935 63.1457 21.2795C66.6783 18.3761 72.4697 18.0563 74.4913 22.8267Z" fill="#3C1917"/>
<path d="M134.83 53.5115C139.533 63.9959 137.542 70.432 133.283 80.5864L132.767 80.4575C133.489 79.8283 135.825 73.3149 135.603 72.9796C135.48 72.7888 132.029 71.9379 131.478 73.3664C131.431 72.6547 131.591 72.335 130.833 71.8193C126.939 69.1582 102.5 67.7606 96.9249 68.2093C96.2339 68.266 95.5531 68.3743 94.8621 68.4672C95.1766 67.5698 99.2559 67.4667 101.18 67.4357L101.824 64.3415C110.261 62.4436 118.028 61.6907 126.707 62.0208C129.415 62.1239 134.912 63.3461 135.345 63.31C139.456 62.9903 134.433 54.3418 134.314 53.6404C134.288 53.4857 134.618 53.496 134.83 53.5115Z" fill="#3C1917"/>
<path d="M63.1459 21.2795C60.7891 22.935 62.197 27.0297 64.5641 28.4995C67.5295 30.3406 74.5792 30.0415 74.7494 25.5342C74.8113 23.8839 73.4498 22.641 74.4916 22.8267C76.245 26.9627 74.0017 29.9074 75.1362 30.3045C96.8683 22.8679 125.062 31.7433 134.83 53.5115C134.618 53.4961 134.288 53.4858 134.314 53.6405C134.433 54.3418 139.456 62.9903 135.346 63.3101C135.526 55.5847 129.322 47.0961 124 41.6502C114.026 31.4494 99.4005 28.0457 85.4505 29.2731C83.6042 29.4329 77.9933 30.3767 76.1676 30.8202C71.0518 32.0682 63.1047 36.5704 68.0452 32.8831C70.7475 30.8666 69.2416 32.4757 66.1113 32.1095C59.5205 31.3411 58.3343 25.2351 63.1459 21.2795Z" fill="#221A17"/>
<path d="M124 41.6502C129.322 47.0961 135.526 55.5847 135.346 63.3101C134.912 63.3462 129.415 62.124 126.707 62.0208C118.028 61.6908 110.261 62.4437 101.824 64.3415C94.9653 65.8835 84.5685 69.3181 77.8436 71.8194C76.9257 71.1953 76.1934 72.3763 75.394 72.3351C74.7081 72.299 64.76 67.0645 63.2748 66.1465C61.15 64.8366 55.0853 60.3602 53.2184 58.6687C51.8311 57.4155 48.6853 54.5121 48.7059 53.2537C61.2274 26.4522 103.299 22.3471 124 41.6502Z" fill="url(#paint0_linear_201_753)"/>
<path d="M77.8435 71.8194C67.6221 75.6202 57.6482 80.0862 48.319 85.7436C44.0644 75.254 43.8942 63.5577 48.7058 53.2537C48.6851 54.5121 51.831 57.4155 53.2183 58.6687C55.0851 60.3602 61.1499 64.8366 63.2746 66.1465C64.7599 67.0645 74.708 72.299 75.3939 72.3351C76.1932 72.3763 76.9255 71.1953 77.8435 71.8194Z" fill="#CC8E1D"/>
<path d="M117.038 171.868C117.115 172.409 118.193 171.058 119.359 170.836C119.142 171.677 120.411 171.197 120.39 171.481C120.369 171.831 117.517 170.903 115.878 176.251C119.235 176.153 126.078 174.472 123.226 171.996L124 171.868C129.807 177.246 115.96 182.352 112.396 183.729C104.305 186.854 103.289 187.571 101.567 182.44C100.932 180.552 100.525 176.622 99.5037 173.673L101.051 171.352C101.273 173.1 103.593 177.53 105.048 178.314C108.245 180.036 117.605 175.086 114.717 168.258C115.97 165.829 116.187 172.559 117.038 171.868Z" fill="#3C1917"/>
<path d="M124 171.868L123.226 171.996C126.078 174.472 119.235 176.153 115.877 176.251C117.517 170.903 120.369 171.831 120.39 171.481C120.411 171.197 119.142 171.677 119.358 170.836C121.427 170.444 122.484 170.465 124 171.868Z" fill="#682522"/>
<path d="M114.717 168.258C117.605 175.086 108.245 180.036 105.048 178.314C103.593 177.53 101.273 173.1 101.051 171.352C103.284 170.815 107.312 169.861 109.431 169.031C111.458 168.237 113.376 165.091 114.717 168.258Z" fill="#882025"/>
<path d="M81.196 174.704C80.7009 175.354 78.2151 177.638 77.457 177.798C72.728 178.804 65.0696 173.673 69.3346 168.515C69.546 168.567 69.6337 168.16 69.9792 168.258C70.0875 168.289 70.531 169.181 71.7842 169.547C72.3257 169.702 72.5165 169.279 72.5578 169.289C72.697 169.33 74.9971 170.542 75.1363 170.578C75.6778 170.723 75.8583 170.243 76.1678 170.32C76.3173 170.357 75.9718 170.491 79.0042 171.094C79.2156 171.135 79.0558 171.574 79.262 171.61C79.4271 171.641 80.5307 171.285 82.6142 171.61L83.001 171.996C81.8973 172.94 81.2939 174.575 81.196 174.704Z" fill="#882025"/>
<path d="M69.3344 168.515C65.0695 173.673 72.7278 178.804 77.4569 177.798C78.215 177.638 80.7007 175.354 81.1958 174.704L83.2587 174.188C82.6295 175.07 82.0777 176.009 81.4537 176.896C83.6197 178.474 84.156 180.624 84.0322 183.213C83.6558 190.985 74.8268 188.845 70.3659 185.792C68.7414 184.678 62.1557 177.272 61.8566 175.864C61.2017 172.791 65.3531 169.722 67.5294 168C68.4783 167.84 68.8754 168.402 69.3344 168.515Z" fill="#3C1917"/>
<path d="M76.9413 179.087C83.6146 177.999 85.7445 188.185 77.9727 186.307C73.651 185.261 72.8981 179.748 76.9413 179.087Z" fill="#682522"/>
<path d="M123.484 111.014C124.15 111.369 124.33 112.169 124.516 112.819C125.346 115.738 125.238 117.687 125.289 120.554L120.132 122.617C119.828 119.44 118.611 116.449 117.038 113.721C117.172 113.2 122.644 111.478 123.484 111.014Z" fill="#0E7161"/>
<path d="M125.289 120.554C125.408 126.758 126.475 125.015 120.003 127.259C119.621 127.001 120.24 123.747 120.132 122.617L125.289 120.554Z" fill="#0D4D44"/>
<path d="M124 41.6502C103.299 22.3471 61.2274 26.4522 48.7059 53.2538C43.8943 63.5577 44.0645 75.254 48.3191 85.7436C57.6484 80.0863 67.6222 75.6202 77.8436 71.8194C84.5685 69.3182 94.9653 65.8836 101.824 64.3416L101.18 67.4359C99.256 67.4668 95.1767 67.5699 94.8621 68.4673C83.9961 69.9164 88.72 70.5301 82.4851 80.3287C81.9023 81.2466 74.2233 91.4062 73.718 91.9322C73.1919 88.2964 70.2627 86.6564 66.7558 87.0329C62.1763 87.5228 58.6643 92.7779 62.1144 97.3472C64.7136 100.787 69.0147 102.02 72.5576 99.1522C75.5178 104.928 82.0106 109.704 88.1579 111.529C89.442 113.02 87.1265 113.974 88.9315 114.624C89.1223 115.15 90.2878 117.481 90.6075 117.718C92.5982 119.182 105.295 118.832 105.434 115.655C105.512 113.896 102.825 115.645 102.598 114.495C103.206 113.014 105.929 114.618 105.95 113.334C106.631 113.308 107.332 113.391 108.013 113.334C114.021 112.849 122.649 109.858 127.223 105.856C132.669 101.091 135 92.6181 128.899 87.4197C128.853 84.0315 131.658 76.1514 131.478 73.3665C132.03 71.938 135.48 72.7889 135.603 72.9798C135.825 73.315 133.489 79.8284 132.767 80.4576L133.283 80.5865C132.463 82.5359 131.467 84.2945 130.446 86.1304C134.278 90.0808 135.108 94.3302 133.798 99.6679C133.742 99.8896 133.618 100.199 133.541 100.441C133.474 100.643 133.36 100.756 133.283 100.957C131.663 105.062 127.28 108.909 123.484 111.014C122.644 111.478 117.172 113.2 117.038 113.721C118.611 116.449 119.828 119.44 120.132 122.617C120.24 123.746 119.621 127.001 120.003 127.258C126.475 125.015 125.408 126.758 125.289 120.554C125.238 117.687 125.346 115.737 124.516 112.819C124.954 113.267 125.289 114.041 125.547 114.624C126.542 116.887 127.104 119.121 127.352 121.586C128.028 128.305 126.733 126.959 116.264 129.966C116.842 134.772 117.203 139.579 116.78 144.406C118.002 146.355 122.432 158.805 122.453 159.619C122.499 161.435 116.419 164.844 114.975 166.066C116.187 167.778 116.677 169.83 117.038 171.868C116.187 172.559 115.97 165.829 114.717 168.258C113.376 165.091 111.458 168.237 109.431 169.031C107.311 169.861 103.284 170.816 101.051 171.352L99.5036 173.673C99.3334 173.177 99.3746 171.811 98.8589 171.61C94.2072 172.327 89.3801 172.337 84.6768 171.868C84.4293 171.935 83.5681 173.755 83.2586 174.188L81.1958 174.704C81.2938 174.575 81.8971 172.94 83.0008 171.996L82.614 171.61C80.5305 171.285 79.4269 171.641 79.2619 171.61C79.0556 171.574 79.2154 171.135 79.004 171.094C75.9716 170.491 76.3171 170.357 76.1676 170.32C75.8582 170.243 75.6777 170.723 75.1362 170.578C74.9969 170.542 72.6968 169.33 72.5576 169.289C72.5163 169.279 72.3255 169.702 71.784 169.547C70.5308 169.181 70.0873 168.289 69.979 168.258C69.6335 168.16 69.5458 168.567 69.3344 168.515C68.8754 168.402 68.4783 167.84 67.5294 168C67.7718 167.572 67.8698 167.582 67.4005 167.226C65.4201 165.741 57.112 162.389 52.3159 155.494C54.0693 149.29 56.1992 143.122 59.7937 137.702C54.9357 120.956 69.4169 112.344 69.0765 110.885C68.9786 110.462 65.2861 110.637 68.303 106.243C56.8696 104.82 49.9127 96.4447 46.1273 86.1304C37.9378 63.8104 46.0345 42.3155 68.0451 32.8831C63.1046 36.5705 71.0517 32.0683 76.1676 30.8203C77.9932 30.3768 83.6042 29.433 85.4504 29.2732C99.4004 28.0458 114.026 31.4495 124 41.6502Z" fill="#221A17"/>
<path d="M111.107 159.49C108.905 162.667 106.27 165.488 103.887 168.515C86.6779 173.616 66.7353 168.969 54.6367 155.236C56.1787 150.852 58.7315 142.694 61.5988 139.249C66.2041 133.715 64.461 139.12 65.7245 144.664C70.2422 164.483 95.5533 168.34 111.107 159.49Z" fill="#0D4D44"/>
<path d="M103.887 168.515C106.27 165.488 108.905 162.667 111.107 159.491C114.14 155.117 115.15 153.596 116.651 148.145L120.648 159.362C115.919 163.884 110.065 166.685 103.887 168.515Z" fill="#0E7161"/>
<path d="M77.328 111.271C72.1038 117.445 69.3654 125.196 68.8187 133.189C66.596 133.87 61.8875 136.149 61.5987 135.897C58.7468 124.35 68.2411 113.35 76.9412 106.888C77.7766 107.713 76.7194 108.698 77.328 111.271Z" fill="#0D4D44"/>
<path d="M80.1643 116.686L73.9757 131.642C72.2687 132.034 70.4998 132.673 68.8186 133.189C69.3653 125.196 72.1037 117.444 77.3279 111.271C77.5187 112.071 79.5506 115.397 80.1643 116.686Z" fill="#0D4D44"/>
<path d="M73.9758 131.642L80.1644 116.686C81.1855 118.837 83.1246 120.044 82.4851 126.356C81.8301 132.823 80.087 130.234 73.9758 131.642Z" fill="#0E7161"/>
<path d="M114.33 114.108C116.95 114.108 117.615 122.978 117.295 125.067C116.445 130.667 116.094 123.942 114.975 119.652C114.273 116.96 111.643 114.103 114.33 114.108Z" fill="#0E7161"/>
<path d="M111.107 115.655C109.668 117.151 111.695 125.68 111.881 130.482C111.999 133.597 111.984 139.383 111.623 142.343C110.318 153.111 104.424 154.926 110.334 156.654C109.282 157.644 108.477 157.861 107.239 158.459C103.882 158.655 100.525 158.588 97.183 158.201C98.1525 157.366 95.0582 156.912 93.7019 156.138C92.6189 155.52 90.3704 153.668 89.1894 152.786C89.2307 152.735 89.1482 152.585 89.1894 152.528C90.5715 150.708 90.5561 151.353 90.9944 148.918C91.0666 148.516 91.7164 148.351 91.5101 147.758C91.3503 147.057 82.3666 141.57 80.6802 138.346C83.0318 134.164 85.6001 127.939 85.3216 123.133L88.4159 119.781C92.4384 121.183 104.996 120.647 107.884 117.976C108.952 116.991 108.946 113.283 111.107 115.655Z" fill="#A2B238"/>
<path d="M110.334 156.654C104.424 154.926 110.318 153.111 111.623 142.343C111.984 139.383 111.999 133.597 111.881 130.482C111.695 125.68 109.668 117.151 111.107 115.655C112.665 117.362 119.261 148.233 110.334 156.654Z" fill="#F4D735"/>
<path d="M86.0951 155.623C90.4632 156.494 92.0567 157.608 97.1829 158.201C100.525 158.588 103.882 158.655 107.239 158.459C97.6832 163.07 84.9451 162.038 76.0387 156.396C75.7551 155.416 79.2361 157.453 82.3562 157.17C82.7533 157.134 84.2953 156.36 84.8058 156.138C85.1823 155.973 86.0332 155.659 86.0951 155.623Z" fill="#809534"/>
<path d="M88.4158 119.781L85.3215 123.133C85.0379 118.27 81.3351 114.753 79.6487 110.369L85.5794 112.432L88.4158 119.781Z" fill="#809534"/>
<path d="M97.1828 158.201C92.0566 157.608 90.4631 156.494 86.095 155.623C86.6984 155.262 87.4307 154.256 87.9 153.818C87.9618 153.761 88.5549 153.57 89.1892 152.786C90.3702 153.668 92.6187 155.52 93.7017 156.138C95.058 156.912 98.1523 157.366 97.1828 158.201Z" fill="#809534"/>
<path d="M75.7808 133.189C73.1456 138.176 73.62 144.71 79.004 147.629C82.449 149.496 84.8883 148.423 87.9001 151.497C87.9465 151.765 87.8021 152.085 87.6422 152.271C85.3679 154.896 82.2118 152.632 81.7115 153.431L84.8058 156.138C84.2953 156.36 82.7533 157.134 82.3562 157.17C79.2361 157.453 75.7551 155.416 76.0387 156.396C68.5093 151.626 66.8281 143.715 67.1427 135.252C70.0203 134.478 72.8361 133.705 75.7808 133.189Z" fill="#D88157"/>
<path d="M80.68 138.346C82.3664 141.57 91.3501 147.057 91.51 147.758C91.7163 148.351 91.0665 148.516 90.9943 148.919C88.5962 149.532 89.2615 151.6 88.1579 151.497C88.1166 151.456 87.9413 151.538 87.9 151.497C84.8882 148.423 82.4489 149.496 79.004 147.629C73.6199 144.71 73.1455 138.176 75.7808 133.189C85.7959 131.436 78.4057 133.999 80.68 138.346Z" fill="#F6B07C"/>
<path d="M90.9944 148.918C90.556 151.353 90.5715 150.708 89.1894 152.528C88.6788 152.363 88.4777 151.848 88.158 151.497C89.2616 151.6 88.5963 149.532 90.9944 148.918Z" fill="#B66344"/>
<path d="M89.1892 152.529C89.148 152.585 89.2305 152.735 89.1892 152.786C88.5549 153.57 87.9618 153.761 87.8999 153.818L87.6421 152.271C87.802 152.085 87.9464 151.765 87.8999 151.497C87.9412 151.538 88.1165 151.456 88.1578 151.497C88.4775 151.848 88.6787 152.363 89.1892 152.529Z" fill="#3C1917"/>
<path d="M87.9 153.818C87.4307 154.256 86.6984 155.262 86.095 155.623C86.0331 155.659 85.1822 155.973 84.8057 156.138L81.7114 153.431C82.2117 152.632 85.3678 154.896 87.6421 152.271L87.9 153.818Z" fill="#742E1C"/>
<path d="M141.276 113.85C135.371 110.034 131.328 114.252 125.547 114.623C125.289 114.041 124.954 113.267 124.516 112.818C124.33 112.169 124.149 111.369 123.484 111.013C127.28 108.909 131.663 105.062 133.283 100.957L134.185 107.919C134.758 107.558 136.439 106.666 136.764 106.63C141.637 106.109 136.098 111.184 141.405 110.24C147.001 109.245 144.293 97.7596 137.795 103.536C138.342 99.8844 136.619 100.436 133.541 100.441C133.618 100.199 133.742 99.8895 133.798 99.6678C145.417 97.8164 151.663 105.005 141.276 113.85Z" fill="#F6B07C"/>
<path d="M141.276 113.85C137.635 116.949 131.89 120.013 127.352 121.586C127.105 119.12 126.542 116.887 125.547 114.623C131.328 114.252 135.371 110.034 141.276 113.85Z" fill="#D88157"/>
<path d="M133.282 100.957C133.36 100.756 133.473 100.643 133.54 100.441C136.619 100.441 138.342 99.8844 137.795 103.536C144.293 97.7597 147 109.245 141.405 110.24C136.098 111.184 141.637 106.109 136.764 106.63C136.439 106.666 134.757 107.558 134.185 107.919L133.282 100.957Z" fill="#C6724F"/>
<path d="M105.434 115.655C105.295 118.832 92.5982 119.182 90.6075 117.718C90.2878 117.48 89.1223 115.149 88.9315 114.623C88.8232 114.329 88.6324 113.953 88.4158 113.721L88.8026 113.334C94.1814 115.129 99.8955 114.85 105.434 115.655Z" fill="#B66344"/>
<path d="M105.95 113.334C105.929 114.618 103.206 113.014 102.598 114.495C102.825 115.645 105.512 113.896 105.434 115.655C99.8956 114.85 94.1815 115.129 88.8026 113.334L88.4158 113.721C88.6324 113.953 88.8232 114.329 88.9315 114.623C87.1265 113.974 89.4421 113.02 88.158 111.529C93.016 112.973 100.886 113.535 105.95 113.334Z" fill="#3C1917"/>
<path d="M88.158 75.4293C86.8996 78.1213 86.5232 81.5508 85.3215 84.3253C84.5892 86.0168 83.2123 87.6826 82.4851 89.0956C81.0308 91.9114 78.6276 93.9794 80.1644 98.5074C81.4537 102.303 88.4571 106.975 92.0258 108.693C98.8951 112.004 104.119 112.524 111.752 111.787V112.303C110.277 112.447 107.75 112.782 108.013 113.334C107.332 113.391 106.631 113.308 105.95 113.334C100.886 113.535 93.016 112.973 88.158 111.529C82.0107 109.704 75.5179 104.928 72.5577 99.152C69.0147 102.019 64.7137 100.787 62.1145 97.347C63.1923 95.5111 61.3358 94.0155 63.6616 90.5139C64.4816 89.2813 66.3743 88.2035 66.4981 88.0642L68.8188 90.3849C63.9711 89.0544 62.13 95.4544 65.3377 97.6049C68.3185 99.6007 72.7072 97.1975 71.1395 92.4478C74.4555 93.2626 73.5788 92.0765 73.718 91.9321C74.2234 91.406 81.9024 81.2465 82.4851 80.3285C84.3984 80.0707 86.5128 75.0373 88.158 75.4293Z" fill="#D88157"/>
<path d="M96.925 68.2094C93.3512 70.4063 90.2105 71.0355 88.1579 75.4293C86.5128 75.0374 84.3984 80.0707 82.4851 80.3286C88.7201 70.5301 83.9961 69.9164 94.8622 68.4672C95.5533 68.3744 96.234 68.2661 96.925 68.2094Z" fill="#B66344"/>
<path d="M90.4787 100.183C87.6835 99.9102 84.8213 96.6973 85.0637 93.7371C85.4402 93.2059 88.1941 85.7951 95.249 87.8064C102.582 89.895 99.0911 101.029 90.4787 100.183Z" fill="#ED9160"/>
<path d="M85.0636 93.7371C84.8212 96.6973 87.6834 99.9102 90.4786 100.184C89.5967 103.567 91.2728 105.65 92.0257 108.693C88.457 106.975 81.4536 102.303 80.1644 98.5074C78.6275 93.9795 81.0308 91.9115 82.4851 89.0957C83.5629 89.7816 82.2685 91.3184 82.2272 91.8032C82.0055 94.4591 82.8667 96.8675 85.0636 93.7371Z" fill="#ED9160"/>
<path d="M73.718 91.932C73.5788 92.0764 74.4555 93.2626 71.1395 92.4478C70.7785 91.3544 69.845 90.6685 68.8188 90.3849L66.498 88.0642C66.5341 88.0229 66.725 87.2236 66.7559 87.0328C70.2627 86.6563 73.192 88.2963 73.718 91.932Z" fill="#D88157"/>
<path d="M66.756 87.033C66.7251 87.2238 66.5343 88.0232 66.4982 88.0644C66.3744 88.2037 64.4818 89.2815 63.6618 90.5141C61.3359 94.0158 63.1925 95.5113 62.1146 97.3473C58.6645 92.7781 62.1765 87.5229 66.756 87.033Z" fill="#B66344"/>
<path d="M68.8186 90.3849C69.8449 90.6686 70.7783 91.3545 71.1393 92.4478C72.7071 97.1975 68.3184 99.6007 65.3376 97.6049C62.1298 95.4544 63.9709 89.0544 68.8186 90.3849Z" fill="#A7553B"/>
<path d="M131.478 73.3665C131.658 76.1513 128.853 84.0314 128.899 87.4197C135 92.618 132.669 101.091 127.223 105.856C122.649 109.858 114.021 112.849 108.013 113.334C107.75 112.782 110.277 112.447 111.752 112.303V111.787C104.119 112.525 98.8952 112.004 92.0259 108.693C91.273 105.65 89.5969 103.567 90.4788 100.184C99.0912 101.029 102.583 89.8951 95.2491 87.8064C88.1942 85.7952 85.4403 93.2059 85.0638 93.7371C82.8669 96.8675 82.0056 94.4591 82.2274 91.8032C82.2686 91.3184 83.5631 89.7816 82.4852 89.0957C83.2124 87.6827 84.5894 86.0169 85.3217 84.3254C86.5233 81.5509 86.8997 78.1214 88.1581 75.4293C90.2106 71.0355 93.3513 70.4063 96.9252 68.2094C102.5 67.7607 126.94 69.1583 130.833 71.8194C131.591 72.3351 131.431 72.6548 131.478 73.3665Z" fill="#F6B07C"/>
<path d="M125.934 89.6113C126.099 89.6165 128.796 90.7407 129.028 90.9006C132.174 93.0924 132.54 97.9762 130.317 100.957C129.296 100.498 124.908 100.292 124.645 100.183C119.106 97.9401 123.495 89.5133 125.934 89.6113Z" fill="#F6B07C"/>
<path d="M98.3433 71.0457C99.4108 70.922 102.201 71.1798 102.082 72.7218C101.958 74.2741 90.2105 75.9863 95.7647 72.0772C96.0277 71.8915 98.0854 71.0767 98.3433 71.0457Z" fill="#221A17"/>
<path d="M125.418 72.593C128.085 71.9483 129.761 75.6305 128.77 76.4608C128.492 76.6929 121.287 73.5934 125.418 72.593Z" fill="#221A17"/>
<path d="M114.33 90.6428C118.843 89.4824 116.13 94.5106 113.557 92.9635C112.298 92.2054 113.335 90.9006 114.33 90.6428Z" fill="#C6724F"/>
<path d="M117.296 98.3785L117.554 98.1207C120.05 102.767 111.814 109.038 105.048 105.083C100.819 102.613 100.324 96.2847 102.082 98.5074C102.18 98.6312 102.675 100.477 103.372 101.344C107.714 106.749 117.218 105.758 117.296 98.3785Z" fill="#221A17"/>
<path d="M117.554 98.1207L117.296 98.3785C117.296 98.3373 116.739 98.3321 117.167 97.605C117.368 97.7391 117.445 97.9144 117.554 98.1207Z" fill="#925325"/>
<path d="M99.6326 81.8758C104.176 81.2569 104.764 89.7765 101.18 90.385C96.4403 91.1895 96.167 82.3451 99.6326 81.8758Z" fill="#221A17"/>
<path d="M99.3747 83.4229C100.458 83.5003 100.293 85.6199 99.1168 85.4858C97.9307 85.3517 98.5083 83.361 99.3747 83.4229Z" fill="#E5EFFD"/>
<path d="M123.356 81.6178C128.054 80.4059 128.703 91.6432 123.356 89.3535C120.627 88.1828 121.339 82.1387 123.356 81.6178Z" fill="#221A17"/>
<path d="M123.355 83.4227C124.093 83.335 124.717 84.8306 123.871 85.2277C122.504 85.8723 122.412 83.5362 123.355 83.4227Z" fill="#E5EFFD"/>
<path d="M256.28 182.182C254.841 183.971 252.314 185.884 250.349 187.081C246.879 189.2 233.491 194.218 231.526 188.628C240.076 190.459 245.852 184.936 241.84 182.44C241.077 181.965 240.86 182.017 240.035 181.924C237.152 180.341 242.418 180.335 244.032 179.861C255.145 176.586 255.754 173.425 256.409 173.672C256.92 175.266 258.101 177.628 257.827 179.216C257.693 179.99 255.527 182.058 256.28 182.182Z" fill="#3C1917"/>
<path d="M254.217 161.553C254.63 164.57 255.321 167.36 254.991 170.449C257.476 174.91 259.807 177.788 256.28 182.182C255.527 182.058 257.693 179.99 257.827 179.216C258.1 177.628 256.92 175.266 256.409 173.672C255.754 173.425 255.145 176.586 244.032 179.861C242.418 180.335 237.152 180.341 240.035 181.924C236.863 181.563 234.893 182.326 232.299 183.987C232.49 183.615 232.887 183.435 232.815 182.955C233.119 182.883 236.425 180.222 236.425 179.99C235.301 178.902 234.161 177.896 233.073 176.767C232.738 175.854 231.227 172.765 230.623 172.383C230.2 172.115 228.292 172.961 229.979 171.481L227.4 169.933L227.658 167.484C228.808 169.944 236.9 178.953 238.875 179.087C239.932 178.799 241.025 178.53 242.098 178.314C244.553 177.814 250.174 175.926 252.025 174.446C255.666 171.537 253.175 166.968 252.928 162.971L252.283 162.585C250.87 163.162 247.822 164.601 246.739 164.905C240.633 166.617 234.228 167.102 227.916 167.484C227.916 167.309 227.854 167.015 228.045 166.968C230.092 166.483 238.447 166.391 243.774 165.163C247.116 164.395 251.185 161.93 253.573 162.585C253.232 160.831 254.052 161.667 254.217 161.553Z" fill="#3C1917"/>
<path d="M231.526 188.628C231.087 187.385 231.258 186.968 231.526 185.792C235.43 187.035 239.932 186.56 241.84 182.44C245.852 184.936 240.076 190.459 231.526 188.628Z" fill="#682522"/>
<path d="M240.035 181.924C240.86 182.017 241.077 181.965 241.84 182.44C239.932 186.56 235.43 187.035 231.526 185.792C231.639 185.276 232.042 184.492 232.299 183.987C234.893 182.326 236.863 181.563 240.035 181.924Z" fill="#AE1E26"/>
<path d="M266.079 35.9773C271.04 41.7172 270.875 49.1022 263.758 52.8669C268.894 55.6517 266.563 61.3503 267.11 62.4076C267.461 63.0831 275.042 64.0269 267.368 75.0425C267.26 75.1972 268.157 77.0486 265.047 76.2029C265.259 75.388 265.547 73.9183 265.563 73.1086C265.671 66.5642 260.457 64.326 256.151 66.1465C254.712 66.755 253.459 68.9468 253.186 69.2407C253.139 69.2923 252.732 68.9674 252.283 70.2722C251.515 63.9392 250.416 57.4825 249.834 51.0619C249.54 50.3399 244.95 49.6953 243.387 48.0965C241.691 46.3638 239.256 38.9323 238.488 36.2352C239.452 36.2249 240.015 35.8587 240.422 35.9773C243.918 42.5062 255.455 41.7791 256.151 33.6566C264.671 34.7757 263.093 26.0963 258.343 21.7952C263.144 24.2964 266.46 29.8764 265.047 35.3327C265.346 35.7246 265.656 35.6782 266.079 35.9773Z" fill="#682522"/>
<path d="M164.741 27.9837C164.994 28.9687 165.489 29.7887 166.288 30.4333C159.764 34.7189 163.751 42.4288 170.543 37.7822C171.889 44.2338 180.336 39.35 182.662 33.3987C183.518 33.9505 184.405 34.6054 185.37 34.9458C180.599 45.0383 172.198 42.3721 171.703 43.0683C171.652 45.8273 171.971 48.5297 171.187 51.1908C174.256 59.437 174.818 68.4362 176.86 76.9764C174.586 76.1615 172.894 79.4827 171.961 80.0706C171.667 80.2563 171.296 80.3079 171.059 80.5863C166.814 77.5797 165.009 75.3158 165.515 69.8853C161.116 70.5248 157.913 66.1051 159.068 61.8918C159.496 60.3292 161.08 59.2255 161.131 59.0554C161.208 58.782 161.208 53.6559 161.131 53.3825C160.935 52.7069 153.514 47.2146 158.81 41.0054C161.528 37.8183 164.38 40.5568 161.389 35.9772C161.43 32.5478 161.956 32.2022 164.225 29.6598C164.282 29.3607 163.808 28.8707 163.71 28.4994L164.741 27.9837Z" fill="#682522"/>
<path d="M171.961 80.0706C171.92 80.6534 171.471 81.6126 171.445 81.8756C166.051 80.8958 163.854 76.9557 163.968 71.6903C159.073 71.4479 155.412 66.5796 156.748 61.8918C157.243 60.1435 159.486 58.5242 159.584 58.2818C161.585 53.3567 156.49 52.841 155.2 48.999C153.509 43.9553 156.588 38.432 161.905 37.6533C161.58 37.1995 161.384 36.529 161.389 35.9772C164.38 40.5568 161.528 37.8183 158.81 41.0054C153.514 47.2146 160.935 52.7069 161.131 53.3825C161.208 53.6558 161.208 58.782 161.131 59.0553C161.08 59.2255 159.496 60.3292 159.068 61.8918C157.913 66.1051 161.116 70.5248 165.515 69.8853C165.009 75.3158 166.814 77.5797 171.059 80.5863C171.296 80.3078 171.667 80.2563 171.961 80.0706Z" fill="#3C1917"/>
<path d="M265.047 76.9764C265.057 76.9403 264.779 77.2549 265.047 76.2028C268.157 77.0486 267.259 75.1972 267.368 75.0425C275.042 64.0269 267.461 63.0831 267.11 62.4075C266.563 61.3503 268.894 55.6517 263.758 52.8669C270.875 49.1022 271.04 41.7172 266.079 35.9773C266.269 36.1114 268.523 36.8643 269.946 38.6848C273.768 43.584 271.818 49.9118 266.852 53.1247C269.147 55.4454 269.895 58.5139 268.915 61.634C276.511 65.6256 272.52 76.4504 265.047 76.9764Z" fill="#3C1917"/>
<path d="M261.695 80.3285C263.392 89.7867 256.94 90.3746 250.736 94.5106C248.503 95.0985 244.95 94.6808 244.419 96.3156C244.336 96.3053 244.243 96.3259 244.161 96.3156C244.326 95.346 242.041 95.6812 242.356 94.6395C242.634 93.7215 252.654 87.8166 254.991 80.5863C257.512 81.4579 259.266 81.2 261.695 80.3285Z" fill="#682522"/>
<path d="M262.984 80.0707C267.136 92.1899 256.192 92.5612 255.378 92.9635C253.918 93.6855 252.876 97.3264 244.419 96.3156C244.95 94.6808 248.503 95.0985 250.736 94.5106C256.94 90.3746 263.392 89.7867 261.695 80.3285C261.757 80.3079 262.278 79.4776 262.984 80.0707Z" fill="#3C1917"/>
<path d="M225.08 30.8202C225.472 31.3308 226.977 34.9717 229.85 36.2352C231.629 37.0191 235.585 37.6431 235.136 36.2352C237.106 36.6271 237.194 36.2455 238.488 36.2352C239.257 38.9324 241.691 46.3638 243.387 48.0966C241.552 48.3235 244.249 50.1697 242.098 49.3858C239.478 46.4514 238.065 40.3041 237.586 40.103C226.462 41.48 223.44 31.305 222.114 30.8202C222.042 30.7944 220.639 30.7944 220.567 30.8202C219.474 31.1812 211.852 41.9751 202.002 31.0781C199.32 37.8442 193.209 40.2371 186.53 37.2666C184.101 42.2587 179.651 44.8063 174.153 45.0023C173.266 45.6005 174.586 50.4379 171.961 51.1908C171.76 51.2476 171.43 51.1547 171.188 51.1908C171.972 48.5298 171.652 45.8274 171.703 43.0684C172.199 42.3722 180.599 45.0384 185.37 34.9459C188.696 36.1217 191.414 36.6838 194.653 34.688C196.236 35.3739 201.145 30.5366 200.583 29.0152C203.652 30.748 204.529 31.898 208.319 32.6252C212.244 33.3781 217.246 32.9707 218.118 28.2416C220.5 29.1751 221.248 29.108 223.919 29.0152C224.141 29.7733 224.626 30.2323 225.08 30.8202Z" fill="#682522"/>
<path d="M218.117 28.2416C217.246 32.9707 212.243 33.3781 208.319 32.6251C212.563 31.2791 213.734 30.717 215.926 26.6945C216.818 27.1895 217.994 28.19 218.117 28.2416Z" fill="#682522"/>
<path d="M240.809 12.2545C240.84 12.4092 240.783 12.6104 240.809 12.7702C240.819 12.8476 240.128 13.1622 240.938 14.3174C243.857 10.8931 250.117 12.6052 251.639 16.5092C252.856 19.6189 250.721 21.723 254.991 20.5059C256.115 20.9855 257.219 21.2073 258.343 21.7952C263.093 26.0963 264.671 34.7757 256.151 33.6566C255.455 41.7791 243.919 42.5062 240.422 35.9773C240.015 35.8587 239.453 36.2248 238.488 36.2351C237.194 36.2455 237.106 36.6271 235.136 36.2351C234.187 36.0443 230.314 34.2342 229.334 33.6566C226.864 32.2074 225.312 30.1033 225.08 30.8202C224.626 30.2323 224.141 29.7733 223.919 29.0152C221.248 29.108 220.5 29.1751 218.118 28.2416C217.994 28.19 216.818 27.1896 215.926 26.6945C213.734 30.717 212.563 31.2792 208.319 32.6252C204.528 31.898 203.652 30.748 200.583 29.0152C200.537 28.9894 200.186 28.3448 199.939 28.2416C199.5 28.2983 197.35 33.0223 194.653 34.688C191.414 36.6838 188.696 36.1217 185.37 34.9459C184.405 34.6055 183.518 33.9505 182.662 33.3987C180.336 39.3501 171.889 44.2338 170.543 37.7823C163.751 42.4289 159.765 34.719 166.288 30.4334C165.489 29.7887 164.994 28.9688 164.741 27.9838C162.818 20.5008 169.687 15.0445 176.474 18.4431C176.855 16.4834 179.96 14.3277 181.76 15.2199C180.28 13.5644 182.513 10.63 183.952 9.67597C188.01 6.98396 191.899 9.48 193.105 8.38669L198.263 7.09741C203.935 0.810883 212.383 -0.555754 216.957 7.61313C219.345 6.27743 222.537 6.57139 224.693 8.38669C230.252 2.19299 237.225 6.05567 240.809 12.2545Z" fill="#9B4231"/>
<path d="M240.809 12.2545C237.225 6.05564 230.252 2.19296 224.693 8.38666C222.537 6.57136 219.345 6.2774 216.957 7.61309C212.383 -0.555786 203.935 0.810852 198.262 7.09738C200.495 -1.95337 213.161 -2.30921 217.473 5.8081C219.546 4.38474 222.867 5.27692 224.435 7.09738C229.855 -0.462957 239.138 4.16298 240.809 12.2545Z" fill="#682522"/>
<path d="M193.105 8.38664C191.898 9.47995 188.01 6.98391 183.951 9.67592C182.512 10.63 180.279 13.5644 181.759 15.2198C179.96 14.3276 176.855 16.4833 176.473 18.443C169.687 15.0445 162.817 20.5007 164.741 27.9837L163.709 28.4994C163.544 27.8599 162.75 26.5242 162.678 25.7919C161.987 18.902 169.522 13.255 175.7 16.8959C176.061 16.8495 176.896 14.5236 179.954 13.9305C179.562 7.49962 188.742 3.97215 193.105 8.38664Z" fill="#682522"/>
<path d="M254.991 20.5059C250.72 21.723 252.855 19.6189 251.638 16.5091C250.117 12.6052 243.856 10.893 240.937 14.3174C240.128 13.1622 240.819 12.8476 240.808 12.7702C240.339 13.5077 240.597 13.4252 241.324 12.7702C247.183 7.48416 254.372 12.9971 253.443 20.1191C253.526 20.2532 254.66 20.3667 254.991 20.5059Z" fill="#682522"/>
<path d="M241.324 12.7702C240.597 13.4252 240.339 13.5077 240.809 12.7702C240.824 12.7445 241.17 12.7857 241.324 12.7702Z" fill="#D2907F"/>
<path d="M235.136 36.2351C235.584 37.643 231.629 37.019 229.85 36.2351C226.977 34.9716 225.471 31.3307 225.079 30.8201C225.311 30.1033 226.864 32.2074 229.334 33.6565C230.314 34.2341 234.187 36.0443 235.136 36.2351Z" fill="#682522"/>
<path d="M200.583 29.0151C201.145 30.5365 196.236 35.3739 194.652 34.688C197.35 33.0222 199.5 28.2983 199.938 28.2416C200.186 28.3447 200.537 28.9894 200.583 29.0151Z" fill="#682522"/>
<path d="M243.387 48.0966C244.95 49.6953 249.54 50.3399 249.834 51.0619C250.417 57.4825 251.515 63.9392 252.283 70.2722C252.732 68.9674 253.14 69.2923 253.186 69.2408V69.4986C251.866 70.726 252.701 78.4823 250.607 73.7532C249.267 70.726 248.307 61.2111 247.771 57.3794C247.652 56.5233 247.74 53.3259 247.513 52.8669C245.357 51.392 243.939 51.4487 242.098 49.3858C244.249 50.1697 241.551 48.3235 243.387 48.0966Z" fill="#3C1917"/>
<path d="M171.961 51.1909C172.823 52.3564 173.756 53.986 174.282 55.3165C176.077 59.8806 176.752 65.2853 177.892 70.0143C179.259 75.6975 179.506 79.8129 181.76 85.7436C181.213 85.8415 180.899 85.2278 180.728 84.8411C180.233 83.722 179.877 78.8382 178.666 78.9104C178.542 80.2151 179.052 81.8603 178.15 82.1336C177.923 81.3497 177.83 80.2976 177.634 79.555C177.412 78.7041 177.067 77.8429 176.861 76.9765C174.818 68.4363 174.256 59.4371 171.188 51.1909C171.43 51.1548 171.76 51.2476 171.961 51.1909Z" fill="#3C1917"/>
<path d="M176.86 76.9764C177.067 77.8428 177.412 78.7041 177.634 79.555C176.618 80.2306 176.247 78.7041 174.926 79.0393C172.863 79.5602 169.233 88.1777 179.697 86.775C179.893 87.2804 179.985 87.8064 180.212 88.3221C175.205 89.7919 170.847 87.497 171.445 81.8757C171.471 81.6127 171.92 80.6535 171.961 80.0707C172.894 79.4828 174.586 76.1616 176.86 76.9764Z" fill="#D88157"/>
<path d="M177.634 79.555C177.83 80.2977 177.923 81.3497 178.149 82.1336C178.598 83.7014 179.109 85.2537 179.697 86.775C169.233 88.1777 172.863 79.5602 174.926 79.0393C176.246 78.7041 176.618 80.2306 177.634 79.555Z" fill="#B66344"/>
<path d="M181.76 85.7434C188.252 102.839 207.365 104.134 223.017 100.699C235.729 97.9091 246.683 90.7149 253.573 79.5549C253.959 79.4517 254.63 80.4625 254.991 80.5863C252.655 87.8166 242.634 93.7215 242.356 94.6394C242.041 95.6812 244.326 95.346 244.161 96.3155C241.871 96.037 243.166 93.7112 235.909 98.7651C246.714 101.947 255.048 110.627 259.632 120.683C259.545 121.498 258.188 121.503 257.569 121.843C254.929 123.298 252.165 124.659 249.447 125.969C245.373 127.939 241.257 127.872 240.551 132.157C239.844 132.57 239.076 133.761 237.714 134.994C236.972 134.442 238.509 131.209 238.488 130.997C238.442 130.528 236.961 129.28 236.683 128.805C234.605 125.288 233.114 122.586 232.299 118.491C231.098 112.457 231.423 106.145 233.331 100.312L227.916 102.375C227.787 104.206 227.06 105.908 226.627 107.661C226.456 108.357 226.26 108.987 226.369 109.724C221.397 111.849 212.47 111.807 207.416 109.982C205.302 109.219 204.853 108.249 204.709 108.177C205.586 103.082 203.502 102.468 201.099 106.888C195.73 116.753 192.388 139.496 191.558 150.981C191.342 153.988 190.707 156.968 191.171 160.006C195.89 162.234 200.944 162.832 205.998 163.616C219.654 165.73 233.919 166.298 247.255 162.069C250.587 161.012 253.743 159.717 256.538 157.556L253.573 143.761C248.895 149.057 243.382 154.065 236.296 155.622H235.265C234.728 155.261 234.919 154.864 234.878 154.849C237.714 152.879 240.829 151.976 243.774 149.95C249.787 145.808 257.719 135.922 258.601 128.548C258.652 128.125 258.864 126.345 258.859 126.227C262.824 127.006 258.121 137.923 255.249 141.569L258.601 158.588C258.492 159.067 254.944 161.068 254.217 161.553C254.052 161.667 253.232 160.831 253.573 162.585C251.185 161.93 247.116 164.395 243.774 165.163C238.447 166.39 230.092 166.483 228.045 166.968C227.854 167.014 227.916 167.308 227.916 167.484H227.658L227.4 169.933L229.979 171.481C228.292 172.961 230.201 172.115 230.623 172.383C231.227 172.765 232.738 175.854 233.073 176.767C232.006 175.663 230.763 174.693 229.721 173.543C225.157 168.495 227.271 166.282 219.149 167.355C216.364 172.574 218.04 173.074 218.117 174.446C217.87 174.575 217.117 173.234 217.086 173.157C216.642 172.12 217.034 171.321 217.602 169.933C216.24 168.887 217.468 167.963 216.441 166.71C212.661 168.051 196.617 163.049 195.555 163.1C195.467 163.1 193.93 163.673 193.879 163.745C193.704 164.003 194.193 165.483 193.621 165.679C193.528 164.797 193.688 163.858 193.621 162.971L188.98 160.908C189.052 151.476 189.99 142.059 191.816 132.802C185.818 135.752 179.093 137.052 172.477 135.767C172.121 134.391 173.106 134.334 174.282 134.22C174.483 134.2 176.855 134.643 178.279 134.478C181.626 134.097 188.882 132.586 191.429 130.353C194.699 127.49 190.042 128.542 185.885 123.133C185.658 121.895 183.374 118.166 183.307 116.17C183.157 111.813 193.038 104.582 196.715 102.375C188.99 99.9203 183.523 95.8462 180.213 88.322C179.986 87.8063 179.893 87.2802 179.697 86.7748C179.109 85.2535 178.598 83.7012 178.15 82.1334C179.052 81.8601 178.542 80.215 178.665 78.9102C179.877 78.838 180.233 83.7218 180.728 84.8409C180.898 85.2277 181.213 85.8414 181.76 85.7434Z" fill="#221A17"/>
<path d="M224.95 102.762C226.317 102.834 223.104 108.136 221.598 108.693C219.071 109.626 205.91 110.054 207.932 104.567C214.131 105.428 224.094 102.715 224.95 102.762Z" fill="#B66344"/>
<path d="M250.092 123.39L234.362 110.755C234.362 107.223 234.45 103.721 236.038 100.441C245.393 103.386 252.696 111.235 257.311 119.651C257.265 120.616 251.19 122.859 250.092 123.39Z" fill="#0E7161"/>
<path d="M250.092 123.39C246.626 125.072 243.202 126.804 239.648 128.29C235.781 123.189 234.362 117.001 234.362 110.755L250.092 123.39Z" fill="#0D4D44"/>
<path d="M195.942 113.85L185.885 118.491C184.74 116.057 184.493 116.186 186.401 113.463C188.809 110.023 199.706 101.174 199.81 103.922C199.83 104.453 197.546 108.471 195.942 113.85Z" fill="#0E7161"/>
<path d="M195.942 113.85C194.719 117.95 193.93 122.132 192.718 126.227C192.229 126.392 186.942 120.74 185.885 118.491L195.942 113.85Z" fill="#0D4D44"/>
<path d="M232.3 118.491C230.154 115.51 230.912 111.637 227.916 108.693C227.859 108.636 228.262 108.079 226.627 107.661C227.06 105.908 227.787 104.206 227.916 102.375L233.331 100.312C231.423 106.145 231.098 112.457 232.3 118.491Z" fill="#0E7161"/>
<path d="M204.709 108.177C203.827 107.733 202.084 107.305 201.099 106.888C203.502 102.468 205.586 103.082 204.709 108.177Z" fill="#0E7161"/>
<path d="M204.709 108.177C204.853 108.249 205.302 109.219 207.416 109.982C212.47 111.808 221.397 111.849 226.369 109.724C226.869 109.513 227.689 109.208 227.916 108.693C230.912 111.637 230.154 115.51 232.299 118.491C233.114 122.586 234.605 125.288 236.683 128.805C233.088 131.389 222.511 135.644 221.727 140.28C219.675 152.43 237.554 160.656 247.255 162.069C233.919 166.298 219.654 165.73 205.998 163.616C199.742 160.713 195.426 156.664 191.558 150.981C192.388 139.496 195.73 116.753 201.099 106.888C202.084 107.305 203.827 107.733 204.709 108.177Z" fill="#6BA84C"/>
<path d="M237.714 134.994C236.116 136.438 227.07 144.957 226.627 145.824C226.142 146.773 225.451 146.881 226.627 148.66C226.678 148.743 226.059 149.96 227.916 149.434C227.844 151.502 229.355 151.651 229.463 151.755C230.237 152.487 229.958 152.229 230.752 152.786C231.196 153.095 231.583 153.297 232.042 153.56C232.748 153.967 233.357 154.266 234.104 154.591C234.486 154.756 234.615 154.756 234.878 154.849C234.919 154.864 234.728 155.261 235.265 155.622H236.296C243.382 154.065 248.895 149.057 253.573 143.761L256.538 157.556C253.743 159.717 250.587 161.012 247.255 162.069C237.554 160.656 219.675 152.43 221.727 140.28C222.511 135.644 233.088 131.389 236.683 128.805C236.961 129.28 238.442 130.528 238.488 130.997C238.509 131.209 236.972 134.442 237.714 134.994Z" fill="#2F754A"/>
<path d="M205.998 163.616C200.944 162.832 195.89 162.234 191.172 160.006C190.707 156.968 191.342 153.988 191.558 150.981C195.426 156.664 199.743 160.713 205.998 163.616Z" fill="#2F754A"/>
<path d="M227.916 108.693C227.689 109.208 226.869 109.513 226.369 109.724C226.26 108.987 226.456 108.357 226.627 107.661C228.261 108.079 227.859 108.636 227.916 108.693Z" fill="#155E41"/>
<path d="M218.117 174.446C218.241 176.571 218.721 180.81 218.375 182.697C218.246 183.404 217.896 184.425 217.215 184.76C213.914 186.385 192.064 185.575 187.175 183.213C187.36 181.145 186.912 181.011 186.917 180.892C186.927 180.748 187.618 178.185 187.69 178.056C190.135 173.714 198.309 177.107 196.2 174.704C197.907 176.39 215.797 177.566 217.086 173.157C217.117 173.234 217.87 174.575 218.117 174.446Z" fill="#3C1917"/>
<path d="M200.325 179.861C197.283 181.057 192.033 178.995 187.948 178.83C189.722 174.977 201.109 175.957 200.325 179.861Z" fill="#AE1E26"/>
<path d="M200.325 179.861C199.665 183.141 187.886 181.841 187.432 181.279C187.309 181.13 187.763 179.237 187.948 178.83C192.033 178.995 197.283 181.057 200.325 179.861Z" fill="#682522"/>
<path d="M246.74 164.905C247.178 169.712 244.146 174.101 242.098 178.314C241.025 178.531 239.932 178.799 238.875 179.087C236.9 178.953 228.808 169.944 227.658 167.484H227.916C234.228 167.102 240.634 166.618 246.74 164.905Z" fill="#AE1E26"/>
<path d="M242.098 178.314C244.146 174.101 247.178 169.712 246.74 164.905C247.823 164.601 250.87 163.162 252.283 162.585L252.928 162.972C253.176 166.968 255.667 171.537 252.026 174.446C250.174 175.926 244.553 177.814 242.098 178.314Z" fill="#AE1E26"/>
<path d="M217.086 173.157C215.797 177.566 197.907 176.39 196.2 174.704C194.039 172.564 193.92 168.459 193.621 165.679C194.194 165.483 193.704 164.003 193.879 163.745C193.931 163.673 195.467 163.105 195.555 163.1C196.617 163.049 212.661 168.051 216.441 166.71C217.468 167.963 216.24 168.887 217.602 169.933C217.034 171.321 216.642 172.12 217.086 173.157Z" fill="#3C1917"/>
<path d="M201.357 174.188C203.285 174.688 204.678 168.025 205.225 165.937C208.211 166.468 209.087 166.396 209.479 166.452C209.685 166.483 209.531 166.942 209.737 166.968C209.918 166.994 210.397 166.566 211.542 166.71C211.748 166.736 211.594 167.2 211.8 167.226C213.662 167.453 217.741 165.555 215.797 170.965C215.601 171.517 214.415 173.378 213.863 173.672C212.047 174.642 203.641 174.616 201.357 174.188Z" fill="#882025"/>
<path d="M205.225 165.937C204.678 168.025 203.285 174.688 201.357 174.188C195.643 173.116 194.977 168.402 195.555 163.616C198.665 164.859 201.955 165.359 205.225 165.937Z" fill="#AE1E26"/>
<path d="M247.771 57.3793C248.307 61.2111 249.266 70.726 250.607 73.7532C252.701 78.4823 251.865 70.726 253.186 69.4986L255.249 70.7879C249.302 78.3327 264.526 83.0773 262.984 71.5614C264.593 73.0157 264.526 74.4494 265.563 73.1086C265.547 73.9182 265.259 75.388 265.047 76.2028C264.779 77.2549 265.057 76.9403 265.047 76.9764C264.913 77.358 263.015 79.5086 262.984 80.0707C262.278 79.4776 261.757 80.3079 261.695 80.3285C259.266 81.2001 257.513 81.4579 254.991 80.5864C254.63 80.4626 253.959 79.4518 253.573 79.555C246.683 90.715 235.729 97.9092 223.017 100.699C229.334 97.6204 237.101 93.4586 241.324 87.6774C248.065 78.4462 241.711 76.9816 239.261 73.2375C236.869 69.5811 235.842 62.0517 234.62 60.2158C237.121 58.9781 232.841 54.7131 230.752 54.0272C231.108 52.7586 224.765 49.1537 223.403 48.6122C217.968 46.4411 219.262 48.1481 219.02 48.0965C209.123 44.3731 195.658 45.8996 185.627 48.8701L182.791 45.2601C184.849 43.8883 186.664 42.3309 187.819 40.103C193.368 42.8621 199.33 39.8812 202.775 35.2037C209.051 40.5568 215.348 39.1489 221.34 34.1723C222.181 34.2806 224.605 41.8822 235.265 42.6816C237.245 45.3272 238.478 48.4678 240.551 51.0619C241.103 51.7581 246.966 57.6527 247.384 57.8951C247.508 57.9673 247.456 57.2968 247.771 57.3793Z" fill="#D88157"/>
<path d="M242.098 49.3858C243.939 51.4486 245.357 51.3919 247.513 52.8668C247.74 53.3258 247.652 56.5232 247.771 57.3793C247.456 57.2968 247.508 57.9672 247.384 57.895C246.966 57.6526 241.103 51.758 240.551 51.0618C238.478 48.4678 237.245 45.3271 235.265 42.6815C224.605 41.8821 222.181 34.2805 221.341 34.1722C215.348 39.1489 209.051 40.5568 202.775 35.2037C199.33 39.8812 193.368 42.862 187.819 40.1029C186.664 42.3308 184.849 43.8883 182.791 45.2601C180.104 47.0444 178.078 47.4261 176.603 48.3543C176.51 48.4162 175.886 48.1687 175.571 48.7411L174.282 55.3164C173.756 53.9859 172.822 52.3563 171.961 51.1907C174.586 50.4378 173.266 45.6004 174.153 45.0022C179.65 44.8062 184.101 42.2586 186.53 37.2665C193.209 40.237 199.32 37.8441 202.001 31.078C211.852 41.975 219.474 31.1811 220.567 30.8201C220.639 30.7943 222.042 30.7943 222.114 30.8201C223.44 31.3049 226.462 41.4799 237.586 40.1029C238.065 40.3041 239.478 46.4514 242.098 49.3858Z" fill="#B66344"/>
<path d="M262.984 71.5614C264.526 83.0773 249.303 78.3327 255.249 70.7879C257.838 67.5028 260.798 69.5863 262.984 71.5614Z" fill="#A7553B"/>
<path d="M265.563 73.1086C264.526 74.4494 264.593 73.0157 262.984 71.5614C260.798 69.5863 257.838 67.5028 255.249 70.7879L253.186 69.4986V69.2407C253.459 68.9468 254.712 66.755 256.151 66.1465C260.457 64.326 265.671 66.5642 265.563 73.1086Z" fill="#ED9160"/>
<path d="M230.752 54.0272C232.841 54.7131 237.121 58.978 234.62 60.2157C232.217 56.6006 224.806 56.4613 224.564 55.9611C224.496 55.827 224.754 53.9808 224.821 53.8982C225.414 53.1762 229.783 53.7074 230.752 54.0272Z" fill="#221A17"/>
<path d="M185.628 48.8701C182.719 49.7313 179.913 50.804 177.118 51.9643C177.062 50.7163 176.984 49.556 176.603 48.3543C178.077 47.4261 180.104 47.0444 182.791 45.2601L185.628 48.8701Z" fill="#ED9160"/>
<path d="M183.307 116.171C183.374 118.166 185.658 121.895 185.885 123.133C186.736 127.795 179.336 129.961 175.571 129.837C175.499 126.681 172.09 125.598 171.961 125.324C171.827 125.051 172.776 120.435 168.48 122.875C165.974 124.298 163.803 132.152 169.64 134.994C163.751 134.721 162.73 127.135 165.515 123.004C168.63 118.383 178.464 118.254 183.307 116.171Z" fill="#F6B07C"/>
<path d="M175.571 129.837C175.587 130.528 174.395 133.168 174.282 134.221C173.106 134.334 172.121 134.391 172.477 135.768C171.404 135.561 170.662 135.489 169.64 134.994C163.803 132.153 165.974 124.298 168.48 122.875C172.776 120.436 171.827 125.051 171.961 125.324C172.09 125.598 175.499 126.681 175.571 129.837Z" fill="#B66344"/>
<path d="M174.282 134.221C174.395 133.168 175.587 130.528 175.571 129.837C179.336 129.961 186.736 127.795 185.886 123.133C190.042 128.543 194.699 127.49 191.429 130.353C188.882 132.586 181.626 134.097 178.279 134.478C176.855 134.643 174.483 134.2 174.282 134.221Z" fill="#D88157"/>
<path d="M176.603 48.3543C176.984 49.5559 177.062 50.7162 177.118 51.9643C177.381 57.9775 177.562 64.001 177.892 70.0142C176.752 65.2851 176.077 59.8804 174.282 55.3164L175.571 48.7411C175.886 48.1686 176.51 48.4162 176.603 48.3543Z" fill="#D88157"/>
<path d="M258.858 126.227C258.858 126.345 258.652 128.125 258.601 128.548C255.068 134.298 250.071 141.451 244.032 144.793C238.292 147.969 236.889 146.427 231.526 145.05C230.396 144.762 229.086 143.116 226.626 145.824C227.07 144.958 236.116 136.438 237.714 134.994C239.076 133.761 239.844 132.57 240.551 132.158C246.683 130.1 253.753 128.228 257.827 122.875C258.296 123.875 258.822 125.139 258.858 126.227Z" fill="#F6B07C"/>
<path d="M257.827 122.875C253.753 128.228 246.683 130.1 240.551 132.158C241.257 127.872 245.373 127.939 249.447 125.969C252.165 124.659 254.929 123.298 257.569 121.843C257.621 122.112 257.75 122.705 257.827 122.875Z" fill="#D88157"/>
<path d="M258.601 128.548C257.719 135.922 249.787 145.809 243.774 149.95C240.829 151.976 237.714 152.879 234.878 154.849C234.615 154.756 234.486 154.756 234.104 154.591L236.554 150.981L232.042 153.56C231.583 153.297 231.196 153.096 230.752 152.786C231.402 151.925 232.397 151.445 233.073 150.594C236.368 146.433 230.974 151.693 229.463 151.755C229.355 151.652 227.844 151.502 227.916 149.434C228.638 149.228 230.778 146.247 231.01 145.566C231.093 145.319 231.242 145.081 231.526 145.05C236.889 146.427 238.292 147.969 244.032 144.793C250.071 141.451 255.068 134.298 258.601 128.548Z" fill="#D88157"/>
<path d="M231.526 145.05C231.242 145.081 231.093 145.319 231.01 145.566L226.626 148.66C225.451 146.881 226.142 146.773 226.626 145.824C229.086 143.117 230.396 144.762 231.526 145.05Z" fill="#ED9160"/>
<path d="M227.916 149.434C226.059 149.96 226.678 148.743 226.627 148.66L231.01 145.566C230.778 146.247 228.638 149.228 227.916 149.434Z" fill="#22251C"/>
<path d="M234.104 154.591C233.357 154.266 232.748 153.967 232.042 153.56L236.554 150.981L234.104 154.591Z" fill="#522918"/>
<path d="M230.752 152.786C229.958 152.229 230.236 152.487 229.463 151.755C230.974 151.693 236.368 146.433 233.073 150.594C232.397 151.445 231.402 151.925 230.752 152.786Z" fill="#522918"/>
<path d="M230.752 54.0272C229.783 53.7074 225.415 53.1762 224.822 53.8982C224.754 53.9807 224.497 55.827 224.564 55.9611C224.806 56.4613 232.217 56.6006 234.62 60.2157C235.842 62.0516 236.869 69.581 239.261 73.2374C241.711 76.9815 248.065 78.4461 241.324 87.6774C237.101 93.4585 229.334 97.6203 223.017 100.699C207.365 104.134 188.252 102.839 181.76 85.7435C179.506 79.8128 179.258 75.6974 177.892 70.0142C177.562 64.001 177.381 57.9775 177.118 51.9643C179.913 50.804 182.719 49.7313 185.627 48.87C195.658 45.8995 209.123 44.373 219.02 48.0965C219.262 48.148 217.968 46.441 223.403 48.6122C224.765 49.1537 231.108 52.7585 230.752 54.0272Z" fill="#F6B07C"/>
<path d="M234.233 73.1086C243.104 72.2371 246.399 85.6249 236.812 86.775C226.745 87.9818 224.667 74.0472 234.233 73.1086Z" fill="#F5845F"/>
<path d="M188.335 78.0078C197.009 76.6412 196.37 88.3891 189.624 89.3535C182.466 90.3746 181.651 79.0598 188.335 78.0078Z" fill="#ED9160"/>
<path d="M223.919 83.4228C225.157 82.4069 226.456 85.8518 223.274 89.7403C217.313 97.0273 199.608 95.4905 201.486 83.9385C202.548 95.145 220.263 94.8252 223.79 85.3568C223.945 84.9442 223.574 83.7065 223.919 83.4228Z" fill="#221A17"/>
<path d="M189.366 56.0901C191.166 55.9818 192.569 57.1834 192.074 58.2818C191.868 58.7408 188.505 58.3231 183.951 63.8258C182.27 60.9481 186.654 56.2551 189.366 56.0901Z" fill="#221A17"/>
<path d="M212.96 81.3599C212.088 80.9628 209.185 80.705 209.35 81.8756C206.194 80.7308 209.283 77.8737 210.768 77.7499C212.424 77.6107 214.683 79.7715 212.96 81.3599Z" fill="#ED9160"/>
<path d="M212.96 81.3599C211.939 82.3036 210.64 82.3449 209.35 81.8756C209.185 80.7049 212.089 80.9628 212.96 81.3599Z" fill="#8D2619"/>
<path d="M193.492 69.4985C199.087 68.235 200.552 78.2038 196.328 79.0392C190.862 80.1222 189.738 70.3443 193.492 69.4985Z" fill="#221A17"/>
<path d="M193.234 71.0457C194.756 71.0251 194.101 73.7532 192.718 73.1086C191.847 72.7011 192.425 71.056 193.234 71.0457Z" fill="#E5EFFD"/>
<path d="M224.693 66.4044C230.726 64.9037 231.629 75.058 227.013 75.6872C221.738 76.4092 220.83 67.3636 224.693 66.4044Z" fill="#221A17"/>
<path d="M223.919 67.9515C225.466 67.4925 225.353 69.741 224.435 70.0143C222.887 70.4733 223.001 68.2248 223.919 67.9515Z" fill="#E5EFFD"/>
<defs>
<linearGradient id="paint0_linear_201_753" x1="115.408" y1="36.3951" x2="70.0358" y2="74.5887" gradientUnits="userSpaceOnUse">
<stop offset="0.29" stop-color="#F4D733"/>
<stop offset="1" stop-color="#D89A21"/>
</linearGradient>
</defs>
</svg>
