<svg width="250" height="233" viewBox="0 0 250 233" fill="none" xmlns="http://www.w3.org/2000/svg">
<path d="M87.9201 122.897C91.7244 125.241 93.1607 125.864 90.5908 128.535C84.0386 132.221 73.0351 129.936 67.1475 125.864C65.8893 124.998 63.9961 122.701 62.6963 121.562C62.8269 121.229 67.8004 120.671 68.6313 120.523C72.9995 119.74 84.1929 118.434 84.3591 116.072C84.5668 116.155 84.8457 115.561 85.1009 115.775C85.5342 116.143 85.7716 121.111 85.8428 122.155C87.0239 122.95 87.8251 122.838 87.9201 122.897Z" fill="#EBA764"/>
<path d="M142.522 197.381C136.362 207.453 144.831 213.572 135.103 205.394C134.955 205.269 135.715 205.121 134.955 204.503C134.225 203.916 133.264 203.15 132.433 202.723C131.857 202.426 131.317 201.856 131.246 201.833C132.053 200.212 135.489 197.185 135.994 196.194L142.522 197.381Z" fill="#694C32"/>
<path d="M132.433 189.369C130.456 186.657 128.1 183.903 125.904 181.357C141.875 171.327 132.142 174.793 132.433 189.369Z" fill="#02794D"/>
<path d="M208.104 199.755C207.475 200.189 206.602 200.473 206.027 200.942C204.394 198.978 202.816 198.171 204.543 195.601C207.041 191.885 212.086 191.974 214.632 195.749C214.65 196.129 211.789 197.191 208.104 199.755Z" fill="#694C32"/>
<path d="M165.669 199.162C165.544 203.364 167.146 212.32 165.075 214.296C165.307 208.682 164.808 202.729 162.998 197.381C163.039 197.233 162.974 196.984 162.998 196.788C163.271 197.102 165.289 198.889 165.669 199.162Z" fill="#8EB9B2"/>
<path d="M246.681 187.589C243.079 186.532 240.355 188.966 237.482 190.556C228.461 195.548 212.235 212.51 209.291 221.418L199.201 209.845C199.902 206.474 203.439 203.049 206.027 200.942C206.602 200.474 207.475 200.189 208.104 199.755C220.211 198.948 240.99 186.503 242.824 186.105C245.204 185.595 245.601 186.603 246.681 187.589Z" fill="#049B7E"/>
<path d="M242.824 186.105C240.99 186.502 220.211 198.948 208.104 199.755C211.79 197.191 214.65 196.129 214.632 195.749C212.086 191.975 207.042 191.886 204.543 195.601C204.211 195.69 203.991 195.019 203.949 195.007C207.386 190.004 213.054 190.449 216.265 195.601C221.333 193.559 222.265 194.058 223.832 193.82C223.945 193.803 224.402 194.307 225.464 194.117C226.342 193.957 240.622 187.054 241.488 186.402C242.438 185.683 241.316 185.315 241.934 185.215C242.426 185.339 242.889 185.274 242.824 186.105Z" fill="#241A12"/>
<path d="M241.934 185.215C241.316 185.315 242.438 185.683 241.488 186.402C240.622 187.054 226.342 193.957 225.464 194.117C224.402 194.307 223.945 193.803 223.832 193.82C226.105 192.61 239.939 185.048 240.895 184.918C242.07 184.758 241.88 185.203 241.934 185.215Z" fill="#242410"/>
<path d="M243.714 204.207C240.752 208.064 234.717 214.213 230.954 217.264C230.354 217.75 229.523 218.261 228.876 218.747C226.764 220.338 224.669 221.911 222.348 223.199C215.677 226.902 215.084 226.119 211.368 226.76C207.433 221.323 223.927 203.595 228.431 199.459C231.084 197.025 234.117 194.521 237.185 192.633C239.512 191.203 244.824 187.304 246.978 190.704C249.34 194.432 245.483 200.788 243.714 204.207Z" fill="#1B1B1B"/>
<path d="M246.681 187.589C252.272 192.716 247.162 199.714 243.714 204.207C245.482 200.788 249.34 194.432 246.978 190.704C244.824 187.304 239.512 191.203 237.185 192.633L237.482 190.556C240.355 188.965 243.079 186.532 246.681 187.589Z" fill="#5C543C"/>
<path d="M237.482 190.556L237.185 192.633C234.117 194.521 231.084 197.025 228.431 199.459C223.927 203.595 207.433 221.323 211.368 226.76C210.887 226.843 211.398 228.101 208.994 227.353C208.822 226.849 208.401 225.104 208.401 224.979C208.401 224.19 208.994 222.32 209.291 221.418C212.235 212.51 228.461 195.547 237.482 190.556Z" fill="#4A4A37"/>
<path d="M209.291 221.418C208.994 222.32 208.401 224.19 208.401 224.979C204.329 219.537 197.783 216.67 199.201 209.845L209.291 221.418Z" fill="#028366"/>
<path d="M222.348 223.199C218.603 226.73 213.837 230.297 208.698 227.353H208.994C211.398 228.101 210.888 226.843 211.368 226.76C215.084 226.119 215.677 226.902 222.348 223.199Z" fill="#7A5E47"/>
<path d="M113.44 140.108C115.832 147.913 117.002 155.979 118.485 163.997C118.972 164.745 122.106 163.635 123.233 163.849C123.269 163.985 123.554 163.742 124.124 166.519C124.278 167.279 125.186 170.098 125.014 170.525L121.156 172.899L128.13 176.312C129.305 176.354 138.474 170.205 140.445 169.19C146.445 166.086 150.374 163.576 157.211 165.629C165.597 171.534 175.224 175.469 183.622 181.357C191.866 187.132 198.347 194.717 199.35 195.007C200.204 195.257 202.857 194.77 203.949 195.007C203.991 195.019 204.211 195.69 204.543 195.601C202.816 198.171 204.395 198.978 206.027 200.942C203.439 203.049 199.902 206.474 199.201 209.845C197.783 216.67 204.329 219.537 208.401 224.979C208.401 225.104 208.822 226.849 208.994 227.353H208.697C207.036 226.404 203.831 221.549 201.724 219.934C199.124 219.697 194.228 217.531 192.376 215.78C190.667 214.166 189.545 210.694 188.964 210.142C187.498 208.747 169.657 202.011 165.669 199.162C165.289 198.889 163.271 197.102 162.998 196.788C162.47 196.188 161.662 194.924 161.514 194.117C170.773 199.975 178.571 204.076 188.964 207.768L189.705 207.619C189.913 206.456 190.542 203.506 190.892 202.723C191.047 202.385 191.949 200.568 192.079 200.349C193.332 198.23 195.474 197.114 195.64 195.749C185.296 181.826 172.488 178.306 161.514 171.861C161.247 171.701 160.921 171.451 160.624 171.267C159.817 170.775 158.185 166.484 150.683 167.41C146.789 167.89 144 170.864 141.632 173.641C137.851 178.081 134.569 184.882 135.994 190.853C137.044 195.263 140.19 194.503 143.709 195.601C143.644 195.684 142.629 197.203 142.522 197.381L135.994 196.194C136.201 195.791 136.64 195.553 136.587 195.156C134.985 193.393 133.827 191.28 132.433 189.369C132.142 174.793 141.875 171.327 125.904 181.357C124.325 179.529 117.328 173.457 116.705 172.009C116.651 171.695 116.788 171.208 116.705 170.971C112.758 159.813 112.877 131.562 96.6741 123.194C99.7544 130.417 92.8401 132.814 87.0297 133.58C85.7537 133.307 84.1572 133.046 82.8752 132.986C86.2285 132.292 95.9382 131.354 95.042 126.31C94.7512 124.677 89.4334 120.321 87.92 122.897C87.825 122.838 87.0238 122.95 85.8427 122.155C85.7715 121.111 85.5341 116.143 85.1008 115.775C84.8456 115.561 84.5667 116.155 84.3589 116.072C83.4153 115.68 83.2313 116.119 83.4687 111.917C83.4984 111.419 83.4331 111.181 83.7654 110.73C94.1458 111.252 104.87 107.875 111.66 99.7504C117.548 92.7056 118.04 88.1297 114.331 79.8681C114.058 79.2568 112.936 78.5446 112.847 78.236C111.5 73.6542 115.174 62.894 111.66 57.9086L112.55 57.0184C112.699 57.7187 112.847 59.428 113.144 59.244C113.369 46.8398 110.325 38.4536 99.1965 32.3881C90.5788 27.6875 80.2104 26.8388 71.0052 30.6076C69.284 31.3138 66.6073 32.1091 66.8507 34.1686C57.2419 33.8837 45.2057 66.1286 44.2976 74.2299C43.9415 77.4051 44.0128 79.1085 44.2976 82.2421C38.3864 66.2532 24.8011 73.1556 27.3829 86.545C28.9794 94.8244 41.8999 103.288 46.6716 93.2219C49.6748 99.7207 61.6813 106.16 68.3344 108.059V109.543L68.6312 120.523C67.8003 120.671 62.8267 121.229 62.6962 121.562C63.9959 122.701 65.8892 124.998 67.1474 125.864H65.3669C62.2095 123.33 59.1352 117.419 57.6514 124.677C53.3129 122.535 53.4198 124.345 48.1554 127.645C46.6182 128.606 43.8703 131.04 42.5171 131.503C34.5108 134.233 22.4509 127.841 22.4865 118.446C7.04952 117.478 0.15898 103.145 6.01683 89.5125C-0.559156 82.1294 -3.44951 67.9269 6.31358 61.9147C5.42927 59.6594 3.93365 57.5703 3.64283 55.0895C2.55672 45.8071 15.9283 22.1264 27.3829 22.4469C25.9229 4.19677 63.0879 -4.61672 75.9016 2.41627C89.7242 -6.61681 130.836 14.043 124.124 32.5364C131.738 35.4565 134.183 49.4631 130.059 55.9797C135.323 65.2799 131.827 75.1379 123.827 81.5003C124.865 86.2127 123.453 91.2515 119.672 94.2605C134.077 104.041 120.028 124.262 106.615 126.606C110.307 130.494 111.939 135.224 113.44 140.108Z" fill="#20110D"/>
<path d="M198.608 197.381C199.196 198.147 196.721 199.548 195.64 201.387C193.409 205.192 192.109 209.875 194.899 213.703C194.916 207.471 198.062 202.747 202.762 198.865C203.03 199.197 204.116 199.833 203.949 200.497C203.718 201.417 193.896 205.613 197.569 216.67C196.27 215.632 192.928 212.682 192.376 211.477C190.572 207.53 194.501 198.473 198.608 197.381Z" fill="#88232F"/>
<path d="M202.762 198.865C198.062 202.747 194.916 207.471 194.899 213.703C192.109 209.875 193.409 205.192 195.64 201.388C196.721 199.548 199.195 198.147 198.608 197.381C200.946 196.758 201.427 197.215 202.762 198.865Z" fill="#C74150"/>
<path d="M120.711 166.223C122.569 166.323 122.723 169.149 122.64 169.338C122.557 169.528 118.824 170.466 118.634 170.377C118.343 170.241 116.349 165.979 120.711 166.223Z" fill="#C74150"/>
<path d="M61.3608 1.82278C72.6492 1.36579 79.4507 5.31257 79.3142 17.4022C56.7315 19.6337 44.2205 36.507 38.0659 56.87C37.7573 57.1252 35.1755 53.3149 31.9825 54.0509C28.19 54.9233 18.4388 82.3727 23.5251 90.106C7.35221 100.136 -2.08445 74.9243 4.82983 66.0693C9.15052 60.5319 10.3969 67.642 18.1836 65.179C18.237 63.4994 -2.25657 64.7339 11.3583 38.7682C12.0409 38.2637 13.4 43.3678 15.958 45.7418C17.5782 45.4214 12.6878 39.522 16.1064 32.8332C18.6109 27.9309 27.0149 22.987 31.5374 29.8657C29.0328 22.3995 29.9646 14.8976 36.4338 9.83504C41.9533 5.52029 54.3872 2.10766 61.3608 1.82278Z" fill="#3B1814"/>
<path d="M84.2105 2.41644C101.161 0.659672 135.032 22.6845 117.298 37.8781C118.978 37.6288 121.114 35.4448 122.788 35.3557C128.598 35.0412 131.916 48.8163 128.278 54.4961C127.263 56.0808 124.598 57.0185 125.014 57.7604C131.524 56.1639 130.521 66.0813 129.168 69.9272C128.165 72.7819 122.473 79.3401 121.304 79.2748C119.174 79.162 122.669 75.3755 122.936 73.4882C123.542 69.1734 115.998 42.5134 113.737 37.5814C108.253 25.6401 95.766 17.7169 82.5784 17.6991C83.4508 10.3456 78.2517 5.32459 78.4239 4.64206C80.0026 3.56783 82.3054 2.61229 84.2105 2.41644Z" fill="#3B1814"/>
<path d="M34.6533 58.5022C34.7957 58.5022 35.9353 58.8998 35.9887 58.9473C39.7693 62.2768 30.2851 60.5854 32.8728 58.7989C32.9499 58.7455 34.5643 58.4962 34.6533 58.5022Z" fill="#56191D"/>
<path d="M123.233 163.848C122.106 163.635 118.972 164.745 118.485 163.997C117.001 155.979 115.832 147.913 113.44 140.108C114.924 141.503 117.755 147.587 118.782 150.05C120.663 154.554 121.999 159.154 123.233 163.848Z" fill="#29C0AD"/>
<path d="M65.3669 125.864C73.4266 132.346 85.9495 133.36 90.5907 128.535C93.1605 125.864 91.7243 125.241 87.9199 122.897C89.4333 120.321 94.7511 124.677 95.0419 126.31C95.9381 131.354 86.2284 132.292 82.8752 132.986C73.4741 132.541 71.2722 131.989 62.6961 127.942C59.7998 126.571 57.9184 124.808 57.6514 124.677C59.1351 117.419 62.2095 123.33 65.3669 125.864Z" fill="#09ADA2"/>
<path d="M67.1472 125.865C73.0347 129.936 84.0382 132.221 90.5905 128.535C85.9493 133.36 73.4264 132.346 65.3667 125.865H67.1472Z" fill="#253D2B"/>
<path d="M62.1025 153.462C62.1738 154.436 62.1025 155.451 62.1025 156.43C62.1263 160.216 61.7227 163.985 61.0639 167.706C52.8558 163.035 42.1965 162.935 33.021 163.849C33.7273 153.789 38.861 140.999 42.517 131.503C43.8702 131.04 46.6181 128.606 48.1553 127.645C48.909 128.678 50.921 128.773 51.8647 129.426C56.6423 132.719 61.6871 147.741 62.1025 153.462Z" fill="#29C0AD"/>
<path d="M62.696 155.836L62.1025 156.43C62.1025 155.451 62.1738 154.436 62.1025 153.462C62.3696 153.753 62.6604 155.367 62.696 155.836Z" fill="#1D5B30"/>
<path d="M62.1026 171.861C61.9898 172.484 61.8771 172.739 61.8058 173.048C61.5269 174.27 61.3845 175.416 60.9156 176.609C59.1232 181.173 56.2863 181.903 56.1676 186.105C55.2239 185.031 56.3634 184.556 55.2773 183.731C55.6868 182.413 57.3843 177.6 57.0578 176.757C56.6008 176.193 55.8412 176.104 55.2773 175.719C54.1022 174.911 53.8648 175.161 53.7936 175.125C50.0723 173.285 47.182 172.668 42.9622 172.751C40.2974 177.903 39.1578 183.535 37.7691 189.072C36.9678 192.259 33.1219 208.717 33.3178 210.587C33.484 212.195 35.4485 212.373 35.3951 213.999C35.2942 213.982 35.1814 214.023 35.0983 213.999C34.2259 213.732 33.2822 211.382 30.647 211.032C27.9229 210.67 14.1299 212.611 12.2485 218.006C11.1209 221.228 11.3939 224.576 13.8806 223.199C14.7175 222.736 15.495 218.896 19.964 216.373C18.5099 217.845 17.4476 219.169 16.6998 221.121C13.667 229.062 21.1154 222.581 22.9315 219.934C22.5458 220.617 22.2846 221.834 22.0413 222.605C21.7979 223.371 20.6406 225.84 20.8543 226.315C21.9166 228.694 30.7301 218.023 32.7243 217.857C32.4097 219.4 28.3739 224.113 31.9824 223.792C32.0596 223.786 33.1397 223.056 33.3178 222.902L33.6145 223.792C31.1159 224.564 29.8102 226.119 29.3117 222.012C27.1751 224.285 19.8572 231.988 19.8156 225.276C18.5693 226.421 17.0203 226.979 15.3644 226.76C11.1624 223.745 8.56287 225.608 10.468 218.154C10.5333 217.899 10.6757 217.525 10.7648 217.264C13.4058 209.679 21.2579 212.284 28.4214 209.251C33.7985 206.972 32.1842 201.934 34.208 193.672C35.674 187.678 37.9234 181.63 39.1044 175.719C32.4988 175.084 32.2851 174.336 33.021 163.849C42.1966 162.935 52.8558 163.035 61.064 167.706C61.7228 163.985 62.1263 160.216 62.1026 156.43L62.6961 155.836C63.1828 161.884 63.1887 165.878 62.1026 171.861Z" fill="#20110D"/>
<path d="M46.6715 166.816C49.0514 167.166 60.6009 169.505 59.135 173.048C49.4847 167.321 37.49 169.991 36.4336 169.487C31.5965 167.184 46.3094 166.828 46.6715 166.816Z" fill="#C74150"/>
<path d="M46.6717 166.816C46.3096 166.828 31.5967 167.184 36.4338 169.487C37.4902 169.991 49.4848 167.321 59.1352 173.048C58.5595 174.443 52.298 171.226 45.9298 170.971C37.3299 170.626 33.674 174.401 35.8403 166.816C39.5615 166.027 42.9445 166.264 46.6717 166.816Z" fill="#A62940"/>
<path d="M116.705 170.971C116.046 172.472 113.013 168.051 109.879 166.519C108.864 165.243 106.918 164.139 105.428 163.552C104.912 163.35 102.336 162.394 102.164 162.365C89.1721 160.187 79.3912 171.861 71.0051 179.873L70.7083 179.576C71.4442 179.315 72.8212 177.701 73.0823 176.906C73.1951 176.561 73.4384 176.401 73.6758 176.164C70.0792 173.558 65.8594 170.425 63.7347 166.519C62.7969 166.478 63.3192 171.997 62.1025 171.861C63.1887 165.878 63.1827 161.884 62.696 155.836C62.6604 155.367 62.3696 153.753 62.1025 153.462C61.6871 147.741 56.6423 132.719 51.8647 129.425C50.921 128.773 48.909 128.678 48.1553 127.645C53.4196 124.345 53.3128 122.535 57.6513 124.677C57.9184 124.808 59.7998 126.571 62.696 127.942C69.551 132.559 78.8689 134.654 87.0296 133.58C92.84 132.814 99.7542 130.417 96.674 123.194C112.877 131.562 112.758 159.813 116.705 170.971Z" fill="#EFD830"/>
<path d="M82.8751 132.987C84.157 133.046 85.7536 133.307 87.0296 133.58C78.8689 134.654 69.551 132.559 62.696 127.942C71.2721 131.989 73.474 132.541 82.8751 132.987Z" fill="#1D5B30"/>
<path d="M70.7083 179.576L71.005 179.873C66.0552 184.603 61.7642 192.443 56.1675 186.105C56.2862 181.903 59.1231 181.173 60.9155 176.609L69.9664 179.873C70.2987 179.944 70.4056 179.683 70.7083 179.576Z" fill="#D3A525"/>
<path d="M73.0824 176.906C69.7648 175.956 63.4262 174.894 61.8059 173.048C61.8771 172.739 61.9899 172.484 62.1027 171.861C63.3193 171.997 62.7971 166.478 63.7348 166.519C65.8595 170.425 70.0793 173.558 73.6759 176.164C73.4385 176.401 73.1952 176.561 73.0824 176.906Z" fill="#EFD830"/>
<path d="M73.0823 176.906C72.8212 177.701 71.4442 179.315 70.7083 179.576C70.4056 179.683 70.2988 179.944 69.9664 179.873L60.9155 176.609C61.3844 175.416 61.5268 174.27 61.8058 173.048C63.426 174.894 69.7646 175.956 73.0823 176.906Z" fill="#E0B626"/>
<path d="M131.246 201.833C131.317 201.856 131.857 202.426 132.433 202.723C131.673 203.779 132.403 203.566 131.542 205.097C132.516 203.477 130.029 203.346 128.723 203.613C125.922 204.189 122.212 211.097 122.936 213.999C121.886 213.293 121.002 212.266 119.969 211.625C121.019 209.993 121.577 208.237 122.64 206.581C122.735 206.438 122.842 206.124 122.936 205.987C123.168 205.655 124.883 203.423 125.014 203.316C126.913 201.744 128.836 201.126 131.246 201.833Z" fill="#321C11"/>
<path d="M161.514 171.861L160.624 180.912C160.855 181.606 161.217 181.992 161.662 182.544C163.164 184.402 187.551 199.666 192.079 200.349C191.949 200.568 191.047 202.385 190.892 202.723C181.289 199.767 169.586 193.666 161.366 187.885C159.033 186.247 155.413 182.395 154.985 182.247C156.042 179.826 153.882 178.769 152.76 176.906C150.629 179.179 148.487 181.754 147.863 184.918C147.027 186.229 138.237 191.144 135.993 190.853C134.569 184.882 137.851 178.081 141.632 173.641C146.178 175.392 150.493 173.261 154.837 172.454C156.73 172.104 159.128 172.87 160.624 171.267C160.92 171.451 161.247 171.701 161.514 171.861Z" fill="#C17245"/>
<path d="M192.079 200.349C187.551 199.666 163.164 184.402 161.662 182.544C161.217 181.992 160.855 181.606 160.624 180.912L161.514 171.861C172.488 178.306 185.296 181.826 195.64 195.749C195.474 197.114 193.332 198.23 192.079 200.349Z" fill="#EBA764"/>
<path d="M154.985 182.247C155.413 182.396 159.033 186.247 161.366 187.885C169.586 193.666 181.289 199.767 190.892 202.723C190.542 203.506 189.913 206.456 189.705 207.619L188.963 207.768C178.571 204.076 170.773 199.975 161.514 194.117C160.986 193.785 160.564 193.274 160.03 192.93C159.941 192.871 159.811 192.188 158.546 191.446C152.784 188.052 147.543 190.71 143.709 195.601C140.189 194.503 137.044 195.263 135.993 190.853C138.237 191.144 147.027 186.23 147.863 184.918C150.006 184.758 152.95 181.535 154.985 182.247Z" fill="#A05A36"/>
<path d="M160.624 171.267C159.128 172.87 156.73 172.104 154.837 172.454C150.493 173.261 146.178 175.392 141.632 173.641C144 170.864 146.789 167.89 150.682 167.41C158.184 166.484 159.816 170.775 160.624 171.267Z" fill="#EBA764"/>
<path d="M154.986 182.247C152.95 181.535 150.006 184.758 147.864 184.918C148.487 181.754 150.629 179.179 152.76 176.906C153.882 178.769 156.042 179.826 154.986 182.247Z" fill="#C17245"/>
<path d="M158.547 191.446C158.582 192.384 158.434 191.791 157.656 191.743C157.46 191.731 157.259 191.725 157.063 191.743C151.935 189.939 147.959 191.482 144.896 196.046C139.798 203.631 141.626 215.02 144.896 223.05C145.697 225.021 147.656 227.353 147.27 227.947C139.632 221.448 122.735 220.202 135.103 205.394C144.831 213.572 136.362 207.453 142.522 197.381C142.629 197.203 143.644 195.684 143.709 195.601C147.543 190.71 152.784 188.052 158.547 191.446Z" fill="#049B7E"/>
<path d="M157.063 191.743C157.259 191.725 157.461 191.731 157.656 191.743C158.238 192.728 159.752 193.393 160.03 192.93C160.565 193.274 160.986 193.785 161.514 194.117C161.663 194.924 162.47 196.189 162.998 196.788C162.974 196.984 163.04 197.233 162.998 197.381C162.458 199.233 163.817 200.349 162.998 201.684C164.488 201.667 164.719 211.851 164.482 212.367C164.357 212.634 163.853 212.486 163.591 212.516C163.58 207.02 162.203 193.862 155.282 192.93C155.36 190.972 156.274 191.814 157.063 191.743Z" fill="#694C32"/>
<path d="M162.998 224.089C160.606 229.514 156.25 233.336 149.941 231.805C150.546 231.561 148.879 229.508 147.864 228.54C148.807 228.962 149.977 228.06 149.496 229.431C150.06 229.585 150.309 229.051 150.831 229.134C157.051 230.143 160.488 227.941 162.405 221.715C164.535 221.43 162.737 222.487 162.998 224.089Z" fill="#5B4A35"/>
<path d="M165.075 214.296C165.022 215.566 164.944 216.593 164.778 217.857C164.47 220.219 163.953 221.923 162.998 224.089C162.737 222.487 164.535 221.43 162.404 221.715C163.283 218.866 163.597 215.513 163.591 212.516C163.852 212.486 164.357 212.634 164.482 212.367C164.719 211.851 164.482 201.667 162.998 201.684C163.817 200.349 162.458 199.233 162.998 197.381C164.808 202.729 165.307 208.682 165.075 214.296Z" fill="#4A4A37"/>
<path d="M160.03 192.93C159.752 193.393 158.238 192.728 157.656 191.743C158.434 191.791 158.582 192.384 158.547 191.447C159.811 192.188 159.941 192.871 160.03 192.93Z" fill="#A05A36"/>
<path d="M157.063 191.743C156.274 191.814 155.36 190.972 155.282 192.93C139.715 190.835 143.27 222.291 150.831 229.134C150.309 229.051 150.06 229.585 149.496 229.431C149.977 228.06 148.807 228.962 147.864 228.54C147.662 228.35 147.401 228.06 147.27 227.947C147.656 227.353 145.697 225.021 144.896 223.05C141.626 215.02 139.798 203.631 144.896 196.046C147.959 191.482 151.935 189.939 157.063 191.743Z" fill="#4A4A37"/>
<path d="M155.282 192.93C162.203 193.862 163.579 207.02 163.591 212.516C163.597 215.513 163.283 218.866 162.404 221.715C160.487 227.941 157.051 230.143 150.831 229.134C143.27 222.291 139.715 190.835 155.282 192.93Z" fill="#1B1B1B"/>
<path d="M102.164 162.365C102.532 163.219 99.5526 162.572 96.9708 163.255C91.8015 164.62 86.0623 169.374 82.5784 173.344C76.0262 180.805 75.5217 186.241 79.0174 195.601C81.5932 202.491 88.8399 212.616 96.5257 213.999C101.565 214.907 106.218 212.403 110.176 209.4C110.253 208.8 108.764 208.414 108.692 208.361C101.606 203.221 95.0479 199.174 94.3001 189.369C99.3448 203.281 109.452 205.121 119.969 211.625C121.002 212.266 121.886 213.293 122.937 213.999C124.628 215.133 128.872 218.272 129.168 217.709C127.417 211.91 129.05 209.548 131.542 205.097C132.403 203.566 131.673 203.779 132.433 202.723C133.263 203.15 134.225 203.916 134.955 204.503C135.715 205.121 134.955 205.269 135.103 205.394C122.735 220.201 139.632 221.448 147.27 227.947C147.401 228.059 147.662 228.35 147.864 228.54C148.878 229.507 150.546 231.561 149.941 231.804C147.65 231.252 145.751 228.92 143.857 227.947C135.91 223.869 127.483 220.688 120.117 215.483C110.746 227.893 88.8992 229.864 75.3081 225.573C68.7024 223.483 66.8447 220.284 63.8832 217.857C63.3906 217.453 63.1057 216.593 62.3994 216.373C58.7375 209.809 57.1944 202.07 58.2449 194.562L54.5355 190.556C51.5027 197.773 48.8082 205.263 45.1879 212.219C44.6656 213.222 44.262 214.545 43.7041 215.483C40.7366 220.474 39.1817 222.071 33.6146 223.792L33.3179 222.902C33.5553 222.694 34.2734 221.026 34.5049 220.825C38.422 217.424 37.9412 219.192 41.6269 213.406C42.7071 211.714 42.9148 211.038 43.7041 209.548C45.5499 206.064 48.0486 200.746 49.3424 197.085C51.7164 192.835 53.8352 188.372 55.2774 183.731C56.3635 184.556 55.224 185.031 56.1677 186.105C61.7644 192.443 66.0554 184.603 71.0052 179.873C79.3913 171.861 89.1722 160.187 102.164 162.365Z" fill="#181A12"/>
<path d="M75.3079 178.686C68.4589 198.022 93.6709 232.083 112.698 209.845C117.162 213.59 120.099 213.127 112.995 218.451C99.6118 228.475 68.0019 227.519 61.509 209.4C55.8886 193.702 65.7407 188.449 75.3079 178.686Z" fill="url(#paint0_linear_102_133)"/>
<path d="M55.2773 175.719C53.9716 178.769 53.2238 182.662 52.3098 186.105C42.8316 182.74 28.5876 212.231 43.704 209.548C42.9147 211.038 42.707 211.714 41.6268 213.406C39.6207 213.216 37.3833 214.344 35.395 213.999C35.4484 212.373 33.4839 212.195 33.3178 210.587C33.1219 208.717 36.9678 192.259 37.769 189.072C38.9501 188.52 40.8018 189.422 41.4784 189.072C42.3509 188.621 43.8583 177.256 53.7936 175.125C53.8648 175.161 54.1022 174.911 55.2773 175.719Z" fill="#A05A36"/>
<path d="M53.7936 175.125C43.8584 177.256 42.3509 188.621 41.4784 189.072C40.8018 189.423 38.9501 188.52 37.769 189.072C39.1578 183.535 40.2974 177.903 42.9622 172.751C47.182 172.668 50.0723 173.285 53.7936 175.125Z" fill="#A05A36"/>
<path d="M55.2773 183.731C53.8351 188.372 51.7163 192.835 49.3423 197.085C50.5886 193.559 51.3483 189.719 52.3098 186.105C53.2238 182.662 53.9716 178.769 55.2773 175.719C55.8411 176.104 56.6008 176.193 57.0578 176.757C57.3842 177.6 55.6868 182.413 55.2773 183.731Z" fill="#8E4C31"/>
<path d="M30.647 211.032C28.5816 211.898 23.7921 212.148 24.4152 213.999C23.7743 214.13 23.5665 213.079 23.2282 214.89C21.6555 215.014 21.1866 215.685 19.964 216.373C15.4949 218.896 14.7174 222.736 13.8806 223.199C11.3938 224.576 11.1208 221.228 12.2485 218.006C14.1299 212.611 27.9228 210.67 30.647 211.032Z" fill="#A05A36"/>
<path d="M35.0982 213.999C34.6293 214.266 34.4275 214.991 34.5047 215.483C33.2108 215.299 32.8072 216.035 32.7242 216.077C28.0474 218.563 23.3112 225.05 22.3379 222.308C26.3678 216.249 28.1839 215.786 28.2729 215.335C28.6646 213.341 25.6615 213.75 24.4151 213.999C23.792 212.148 28.5815 211.898 30.6469 211.032C33.282 211.382 34.2257 213.732 35.0982 213.999Z" fill="#C17245"/>
<path d="M23.2282 214.89C29.0623 214.433 24.4212 217.554 23.525 219.044C21.1747 218.848 18.3437 224.771 16.6997 221.121C17.4475 219.169 18.5099 217.845 19.964 216.373C21.1866 215.685 21.6554 215.014 23.2282 214.89Z" fill="#C17245"/>
<path d="M41.6268 213.406C37.9412 219.192 38.4219 217.424 34.5048 220.825C33.8876 220.1 35.1043 218.83 35.0983 216.225C35.0983 216.112 34.5701 215.875 34.5048 215.483C34.4277 214.99 34.6295 214.266 35.0983 213.999C35.1814 214.023 35.2942 213.981 35.3951 213.999C37.3833 214.343 39.6208 213.216 41.6268 213.406Z" fill="#D3894D"/>
<path d="M32.7243 216.077C32.6531 216.635 32.8252 217.359 32.7243 217.857C30.7302 218.023 21.9167 228.694 20.8543 226.315C20.6406 225.84 21.798 223.371 22.0413 222.605C22.4033 222.635 22.3143 222.35 22.3381 222.308C23.3114 225.05 28.0475 218.563 32.7243 216.077Z" fill="#A05A36"/>
<path d="M34.5047 215.483C34.57 215.875 35.0982 216.112 35.0982 216.225C35.0982 218.83 33.8875 220.101 34.5047 220.825C34.2733 221.026 33.5551 222.694 33.3177 222.902C33.1397 223.056 32.0595 223.786 31.9824 223.792C28.3739 224.113 32.4097 219.4 32.7242 217.857C32.8251 217.359 32.653 216.634 32.7242 216.077C32.8073 216.035 33.2109 215.299 34.5047 215.483Z" fill="#A05A36"/>
<path d="M23.525 219.044C23.3351 219.365 23.1155 219.608 22.9315 219.934C21.1154 222.581 13.667 229.062 16.6998 221.121C18.3438 224.771 21.1748 218.848 23.525 219.044Z" fill="#A05A36"/>
<path d="M24.4153 213.999C25.6616 213.75 28.6647 213.341 28.273 215.335C28.184 215.786 26.3679 216.249 22.338 222.308C22.3143 222.35 22.4033 222.635 22.0413 222.605C22.2846 221.834 22.5457 220.617 22.9315 219.934C23.1155 219.608 23.3351 219.365 23.525 219.044C24.4212 217.554 29.0624 214.433 23.2283 214.89C23.5666 213.079 23.7743 214.13 24.4153 213.999Z" fill="#662E19"/>
<path d="M52.3099 186.105C51.3484 189.719 50.5887 193.559 49.3424 197.085C48.0485 200.746 45.5499 206.064 43.7041 209.548C28.5876 212.231 42.8317 182.74 52.3099 186.105Z" fill="#D3894D"/>
<path d="M131.542 205.097C129.05 209.548 127.417 211.91 129.168 217.709C128.872 218.273 124.628 215.133 122.937 213.999C122.212 211.097 125.922 204.189 128.723 203.613C130.029 203.346 132.516 203.477 131.542 205.097Z" fill="#C74150"/>
<path d="M66.8506 34.1685C67.2305 34.1804 67.3551 34.7442 67.7409 34.762C61.6219 39.9789 55.0162 58.1637 55.2774 60.1342C55.3011 60.3003 56.2567 60.7217 57.0579 62.9533C56.2151 68.0277 55.4792 76.313 57.0579 81.0551L57.3546 81.7969C54.0904 85.8506 58.2033 96.8541 61.5091 96.1893C63.2659 98.2191 73.9786 104.492 76.7918 105.685C88.6025 110.7 100.793 110.202 110.176 100.641L111.66 99.7503C104.87 107.875 94.1457 111.252 83.7654 110.73C80.8573 110.582 77.1954 109.81 74.2694 109.246C77.8007 106.006 71.8182 106.356 67.2958 104.498C56.138 99.9165 47.4966 92.7767 45.7814 80.3132C45.3244 77.0074 47.1227 75.1379 44.2976 74.2298C45.2057 66.1285 57.2419 33.8836 66.8506 34.1685Z" fill="#C17245"/>
<path d="M114.331 79.8681C118.04 88.1296 117.547 92.7055 111.66 99.7504L110.176 100.641C110.906 99.8987 115.363 94.2902 114.924 93.667C109.06 92.2129 102.016 88.7231 103.648 81.5002C104.663 77.0074 110.58 76.8056 112.105 77.4941C112.277 77.5712 113.126 80.6396 114.331 79.8681Z" fill="#EC9770"/>
<path d="M74.2693 109.246C72.6906 108.944 69.4857 108.386 68.3343 108.059C61.6811 106.16 49.6746 99.7207 46.6715 93.2219C45.8406 91.4236 44.5112 84.5983 44.2975 82.2421C44.0126 79.1084 43.9414 77.4051 44.2975 74.2299C47.1226 75.1379 45.3243 77.0074 45.7813 80.3132C47.4965 92.7768 56.1378 99.9166 67.2957 104.498C71.8181 106.356 77.8006 106.006 74.2693 109.246Z" fill="#A05A36"/>
<path d="M83.4687 111.917C83.2313 116.119 83.4153 115.68 84.359 116.072C84.1928 118.434 72.9994 119.739 68.6312 120.523L68.3345 109.543C73.2487 111.027 78.3646 111.739 83.4687 111.917Z" fill="#A05A36"/>
<path d="M99.1964 32.388L99.3448 32.9815C93.5582 30.5541 80.8335 29.462 75.4564 32.0912C74.6611 31.3553 73.1833 31.7292 72.1921 32.0912L71.0051 30.6075C80.2103 26.8388 90.5788 27.6875 99.1964 32.388Z" fill="#C17245"/>
<path d="M112.55 57.0183L111.66 57.9085C109.66 55.0716 105.321 53.6769 102.016 54.0508C99.8732 52.7213 109.88 44.353 112.55 57.0183Z" fill="#1B1B1B"/>
<path d="M74.2695 109.246C77.1954 109.81 80.8573 110.582 83.7655 110.73C83.4331 111.181 83.4984 111.419 83.4687 111.917C78.3646 111.739 73.2487 111.027 68.3345 109.543V108.059C69.4859 108.386 72.6908 108.944 74.2695 109.246Z" fill="#662E19"/>
<path d="M72.1922 32.0912C71.9133 32.1921 68.0436 34.5067 67.741 34.7619C67.3552 34.7441 67.2305 34.1803 66.8507 34.1684C66.6074 32.109 69.2841 31.3137 71.0052 30.6074L72.1922 32.0912Z" fill="#A05A36"/>
<path d="M75.4566 32.0913C71.5038 34.0202 66.4413 44.8812 65.367 49.3028C61.1829 50.2761 59.3727 54.5553 58.245 58.2053C57.7346 59.8493 57.3429 61.2381 57.058 62.9533C56.2568 60.7218 55.3013 60.3004 55.2775 60.1342C55.0164 58.1638 61.622 39.9789 67.741 34.762C68.0437 34.5068 71.9133 32.1922 72.1923 32.0913C73.1834 31.7292 74.6613 31.3553 75.4566 32.0913Z" fill="#D3894D"/>
<path d="M77.237 73.6363C74.1152 63.5468 61.895 67.6657 60.0254 76.3071C59.5447 76.3724 59.0402 76.3249 58.5417 76.4555C57.7998 61.1253 75.1241 54.3594 78.1272 73.1912C78.2519 73.9093 77.2904 73.5532 77.237 73.6363Z" fill="#D3894D"/>
<path d="M58.2449 58.2053C59.3725 54.5553 61.1827 50.2761 65.3669 49.3028C67.1058 48.8992 71.931 49.0417 72.7856 50.9349C74.6136 55.0004 66.085 51.3148 58.2449 58.2053Z" fill="#20110D"/>
<path d="M65.9603 76.0102C66.2333 76.0518 66.9159 77.1854 71.3018 76.307C69.5154 79.0252 78.2933 77.4999 76.3466 83.2806C75.3792 86.1591 66.2155 91.9814 65.5152 92.0348C65.4321 92.0407 65.1888 91.1267 64.9217 91.1445C63.7703 91.2157 62.9691 94.0349 61.9542 92.6283L60.6188 95.0023C59.3665 92.7648 58.8799 87.0256 59.1351 84.4676C59.236 83.4706 60.9452 79.1439 59.7286 79.2745C61.7524 77.9391 63.1649 78.2656 61.2123 76.0102C61.2479 75.9924 61.2776 75.7372 61.8058 75.4167C63.1471 75.8025 64.5656 75.8025 65.9603 76.0102Z" fill="#EC9770"/>
<path d="M60.6188 95.0024C60.8443 95.406 61.2064 95.8392 61.5091 96.1894C58.2033 96.8541 54.0903 85.8506 57.3546 81.797L57.0578 81.0551C57.9659 80.699 58.7434 79.9275 59.7286 79.2746C60.9452 79.1441 59.236 83.4707 59.1351 84.4678C58.8799 87.0257 59.3665 92.7649 60.6188 95.0024Z" fill="#DC7958"/>
<path d="M44.2976 82.242C44.5113 84.5982 45.8407 91.4235 46.6716 93.2218C41.8999 103.288 28.9794 94.8243 27.3829 86.5449C24.8011 73.1555 38.3864 66.2531 44.2976 82.242Z" fill="#A05A36"/>
<path d="M33.7629 76.307C37.8402 75.4642 40.4279 78.776 39.5495 82.6871C39.1697 84.3845 36.9203 85.0552 36.8788 85.6546C36.8075 86.6458 39.965 88.1948 41.4784 86.0998C42.523 88.8655 36.7541 89.1326 35.9885 86.5449C34.8312 82.6515 40.9383 83.791 38.3625 79.1261C37.3773 77.3397 34.8787 76.853 33.1694 77.7908C30.7182 79.138 30.7479 82.9839 30.647 83.2806C30.101 84.8831 29.4837 81.144 30.647 78.8294C30.9141 78.2893 33.1635 76.4316 33.7629 76.307Z" fill="#20110D"/>
<path d="M77.2369 73.6363C77.0885 73.8619 77.4921 74.1823 76.9402 74.5266C73.3732 69.3869 74.5602 73.2624 73.6759 75.1201C73.0765 76.3783 72.7263 76.0222 71.3019 76.3071C66.9159 77.1855 66.2334 76.0519 65.9604 76.0103C64.9396 70.1584 64.4054 73.8203 61.8059 75.4168C61.2777 75.7373 61.248 75.9925 61.2124 76.0103C61.159 76.04 60.1738 76.2893 60.0254 76.3071C61.8949 67.6657 74.1151 63.5468 77.2369 73.6363Z" fill="#20110D"/>
<path d="M76.9403 74.5265C76.4536 74.8292 74.317 75.5177 73.676 75.12C74.5603 73.2624 73.3733 69.3868 76.9403 74.5265Z" fill="#FDFDFC"/>
<path d="M65.9604 76.0103C64.5657 75.8026 63.1472 75.8026 61.8059 75.4168C64.4054 73.8203 64.9396 70.1584 65.9604 76.0103Z" fill="#FDFDFC"/>
<path d="M99.1966 32.3881C110.325 38.4536 113.369 46.8398 113.144 59.244C112.847 59.428 112.699 57.7187 112.55 57.0184C109.88 44.353 99.8732 52.7214 102.016 54.0508C105.322 53.6769 109.66 55.0717 111.66 57.9086C115.174 62.894 111.5 73.6542 112.847 78.236C112.936 78.5446 114.058 79.2568 114.331 79.8681C113.126 80.6397 112.277 77.5713 112.105 77.4941C110.58 76.8057 104.663 77.0075 103.648 81.5003C102.016 88.7232 109.061 92.213 114.924 93.667C115.364 94.2902 110.906 99.8988 110.176 100.641C100.793 110.202 88.6026 110.701 76.7919 105.685C73.9787 104.492 63.266 98.2192 61.5093 96.1894C61.2066 95.8392 60.8446 95.406 60.619 95.0024L61.9544 92.6284C62.9693 94.035 63.7705 91.2159 64.9219 91.1447C65.189 91.1268 65.4323 92.0408 65.5154 92.0349C66.2157 91.9815 75.3794 86.1592 76.3468 83.2808C78.2935 77.5001 69.5156 79.0254 71.302 76.3071C72.7264 76.0223 73.0766 76.3784 73.6761 75.1201C74.317 75.5178 76.4536 74.8293 76.9403 74.5266C77.4923 74.1824 77.0887 73.8619 77.2371 73.6364C77.2905 73.5533 78.2519 73.9094 78.1273 73.1913C75.1242 54.3595 57.7999 61.1254 58.5418 76.4555C59.0403 76.3249 59.5448 76.3724 60.0255 76.3071C60.1739 76.2893 61.1591 76.0401 61.2125 76.0104C63.1652 78.2657 61.7526 77.9393 59.7288 79.2746C58.7436 79.9275 57.9661 80.699 57.058 81.0551C55.4793 76.3131 56.2153 68.0278 57.058 62.9534C57.3429 61.2381 57.7346 59.8494 58.245 58.2054C66.0852 51.3148 74.6138 55.0005 72.7858 50.935C71.9312 49.0417 67.106 48.8993 65.367 49.3028C66.4413 44.8813 71.5038 34.0202 75.4566 32.0913C80.8337 29.4621 93.5583 30.5541 99.345 32.9816L99.1966 32.3881Z" fill="#EBA764"/>
<path d="M111.363 69.185L108.692 69.4818C106.152 64.6626 104.028 63.4934 98.8997 66.6627C102.087 60.3656 109.049 63.6655 111.363 69.185Z" fill="#D3894D"/>
<path d="M89.4038 81.9454C85.7419 81.5952 87.2256 78.9422 86.1395 78.0876C85.3086 77.4348 85.6528 78.6752 85.1009 78.3844C82.08 76.776 88.3355 75.1379 92.2229 75.7136C94.6206 76.0697 97.7543 78.3666 96.6741 79.2746C94.7156 76.9065 92.2763 76.3605 89.2554 76.6039C88.1752 77.0846 89.3682 80.6041 89.4038 81.9454Z" fill="#D3894D"/>
<path d="M111.363 69.1851C112.319 71.4641 112.77 75.3159 110.473 75.1201C111.108 75.0607 110.544 74.4257 110.176 73.6363C110.823 73.3099 109.203 70.4552 108.693 69.4818L111.363 69.1851Z" fill="#D3894D"/>
<path d="M110.176 73.6363C110.544 74.4257 111.108 75.0607 110.473 75.1201C109.903 75.0726 109.838 75.1201 109.286 74.8233C107.393 73.8144 106.467 70.1347 105.428 76.3071C105.054 76.4317 100.657 79.239 98.3064 76.1587C94.0391 70.5679 105.191 62.9415 110.176 73.6363Z" fill="#20110D"/>
<path d="M109.286 74.8233C108.984 75.5118 106.871 75.8145 105.428 76.3071C106.467 70.1347 107.393 73.8144 109.286 74.8233Z" fill="#FDFDFC"/>
<path d="M89.4038 81.9453C89.4988 85.4944 84.1395 80.5387 86.1396 78.0875C87.2257 78.9422 85.7419 81.5951 89.4038 81.9453Z" fill="#7A210B"/>
<path d="M95.1905 80.7583C97.3627 80.8473 94.9056 83.5893 91.7778 82.9839C92.2645 82.6575 94.9887 80.7524 95.1905 80.7583Z" fill="#7A210B"/>
<path d="M84.9526 92.6284C87.9557 94.2012 91.1903 94.8837 94.1519 92.9252C94.6741 92.8896 95.4991 92.4326 96.8226 92.6284C95.4338 93.6018 91.7719 104.172 80.2046 91.7382C80.6022 91.8687 84.1514 92.5275 84.9526 92.6284Z" fill="#BD4E3F"/>
<path d="M96.8225 92.6284C95.499 92.4325 94.674 92.8895 94.1518 92.9251C91.4573 93.1091 87.6529 92.9726 84.9525 92.6284C84.1513 92.5275 80.6021 91.8687 80.2045 91.7381C75.961 90.3493 76.5604 88.4026 77.3854 88.1771C78.3646 87.9041 85.1305 94.302 96.9709 91.1446C99.1787 90.557 100.651 88.9368 100.829 89.0674C101.072 89.2513 101.078 91.1446 100.829 91.4414C100.692 91.6016 98.0748 91.75 96.8225 92.6284Z" fill="#4E170E"/>
<path d="M94.1519 92.9252C91.1903 94.8837 87.9558 94.2012 84.9526 92.6284C87.6531 92.9726 91.4574 93.1092 94.1519 92.9252Z" fill="#FDFDFC"/>
<path d="M109.879 166.519C113.013 168.051 116.046 172.472 116.705 170.971C116.788 171.208 116.651 171.695 116.705 172.009C117.328 173.457 124.325 179.529 125.904 181.357C128.1 183.903 130.456 186.657 132.433 189.369C133.827 191.28 134.985 193.393 136.587 195.156C136.64 195.553 136.201 195.791 135.994 196.194C135.489 197.186 132.053 200.212 131.246 201.833C128.836 201.126 126.913 201.744 125.014 203.316C113.791 198.741 104.959 189.891 102.757 177.648C101.838 172.543 101.262 167.724 106.912 165.629C107.868 165.772 109.019 166.098 109.879 166.519Z" fill="#EBA764"/>
<path d="M105.428 163.552C105.565 164.033 105.155 164.139 105.131 164.442C101.102 163.605 97.042 165.819 94.1516 168.597C93.57 169.155 91.7776 170.454 91.7776 171.267C91.7776 172.769 95.309 173.392 82.5784 173.345C86.0622 169.374 91.8014 164.62 96.9708 163.255C99.5525 162.573 102.532 163.22 102.164 162.365C102.336 162.395 104.912 163.35 105.428 163.552Z" fill="#EBA764"/>
<path d="M109.879 166.519C109.019 166.098 107.867 165.771 106.912 165.629C106.835 165.617 107.221 165.273 105.428 165.332C105.333 165 105.09 164.982 105.131 164.442C105.155 164.139 105.565 164.032 105.428 163.552C106.918 164.139 108.865 165.243 109.879 166.519Z" fill="#3B1814"/>
<path d="M105.428 165.332C107.22 165.273 106.835 165.617 106.912 165.629C101.262 167.724 101.837 172.543 102.757 177.647C104.959 189.891 113.791 198.74 125.014 203.316C124.883 203.423 123.168 205.655 122.936 205.987C121.138 205.328 119.577 204.112 118.04 203.02C117.601 202.711 119.031 202.824 118.04 202.129C117.156 201.506 115.256 201.364 115.072 201.239C114.764 201.031 115.084 200.557 114.776 200.349C112.764 198.978 109.399 196.734 107.357 196.194C106.965 195.168 104.384 192.438 103.648 193.227C102.413 191.316 99.4753 185.577 98.8996 183.582C96.9529 176.864 98.8402 171.172 94.4483 173.345C94.3178 172.555 92.383 171.166 91.7776 171.267C91.7776 170.454 93.57 169.154 94.1516 168.597C95.0953 170.425 101.125 165.475 105.428 165.332Z" fill="#C17245"/>
<path d="M103.648 193.227C108.093 200.129 114.651 204.759 122.64 206.581C121.577 208.236 121.019 209.993 119.969 211.625C109.452 205.121 99.3447 203.281 94.3 189.369C95.0478 199.174 101.606 203.221 108.692 208.361C104.846 211.21 100.294 212.961 95.487 213.109L96.5256 213.999C88.8398 212.616 81.5931 202.491 79.0173 195.601C84.6378 190.609 93.2317 173.944 94.4484 173.345C98.8403 171.172 96.9529 176.864 98.8996 183.582C99.4753 185.577 102.413 191.316 103.648 193.227Z" fill="#A05A36"/>
<path d="M94.4484 173.345C93.2318 173.944 84.6379 190.61 79.0174 195.601C75.5217 186.241 76.0262 180.805 82.5784 173.345C95.309 173.392 91.7777 172.769 91.7777 171.267C92.3831 171.167 94.3179 172.555 94.4484 173.345Z" fill="#C17245"/>
<path d="M96.5257 213.999L95.4871 213.109C100.294 212.961 104.847 211.21 108.692 208.361C108.764 208.414 110.253 208.8 110.176 209.4C106.218 212.403 101.565 214.907 96.5257 213.999Z" fill="#774027"/>
<path d="M105.131 164.442C105.09 164.982 105.333 165 105.428 165.332C101.125 165.475 95.0953 170.425 94.1516 168.597C97.042 165.819 101.102 163.605 105.131 164.442Z" fill="#C17245"/>
<path d="M122.936 205.987C122.842 206.124 122.735 206.438 122.64 206.581C114.651 204.759 108.093 200.129 103.648 193.227C104.384 192.437 106.965 195.168 107.357 196.194C109.399 196.734 112.764 198.978 114.776 200.349C115.084 200.557 114.764 201.031 115.073 201.239C115.257 201.364 117.156 201.506 118.04 202.129C119.031 202.824 117.601 202.711 118.04 203.02C119.577 204.112 121.138 205.328 122.936 205.987Z" fill="#C17245"/>
<defs>
<linearGradient id="paint0_linear_102_133" x1="65.2303" y1="193.245" x2="100.514" y2="221.816" gradientUnits="userSpaceOnUse">
<stop stop-color="#037B4E"/>
<stop offset="1" stop-color="#006042"/>
</linearGradient>
</defs>
</svg>
