<svg width="158" height="124" viewBox="0 0 158 124" fill="none" xmlns="http://www.w3.org/2000/svg">
<path d="M58.0872 17.7234C58.1299 17.2701 58.6987 16.9152 58.7286 16.8682C58.7928 17.2103 60.4605 16.8981 60.546 16.8682C64.6171 15.38 73.1014 9.08951 79.2379 11.4201C72.5198 12.0145 66.3362 14.9994 63.1118 21.1402C61.4141 20.0497 59.8704 18.6899 58.0914 17.7234H58.0872Z" fill="#FBFCFE"/>
<path d="M55.0981 109.575C54.431 110.738 58.8356 114.899 59.2632 115.13C66.0455 118.739 86.2682 113.582 92.161 107.868C99.1828 111.118 101.62 113.282 94.4018 118.871C94.6498 119.171 94.9706 119.367 95.2571 119.62C87.085 123.067 84.0445 117.631 83.4031 117.695C76.2616 125.363 63.8945 125.179 57.3431 116.84C57.0566 116.793 54.1487 118.91 52.1089 119.402C53.7453 118.441 55.3832 117.48 57.0224 116.519C56.0046 115.493 55.1579 113.5 54.4609 112.568C54.1359 112.136 53.9264 111.64 53.4987 111.285C48.1405 113.222 39.3355 112.752 34.8069 109.575C40.0155 109.023 45.0701 107.428 49.4405 104.447C49.8211 104.49 51.4204 107.248 55.1023 109.575H55.0981Z" fill="#087D97"/>
<path d="M125.803 93.9832C123.374 99.846 119.487 102.044 115.762 106.051C115.6 106.226 113.966 109.019 113.838 109.147C110.233 112.885 108.629 110.195 108.283 110.002C107.932 109.806 107.038 108.98 106.679 108.933C103.664 108.54 100.863 115.01 99.0972 117.05C98.1522 118.14 97.0275 118.957 95.8942 119.825C95.8643 119.808 95.5094 119.838 95.2528 119.611C94.9663 119.359 94.6456 119.162 94.3975 118.863C101.612 113.278 99.1785 111.114 92.1567 107.86C86.264 113.577 66.0412 118.735 59.2589 115.121C58.8313 114.89 54.4267 110.729 55.0938 109.566C66.8451 116.994 79.7041 113.227 88.3123 103.156C99.8755 111.49 117.592 106.184 124.199 93.9704C124.717 93.9233 125.29 94.0388 125.803 93.9704V93.9832Z" fill="#016E8B"/>
<path d="M54.4566 112.564C50.5908 115.006 45.4464 115.365 40.999 116.622C37.5523 116.802 32.1898 113.051 30.7444 109.998C31.9503 110.011 33.571 109.703 34.8026 109.57C39.3313 112.748 48.1319 113.218 53.4945 111.281C53.9221 111.632 54.1316 112.128 54.4566 112.564Z" fill="#2295AE"/>
<path d="M52.1089 119.402C47.9823 120.402 43.9326 119.637 40.999 116.626C45.4464 115.369 50.5908 115.01 54.4566 112.568C55.158 113.5 56.0047 115.493 57.0182 116.519C55.3817 117.48 53.7439 118.441 52.1047 119.402H52.1089Z" fill="#087D97"/>
<path d="M136.057 92.0588C149.934 107.043 129.442 124.747 114.163 114.061C111.161 120.839 102.223 123.746 95.8984 119.829C97.0317 118.961 98.1563 118.14 99.1014 117.054C103.485 117.571 108.454 114.83 108.287 110.007C108.629 110.199 110.233 112.889 113.842 109.151C114.304 108.621 114.881 110.062 116.724 110.862C124.764 114.343 133.564 108.232 129.647 103.066C132.461 100.941 133.65 95.9417 131.995 93.1322C133.351 92.8457 134.74 92.5036 136.053 92.0631L136.057 92.0588Z" fill="#2295AE"/>
<path d="M113.842 109.147C113.97 109.014 115.599 106.226 115.766 106.051C119.487 102.044 123.378 99.846 125.807 93.9832C128.048 93.6753 129.172 93.7223 132.003 93.1279C133.654 95.9375 132.469 100.932 129.656 103.062C133.573 108.228 124.772 114.339 116.733 110.858C114.885 110.058 114.308 108.617 113.85 109.147H113.842Z" fill="#087D97"/>
<path d="M108.287 110.002C108.454 114.826 103.485 117.567 99.1016 117.05C100.872 115.01 103.669 108.54 106.683 108.933C107.043 108.98 107.932 109.806 108.287 110.002Z" fill="#087D97"/>
<path d="M136.058 92.0589C134.745 92.4994 133.355 92.8415 131.999 93.128C129.168 93.7224 128.048 93.6754 125.803 93.9833C125.294 94.0517 124.721 93.9362 124.199 93.9833C117.592 106.196 99.8755 111.503 88.3123 103.169C79.7041 113.24 66.8452 117.007 55.0938 109.579C51.4162 107.253 49.8125 104.494 49.4319 104.452C45.0615 107.432 40.0069 109.023 34.7983 109.579C33.5668 109.712 31.946 110.019 30.7401 110.007C19.271 109.891 8.25945 102.938 3.18344 92.7046C1.61403 89.5359 0.579157 86.4227 0.194288 82.8776C-1.1271 70.8141 4.30812 58.4427 15.9996 53.9311C6.80549 28.8932 34.5332 4.89447 58.083 17.7235C59.8619 18.6899 61.4057 20.0498 63.1034 21.1402C66.3277 14.9994 72.5113 12.0146 79.2294 11.4201C73.0972 9.08955 64.6129 15.38 60.5376 16.8682C60.452 16.8981 58.7843 17.2103 58.7201 16.8682C64.2238 7.72968 74.1791 3.08986 84.6732 5.97211C107.594 -10.1454 137.884 8.66619 139.893 34.9186C164.367 47.8588 163.409 82.8905 136.049 92.0589H136.058Z" fill="#FBFCFE"/>
<path d="M133.919 42.0729C135.703 43.6936 134.711 43.591 134.775 43.6765C135.322 44.3693 144.405 48.8338 147.377 52.1137C154.865 71.4171 140.727 88.9073 120.996 89.0698C114.637 103.203 98.6611 105.777 86.3923 97.1862C77.2965 110.387 59.0751 111.94 49.6501 98.2553C36.3079 107.501 17.6631 107.984 9.81177 91.6313L11.9499 81.8043C12.6641 83.8484 13.793 85.1569 15.1529 86.7178C18.1763 90.1859 21.2039 91.5586 25.7283 92.2727H95.7916C97.6518 91.9477 99.2897 91.5629 101.026 90.776C98.7765 94.4066 91.5495 96.8869 87.2475 96.7586L87.0337 97.1862L89.1719 98.4691C101.116 98.9139 114.556 91.255 115.553 78.3875C115.694 78.3832 115.839 78.3961 115.98 78.3875C123.421 77.9941 130.956 74.526 134.137 67.3845C134.959 65.5457 136.331 60.5295 134.993 61.0812C135.514 60.0934 136.28 57.7029 136.489 56.5953C137.289 52.3019 137.11 47.4739 134.565 43.7792C133.637 42.4321 132.098 41.4913 131.148 40.1486C131.576 40.4308 133.8 41.9574 133.924 42.0729H133.919Z" fill="#005A75"/>
<path d="M41.4266 20.2849C58.0401 20.9392 49.3763 20.4047 42.1749 23.4879C37.6378 25.4293 30.4022 31.0784 31.3858 36.6248C32.0657 40.4649 37.2486 37.7409 36.0855 39.7208C34.7726 40.807 28.9696 41.611 25.1894 46.6613C23.9407 48.3334 23.3249 50.4972 21.9864 52.1094C18.112 38.408 26.7759 22.3247 41.4266 20.2806V20.2849Z" fill="#5FB9CB"/>
<path d="M38.6513 37.8008C38.6342 37.865 38.6684 37.9462 38.6513 38.0146C38.4888 38.639 38.4589 39.9689 38.4375 40.6831C33.4812 43.2446 29.4444 47.29 27.0111 52.3232L21.9907 52.1094C23.3335 50.5015 23.945 48.3334 25.1937 46.6614C28.9697 41.6067 34.7727 40.8028 36.0898 39.7209C36.1154 39.6995 36.4404 39.8321 36.7312 39.4002C37.3385 31.7284 43.877 25.9939 50.5096 23.0603C51.3948 22.6669 53.2806 22.5985 53.6056 21.5636C56.7445 22.6412 61.4484 25.3695 61.7221 26.3702C62.1455 27.9097 58.455 25.7758 55.4188 25.6218C46.8148 25.1856 40.9477 29.6929 38.6513 37.7965V37.8008Z" fill="#2295AE"/>
<path d="M53.6012 21.5679C53.2719 22.6027 51.3904 22.6712 50.5052 23.0646C43.8726 26.0024 37.3383 31.7327 36.7268 39.4044C36.436 39.8363 36.1153 39.7038 36.0854 39.7252C37.2485 37.7452 32.0656 40.4692 31.3857 36.6291C30.4021 31.0827 37.6377 25.4337 42.1749 23.4922C49.3762 20.409 58.04 20.9392 41.4265 20.2892C46.169 19.6264 49.1752 20.054 53.6012 21.5721V21.5679Z" fill="#5FB9CB"/>
<path d="M11.3084 78.6013C11.3768 78.9905 11.4282 79.277 11.5222 79.6704C11.5607 79.8286 11.488 80.4829 11.9499 81.8086L9.81171 91.6355C5.34294 82.3303 6.21104 75.9585 11.3084 67.2819C10.3805 71.571 10.5472 74.3635 11.3084 78.6013Z" fill="#2295AE"/>
<path d="M115.548 78.3874C114.552 91.2549 101.111 98.9095 89.1675 98.4691L87.0293 97.1862L87.2431 96.7585C91.5451 96.8868 98.7721 94.4066 101.021 90.776C104.939 88.997 107.812 85.298 108.924 81.1628C109.125 80.423 109.249 79.7858 109.352 79.0246C109.403 78.6568 109.527 78.4131 109.566 77.7417C111.366 78.1907 113.62 78.4516 115.548 78.3831V78.3874Z" fill="#024259"/>
<path d="M115.976 78.3875C115.236 75.5096 114.607 72.6658 113.414 69.9503C113.778 69.4243 121.21 70.4421 121.958 69.4158C127.218 68.8214 132.435 65.9348 134.988 61.0855C136.327 60.5338 134.954 65.5457 134.133 67.3888C130.952 74.5303 123.417 77.9984 115.976 78.3918V78.3875Z" fill="#024259"/>
<path d="M112.773 69.6296C115.762 69.745 118.982 69.7536 121.958 69.4158C121.21 70.4421 113.778 69.4243 113.414 69.9503C114.607 72.6658 115.236 75.5095 115.976 78.3875C115.835 78.3961 115.689 78.3832 115.548 78.3875C113.62 78.4559 111.366 78.1951 109.566 77.7461C109.771 74.2523 109.446 73.2089 108.496 70.0572C108.398 69.7322 108.193 69.8477 108.496 69.4158C109.912 69.775 111.34 69.574 112.769 69.6296H112.773Z" fill="#024259"/>
<path d="M71.331 51.4723C71.6517 51.7502 72.105 52.396 72.4 52.7552C72.9431 53.4094 73.2981 54.3075 73.576 55.1029C80.756 52.7295 88.3721 56.0223 91.3057 63.0055C91.5922 62.8388 91.7889 62.1716 91.8402 62.1503C98.383 59.6401 104.806 64.4595 108.501 69.4115C108.197 69.8434 108.402 69.7279 108.501 70.0529C107.543 70.0529 106.82 67.9746 106.683 67.9148H28.3923C30.817 66.82 31.2446 67.2434 33.5197 66.7388C33.742 66.2427 31.4157 62.7062 31.3815 62.3598C31.1292 59.5802 36.1667 57.921 38.322 59.1568C39.3654 53.5762 43.894 52.2249 48.7904 54.4571C50.5608 51.4423 54.2684 49.0476 57.6553 48.4746C61.7477 47.7861 68.0767 48.6371 71.3267 51.4637L71.331 51.4723Z" fill="#5FB9CB"/>
<path d="M71.3309 51.4722C68.0809 48.6456 61.7519 47.7946 57.6595 48.4831C50.5479 45.4896 39.1729 46.6015 36.8337 55.3166C36.3548 55.5433 32.7456 54.162 30.4235 59.3749C29.9146 58.7035 28.2554 57.5874 27.5413 57.4505C30.0215 38.3653 55.1963 34.4139 67.8072 46.5544C68.6282 47.3413 71.4805 50.5143 71.3309 51.4679V51.4722Z" fill="#D9E8EF"/>
<path d="M57.6596 48.4831C54.2727 49.0518 50.5651 51.4509 48.7947 54.4657C43.9026 52.2334 39.3697 53.5847 38.3263 59.1654C36.171 57.9295 31.1335 59.593 31.3858 62.3683C31.1335 63.1167 29.5384 61.8979 27.6483 61.7269C19.8183 61.0298 13.6903 66.82 12.1594 74.2223C11.8088 75.9115 12.2107 78.5286 11.3042 78.6013C10.543 74.3592 10.3762 71.571 11.3042 67.2818C13.0275 64.344 14.7808 61.419 17.8213 59.593C20.1476 58.1946 24.9072 56.963 27.5414 57.4548C28.2598 57.5917 29.9147 58.7078 30.4236 59.3792C32.7414 54.1663 36.3506 55.5476 36.8338 55.3209C39.1773 46.6015 50.548 45.4939 57.6596 48.4874V48.4831Z" fill="#BDDBE1"/>
<path d="M86.713 53.6104C89.2189 55.9795 91.0578 58.772 91.8403 62.1545C91.789 62.1716 91.5923 62.8387 91.3058 63.0098C88.3722 56.0265 80.7561 52.7338 73.5761 55.1071C73.3025 54.3075 72.9432 53.4137 72.4001 52.7594C73.2939 52.6996 73.2041 51.9384 73.2554 51.9042C73.8071 51.5107 76.4755 50.8907 77.2067 50.8351C82.488 50.4288 84.5107 52.644 86.713 53.6104Z" fill="#93CFDF"/>
<path d="M108.928 81.1628C107.817 85.298 104.943 88.997 101.026 90.776C99.2939 91.5628 97.6518 91.9477 95.7916 92.2727H25.7282C21.2081 91.5586 18.1805 90.1859 15.1528 86.7177C15.8969 87.0214 15.0887 85.4348 15.1528 85.3279C15.3453 85.02 15.9696 85.3921 17.3936 84.3658C18.2232 84.2888 21.7598 87.8339 29.1407 83.7243C45.5918 83.8868 62.0385 83.6003 78.4853 83.5105C78.6606 83.5105 80.6619 83.9381 80.833 83.9381C84.3182 83.921 92.0797 84.0621 93.863 83.9381C94.0597 83.9253 93.8801 83.3138 94.0768 83.2967C98.1607 82.9631 101.586 83.8483 106.251 80.949C108.163 81.9368 108.693 79.2213 108.92 81.1628H108.928Z" fill="#2295AE"/>
<path d="M109.356 79.0289C109.254 79.7858 109.13 80.423 108.929 81.1671C108.698 79.2256 108.167 81.9411 106.26 80.9533C101.595 83.8569 98.1693 82.9717 94.0854 83.301C93.8887 83.3181 94.0683 83.9296 93.8716 83.9424C92.0884 84.0664 84.3268 83.9253 80.8416 83.9424C80.6663 83.9424 78.665 83.5148 78.4939 83.5148C62.0471 83.6046 45.6004 83.8911 29.1493 83.7286C21.7684 87.8382 18.2276 84.2931 17.4023 84.3701C15.9782 85.3964 15.3539 85.0243 15.1615 85.3322C15.0973 85.4349 15.9055 87.0214 15.1615 86.722C13.8016 85.1612 12.6726 83.8526 11.9585 81.8085C17.7187 82.1678 23.5345 81.7872 28.9398 79.6704C55.7438 79.2385 82.5564 79.4566 109.365 79.0289H109.356Z" fill="#2295AE"/>
<path d="M108.501 70.0572C109.446 73.2089 109.775 74.2523 109.57 77.7461C109.531 78.4132 109.407 78.6612 109.356 79.029C82.5478 79.4566 55.7352 79.2385 28.9312 79.6704C23.5259 81.7872 17.7058 82.1678 11.9498 81.8086C11.488 80.4872 11.5607 79.8329 11.5222 79.6704C15.2726 78.6355 19.2795 79.4994 23.1624 79.2428C24.1844 78.7895 21.4476 71.0579 28.3966 67.9233H106.688C106.825 67.9832 107.547 70.0572 108.505 70.0615L108.501 70.0572Z" fill="#37A6BE"/>
<path d="M31.3857 62.3683C31.4156 62.7147 33.742 66.2512 33.5239 66.7473C31.2489 67.2519 30.8212 66.8285 28.3966 67.9233C21.4518 71.0578 24.1844 78.7894 23.1623 79.2427C19.2794 79.4993 15.2725 78.6355 11.5222 79.6704C11.4281 79.2769 11.3768 78.9904 11.3083 78.6013C12.2149 78.5286 11.813 75.9115 12.1636 74.2223C13.6903 66.82 19.8182 61.0298 27.6525 61.7269C29.5469 61.8937 31.1377 63.1167 31.39 62.3683H31.3857Z" fill="#5FB9CB"/>
<path d="M101.453 26.2675C100.478 26.0922 95.9755 25.4165 95.6847 25.4122C86.6831 16.1369 70.3175 19.6991 65.8873 31.8225C65.6008 31.8738 63.8517 29.6159 60.9738 28.8333L56.381 35.2435C55.9576 35.4274 55.5001 35.6241 55.3119 36.0988C55.2435 36.0902 55.1665 36.1073 55.0981 36.0988C51.476 35.6412 47.5418 34.7988 45.2711 38.4465C41.5806 39.0623 38.4674 42.3294 38.6471 38.0189C38.6642 37.9504 38.6299 37.8692 38.6471 37.805C39.4339 37.8991 39.3698 35.7439 39.93 34.709C40.1224 34.354 40.4431 34.9271 40.5714 34.709C40.9819 33.9991 41.3112 32.8146 41.8543 32.1475C46.8405 25.9767 54.2813 25.8527 61.4014 27.7685C68.2692 9.2135 93.213 9.17502 101.453 26.2718V26.2675Z" fill="#FBEBD8"/>
<path d="M95.6848 25.4122C94.9964 25.3993 89.125 26.075 88.1029 26.2674C75.9624 28.5424 69.8259 36.7188 68.6627 37.1635C68.1496 37.3602 65.0706 37.5184 63.7492 37.805C62.3722 34.525 59.567 33.8451 56.3811 35.2434L60.9739 28.8332C63.8519 29.6158 65.6009 31.8737 65.8874 31.8224C70.3177 19.699 86.6832 16.1368 95.6848 25.4122Z" fill="#FBEBD8"/>
<path d="M101.453 26.2674C101.496 26.276 101.894 26.3957 102.309 26.4813C109.279 27.9181 117.199 31.3606 119.29 38.8698C119.786 39.1691 123.618 37.7708 130.4 41.4313C132.021 42.308 133.41 44.4418 134.565 43.779C137.105 47.4738 137.289 52.306 136.489 56.5952C136.186 56.6208 136.267 56.2017 136.276 55.7399C136.331 52.2547 134.522 49.1928 131.469 47.4096C127.74 45.2287 125.846 46.0455 121.856 46.3405C118.858 46.0155 118.127 41.6836 109.04 44.8438C103.087 42.8553 100.863 40.0244 95.1543 43.7747C91.1389 41.4698 89.2658 41.0721 85.3273 43.7747C80.1059 40.251 81.3589 41.4484 78.8102 42.4918C77.9849 42.8297 77.0612 43.283 76.2487 43.5609C75.4191 42.7484 75.3464 40.8711 74.4312 40.1441C73.221 39.1777 72.3102 39.9132 72.1904 39.9303C69.2996 40.3537 66.3618 41.1106 63.4325 41.427C62.9835 41.179 62.0299 40.6145 61.9358 40.5718C62.4917 40.3237 60.6786 38.0402 60.1184 37.5826C57.5611 35.4787 55.5683 36.1244 55.3118 36.0859C55.4999 35.6112 55.9575 35.4188 56.3808 35.2306C59.571 33.8323 62.372 34.5165 63.749 37.7922C65.0703 37.5056 68.1493 37.3474 68.6625 37.1507C69.8256 36.7102 75.9622 28.5296 88.1027 26.2546C89.129 26.0622 94.9961 25.3865 95.6846 25.3994C95.9754 25.4036 100.478 26.0793 101.453 26.2546V26.2674Z" fill="#F4CD93"/>
<path d="M76.2445 43.5695C77.0613 43.2915 77.985 42.8382 78.806 42.5004C83.061 49.026 83.4758 45.3313 85.1093 45.4895C85.4899 45.528 87.6409 47.7688 87.8847 47.8372C90.0186 48.4445 91.6778 45.0149 94.7182 52.9645C95.1245 53.1356 99.589 50.8435 103.262 52.3231C107.372 49.056 110.045 51.532 113.945 52.1093C116.224 52.4471 118.619 52.3616 120.885 52.7507C117.468 54.5211 113.761 55.7527 110.31 57.4504C109.681 57.7583 107.804 58.6692 107.855 59.1609C103.228 54.9402 97.0232 54.1662 91.0876 55.7442C88.4235 53.6145 86.9353 53.7086 86.7087 53.606C84.5064 52.6395 82.4837 50.4244 77.2024 50.8307C76.4712 50.8862 73.8027 51.5063 73.2511 51.8997C72.4514 47.9612 66.7511 43.2744 63.4241 41.4313C66.3534 41.1148 69.2912 40.3622 72.182 39.9346L75.0642 44.2066C75.3721 44.0014 75.9195 43.6764 76.2402 43.5652L76.2445 43.5695Z" fill="#E1A27A"/>
<path d="M119.82 34.5977C120.517 35.7737 120.671 36.8856 120.782 36.9454C124.747 36.5563 127.945 38.0359 131.144 40.1484C132.093 41.4912 133.633 42.432 134.561 43.779C133.406 44.4418 132.016 42.3037 130.396 41.4313C123.613 37.7665 119.786 39.1649 119.286 38.8698C117.195 31.3563 109.275 27.9181 102.304 26.4813C102.681 24.6424 105.499 25.8826 107.004 25.1984C112.995 26.0921 116.84 29.5602 119.82 34.5977Z" fill="#F9E5B9"/>
<path d="M61.9317 40.576C59.6823 39.5454 55.406 38.4293 52.96 38.2283C53.8195 37.8691 54.7004 37.0609 55.0981 36.0902C55.1665 36.0987 55.2435 36.0816 55.3119 36.0902C55.5685 36.1244 57.5613 35.4829 60.1185 37.5869C60.6787 38.0444 62.4919 40.328 61.936 40.576H61.9317Z" fill="#E1A27A"/>
<path d="M55.098 36.0901C54.7046 37.0609 53.8194 37.8648 52.9598 38.2283C51.2065 38.0829 46.9901 38.1556 45.271 38.4421C47.5417 34.7944 51.4759 35.6368 55.098 36.0944V36.0901Z" fill="#F0BC87"/>
<path d="M136.271 55.7442C136.263 56.206 136.181 56.6251 136.485 56.5994C136.28 57.707 135.51 60.0975 134.988 61.0853C132.435 65.9347 127.218 68.8212 121.958 69.4156C118.982 69.7534 115.762 69.7449 112.773 69.6294C112.619 65.5669 110.84 61.8764 107.859 59.161C107.812 58.6692 109.69 57.7626 110.314 57.4504C113.761 55.7527 117.472 54.5211 120.889 52.7507C122.98 53.1099 124.327 54.008 126.765 53.8198C129.083 55.1455 127.334 56.3984 130.182 55.7442C130.823 55.5988 133.398 53.2938 136.271 55.7442Z" fill="#E1A27A"/>
<path d="M107.859 59.1609C110.836 61.8764 112.615 65.5668 112.773 69.6294C111.345 69.5738 109.916 69.7748 108.501 69.4155C104.806 64.4636 98.3787 59.6441 91.8402 62.1543C91.0577 58.7718 89.2188 55.9793 86.7129 53.6102C86.9395 53.7086 88.4277 53.6188 91.0919 55.7484C97.0317 54.1704 103.232 54.9487 107.859 59.1652V59.1609Z" fill="#9E7244"/>
<path d="M136.271 55.7441C133.402 53.2938 130.823 55.5987 130.182 55.7441C127.334 56.3984 129.079 55.1497 126.765 53.8198C124.328 54.0079 122.981 53.1099 120.889 52.7507C118.623 52.3615 116.228 52.4471 113.949 52.1092C110.049 51.5319 107.376 49.0559 103.267 52.3231C99.589 50.8434 95.1288 53.1313 94.7225 52.9645C91.6778 45.0148 90.0228 48.4444 87.8889 47.8372C87.6452 47.7688 85.4899 45.5237 85.1136 45.4895C83.4801 45.3313 83.0695 49.026 78.8103 42.5003C81.3547 41.4569 80.106 40.2595 85.3274 43.7832C89.2659 41.0806 91.139 41.4783 95.1544 43.7832C100.863 40.0329 103.087 42.8638 109.04 44.8523C118.131 41.6921 118.858 46.024 121.856 46.349C125.846 46.0497 127.736 45.2329 131.469 47.4181C134.522 49.2013 136.331 52.2632 136.276 55.7484L136.271 55.7441Z" fill="#F0BC87"/>
<path d="M76.2445 43.5694C75.9238 43.6764 75.3764 44.0056 75.0685 44.2109L72.1863 39.9388C72.3103 39.9217 73.2169 39.1862 74.4271 40.1527C75.3379 40.8796 75.4149 42.7569 76.2445 43.5694Z" fill="#F0BC87"/>
<path d="M131.999 29.6843C127.539 26.6994 120.765 22.9277 116.194 27.5462H115.98C115.227 25.1215 111.755 21.0803 109.463 20.285C105.721 18.9849 104.156 21.2172 101.988 19.6435L101.667 19.9642C101.86 20.2935 102.133 20.5928 102.309 20.9264C100.705 21.3113 100.572 20.0797 98.2504 17.9372C95.3639 15.2731 92.6954 12.5234 88.5303 12.1685V11.7408C105.127 3.04707 127.612 10.5264 131.999 29.6843Z" fill="#5FB9CB"/>
<path d="M102.304 20.9264C102.95 22.158 104.006 23.2485 104.545 24.557C106.615 21.8672 112.82 25.887 115.441 27.76L115.976 27.5462H116.19C115.599 29.6416 120.483 27.5419 126.337 30.5353C126.825 30.7834 129.267 32.4768 129.754 32.883C131.345 34.2172 132.234 35.9705 132.85 35.8722C132.91 36.2057 132.726 36.6719 132.957 36.9413C139.62 39.8021 144.773 45.3956 147.377 52.1094C144.405 48.8295 135.322 44.365 134.775 43.6722C134.71 43.591 135.702 43.6936 133.919 42.0686C129.994 36.2186 125.888 36.1544 119.82 34.5936C116.84 29.5561 112.995 26.0879 107.004 25.1942C105.896 25.0274 104.092 25.3139 102.839 25.1942C101.689 22.5129 99.9395 20.2764 98.2461 17.933C100.572 20.0797 100.701 21.307 102.304 20.9221V20.9264Z" fill="#087D97"/>
<path d="M131.999 29.6843C132.829 33.2978 132.701 35.034 132.855 35.8807C132.239 35.9791 131.349 34.2215 129.758 32.8916C129.271 32.4853 126.829 30.7919 126.342 30.5439C120.487 27.5462 115.604 29.6501 116.194 27.5547C120.765 22.9363 127.539 26.708 131.999 29.6929V29.6843Z" fill="#37A6BE"/>
<path d="M133.919 42.0729C133.795 41.9575 131.567 40.4308 131.144 40.1486C127.95 38.0318 124.747 36.5565 120.782 36.9456C120.671 36.8857 120.517 35.7739 119.82 34.5979C125.888 36.163 129.994 36.2229 133.919 42.0729Z" fill="#087D97"/>
<path d="M115.976 27.5462L115.441 27.76C112.82 25.887 106.619 21.8672 104.545 24.5571C104.006 23.2442 102.946 22.1538 102.304 20.9265C102.129 20.5929 101.855 20.2936 101.663 19.9643L101.984 19.6436C104.152 21.2172 105.721 18.985 109.459 20.285C111.751 21.0804 115.223 25.1215 115.976 27.5462Z" fill="#2295AE"/>
</svg>
