<svg width="152" height="122" viewBox="0 0 152 122" fill="none" xmlns="http://www.w3.org/2000/svg">
<g clip-path="url(#clip0_102_88)">
<path d="M59.9798 30.3191C61.4925 34.6286 65.0348 36.359 68.958 37.937C68.9907 37.9478 68.8492 38.3886 69.094 38.4811C70.8951 39.1558 75.5311 40.1733 77.3921 40.1135C82.4471 49.8208 93.9663 42.1975 102.286 41.7459C104.256 51.9756 114.545 56.7367 118.202 50.9961L120.651 54.533C119.943 57.1666 121.189 60.5511 121.467 63.2391C122.615 74.3558 123.959 80.7983 126.364 91.5286C124.519 93.8575 122.484 95.9687 120.379 98.0582C115.182 93.5256 87.5782 79.6121 83.1109 86.7674C80.6677 90.6798 84.0958 93.2535 84.7433 94.2493C84.9174 94.5213 85.5214 95.1471 85.8316 95.3375C85.9894 95.8599 86.3975 96.2354 86.6478 96.6979C86.1744 97.057 87.0994 98.118 86.6478 100.507C85.418 106.982 76.0535 109.289 70.5958 106.22C70.1061 105.948 68.2506 104.087 67.8752 103.5C63.6854 96.9863 72.0976 92.421 71.6841 87.5836C70.7863 77.0656 33.8941 89.0474 27.6148 91.5286C27.5876 91.4796 27.6747 91.2293 27.3427 91.2565C29.775 85.0589 38.6879 64.0717 34.6885 58.75C31.9842 55.1533 26.3959 57.7488 22.9897 58.3419C13.9299 59.9145 14.7787 61.117 6.93776 55.6213C6.49701 54.2718 5.23462 53.7277 5.03329 52.0844C4.86461 50.7186 5.70802 47.3124 6.39362 46.099C6.98129 45.0597 9.4843 42.9484 10.6107 42.5621C20.0405 39.3136 25.7702 51.2628 33.0561 48.2755C34.6123 47.6388 34.09 47.4974 34.1444 47.4593C34.3566 47.3178 35.4666 46.8499 35.6408 46.6431C40.7665 40.6467 34.596 20.4268 32.2399 13.1844C33.7363 13.1735 39.8687 10.6922 41.8983 10.1916C50.2616 8.12393 58.946 7.04655 67.0644 4.20618C66.6672 4.57619 61.1606 11.6173 60.8069 12.2321C57.7706 17.5483 56.764 25.0301 59.9907 30.3245L59.9798 30.3191Z" fill="#FF6462"/>
<path d="M4.48357 51.5402C4.10267 54.6581 1.012 61.6937 7.88439 66.5039C16.6776 72.6526 24.7906 63.7125 28.0173 64.3273C31.5378 64.9966 28.8444 72.6199 28.4254 74.6659L23.9363 70.5849C17.9672 71.8527 11.1982 73.7953 5.29976 71.129C-3.92873 66.9555 0.952144 53.3685 4.6196 46.9151C4.44548 48.4223 4.66313 50.0602 4.48357 51.5402Z" fill="#24554B"/>
<path d="M119.551 34.4H120.368C120.427 36.0216 120.944 38.9109 121.728 40.3855C122.822 42.4423 125.058 43.215 126.625 44.7386C124.459 45.1793 122.403 44.978 120.232 45.0106C119.453 46.8661 119.258 49.3202 118.191 50.9961C114.534 56.7421 104.245 51.9755 102.275 41.7458C93.9608 42.1975 82.4415 49.8208 77.3811 40.1134C79.9821 40.0264 82.6755 38.8674 84.999 37.9369C87.1102 37.0881 89.1344 36.3099 90.7124 34.5361C95.5225 29.1328 94.0588 17.7441 90.9844 11.8185C90.277 10.4528 87.3061 6.22485 86.3593 5.28894C91.4034 6.71457 94.5485 18.1087 94.7934 23.1093C95.0219 27.729 91.6864 37.654 98.7383 39.0252C104.229 40.0917 108.549 34.0572 114.518 34.9442C115.628 35.1074 118.697 37.556 119.551 34.4Z" fill="#F2CD20"/>
<path d="M67.8641 103.5L65.6876 101.187C65.4155 102.999 64.7898 105.056 65.1435 106.9C65.1925 107.156 67.0153 110.084 67.0479 111.253C73.3544 115.596 82.7897 114.676 87.0448 107.853C87.8719 107.934 86.2776 110.089 86.9088 110.845C86.0001 113.011 84.6343 114.562 83.0999 116.287C83.6549 114.382 82.3816 116.406 81.0594 116.831C73.583 119.247 64.9694 115.345 62.6949 107.58C62.7547 106.133 62.6514 104.675 62.6949 103.227C63.5981 93.1827 72.3641 91.5395 61.7426 90.4403C52.4217 89.4772 39.5203 93.5201 30.3244 95.8816C28.4308 93.6289 28.7845 93.5147 27.6038 91.5286C33.8831 89.0473 70.7753 77.0655 71.6731 87.5836C72.0866 92.421 63.6743 96.9862 67.8641 103.5Z" fill="#210F0A"/>
<path d="M120.367 98.0582C118.071 100.338 115.122 102.662 113.022 104.86C106.068 99.5981 93.5472 88.7154 84.7322 94.2492C84.0847 93.2535 80.6567 90.6797 83.0998 86.7674C87.5726 79.6121 115.176 93.5255 120.367 98.0582Z" fill="#210F0A"/>
<path d="M67.8643 3.38993C67.8153 3.41714 67.2113 4.05377 67.0481 4.20613C58.9351 7.0465 50.2507 8.12389 41.882 10.1916C39.8523 10.6922 33.72 13.1734 32.2236 13.1843C30.4606 13.1952 30.7817 11.9818 29.5029 11.0078C29.5574 10.8446 29.0894 10.6323 29.2309 10.0556C37.8608 5.20734 54.816 0.239404 64.4635 1.48547C65.1708 1.57797 68.909 2.4377 67.8643 3.38993Z" fill="#3699A5"/>
<path d="M86.909 110.845C86.2778 110.089 87.8721 107.934 87.045 107.853C82.7899 114.676 73.3601 115.596 67.0481 111.253C67.0155 110.083 65.1926 107.156 65.1437 106.9C64.79 105.056 65.4157 102.999 65.6878 101.187L67.8643 103.499C68.2398 104.087 70.0953 105.943 70.585 106.22C73.1479 111.417 79.9659 111.264 84.0523 107.853C86.7566 105.594 88.3673 99.413 86.6369 100.507C87.0885 98.118 86.1635 97.0569 86.6369 96.6978C89.0746 101.22 88.8515 106.198 86.909 110.845Z" fill="#3699A5"/>
<path d="M32.229 40.9296C32.6806 43.1116 32.365 45.7343 34.1334 47.4592C34.079 47.4973 34.6014 47.6388 33.0452 48.2754C31.7991 48.1448 29.4757 49.1678 28.6921 47.8673C27.914 46.5669 24.9485 24.7145 26.7876 17.8094L27.6038 18.2175C28.79 25.8572 30.6673 33.3662 32.229 40.9351V40.9296Z" fill="#088486"/>
<path d="M6.92676 55.6213C14.7677 61.117 13.9189 59.9145 22.9787 58.3419C20.1057 60.1049 22.2713 66.2155 14.4086 65.1436C10.5888 64.6212 4.92979 59.0983 5.29436 54.9411C5.46848 54.3806 6.37174 55.2349 6.92676 55.6213Z" fill="#FED52F"/>
<path d="M127.665 92.9107C123.981 96.4802 119.127 99.1301 114.975 102.324C114.633 101.323 117.886 98.7111 119.154 97.6827C120.395 96.6706 122.136 95.5987 123.491 94.5431C124.737 93.5799 125.934 92.6059 127.022 91.5286C127.061 91.6646 127.49 92.2033 127.665 92.9107Z" fill="#F2CD20"/>
<path d="M25.1553 95.7456C26.1891 94.4234 26.7278 92.791 27.3318 91.2565C27.6637 91.2293 27.5767 91.4796 27.6039 91.5286C28.7846 93.5147 28.4255 93.6289 30.3245 95.8816" fill="#F7C649"/>
<path d="M70.585 106.22C76.0426 109.289 85.4017 106.982 86.6369 100.507C88.3672 99.4076 86.7566 105.589 84.0522 107.853C79.9713 111.264 73.1478 111.417 70.585 106.22Z" fill="#FED52F"/>
<path d="M127.986 8.55924C126.647 6.20859 124.356 13.3041 123.36 16.5852C121.918 21.3355 120.194 29.5301 120.368 34.4055H119.551C119.677 33.943 119.611 28.4092 120.096 25.5634C120.944 20.5682 122.582 15.72 123.496 10.7358C111.226 7.70495 98.733 5.5393 86.0928 5.02238C86.0329 4.96796 85.652 4.82105 85.5486 4.75031C85.516 4.51633 85.6085 4.21706 85.5486 4.07015C85.3745 3.62396 79.0354 1.05565 89.2215 0.125184C97.9603 -0.66925 119.78 2.44319 127.305 6.92684C127.616 7.11185 127.588 6.15962 128.53 7.60701C128.426 7.78113 127.991 8.50483 127.986 8.55924Z" fill="#F4D038"/>
<path d="M125.417 97.0515C121.829 99.5618 118.242 102.072 114.654 104.582C114.366 104.555 113.337 104.658 113.207 104.517C113.158 104.463 113.648 103.973 113.691 103.2C114.224 103.173 114.638 102.58 114.975 102.324C119.127 99.1301 123.981 96.4802 127.664 92.9106C127.757 93.2752 127.893 93.6126 127.985 93.9771C127.354 95.1362 126.331 96.0448 125.417 97.0515Z" fill="#171B19"/>
<path d="M32.2289 13.1844C34.5849 20.4322 40.7554 40.6522 35.6297 46.6431C35.4556 46.8498 34.3455 47.3178 34.1333 47.4593C32.3649 45.7344 32.6805 43.1117 32.2289 40.9297C35.1998 54.0433 34.6774 41.2562 34.1333 36.4406C33.9592 34.8898 30.1394 16.5036 29.7803 15.4915C29.7422 15.3826 28.6593 13.4238 28.4199 14.2672C28.8498 13.1735 29.1491 12.1124 29.5082 11.0024C30.7869 11.9764 30.4659 13.1898 32.2289 13.1789V13.1844Z" fill="#15110E"/>
<path d="M32.2289 40.9297C30.6673 33.3662 28.79 25.8517 27.6038 18.2121L26.7876 17.804C27.5494 14.9473 28.3493 14.4467 28.42 14.2672C28.6594 13.4238 29.7422 15.3826 29.7803 15.4915C30.1395 16.4981 33.9593 34.8898 34.1334 36.4406C34.6775 41.2507 35.1999 54.0433 32.2289 40.9297Z" fill="#31130D"/>
<path d="M127.986 8.55921C127.012 15.5622 121.445 29.9436 121.728 40.3855C120.944 38.9109 120.428 36.0216 120.368 34.4001C120.194 29.5301 121.918 21.33 123.36 16.5797C124.356 13.2986 126.647 6.20856 127.986 8.55377V8.55921Z" fill="#242325"/>
<path d="M90.9897 11.824C94.0641 17.7496 95.5278 29.1329 90.7177 34.5416C89.1397 36.3154 87.1155 37.0935 85.0043 37.9424C82.1911 31.5107 85.445 28.752 85.8205 27.6039L90.8537 27.3318C91.6862 22.1571 88.9438 16.8844 85.0043 13.7285C84.5037 12.4226 84.1826 13.0211 83.916 10.4637C87.0284 12.2104 90.8319 16.7811 92.4861 20.2581C93.1771 20.7587 92.4262 16.0302 92.3501 15.769C92.2848 15.5241 89.8253 11.5411 90.9897 11.824Z" fill="#15110E"/>
<path d="M85.5485 4.75031C85.6519 4.82105 86.0328 4.96797 86.0926 5.02238C86.1362 5.06047 86.2776 5.20738 86.3647 5.29445C87.3115 6.23035 90.277 10.4528 90.9898 11.824C89.8254 11.5411 92.2849 15.5241 92.3502 15.769C92.4263 16.0302 93.1772 20.7587 92.4862 20.2581C90.832 16.7811 87.0285 12.2104 83.9161 10.4637C83.7093 8.51571 84.0685 6.09432 83.9161 4.07015L84.3242 3.66205C84.6996 4.08103 85.086 4.42383 85.5485 4.75031Z" fill="#3699A5"/>
<path d="M85.8206 27.5985C88.5304 19.3004 87.1156 19.2351 85.0044 13.7231C88.9385 16.8791 91.6863 22.1463 90.8538 27.3264L85.8206 27.5985Z" fill="#24554B"/>
<path d="M83.1001 116.287C74.4375 126.016 63.027 122.408 62.151 112.342C61.9932 110.541 62.6244 109.191 62.6951 107.581C64.9696 115.34 73.5777 119.247 81.0596 116.831C82.3818 116.406 83.6551 114.382 83.1001 116.287Z" fill="#366758"/>
<path d="M22.9786 94.1132C22.9786 93.1011 26.744 82.866 28.4199 74.6604C28.8389 72.6145 31.5324 64.9966 28.0118 64.3219C24.7906 63.707 16.6721 72.6471 7.87893 66.4984C1.00654 61.6883 4.09721 54.6527 4.4781 51.5348L5.02224 52.0789C5.22357 53.7222 6.48595 54.2663 6.9267 55.6158C6.37169 55.2295 5.46842 54.3752 5.2943 54.9356C4.92429 59.0928 10.5887 64.6157 14.4085 65.1381C22.2712 66.2155 20.1056 60.0994 22.9786 58.3364C26.3849 57.7433 31.9731 55.1478 34.6775 58.7445C38.6768 64.0662 29.764 85.0534 27.3317 91.251C26.7277 92.7855 26.189 94.4179 25.1551 95.7401" fill="#15110E"/>
<path d="M28.284 58.8861C32.4194 58.0699 34.4381 60.6545 33.4532 64.5995C32.6642 65.2633 31.2223 61.6176 29.9164 61.3347C28.0445 60.932 24.9974 63.0868 24.339 62.2869C24.1431 61.2095 27.7453 58.9949 28.284 58.8861Z" fill="#FED52F"/>
<path d="M119.551 34.4001C118.697 37.556 115.634 35.1074 114.518 34.9442C108.549 34.0573 104.229 40.0917 98.7382 39.0252C91.6863 37.654 95.0218 27.729 94.7933 23.1093C94.5484 18.1142 91.4033 6.7146 86.3592 5.28897C86.2722 5.20191 86.1307 5.055 86.0872 5.01691C98.7274 5.53383 111.221 7.69948 123.491 10.7303C122.577 15.7091 120.939 20.5628 120.09 25.5579C119.606 28.3983 119.671 33.9376 119.546 34.4001H119.551Z" fill="#FF6462"/>
<path d="M65.1436 15.633C67.1514 12.7654 69.5565 11.4595 69.4966 11.1439C69.1593 9.44073 61.7155 15.0181 60.2464 18.4897C58.8643 21.7599 58.8044 26.9945 59.9743 30.3245C56.7476 25.0356 57.7542 17.5483 60.7905 12.2321C61.1387 11.6173 66.6508 4.57618 67.048 4.20617C67.2113 4.05382 67.8152 3.41718 67.8642 3.38997C67.9132 3.36277 68.9307 2.92746 68.9525 2.98187C69.2246 5.88392 69.4966 8.78596 69.7687 11.688L65.1436 15.633Z" fill="#3699A5"/>
<path d="M65.1437 15.633C56.1328 28.5126 75.5312 26.347 68.9526 37.9424C65.0294 36.3645 61.4871 34.6396 59.9744 30.3246C58.8045 26.9999 58.8644 21.7599 60.2465 18.4897C61.7102 15.0181 69.1594 9.44077 69.4967 11.1439C69.5566 11.4595 67.1515 12.7654 65.1437 15.633Z" fill="#15110E"/>
<path d="M63.6472 26.7823L67.4562 35.7605C64.7029 33.7472 61.4653 30.2212 63.6472 26.7823Z" fill="#3699A5"/>
<path d="M151.111 49.3637C149.348 54.1739 142.938 56.6279 138.188 56.4374C134.853 56.3014 131.31 54.4187 128.258 53.9888C127.474 53.6515 121.995 49.4889 120.64 54.533L118.191 50.9961C119.258 49.3202 119.454 46.8661 120.232 45.0107C122.403 44.978 124.46 45.1793 126.625 44.7386C129.27 44.1999 149.239 32.3324 151.111 49.3637Z" fill="#FF6462"/>
<path d="M128.258 53.9888C128.203 53.9834 128.236 54.62 127.305 54.533C126.941 54.5003 125.112 52.8625 124.721 53.7168C118.567 52.4489 126.647 59.5009 130.57 61.6067C130.848 61.7536 131.087 61.3183 131.114 61.3346C131.229 61.389 131.903 62.5372 133.019 62.967C133.258 63.0595 136.931 63.7506 138.052 64.0553C142.209 64.3219 144.26 63.0867 147.846 61.4707C144.271 66.4005 137.132 66.5148 131.794 64.5994C125.194 62.227 126.027 57.6835 122.544 62.695C122.174 62.8528 121.826 63.0813 121.456 63.2391C121.178 60.5511 119.932 57.1666 120.64 54.533C121.995 49.4889 127.474 53.6515 128.258 53.9888Z" fill="#210F0A"/>
<path d="M131.794 64.5994C136.251 67.4126 141.42 66.1393 145.942 64.3274C140.909 69.2572 134.2 71.3956 128.122 66.776C124.547 64.0607 125.281 61.5414 122.544 62.695C126.027 57.6835 125.194 62.227 131.794 64.5994Z" fill="#24554B"/>
<path d="M145.942 64.3273C141.42 66.1393 136.251 67.4126 131.794 64.5994C137.127 66.5148 144.271 66.4005 147.846 61.4706C144.26 63.0867 142.215 64.3219 138.052 64.0553C141.496 63.8159 147.917 61.8624 149.479 58.4779C151.753 53.5481 147.188 57.9066 143.085 58.6139C134.782 60.045 126.903 54.1684 124.721 53.7168C125.112 52.8625 126.941 54.5003 127.305 54.533C128.236 54.62 128.203 53.9834 128.258 53.9888C137.007 57.7379 143.608 59.675 151.111 51.5402C150.975 57.3624 150.11 60.2463 145.942 64.3273Z" fill="#FED52F"/>
<path d="M151.111 51.5402C143.613 59.675 137.007 57.7379 128.258 53.9888C131.31 54.4187 134.852 56.3014 138.188 56.4374C142.938 56.6279 149.348 54.1738 151.111 49.3637C151.225 50.4139 151.133 50.6207 151.111 51.5402Z" fill="#F7C649"/>
<path d="M124.721 53.7168C126.903 54.163 134.776 60.0451 143.085 58.614C147.188 57.9066 151.753 53.5481 149.479 58.4779C147.917 61.8625 141.496 63.8159 138.052 64.0553C136.931 63.7506 133.258 63.0595 133.019 62.967C131.903 62.5372 131.228 61.3891 131.114 61.3346C131.087 61.3183 130.848 61.7536 130.57 61.6067C126.647 59.5009 118.566 52.4544 124.721 53.7168Z" fill="#3699A5"/>
</g>
<defs>
<clipPath id="clip0_102_88">
<rect width="151.166" height="122" fill="white"/>
</clipPath>
</defs>
</svg>
